<svg width="40" height="50" viewBox="0 0 40 50" fill="none" xmlns="http://www.w3.org/2000/svg">
<path d="M21.1765 3.94737C21.1765 3.21053 20.6588 2.63158 20 2.63158C19.3412 2.63158 18.8235 3.21053 18.8235 3.94737V7.97368C13.5294 8.63158 9.41177 13.6316 9.41177 19.7368V35.2895L5.67059 39.4737H34.3294L30.5882 35.2895V19.7368C30.5882 13.6316 26.4706 8.63158 21.1765 7.97368V3.94737ZM20 0C21.9529 0 23.5294 1.76316 23.5294 3.94737V5.81579C28.9647 7.52632 32.9412 13.1579 32.9412 19.7368V34.2105L40 42.1053H0L7.05882 34.2105V19.7368C7.05882 13.1579 11.0353 7.52632 16.4706 5.81579V3.94737C16.4706 1.76316 18.0471 0 20 0ZM20 50C17.1529 50 14.7765 47.7368 14.2353 44.7368H16.6824C17.1529 46.2632 18.4706 47.3684 20 47.3684C21.5294 47.3684 22.8471 46.2632 23.3176 44.7368H25.7647C25.2235 47.7368 22.8471 50 20 50Z" fill="#848484"/>
</svg>
