<svg width="36" height="36" viewBox="0 0 36 36" fill="none" xmlns="http://www.w3.org/2000/svg">
<path d="M36 18C36 8.05887 27.9411 0 18 0C8.05887 0 0 8.05887 0 18C0 27.9411 8.05887 36 18 36C27.9411 36 36 27.9411 36 18Z" fill="#D5F6FB"/>
<path d="M35.5 18C35.5 8.33502 27.665 0.5 18 0.5C8.33502 0.5 0.5 8.33502 0.5 18C0.5 27.665 8.33502 35.5 18 35.5C27.665 35.5 35.5 27.665 35.5 18Z" stroke="#2E96D5"/>
<path d="M9.00005 23.4601V26.5001C9.00005 26.6327 9.05272 26.7598 9.14649 26.8536C9.24026 26.9474 9.36744 27.0001 9.50005 27.0001H12.54C12.6056 27.0009 12.6707 26.988 12.731 26.9622C12.7912 26.9363 12.8454 26.8981 12.89 26.8501L23.81 15.9401L20.06 12.1901L9.15005 23.1001C9.10178 23.1466 9.06357 23.2026 9.03777 23.2645C9.01197 23.3264 8.99913 23.393 9.00005 23.4601ZM26.71 13.0401C26.8963 12.8527 27.0008 12.5992 27.0008 12.3351C27.0008 12.0709 26.8963 11.8174 26.71 11.6301L24.37 9.29006C24.1827 9.10381 23.9292 8.99927 23.665 8.99927C23.4009 8.99927 23.1474 9.10381 22.96 9.29006L21.13 11.1201L24.88 14.8701L26.71 13.0401Z" fill="#2E96D5"/>
</svg>
