<svg width="118" height="118" viewBox="0 0 118 118" fill="none" xmlns="http://www.w3.org/2000/svg">
<g opacity="0.9">
<g opacity="0.9">
<g opacity="0.9">
<path opacity="0.9" d="M116.2 45.3244C112.608 30.8579 103.632 18.3069 91.1032 10.2318C78.5743 2.15663 63.4365 -0.834152 48.7779 1.86951C34.1194 4.57318 21.0446 12.7676 12.2208 24.7811C3.39703 36.7946 -0.510905 51.7219 1.29426 66.518C3.09943 81.3141 10.4817 94.8641 21.935 104.404C33.3883 113.943 48.0497 118.754 62.9284 117.854C77.807 116.954 91.7817 110.411 102.002 99.5607C112.222 88.7102 117.917 74.3692 117.925 59.4634C117.928 54.6978 117.348 49.9497 116.2 45.3244ZM70.7075 84.7244C64.5742 87.465 57.6509 87.8708 51.2395 85.8654C51.0675 85.8174 50.8935 85.7654 50.7205 85.7024C46.1971 84.1974 42.1395 81.5489 38.9413 78.0138C35.7431 74.4787 33.5128 70.177 32.4668 65.526C31.4208 60.875 31.5947 56.0327 32.9714 51.4687C34.3482 46.9046 36.8812 42.7739 40.3247 39.4773C43.7681 36.1806 48.0052 33.8298 52.6248 32.653C57.2444 31.4762 62.0897 31.5133 66.6908 32.7608C71.2918 34.0082 75.4923 36.4237 78.8849 39.7727C82.2774 43.1218 84.7468 47.2908 86.0534 51.8754C86.7643 54.3429 87.1225 56.8986 87.1174 59.4664C87.119 64.8124 85.5695 70.044 82.6567 74.5268C79.7439 79.0096 75.593 82.5509 70.7075 84.7214V84.7244Z" fill="#82C61B"/>
</g>
</g>
<path opacity="0.9" d="M116.202 45.2819L86.0839 51.8179C84.9187 47.7341 82.8283 43.9735 79.975 40.828C77.1217 37.6825 73.5821 35.2365 69.6309 33.6799L82.7409 5.79395C90.9728 9.36943 98.2721 14.7904 104.074 21.6376C109.876 28.4848 114.026 36.5748 116.202 45.2819Z" fill="#E60000"/>
<path opacity="0.9" d="M117.925 59.5176C117.925 70.7166 114.707 81.6798 108.652 91.1012C102.598 100.523 93.9629 108.005 83.776 112.658C79.801 104.158 75.061 93.9926 70.752 84.7516C75.6334 82.583 79.7808 79.0446 82.691 74.5655C85.6011 70.0864 87.1491 64.8591 87.147 59.5176C87.1521 56.9521 86.7942 54.3988 86.084 51.9336L116.202 45.3926C117.352 50.0128 117.93 54.7565 117.925 59.5176Z" fill="#FE5F38"/>
<path opacity="0.9" d="M91.0049 75.2031C91.0049 74.9453 90.9639 74.7207 90.8818 74.5293C90.8037 74.3379 90.6943 74.1797 90.5537 74.0547C90.417 73.9258 90.2549 73.8301 90.0674 73.7676C89.8799 73.7051 89.6768 73.6738 89.458 73.6738C89.2705 73.6738 89.0869 73.6992 88.9072 73.75C88.7275 73.8008 88.5518 73.8711 88.3799 73.9609C88.2119 74.0508 88.0479 74.1582 87.8877 74.2832C87.7314 74.4082 87.585 74.5469 87.4482 74.6992V73.668C87.7178 73.4062 88.0186 73.207 88.3506 73.0703C88.6865 72.9297 89.0947 72.8594 89.5752 72.8594C89.9189 72.8594 90.2373 72.9102 90.5303 73.0117C90.8232 73.1094 91.0771 73.2539 91.292 73.4453C91.5068 73.6367 91.6748 73.873 91.7959 74.1543C91.9209 74.4355 91.9834 74.7578 91.9834 75.1211C91.9834 75.4531 91.9443 75.7539 91.8662 76.0234C91.792 76.293 91.6768 76.5469 91.5205 76.7852C91.3682 77.0234 91.1748 77.252 90.9404 77.4707C90.7061 77.6895 90.4307 77.9121 90.1143 78.1387C89.7197 78.4199 89.3936 78.6602 89.1357 78.8594C88.8818 79.0586 88.6787 79.2461 88.5264 79.4219C88.3779 79.5938 88.2725 79.7676 88.21 79.9434C88.1514 80.1152 88.1221 80.3145 88.1221 80.541H92.3057V81.4023H87.1201V80.9863C87.1201 80.627 87.1592 80.3105 87.2373 80.0371C87.3154 79.7637 87.4443 79.5039 87.624 79.2578C87.8037 79.0117 88.0381 78.7656 88.3271 78.5195C88.6201 78.2734 88.9775 77.9961 89.3994 77.6875C89.7041 77.4688 89.958 77.2598 90.1611 77.0605C90.3682 76.8613 90.5342 76.6621 90.6592 76.4629C90.7842 76.2637 90.8721 76.0625 90.9229 75.8594C90.9775 75.6523 91.0049 75.4336 91.0049 75.2031ZM98.5342 79.0234C98.5342 79.4023 98.4619 79.748 98.3174 80.0605C98.1768 80.3691 97.9756 80.6348 97.7139 80.8574C97.4561 81.0762 97.1455 81.2461 96.7822 81.3672C96.4189 81.4883 96.0186 81.5488 95.5811 81.5488C94.7803 81.5488 94.1436 81.3965 93.6709 81.0918V80.0605C94.2373 80.5059 94.8857 80.7285 95.6162 80.7285C95.9092 80.7285 96.1729 80.6914 96.4072 80.6172C96.6455 80.543 96.8486 80.4355 97.0166 80.2949C97.1885 80.1543 97.3193 79.9844 97.4092 79.7852C97.5029 79.5859 97.5498 79.3613 97.5498 79.1113C97.5498 78.0137 96.7686 77.4648 95.2061 77.4648H94.5088V76.6504H95.1709C96.5537 76.6504 97.2451 76.1348 97.2451 75.1035C97.2451 74.1504 96.7178 73.6738 95.6631 73.6738C95.0693 73.6738 94.5127 73.873 93.9932 74.2715V73.3398C94.5283 73.0195 95.165 72.8594 95.9033 72.8594C96.2549 72.8594 96.5732 72.9082 96.8584 73.0059C97.1436 73.1035 97.3877 73.2402 97.5908 73.416C97.7939 73.5918 97.9502 73.8027 98.0596 74.0488C98.1729 74.2949 98.2295 74.5664 98.2295 74.8633C98.2295 75.9688 97.6709 76.6797 96.5537 76.9961V77.0195C96.8389 77.0508 97.1025 77.1211 97.3447 77.2305C97.5869 77.3359 97.7959 77.4746 97.9717 77.6465C98.1475 77.8184 98.2842 78.0215 98.3818 78.2559C98.4834 78.4863 98.5342 78.7422 98.5342 79.0234ZM101.786 77.2129C101.208 77.2129 100.747 77.0234 100.403 76.6445C100.06 76.2617 99.8877 75.752 99.8877 75.1152C99.8877 74.4199 100.069 73.873 100.433 73.4746C100.796 73.0723 101.286 72.8711 101.903 72.8711C102.501 72.8711 102.964 73.0566 103.292 73.4277C103.624 73.7988 103.79 74.3203 103.79 74.9922C103.79 75.6641 103.604 76.2031 103.233 76.6094C102.866 77.0117 102.384 77.2129 101.786 77.2129ZM101.868 73.5156C101.497 73.5156 101.204 73.6543 100.989 73.9316C100.774 74.2051 100.667 74.582 100.667 75.0625C100.667 75.5352 100.772 75.9043 100.983 76.1699C101.194 76.4316 101.481 76.5625 101.845 76.5625C102.212 76.5625 102.499 76.4258 102.706 76.1523C102.913 75.8789 103.017 75.5 103.017 75.0156C103.017 74.543 102.913 74.1758 102.706 73.9141C102.503 73.6484 102.224 73.5156 101.868 73.5156ZM107.411 73L102.021 81.4609H101.183L106.567 73H107.411ZM106.79 81.5312C106.212 81.5312 105.751 81.3398 105.407 80.957C105.063 80.5742 104.892 80.0664 104.892 79.4336C104.892 78.7383 105.075 78.1895 105.442 77.7871C105.81 77.3809 106.298 77.1777 106.907 77.1777C107.501 77.1777 107.964 77.3652 108.296 77.7402C108.628 78.1152 108.794 78.6406 108.794 79.3164C108.794 79.9844 108.608 80.5215 108.237 80.9277C107.87 81.3301 107.388 81.5312 106.79 81.5312ZM106.872 77.8398C106.497 77.8398 106.202 77.9766 105.987 78.25C105.776 78.5234 105.671 78.9023 105.671 79.3867C105.671 79.8516 105.776 80.2168 105.987 80.4824C106.198 80.7441 106.485 80.875 106.849 80.875C107.216 80.875 107.503 80.7383 107.71 80.4648C107.917 80.1875 108.021 79.8086 108.021 79.3281C108.021 78.8516 107.917 78.4844 107.71 78.2266C107.507 77.9688 107.228 77.8398 106.872 77.8398Z" fill="white"/>
<path opacity="0.9" d="M82.6074 35.4873H81.6465V28.2275C81.5723 28.3018 81.4629 28.3877 81.3184 28.4854C81.1777 28.5791 81.0176 28.6729 80.8379 28.7666C80.6621 28.8604 80.4746 28.9482 80.2754 29.0303C80.0801 29.1123 79.8887 29.1768 79.7012 29.2236V28.251C79.9121 28.1924 80.1348 28.1143 80.3691 28.0166C80.6074 27.915 80.8398 27.8037 81.0664 27.6826C81.2969 27.5576 81.5137 27.4287 81.7168 27.2959C81.9199 27.1592 82.0957 27.0264 82.2441 26.8975H82.6074V35.4873ZM89.3574 29.2881C89.3574 29.0303 89.3164 28.8057 89.2344 28.6143C89.1562 28.4229 89.0469 28.2646 88.9062 28.1396C88.7695 28.0107 88.6074 27.915 88.4199 27.8525C88.2324 27.79 88.0293 27.7588 87.8105 27.7588C87.623 27.7588 87.4395 27.7842 87.2598 27.835C87.0801 27.8857 86.9043 27.9561 86.7324 28.0459C86.5645 28.1357 86.4004 28.2432 86.2402 28.3682C86.084 28.4932 85.9375 28.6318 85.8008 28.7842V27.7529C86.0703 27.4912 86.3711 27.292 86.7031 27.1553C87.0391 27.0146 87.4473 26.9443 87.9277 26.9443C88.2715 26.9443 88.5898 26.9951 88.8828 27.0967C89.1758 27.1943 89.4297 27.3389 89.6445 27.5303C89.8594 27.7217 90.0273 27.958 90.1484 28.2393C90.2734 28.5205 90.3359 28.8428 90.3359 29.2061C90.3359 29.5381 90.2969 29.8389 90.2188 30.1084C90.1445 30.3779 90.0293 30.6318 89.873 30.8701C89.7207 31.1084 89.5273 31.3369 89.293 31.5557C89.0586 31.7744 88.7832 31.9971 88.4668 32.2236C88.0723 32.5049 87.7461 32.7451 87.4883 32.9443C87.2344 33.1436 87.0312 33.3311 86.8789 33.5068C86.7305 33.6787 86.625 33.8525 86.5625 34.0283C86.5039 34.2002 86.4746 34.3994 86.4746 34.626H90.6582V35.4873H85.4727V35.0713C85.4727 34.7119 85.5117 34.3955 85.5898 34.1221C85.668 33.8486 85.7969 33.5889 85.9766 33.3428C86.1562 33.0967 86.3906 32.8506 86.6797 32.6045C86.9727 32.3584 87.3301 32.0811 87.752 31.7725C88.0566 31.5537 88.3105 31.3447 88.5137 31.1455C88.7207 30.9463 88.8867 30.7471 89.0117 30.5479C89.1367 30.3486 89.2246 30.1475 89.2754 29.9443C89.3301 29.7373 89.3574 29.5186 89.3574 29.2881ZM93.6699 31.2979C93.0918 31.2979 92.6309 31.1084 92.2871 30.7295C91.9434 30.3467 91.7715 29.8369 91.7715 29.2002C91.7715 28.5049 91.9531 27.958 92.3164 27.5596C92.6797 27.1572 93.1699 26.9561 93.7871 26.9561C94.3848 26.9561 94.8477 27.1416 95.1758 27.5127C95.5078 27.8838 95.6738 28.4053 95.6738 29.0771C95.6738 29.749 95.4883 30.2881 95.1172 30.6943C94.75 31.0967 94.2676 31.2979 93.6699 31.2979ZM93.752 27.6006C93.3809 27.6006 93.0879 27.7393 92.873 28.0166C92.6582 28.29 92.5508 28.667 92.5508 29.1475C92.5508 29.6201 92.6562 29.9893 92.8672 30.2549C93.0781 30.5166 93.3652 30.6475 93.7285 30.6475C94.0957 30.6475 94.3828 30.5107 94.5898 30.2373C94.7969 29.9639 94.9004 29.585 94.9004 29.1006C94.9004 28.6279 94.7969 28.2607 94.5898 27.999C94.3867 27.7334 94.1074 27.6006 93.752 27.6006ZM99.2949 27.085L93.9043 35.5459H93.0664L98.4512 27.085H99.2949ZM98.6738 35.6162C98.0957 35.6162 97.6348 35.4248 97.291 35.042C96.9473 34.6592 96.7754 34.1514 96.7754 33.5186C96.7754 32.8232 96.959 32.2744 97.3262 31.8721C97.6934 31.4658 98.1816 31.2627 98.791 31.2627C99.3848 31.2627 99.8477 31.4502 100.18 31.8252C100.512 32.2002 100.678 32.7256 100.678 33.4014C100.678 34.0693 100.492 34.6064 100.121 35.0127C99.7539 35.415 99.2715 35.6162 98.6738 35.6162ZM98.7559 31.9248C98.3809 31.9248 98.0859 32.0615 97.8711 32.335C97.6602 32.6084 97.5547 32.9873 97.5547 33.4717C97.5547 33.9365 97.6602 34.3018 97.8711 34.5674C98.082 34.8291 98.3691 34.96 98.7324 34.96C99.0996 34.96 99.3867 34.8232 99.5938 34.5498C99.8008 34.2725 99.9043 33.8936 99.9043 33.4131C99.9043 32.9365 99.8008 32.5693 99.5938 32.3115C99.3906 32.0537 99.1113 31.9248 98.7559 31.9248Z" fill="white"/>
<path opacity="0.9" d="M83.7257 112.657C70.6401 118.604 55.8266 119.542 42.0957 115.291L50.7337 85.728C57.2775 87.9123 64.4024 87.5637 70.7017 84.751L83.7257 112.657Z" fill="#FF7F1F"/>
<path opacity="0.9" d="M56.3389 100.152C56.21 100.375 56.0537 100.652 55.8701 100.984C55.6904 101.316 55.499 101.689 55.2959 102.104C55.0928 102.518 54.8857 102.963 54.6748 103.439C54.4639 103.916 54.2666 104.408 54.083 104.916C53.8994 105.424 53.7373 105.939 53.5967 106.463C53.46 106.982 53.3604 107.494 53.2979 107.998H52.2666C52.3369 107.498 52.4443 106.988 52.5889 106.469C52.7373 105.945 52.9033 105.434 53.0869 104.934C53.2744 104.43 53.4717 103.945 53.6787 103.48C53.8857 103.016 54.0869 102.588 54.2822 102.197C54.4775 101.807 54.6553 101.463 54.8154 101.166C54.9795 100.865 55.1104 100.631 55.208 100.463H50.9951V99.5957H56.3389V100.152ZM59.2568 103.809C58.6787 103.809 58.2178 103.619 57.874 103.24C57.5303 102.857 57.3584 102.348 57.3584 101.711C57.3584 101.016 57.54 100.469 57.9033 100.07C58.2666 99.668 58.7568 99.4668 59.374 99.4668C59.9717 99.4668 60.4346 99.6523 60.7627 100.023C61.0947 100.395 61.2607 100.916 61.2607 101.588C61.2607 102.26 61.0752 102.799 60.7041 103.205C60.3369 103.607 59.8545 103.809 59.2568 103.809ZM59.3389 100.111C58.9678 100.111 58.6748 100.25 58.46 100.527C58.2451 100.801 58.1377 101.178 58.1377 101.658C58.1377 102.131 58.2432 102.5 58.4541 102.766C58.665 103.027 58.9521 103.158 59.3154 103.158C59.6826 103.158 59.9697 103.021 60.1768 102.748C60.3838 102.475 60.4873 102.096 60.4873 101.611C60.4873 101.139 60.3838 100.771 60.1768 100.51C59.9736 100.244 59.6943 100.111 59.3389 100.111ZM64.8818 99.5957L59.4912 108.057H58.6533L64.0381 99.5957H64.8818ZM64.2607 108.127C63.6826 108.127 63.2217 107.936 62.8779 107.553C62.5342 107.17 62.3623 106.662 62.3623 106.029C62.3623 105.334 62.5459 104.785 62.9131 104.383C63.2803 103.977 63.7686 103.773 64.3779 103.773C64.9717 103.773 65.4346 103.961 65.7666 104.336C66.0986 104.711 66.2646 105.236 66.2646 105.912C66.2646 106.58 66.0791 107.117 65.708 107.523C65.3408 107.926 64.8584 108.127 64.2607 108.127ZM64.3428 104.436C63.9678 104.436 63.6729 104.572 63.458 104.846C63.2471 105.119 63.1416 105.498 63.1416 105.982C63.1416 106.447 63.2471 106.812 63.458 107.078C63.6689 107.34 63.9561 107.471 64.3193 107.471C64.6865 107.471 64.9736 107.334 65.1807 107.061C65.3877 106.783 65.4912 106.404 65.4912 105.924C65.4912 105.447 65.3877 105.08 65.1807 104.822C64.9775 104.564 64.6982 104.436 64.3428 104.436Z" fill="white"/>
<path opacity="0.9" d="M51.1913 85.891L42.0353 115.291C34.5821 112.964 27.6708 109.167 21.7091 104.125C15.7474 99.0825 10.8562 92.8972 7.32412 85.9337C3.79209 78.9702 1.69083 71.3697 1.14434 63.5808C0.597855 55.7919 1.61723 47.9725 4.1423 40.584L33.2643 50.554C32.0805 54.0058 31.5923 57.6579 31.8279 61.2994C32.0636 64.941 33.0183 68.4997 34.6371 71.7702C36.2558 75.0406 38.5065 77.9579 41.2591 80.3537C44.0118 82.7494 47.2117 84.576 50.6743 85.728C50.8453 85.786 51.0193 85.843 51.1913 85.891Z" fill="#FFDF3F"/>
<path opacity="0.9" d="M12.5146 73.2812C12.5146 73.0234 12.4736 72.7988 12.3916 72.6074C12.3135 72.416 12.2041 72.2578 12.0635 72.1328C11.9268 72.0039 11.7646 71.9082 11.5771 71.8457C11.3896 71.7832 11.1865 71.752 10.9678 71.752C10.7803 71.752 10.5967 71.7773 10.417 71.8281C10.2373 71.8789 10.0615 71.9492 9.88965 72.0391C9.72168 72.1289 9.55762 72.2363 9.39746 72.3613C9.24121 72.4863 9.09473 72.625 8.95801 72.7773V71.7461C9.22754 71.4844 9.52832 71.2852 9.86035 71.1484C10.1963 71.0078 10.6045 70.9375 11.085 70.9375C11.4287 70.9375 11.7471 70.9883 12.04 71.0898C12.333 71.1875 12.5869 71.332 12.8018 71.5234C13.0166 71.7148 13.1846 71.9512 13.3057 72.2324C13.4307 72.5137 13.4932 72.8359 13.4932 73.1992C13.4932 73.5312 13.4541 73.832 13.376 74.1016C13.3018 74.3711 13.1865 74.625 13.0303 74.8633C12.8779 75.1016 12.6846 75.3301 12.4502 75.5488C12.2158 75.7676 11.9404 75.9902 11.624 76.2168C11.2295 76.498 10.9033 76.7383 10.6455 76.9375C10.3916 77.1367 10.1885 77.3242 10.0361 77.5C9.8877 77.6719 9.78223 77.8457 9.71973 78.0215C9.66113 78.1934 9.63184 78.3926 9.63184 78.6191H13.8154V79.4805H8.62988V79.0645C8.62988 78.7051 8.66895 78.3887 8.74707 78.1152C8.8252 77.8418 8.9541 77.582 9.13379 77.3359C9.31348 77.0898 9.54785 76.8438 9.83691 76.5977C10.1299 76.3516 10.4873 76.0742 10.9092 75.7656C11.2139 75.5469 11.4678 75.3379 11.6709 75.1387C11.8779 74.9395 12.0439 74.7402 12.1689 74.541C12.2939 74.3418 12.3818 74.1406 12.4326 73.9375C12.4873 73.7305 12.5146 73.5117 12.5146 73.2812ZM14.9873 77.1367C14.9873 76.9141 15.0225 76.6914 15.0928 76.4688C15.1631 76.2422 15.2627 76.0312 15.3916 75.8359C15.5244 75.6406 15.6865 75.4629 15.8779 75.3027C16.0732 75.1426 16.2939 75.0156 16.54 74.9219C16.1768 74.7188 15.8877 74.459 15.6729 74.1426C15.458 73.8223 15.3506 73.4688 15.3506 73.082C15.3506 72.7734 15.4092 72.4883 15.5264 72.2266C15.6475 71.9648 15.8135 71.7383 16.0244 71.5469C16.2354 71.3555 16.4854 71.207 16.7744 71.1016C17.0635 70.9922 17.376 70.9375 17.7119 70.9375C18.0518 70.9375 18.3662 70.9922 18.6553 71.1016C18.9443 71.2109 19.1943 71.3613 19.4053 71.5527C19.6162 71.7441 19.7803 71.9707 19.8975 72.2324C20.0146 72.4941 20.0732 72.7773 20.0732 73.082C20.0732 73.4688 19.9658 73.8223 19.751 74.1426C19.5361 74.459 19.251 74.7188 18.8955 74.9219C19.1377 75.0156 19.3545 75.1426 19.5459 75.3027C19.7373 75.4629 19.8975 75.6406 20.0264 75.8359C20.1592 76.0312 20.2607 76.2422 20.3311 76.4688C20.4014 76.6914 20.4365 76.9141 20.4365 77.1367C20.4365 77.5039 20.3701 77.8398 20.2373 78.1445C20.1045 78.4492 19.917 78.7109 19.6748 78.9297C19.4365 79.1445 19.1494 79.3125 18.8135 79.4336C18.4814 79.5547 18.1143 79.6152 17.7119 79.6152C17.3135 79.6152 16.9482 79.5547 16.6162 79.4336C16.2842 79.3125 15.9971 79.1445 15.7549 78.9297C15.5127 78.7109 15.3232 78.4492 15.1865 78.1445C15.0537 77.8398 14.9873 77.5039 14.9873 77.1367ZM16.0303 77.0547C16.0303 77.3164 16.0693 77.5527 16.1475 77.7637C16.2295 77.9746 16.3428 78.1543 16.4873 78.3027C16.6357 78.4512 16.8135 78.5664 17.0205 78.6484C17.2314 78.7266 17.4639 78.7656 17.7178 78.7656C17.9639 78.7656 18.1904 78.7246 18.3975 78.6426C18.6045 78.5605 18.7822 78.4453 18.9307 78.2969C19.083 78.1484 19.2002 77.9688 19.2822 77.7578C19.3682 77.5469 19.4111 77.3125 19.4111 77.0547C19.4111 76.8203 19.3701 76.6016 19.2881 76.3984C19.21 76.1914 19.0967 76.0098 18.9482 75.8535C18.7998 75.6973 18.6221 75.5742 18.415 75.4844C18.208 75.3945 17.9756 75.3496 17.7178 75.3496C17.4756 75.3496 17.251 75.3926 17.0439 75.4785C16.8408 75.5605 16.6631 75.6777 16.5107 75.8301C16.3623 75.9785 16.2451 76.1582 16.1592 76.3691C16.0732 76.5762 16.0303 76.8047 16.0303 77.0547ZM16.3291 73.1582C16.3291 73.3574 16.3643 73.543 16.4346 73.7148C16.5088 73.8828 16.6084 74.0312 16.7334 74.1602C16.8623 74.2852 17.0107 74.3848 17.1787 74.459C17.3467 74.5293 17.5264 74.5645 17.7178 74.5645C17.9092 74.5645 18.0889 74.5273 18.2568 74.4531C18.4287 74.3789 18.5771 74.2793 18.7021 74.1543C18.8271 74.0254 18.9268 73.877 19.001 73.709C19.0752 73.5371 19.1123 73.3535 19.1123 73.1582C19.1123 72.9551 19.0752 72.7676 19.001 72.5957C18.9307 72.4238 18.833 72.2754 18.708 72.1504C18.583 72.0254 18.4346 71.9277 18.2627 71.8574C18.0947 71.7832 17.9131 71.7461 17.7178 71.7461C17.5107 71.7461 17.3213 71.7832 17.1494 71.8574C16.9814 71.9316 16.835 72.0332 16.71 72.1621C16.5889 72.2871 16.4951 72.4355 16.4287 72.6074C16.3623 72.7793 16.3291 72.9629 16.3291 73.1582ZM23.2959 75.291C22.7178 75.291 22.2568 75.1016 21.9131 74.7227C21.5693 74.3398 21.3975 73.8301 21.3975 73.1934C21.3975 72.498 21.5791 71.9512 21.9424 71.5527C22.3057 71.1504 22.7959 70.9492 23.4131 70.9492C24.0107 70.9492 24.4736 71.1348 24.8018 71.5059C25.1338 71.877 25.2998 72.3984 25.2998 73.0703C25.2998 73.7422 25.1143 74.2812 24.7432 74.6875C24.376 75.0898 23.8936 75.291 23.2959 75.291ZM23.3779 71.5938C23.0068 71.5938 22.7139 71.7324 22.499 72.0098C22.2842 72.2832 22.1768 72.6602 22.1768 73.1406C22.1768 73.6133 22.2822 73.9824 22.4932 74.248C22.7041 74.5098 22.9912 74.6406 23.3545 74.6406C23.7217 74.6406 24.0088 74.5039 24.2158 74.2305C24.4229 73.957 24.5264 73.5781 24.5264 73.0938C24.5264 72.6211 24.4229 72.2539 24.2158 71.9922C24.0127 71.7266 23.7334 71.5938 23.3779 71.5938ZM28.9209 71.0781L23.5303 79.5391H22.6924L28.0771 71.0781H28.9209ZM28.2998 79.6094C27.7217 79.6094 27.2607 79.418 26.917 79.0352C26.5732 78.6523 26.4014 78.1445 26.4014 77.5117C26.4014 76.8164 26.585 76.2676 26.9521 75.8652C27.3193 75.459 27.8076 75.2559 28.417 75.2559C29.0107 75.2559 29.4736 75.4434 29.8057 75.8184C30.1377 76.1934 30.3037 76.7188 30.3037 77.3945C30.3037 78.0625 30.1182 78.5996 29.7471 79.0059C29.3799 79.4082 28.8975 79.6094 28.2998 79.6094ZM28.3818 75.918C28.0068 75.918 27.7119 76.0547 27.4971 76.3281C27.2861 76.6016 27.1807 76.9805 27.1807 77.4648C27.1807 77.9297 27.2861 78.2949 27.4971 78.5605C27.708 78.8223 27.9951 78.9531 28.3584 78.9531C28.7256 78.9531 29.0127 78.8164 29.2197 78.543C29.4268 78.2656 29.5303 77.8867 29.5303 77.4062C29.5303 76.9297 29.4268 76.5625 29.2197 76.3047C29.0166 76.0469 28.7373 75.918 28.3818 75.918Z" fill="white"/>
<path opacity="0.9" d="M37.2422 23.3262C37.2422 23.7051 37.1699 24.0508 37.0254 24.3633C36.8848 24.6719 36.6836 24.9375 36.4219 25.1602C36.1641 25.3789 35.8535 25.5488 35.4902 25.6699C35.127 25.791 34.7266 25.8516 34.2891 25.8516C33.4883 25.8516 32.8516 25.6992 32.3789 25.3945V24.3633C32.9453 24.8086 33.5938 25.0312 34.3242 25.0312C34.6172 25.0312 34.8809 24.9941 35.1152 24.9199C35.3535 24.8457 35.5566 24.7383 35.7246 24.5977C35.8965 24.457 36.0273 24.2871 36.1172 24.0879C36.2109 23.8887 36.2578 23.6641 36.2578 23.4141C36.2578 22.3164 35.4766 21.7676 33.9141 21.7676H33.2168V20.9531H33.8789C35.2617 20.9531 35.9531 20.4375 35.9531 19.4062C35.9531 18.4531 35.4258 17.9766 34.3711 17.9766C33.7773 17.9766 33.2207 18.1758 32.7012 18.5742V17.6426C33.2363 17.3223 33.873 17.1621 34.6113 17.1621C34.9629 17.1621 35.2812 17.2109 35.5664 17.3086C35.8516 17.4062 36.0957 17.543 36.2988 17.7188C36.502 17.8945 36.6582 18.1055 36.7676 18.3516C36.8809 18.5977 36.9375 18.8691 36.9375 19.166C36.9375 20.2715 36.3789 20.9824 35.2617 21.2988V21.3223C35.5469 21.3535 35.8105 21.4238 36.0527 21.5332C36.2949 21.6387 36.5039 21.7773 36.6797 21.9492C36.8555 22.1211 36.9922 22.3242 37.0898 22.5586C37.1914 22.7891 37.2422 23.0449 37.2422 23.3262ZM44.1035 21.4688C44.1035 22.1719 44.0391 22.7949 43.9102 23.3379C43.7852 23.8809 43.6016 24.3398 43.3594 24.7148C43.1211 25.0859 42.8262 25.3691 42.4746 25.5645C42.127 25.7559 41.7305 25.8516 41.2852 25.8516C40.8633 25.8516 40.4863 25.7598 40.1543 25.5762C39.8262 25.3887 39.5488 25.1172 39.3223 24.7617C39.0957 24.4062 38.9238 23.9707 38.8066 23.4551C38.6895 22.9355 38.6309 22.3418 38.6309 21.6738C38.6309 20.9395 38.6914 20.291 38.8125 19.7285C38.9375 19.166 39.1191 18.6953 39.3574 18.3164C39.5957 17.9336 39.8906 17.6465 40.2422 17.4551C40.5977 17.2598 41.0039 17.1621 41.4609 17.1621C43.2227 17.1621 44.1035 18.5977 44.1035 21.4688ZM43.1191 21.5625C43.1191 19.1719 42.5508 17.9766 41.4141 17.9766C40.2148 17.9766 39.6152 19.1934 39.6152 21.627C39.6152 23.8965 40.2031 25.0312 41.3789 25.0312C42.5391 25.0312 43.1191 23.875 43.1191 21.5625ZM46.9629 21.5156C46.3848 21.5156 45.9238 21.3262 45.5801 20.9473C45.2363 20.5645 45.0645 20.0547 45.0645 19.418C45.0645 18.7227 45.2461 18.1758 45.6094 17.7773C45.9727 17.375 46.4629 17.1738 47.0801 17.1738C47.6777 17.1738 48.1406 17.3594 48.4688 17.7305C48.8008 18.1016 48.9668 18.623 48.9668 19.2949C48.9668 19.9668 48.7812 20.5059 48.4102 20.9121C48.043 21.3145 47.5605 21.5156 46.9629 21.5156ZM47.0449 17.8184C46.6738 17.8184 46.3809 17.957 46.166 18.2344C45.9512 18.5078 45.8438 18.8848 45.8438 19.3652C45.8438 19.8379 45.9492 20.207 46.1602 20.4727C46.3711 20.7344 46.6582 20.8652 47.0215 20.8652C47.3887 20.8652 47.6758 20.7285 47.8828 20.4551C48.0898 20.1816 48.1934 19.8027 48.1934 19.3184C48.1934 18.8457 48.0898 18.4785 47.8828 18.2168C47.6797 17.9512 47.4004 17.8184 47.0449 17.8184ZM52.5879 17.3027L47.1973 25.7637H46.3594L51.7441 17.3027H52.5879ZM51.9668 25.834C51.3887 25.834 50.9277 25.6426 50.584 25.2598C50.2402 24.877 50.0684 24.3691 50.0684 23.7363C50.0684 23.041 50.252 22.4922 50.6191 22.0898C50.9863 21.6836 51.4746 21.4805 52.084 21.4805C52.6777 21.4805 53.1406 21.668 53.4727 22.043C53.8047 22.418 53.9707 22.9434 53.9707 23.6191C53.9707 24.2871 53.7852 24.8242 53.4141 25.2305C53.0469 25.6328 52.5645 25.834 51.9668 25.834ZM52.0488 22.1426C51.6738 22.1426 51.3789 22.2793 51.1641 22.5527C50.9531 22.8262 50.8477 23.2051 50.8477 23.6895C50.8477 24.1543 50.9531 24.5195 51.1641 24.7852C51.375 25.0469 51.6621 25.1777 52.0254 25.1777C52.3926 25.1777 52.6797 25.041 52.8867 24.7676C53.0938 24.4902 53.1973 24.1113 53.1973 23.6309C53.1973 23.1543 53.0938 22.7871 52.8867 22.5293C52.6836 22.2715 52.4043 22.1426 52.0488 22.1426Z" fill="white"/>
</g>
</svg>
