<svg width="72" height="72" viewBox="0 0 72 72" fill="none" xmlns="http://www.w3.org/2000/svg">
<path d="M42.2534 66.7831L61.524 56.0859C62.6379 57.0158 64.0673 57.6 65.6471 57.6C69.1497 57.6 72 54.8311 72 51.4286C72 48.7502 70.2233 46.4873 67.7647 45.6357V28.4194C70.2233 27.5678 72 25.3049 72 22.6265C72 19.224 69.1497 16.4551 65.6471 16.4551C64.0673 16.4551 62.6379 17.0393 61.5261 17.9691L42.2407 7.26377C42.3042 6.90994 42.3529 6.54583 42.3529 6.17143C42.3529 2.76891 39.5026 0 36 0C32.4974 0 29.6471 2.76891 29.6471 6.17143C29.6471 6.54583 29.6958 6.90994 29.7614 7.26583L10.476 17.9712C9.36212 17.0414 7.93271 16.4571 6.35294 16.4571C2.85035 16.4571 0 19.2261 0 22.6286C0 25.307 1.77671 27.5698 4.23529 28.4215V45.6377C1.77671 46.4894 0 48.7522 0 51.4306C0 54.8331 2.85035 57.6021 6.35294 57.6021C7.93271 57.6021 9.36212 57.0178 10.4739 56.088L29.7466 66.7851C30.2231 69.731 32.8341 72 36 72C39.1659 72 41.7769 69.731 42.2534 66.7831ZM38.1176 60.0357V44.8766C40.5762 44.0249 42.3529 41.7621 42.3529 39.0837C42.3529 38.7093 42.3042 38.3451 42.2386 37.9893L61.524 27.2839C62.1106 27.7755 62.784 28.1602 63.5273 28.4194V45.6357C61.0687 46.4873 59.292 48.7502 59.292 51.4286C59.292 51.803 59.3407 52.1671 59.4064 52.523L41.3555 62.5433C40.6038 61.3851 39.4666 60.5026 38.1176 60.0357ZM30.6424 62.5433L12.5915 52.523C12.6572 52.1671 12.7059 51.803 12.7059 51.4286C12.7059 48.7502 10.9292 46.4873 8.47059 45.6357V28.4194C9.21388 28.1623 9.88729 27.7755 10.4739 27.2839L29.7593 37.9893C29.6958 38.3472 29.6471 38.7113 29.6471 39.0857C29.6471 41.7641 31.4238 44.027 33.8824 44.8786V60.0377C32.5334 60.5026 31.3962 61.3851 30.6424 62.5433ZM59.4085 23.723L40.1231 34.4283C39.0092 33.4985 37.5798 32.9143 36 32.9143C34.4202 32.9143 32.9908 33.4985 31.8791 34.4283L12.5936 23.723C12.6572 23.3671 12.7059 23.003 12.7059 22.6286C12.7059 22.2542 12.6572 21.8901 12.5915 21.5342L31.8769 10.8288C32.9908 11.7586 34.4202 12.3429 36 12.3429C37.5798 12.3429 39.0092 11.7586 40.1209 10.8288L59.4064 21.5342C59.3428 21.8901 59.2941 22.2542 59.2941 22.6286C59.2941 23.003 59.3428 23.3671 59.4085 23.723ZM36 41.1429C34.8332 41.1429 33.8824 40.2192 33.8824 39.0857C33.8824 37.9522 34.8332 37.0286 36 37.0286C37.1668 37.0286 38.1176 37.9522 38.1176 39.0857C38.1176 40.2192 37.1668 41.1429 36 41.1429ZM65.6471 53.4857C64.4802 53.4857 63.5294 52.5621 63.5294 51.4286C63.5294 50.2951 64.4802 49.3714 65.6471 49.3714C66.8139 49.3714 67.7647 50.2951 67.7647 51.4286C67.7647 52.5621 66.8139 53.4857 65.6471 53.4857ZM65.6471 20.5714C66.8139 20.5714 67.7647 21.4951 67.7647 22.6286C67.7647 23.7621 66.8139 24.6857 65.6471 24.6857C64.4802 24.6857 63.5294 23.7621 63.5294 22.6286C63.5294 21.4951 64.4802 20.5714 65.6471 20.5714ZM36 4.11429C37.1668 4.11429 38.1176 5.03794 38.1176 6.17143C38.1176 7.30491 37.1668 8.22857 36 8.22857C34.8332 8.22857 33.8824 7.30491 33.8824 6.17143C33.8824 5.03794 34.8332 4.11429 36 4.11429ZM6.35294 20.5714C7.51976 20.5714 8.47059 21.4951 8.47059 22.6286C8.47059 23.7621 7.51976 24.6857 6.35294 24.6857C5.18612 24.6857 4.23529 23.7621 4.23529 22.6286C4.23529 21.4951 5.18612 20.5714 6.35294 20.5714ZM6.35294 53.4857C5.18612 53.4857 4.23529 52.5621 4.23529 51.4286C4.23529 50.2951 5.18612 49.3714 6.35294 49.3714C7.51976 49.3714 8.47059 50.2951 8.47059 51.4286C8.47059 52.5621 7.51976 53.4857 6.35294 53.4857ZM36 67.8857C34.8332 67.8857 33.8824 66.9621 33.8824 65.8286C33.8824 64.6951 34.8332 63.7714 36 63.7714C37.1668 63.7714 38.1176 64.6951 38.1176 65.8286C38.1176 66.9621 37.1668 67.8857 36 67.8857Z" fill="white"/>
</svg>
