<svg width="20" height="21" viewBox="0 0 20 21" fill="none" xmlns="http://www.w3.org/2000/svg">
<path d="M7.76094 0.0859375H1.53794C1.15301 0.0864666 0.783991 0.239615 0.511803 0.511803C0.239615 0.783991 0.0864666 1.15301 0.0859375 1.53794L0.0859375 5.27194C0.0864666 5.65687 0.239615 6.02588 0.511803 6.29807C0.783991 6.57026 1.15301 6.72341 1.53794 6.72394H7.76094C8.14587 6.72341 8.51488 6.57026 8.78707 6.29807C9.05926 6.02588 9.21241 5.65687 9.21294 5.27194V1.53794C9.21241 1.15301 9.05926 0.783991 8.78707 0.511803C8.51488 0.239615 8.14587 0.0864666 7.76094 0.0859375V0.0859375Z" fill="#82C61B"/>
<path d="M7.76094 8.38281H1.53794C1.15301 8.38334 0.783991 8.53648 0.511803 8.80867C0.239615 9.08086 0.0864666 9.44988 0.0859375 9.83481L0.0859375 18.5508C0.0864666 18.9357 0.239615 19.3048 0.511803 19.577C0.783991 19.8491 1.15301 20.0023 1.53794 20.0028H7.76094C8.14587 20.0023 8.51488 19.8491 8.78707 19.577C9.05926 19.3048 9.21241 18.9357 9.21294 18.5508V9.83881C9.2132 9.64786 9.17585 9.45875 9.10302 9.28224C9.0302 9.10573 8.92332 8.94529 8.78849 8.81009C8.65366 8.67489 8.49351 8.56758 8.31721 8.49426C8.1409 8.42095 7.95188 8.38307 7.76094 8.38281Z" fill="#2B8AFF"/>
<path d="M18.548 13.3618H12.325C11.9401 13.3623 11.5711 13.5155 11.2989 13.7877C11.0267 14.0599 10.8736 14.4289 10.873 14.8138V18.5478C10.8736 18.9328 11.0267 19.3018 11.2989 19.5739C11.5711 19.8461 11.9401 19.9993 12.325 19.9998H18.548C18.933 19.9993 19.302 19.8461 19.5742 19.5739C19.8464 19.3018 19.9995 18.9328 20.0001 18.5478V14.8138C19.9995 14.4289 19.8464 14.0599 19.5742 13.7877C19.302 13.5155 18.933 13.3623 18.548 13.3618Z" fill="#82C61B"/>
<path d="M18.548 0.0859375H12.325C11.9401 0.0864666 11.5711 0.239615 11.2989 0.511803C11.0267 0.783991 10.8736 1.15301 10.873 1.53794V10.2499C10.8736 10.6349 11.0267 11.0039 11.2989 11.2761C11.5711 11.5483 11.9401 11.7014 12.325 11.7019H18.548C18.933 11.7014 19.302 11.5483 19.5742 11.2761C19.8464 11.0039 19.9995 10.6349 20.0001 10.2499V1.53794C19.9995 1.15301 19.8464 0.783991 19.5742 0.511803C19.302 0.239615 18.933 0.0864666 18.548 0.0859375V0.0859375Z" fill="#2B8AFF"/>
</svg>
