<svg width="69" height="52" viewBox="0 0 69 52" fill="none" xmlns="http://www.w3.org/2000/svg">
<path d="M3.45 0C2.53503 7.65277e-05 1.65756 0.304465 1.01058 0.84622C0.3636 1.38798 9.13917e-05 2.12273 0 2.88889V49.1111C9.13917e-05 49.8773 0.3636 50.612 1.01058 51.1538C1.65756 51.6955 2.53503 51.9999 3.45 52H34.5H65.55C66.465 51.9999 67.3424 51.6955 67.9894 51.1538C68.6364 50.612 68.9999 49.8773 69 49.1111V14.4444C68.9999 13.6783 68.6364 12.9435 67.9894 12.4018C67.3424 11.86 66.465 11.5556 65.55 11.5556H34.1091L27.1349 1.44444C26.8324 1.00565 26.3973 0.641202 25.8734 0.387673C25.3494 0.134143 24.7551 0.000447522 24.15 0H3.45Z" fill="white"/>
</svg>
