<svg width="125" height="73" viewBox="0 0 125 73" fill="none" xmlns="http://www.w3.org/2000/svg">
<g opacity="0.91">
<g opacity="0.91">
<path opacity="0.59" d="M1.67125 35.1991C2.35225 13.6201 28.8212 8.82809 39.5262 14.5871C49.3872 19.8871 49.8062 28.6131 55.8262 30.8741C78.2752 39.3091 95.9043 20.727 111.288 31.454C118.88 36.748 120.965 47.8451 115.453 53.8191C111.753 57.8341 104.787 59.9111 95.9432 60.9191C79.0662 61.3131 55.5242 60.8341 34.7892 60.9341C18.6232 56.1071 1.44025 42.4011 1.67125 35.1991Z" fill="#D8DADF"/>
<path opacity="0.3" d="M4.37817 66.964C2.07817 67.139 0.0241205 68.243 0.000120479 68.943C-0.0218795 69.574 2.97513 70.0921 4.02313 70.2731C16.0161 72.3441 18.6231 68.8731 34.4891 70.3731C42.8121 71.1591 41.5561 72.463 48.9371 72.791C59.0371 73.24 74.4282 70.5151 87.0532 70.6371C92.4392 70.6891 92.5241 71.131 99.8531 71.484C102.733 71.623 122.903 72.572 123.262 71.121C123.327 70.859 126.462 67.149 120.331 65.814C120.333 65.813 69.3672 62.034 4.37817 66.964Z" fill="url(#paint0_linear)"/>
</g>
<g opacity="0.91">
<g opacity="0.91">
<path opacity="0.91" d="M108.365 31.734L108.273 31.503C99.2324 35.0428 91.5733 41.4013 86.4307 49.636L86.6107 49.749C91.7375 41.5622 99.3657 35.245 108.365 31.734Z" fill="#85A2D2"/>
<path opacity="0.91" d="M112.117 30.322C111.904 29.529 109.082 29.8791 108.08 31.7131C110.026 32.3141 112.319 31.085 112.117 30.322Z" fill="#85A2D2"/>
<path opacity="0.91" d="M106.146 32.531C106.785 34.463 109.305 35.357 109.76 34.714C110.246 34.051 108.374 32.068 106.146 32.531Z" fill="#85A2D2"/>
<path opacity="0.91" d="M102.74 34.254C103.678 36.454 106.72 37.273 107.195 36.488C107.714 35.666 105.347 33.464 102.74 34.254Z" fill="#85A2D2"/>
<path opacity="0.91" d="M88.1943 47.2031C90.0943 48.9421 93.6123 48.182 93.7943 47.156C94.0053 46.055 90.5973 44.9551 88.1943 47.2031Z" fill="#85A2D2"/>
<path opacity="0.91" d="M98.9385 36.638C100.289 39.098 103.951 39.724 104.428 38.771C104.962 37.754 101.96 35.365 98.9385 36.638Z" fill="#85A2D2"/>
<path opacity="0.91" d="M91.2617 43.4081C93.2157 45.6081 97.2177 45.3021 97.5237 44.2001C97.8837 43.0101 94.1987 41.2331 91.2617 43.4081Z" fill="#85A2D2"/>
<path opacity="0.91" d="M95.0439 39.682C96.8439 42.245 101.022 42.499 101.455 41.396C101.956 40.208 98.3299 37.835 95.0439 39.682Z" fill="#85A2D2"/>
<path opacity="0.91" d="M107.271 28.365C106.332 28.224 105.02 30.801 106.147 32.534C107.918 31.214 108.176 28.527 107.271 28.365Z" fill="#85A2D2"/>
<path opacity="0.91" d="M103.741 29.209C102.596 29.135 101.241 32.336 102.741 34.254C104.719 32.517 104.839 29.314 103.741 29.209Z" fill="#85A2D2"/>
<path opacity="0.91" d="M87.1714 41.434C85.9194 41.971 85.8175 46.054 88.1945 47.204C89.5365 44.339 88.3824 40.965 87.1714 41.434Z" fill="#85A2D2"/>
<path opacity="0.91" d="M99.6552 30.538C98.2632 30.59 96.9432 34.572 98.9382 36.638C101.094 34.342 100.984 30.537 99.6552 30.538Z" fill="#85A2D2"/>
<path opacity="0.91" d="M90.7572 36.788C89.2762 37.214 88.7062 41.795 91.2572 43.408C93.0592 40.41 92.1762 36.439 90.7572 36.788Z" fill="#85A2D2"/>
<path opacity="0.91" d="M95.2441 32.707C93.6511 32.949 92.5551 37.647 95.0441 39.681C97.2301 36.818 96.7621 32.541 95.2441 32.707Z" fill="#85A2D2"/>
</g>
<g opacity="0.91">
<path opacity="0.91" d="M91.0952 46.699C93.5372 46.23 93.1202 48.078 94.9802 45.999C97.6802 42.983 99.6012 43.221 100.58 44.623C101.559 46.025 101.116 47.893 97.3212 49.343C94.7052 50.343 96.5991 50.601 95.3021 52.704C94.1751 54.531 90.2242 55.004 89.3872 56.879C87.3212 61.498 81.8602 60.061 80.6472 58.332C79.4342 56.603 79.9822 51.032 85.0742 50.732C87.1422 50.606 88.9732 47.106 91.0952 46.699Z" fill="#6689BC"/>
<path opacity="0.91" d="M83.3138 56.279L90.4508 51.371L91.2938 46.665C91.4288 46.645 91.5538 46.632 91.6708 46.626L90.8708 51.082L97.7928 46.322L98.2648 43.685C98.3897 43.6584 98.5164 43.641 98.6439 43.633L98.2138 46.033L100.472 44.48C100.51 44.527 100.546 44.58 100.581 44.625C100.616 44.67 100.649 44.725 100.681 44.777L98.4229 46.33L100.843 46.769C100.791 46.8847 100.73 46.9964 100.662 47.103L98.0009 46.62L91.0789 51.38L95.5739 52.196C95.5269 52.302 95.4738 52.414 95.4048 52.532L90.6569 51.671L83.5198 56.579L89.0198 57.579C88.9532 57.693 88.8818 57.8023 88.8058 57.907L83.0948 56.871L80.9619 58.338L80.7559 58.479L80.5479 58.179L80.7538 58.038L82.8868 56.571L83.9008 50.91C84.0255 50.878 84.1538 50.85 84.2858 50.826L83.3138 56.279Z" fill="#37639A"/>
</g>
<g opacity="0.91">
<g opacity="0.91">
<path opacity="0.91" d="M105.633 16.697L105.397 16.443C98.219 23.0624 93.2495 31.7285 91.1621 41.267L91.4541 41.331C93.5427 31.8601 98.4927 23.2602 105.633 16.697Z" fill="#6689BC"/>
</g>
<g opacity="0.91">
<path opacity="0.91" d="M105.333 16.575C105.327 16.637 105.321 16.698 105.314 16.76L105.5 16.754C107.356 16.692 109.378 13.608 109.517 13.473C109.616 13.3304 109.716 13.1884 109.817 13.047C109.651 13.0997 109.484 13.1533 109.317 13.208C109.154 13.204 105.505 14.617 105.333 16.575Z" fill="#6689BC"/>
</g>
<path opacity="0.91" d="M92.2523 37.686C92.2333 37.749 92.2143 37.812 92.1953 37.875L92.3413 37.919C95.9103 38.819 100.081 35.596 100.319 35.595C100.425 35.525 100.531 35.4557 100.637 35.387L100.287 35.3C100.057 35.193 93.4813 33.708 92.2523 37.686Z" fill="#6689BC"/>
<path opacity="0.91" d="M94.3876 31.997L94.3076 32.176L94.4516 32.241C97.5576 33.499 101.599 31.126 101.806 31.134L102.152 30.961L101.805 30.831C101.604 30.712 95.8906 28.695 94.3876 31.997Z" fill="#6689BC"/>
<path opacity="0.91" d="M97.0844 26.873L96.9844 27.041L97.1234 27.125C99.7234 28.592 103.475 26.945 103.653 26.956L104.023 26.818L103.684 26.647C103.511 26.528 98.7084 24.214 97.0844 26.873Z" fill="#6689BC"/>
<path opacity="0.91" d="M100.224 22.32L100.104 22.475L100.236 22.575C102.315 24.105 105.653 23.056 105.802 23.07L106.191 22.97L105.863 22.7611C105.724 22.6471 101.837 20.26 100.224 22.32Z" fill="#6689BC"/>
<path opacity="0.91" d="M103.334 18.716L103.198 18.859L103.322 18.976C104.906 20.413 107.715 19.8 107.837 19.812L108.242 19.739L107.926 19.499C107.817 19.398 104.805 17.181 103.334 18.716Z" fill="#6689BC"/>
<path opacity="0.91" d="M87.9521 29.895L87.6602 29.676C87.6668 29.8354 87.6741 29.9947 87.6821 30.154C87.5941 30.484 88.3271 36.874 92.0461 37.831L92.1921 37.875L92.2491 37.686C93.4371 34.01 88.2021 30.13 87.9521 29.895Z" fill="#6689BC"/>
<path opacity="0.91" d="M91.2978 24.712L91.0228 24.458C91.0135 24.616 91.0052 24.7737 90.9978 24.931C90.9038 25.206 90.9448 30.797 94.1608 32.111L94.3048 32.176L94.3848 31.997C95.8278 28.923 91.4958 24.937 91.2978 24.712Z" fill="#6689BC"/>
<path opacity="0.91" d="M95.0319 20.288L94.778 20.001C94.754 20.1564 94.7306 20.3114 94.708 20.466C94.615 20.689 94.1659 25.442 96.8419 26.957L96.981 27.041L97.0809 26.873C98.6419 24.379 95.1859 20.488 95.0319 20.288Z" fill="#6689BC"/>
<path opacity="0.91" d="M99.0229 16.587L98.7919 16.271C98.7546 16.4224 98.7179 16.5734 98.6819 16.724C98.5959 16.901 97.8409 20.802 99.9709 22.37L100.103 22.47L100.223 22.315C101.777 20.37 99.1369 16.77 99.0229 16.587Z" fill="#6689BC"/>
<path opacity="0.91" d="M102.742 13.973L102.532 13.635C102.483 13.7817 102.436 13.9283 102.389 14.075C102.317 14.21 101.456 17.275 103.071 18.738L103.195 18.855L103.33 18.712C104.754 17.248 102.825 14.126 102.742 13.973Z" fill="#6689BC"/>
</g>
<g opacity="0.91">
<g opacity="0.91">
<g opacity="0.91">
<path opacity="0.91" d="M35.2599 38.1621L35.0381 38.425L54.3875 54.7499L54.6093 54.487L35.2599 38.1621Z" fill="#85A2D2"/>
</g>
<g opacity="0.91">
<g opacity="0.91">
<path opacity="0.91" d="M31.4727 35.192L31.9027 35.345C32.0357 35.392 35.1707 36.523 35.3197 38.28L35.3337 38.451L35.1627 38.466C33.4067 38.615 31.7627 35.715 31.6947 35.591L31.4727 35.192Z" fill="#85A2D2"/>
</g>
</g>
<path opacity="0.91" d="M52.0204 52.53L52.1514 52.641L52.0404 52.772C49.2904 56.032 43.9704 55.4301 43.7464 55.4031L43.3584 55.3561L43.6584 55.102C43.8864 54.904 49.3504 50.277 52.0204 52.53Z" fill="#85A2D2"/>
<path opacity="0.91" d="M47.9604 49.1061L48.0914 49.217L47.9804 49.3481C45.5664 52.2091 40.9014 51.6811 40.7034 51.6581L40.3154 51.6111L40.6154 51.357C40.8164 51.187 45.6104 47.1231 47.9604 49.1061Z" fill="#85A2D2"/>
<path opacity="0.91" d="M44.0762 45.832L44.2072 45.943L44.0962 46.074C42.0182 48.536 38.0072 48.083 37.8372 48.062L37.4492 48.0151L37.7492 47.761C37.9212 47.608 42.0462 44.116 44.0762 45.832Z" fill="#85A2D2"/>
<path opacity="0.91" d="M40.3688 42.699L40.4998 42.81L40.3888 42.941C38.6478 45.005 35.2888 44.625 35.1478 44.608L34.7598 44.561L35.0598 44.307C35.2028 44.182 38.6588 41.256 40.3688 42.699Z" fill="#85A2D2"/>
<path opacity="0.91" d="M37.1857 40.013L37.3167 40.124L37.2057 40.255C35.8057 41.92 33.0967 41.614 32.9827 41.6L32.5947 41.553L32.8947 41.299C33.0097 41.199 35.7957 38.841 37.1857 40.013Z" fill="#85A2D2"/>
<path opacity="0.91" d="M53.1497 43.849L53.3497 43.514L53.4617 43.889C53.5267 44.106 55.0147 49.248 52.2617 52.508L52.1507 52.639L52.0197 52.528C49.3527 50.276 52.9927 44.111 53.1497 43.849Z" fill="#85A2D2"/>
<path opacity="0.91" d="M48.9452 41.482L49.1452 41.147L49.2572 41.522C49.3142 41.713 50.6192 46.222 48.2052 49.084L48.0942 49.215L47.9632 49.104C45.6132 47.12 48.8052 41.711 48.9452 41.482Z" fill="#85A2D2"/>
<path opacity="0.91" d="M44.9156 39.262L45.1156 38.927L45.2276 39.302C45.2766 39.466 46.3986 43.344 44.3206 45.802L44.2096 45.933L44.0786 45.822C42.0496 44.114 44.7976 39.46 44.9156 39.262Z" fill="#85A2D2"/>
<path opacity="0.91" d="M41.0604 37.19L41.2604 36.855L41.3714 37.23C41.4124 37.367 42.3514 40.613 40.6104 42.677L40.4994 42.808L40.3684 42.697C38.6604 41.254 40.9604 37.356 41.0604 37.19Z" fill="#85A2D2"/>
<path opacity="0.91" d="M37.7319 35.562L37.9319 35.227L38.0439 35.601C38.0769 35.711 38.8339 38.325 37.4289 39.99L37.3149 40.127L37.1839 40.016C35.7969 38.839 37.6529 35.696 37.7319 35.562Z" fill="#85A2D2"/>
</g>
<g opacity="0.91">
<path opacity="0.91" d="M33.2402 13.529L33.3852 13.391C38.7994 19.1215 42.2398 26.4326 43.2042 34.257L43.0342 34.278C42.0653 26.4944 38.6336 19.2242 33.2402 13.529Z" fill="#85A2D2"/>
<path opacity="0.91" d="M30.9752 11.199C31.3992 10.689 33.3432 11.917 33.4542 13.612C31.8282 13.384 30.5692 11.691 30.9752 11.199Z" fill="#85A2D2"/>
<path opacity="0.91" d="M34.5899 14.8821C33.4679 16.0821 31.3249 15.8771 31.2099 15.2481C31.0809 14.5881 33.1199 13.7711 34.5899 14.8821Z" fill="#85A2D2"/>
<path opacity="0.91" d="M36.4964 17.32C35.0654 18.62 32.5654 18.1741 32.4834 17.4331C32.3834 16.6491 34.8584 15.841 36.4964 17.32Z" fill="#85A2D2"/>
<path opacity="0.91" d="M42.7404 31.858C40.7644 32.485 38.4494 30.716 38.6654 29.898C38.8824 29.015 41.7464 29.377 42.7404 31.858Z" fill="#85A2D2"/>
<path opacity="0.91" d="M38.4689 20.381C36.6479 21.727 33.7599 20.929 33.7339 20.064C33.6869 19.134 36.6899 18.407 38.4689 20.381Z" fill="#85A2D2"/>
<path opacity="0.91" d="M41.7852 28.0111C39.6112 28.9601 36.7912 27.357 36.9402 26.44C37.0812 25.439 40.3742 25.4001 41.7852 28.0111Z" fill="#85A2D2"/>
<path opacity="0.91" d="M40.2834 23.964C38.1004 25.232 34.9604 23.982 35.0174 23.021C35.0534 21.974 38.5074 21.473 40.2834 23.964Z" fill="#85A2D2"/>
<path opacity="0.91" d="M35.18 11.426C35.914 11.645 36 13.994 34.589 14.883C33.742 13.302 34.463 11.234 35.18 11.426Z" fill="#85A2D2"/>
<path opacity="0.91" d="M37.4741 13.261C38.3361 13.601 38.2431 16.424 36.4961 17.32C35.6391 15.361 36.6371 12.961 37.4741 13.261Z" fill="#85A2D2"/>
<path opacity="0.91" d="M45.4423 27.962C46.1753 28.788 44.8663 31.83 42.7423 31.862C42.7293 29.288 44.7163 27.2 45.4423 27.962Z" fill="#85A2D2"/>
<path opacity="0.91" d="M40.01 15.6451C41.01 16.1621 40.625 19.545 38.469 20.381C37.667 17.95 39.039 15.1871 40.01 15.6451Z" fill="#85A2D2"/>
<path opacity="0.91" d="M44.3956 23.307C45.3336 24.13 44.1955 27.699 41.7855 28.007C41.4845 25.182 43.4766 22.562 44.3956 23.307Z" fill="#85A2D2"/>
<path opacity="0.91" d="M42.498 18.76C43.58 19.487 42.789 23.323 40.283 23.96C39.654 21.103 41.445 18.115 42.498 18.76Z" fill="#85A2D2"/>
</g>
<g opacity="0.91">
<path opacity="0.91" d="M28.1729 24.585L28.2729 24.385C35.9452 28.4423 42.1197 34.8459 45.8949 42.661L45.7258 42.743C41.9598 34.9741 35.8097 28.612 28.1729 24.585Z" fill="#6689BC"/>
<path opacity="0.91" d="M24.9878 22.957C25.2498 22.275 27.7108 22.867 28.4258 24.595C26.6508 24.933 24.7388 23.614 24.9878 22.957Z" fill="#6689BC"/>
<path opacity="0.91" d="M30.0577 25.517C29.3147 27.168 27.0057 27.71 26.6637 27.094C26.2997 26.454 28.1327 24.879 30.0577 25.517Z" fill="#6689BC"/>
<path opacity="0.91" d="M32.9098 27.383C31.8768 29.243 29.1098 29.665 28.7668 28.921C28.3838 28.135 30.6788 26.421 32.9098 27.383Z" fill="#6689BC"/>
<path opacity="0.91" d="M44.5639 40.329C42.7259 41.683 39.6859 40.657 39.6229 39.729C39.5349 38.73 42.6489 38.094 44.5639 40.329Z" fill="#6689BC"/>
<path opacity="0.91" d="M36.0509 29.876C34.6289 31.924 31.336 32.115 31.003 31.221C30.622 30.269 33.4959 28.448 36.0509 29.876Z" fill="#6689BC"/>
<path opacity="0.91" d="M42.2058 36.655C40.2758 38.413 36.7678 37.741 36.5988 36.732C36.3918 35.641 39.8118 34.435 42.2058 36.655Z" fill="#6689BC"/>
<path opacity="0.91" d="M39.2034 32.97C37.3764 35.065 33.6614 34.87 33.3804 33.851C33.0514 32.746 36.4754 31.002 39.2034 32.97Z" fill="#6689BC"/>
<path opacity="0.91" d="M29.4512 21.704C30.2942 21.672 31.2151 24.091 30.0591 25.517C28.6121 24.169 28.6362 21.758 29.4512 21.704Z" fill="#6689BC"/>
<path opacity="0.91" d="M32.492 22.805C33.51 22.854 34.413 25.83 32.909 27.383C31.322 25.644 31.513 22.789 32.492 22.805Z" fill="#6689BC"/>
<path opacity="0.91" d="M46.0017 35.311C47.0577 35.911 46.7707 39.547 44.5647 40.33C43.6427 37.653 44.9747 34.778 46.0017 35.311Z" fill="#6689BC"/>
<path opacity="0.91" d="M35.979 24.393C37.204 24.578 38.002 28.244 36.049 29.875C34.352 27.626 34.805 24.26 35.979 24.393Z" fill="#6689BC"/>
<path opacity="0.91" d="M43.2629 30.83C44.5319 31.356 44.6119 35.479 42.2059 36.655C40.8929 33.814 42.0409 30.378 43.2629 30.83Z" fill="#6689BC"/>
<path opacity="0.91" d="M39.6763 26.76C41.0623 27.134 41.5953 31.413 39.2093 32.97C37.5413 30.21 38.3513 26.46 39.6763 26.76Z" fill="#6689BC"/>
</g>
</g>
</g>
<g opacity="0.91">
<path opacity="0.91" d="M106.82 58.824H25.4956C25.1162 58.824 24.8086 59.1316 24.8086 59.511C24.8086 59.8905 25.1162 60.198 25.4956 60.198H106.82C107.199 60.198 107.507 59.8905 107.507 59.511C107.507 59.1316 107.199 58.824 106.82 58.824Z" fill="#707070"/>
</g>
</g>
<path d="M56.1289 14.744L42.4409 14.905C42.1521 14.9084 41.8673 14.9732 41.6055 15.0951C41.3437 15.2171 41.1108 15.3933 40.9224 15.6122C40.734 15.8311 40.5943 16.0876 40.5127 16.3646C40.431 16.6417 40.4093 16.9329 40.4489 17.219L44.1769 44.212C44.2448 44.7029 44.4895 45.1522 44.8651 45.4755C45.2407 45.7988 45.7214 45.9739 46.2169 45.968L88.4389 45.468C88.9343 45.4628 89.4107 45.2771 89.7789 44.9457C90.1471 44.6144 90.3818 44.1601 90.4389 43.668L93.0189 20.334C93.0408 20.1425 93.0216 19.9485 92.9627 19.7649C92.9039 19.5813 92.8066 19.4123 92.6774 19.2692C92.5482 19.1261 92.39 19.0122 92.2134 18.9349C92.0368 18.8576 91.8457 18.8188 91.6529 18.821L59.4759 19.199L58.3199 16.007C58.1017 15.6192 57.7831 15.2974 57.3976 15.0751C57.0121 14.8529 56.5739 14.7385 56.1289 14.744Z" fill="#FFCB00"/>
<path d="M56.1356 15.396L42.4476 15.557C42.1589 15.5604 41.8742 15.6252 41.6125 15.7471C41.3508 15.869 41.118 16.0452 40.9295 16.2639C40.7411 16.4827 40.6014 16.739 40.5197 17.016C40.438 17.2929 40.4162 17.584 40.4556 17.87L43.4236 44.87L91.2046 44.309L93.0246 20.984C93.0465 20.7925 93.0273 20.5985 92.9684 20.4149C92.9096 20.2313 92.8123 20.0623 92.6831 19.9192C92.5539 19.7761 92.3957 19.6622 92.2191 19.5849C92.0425 19.5076 91.8514 19.4688 91.6586 19.471L59.4816 19.849L58.3256 16.657C58.1072 16.2698 57.7887 15.9484 57.4034 15.7265C57.0181 15.5047 56.5802 15.3905 56.1356 15.396Z" fill="#FFBA00"/>
<path d="M41.0107 22.922L43.4237 44.873L91.2047 44.312L92.9207 22.312L41.0107 22.922Z" fill="#E79A15"/>
<path d="M65.4137 1.24124L40.959 5.923L46.831 36.5948L71.2857 31.913L65.4137 1.24124Z" fill="#EFEEEE"/>
<g style="mix-blend-mode:multiply" opacity="0.42">
<path d="M65.416 1.23199L65.042 1.304L61.168 31.753L67.744 32.59L71.301 31.908L65.416 1.23199Z" fill="#D3E2EC"/>
</g>
<path d="M61.4357 4.3577L45.8145 7.354L46.072 8.69653L61.6932 5.70023L61.4357 4.3577Z" fill="#D1D2D3"/>
<path d="M64.9035 22.4377L49.2822 25.434L49.5397 26.7765L65.161 23.7802L64.9035 22.4377Z" fill="#D1D2D3"/>
<path d="M65.421 25.1377L49.7998 28.134L50.0573 29.4765L65.6786 26.4802L65.421 25.1377Z" fill="#D1D2D3"/>
<path d="M65.9386 27.8367L50.3174 30.833L50.5749 32.1755L66.1961 29.1792L65.9386 27.8367Z" fill="#D1D2D3"/>
<path d="M57.9161 7.1304L50.1084 8.62799L50.2371 9.29876L58.0447 7.80118L57.9161 7.1304Z" fill="#D1D2D3"/>
<path d="M54.0264 11.4138L45.3857 13.068L45.5141 13.7387L54.1548 12.0845L54.0264 11.4138Z" fill="#D1D2D3"/>
<path d="M54.4091 13.4005L45.7676 15.058L45.8962 15.7288L54.5377 14.0713L54.4091 13.4005Z" fill="#D1D2D3"/>
<path d="M54.79 15.3948L46.1494 17.049L46.2778 17.7197L54.9184 16.0655L54.79 15.3948Z" fill="#D1D2D3"/>
<path d="M55.1709 17.3848L46.5303 19.039L46.6587 19.7097L55.2993 18.0555L55.1709 17.3848Z" fill="#D1D2D3"/>
<path d="M55.5546 19.3725L46.9131 21.03L47.0417 21.7008L55.6832 20.0433L55.5546 19.3725Z" fill="#D1D2D3"/>
<path d="M55.9355 21.3658L47.2949 23.02L47.4233 23.6907L56.0639 22.0365L55.9355 21.3658Z" fill="#D1D2D3"/>
<path d="M64.456 9.41277L55.8154 11.067L55.9438 11.7377L64.5845 10.0835L64.456 9.41277Z" fill="#D1D2D3"/>
<path d="M64.8387 11.3995L56.1973 13.057L56.3259 13.7278L64.9674 12.0703L64.8387 11.3995Z" fill="#D1D2D3"/>
<path d="M65.2197 13.3938L56.5791 15.048L56.7075 15.7187L65.3481 14.0645L65.2197 13.3938Z" fill="#D1D2D3"/>
<path d="M65.6006 15.3838L56.96 17.038L57.0884 17.7087L65.729 16.0545L65.6006 15.3838Z" fill="#D1D2D3"/>
<path d="M65.9842 17.3715L57.3428 19.029L57.4714 19.6998L66.1129 18.0422L65.9842 17.3715Z" fill="#D1D2D3"/>
<path d="M66.3652 19.3648L57.7246 21.019L57.853 21.6897L66.4936 20.0355L66.3652 19.3648Z" fill="#D1D2D3"/>
<path d="M91.0358 4.0716L66.332 0.928009L62.3893 31.9122L87.093 35.0557L91.0358 4.0716Z" fill="#EFEEEE"/>
<path d="M86.2797 5.80115L70.501 3.797L70.3287 5.15306L86.1075 7.15722L86.2797 5.80115Z" fill="#D1D2D3"/>
<path d="M83.9565 24.0642L68.1777 22.06L68.0055 23.4161L83.7842 25.4202L83.9565 24.0642Z" fill="#D1D2D3"/>
<path d="M83.6088 26.7902L67.8301 24.786L67.6578 26.1421L83.4366 28.1462L83.6088 26.7902Z" fill="#D1D2D3"/>
<path d="M83.2622 29.5172L67.4834 27.513L67.3112 28.8691L83.0899 30.8732L83.2622 29.5172Z" fill="#D1D2D3"/>
<path d="M82.0739 7.34657L74.1875 6.34302L74.1013 7.02055L81.9877 8.02411L82.0739 7.34657Z" fill="#D1D2D3"/>
<path d="M77.047 10.2047L68.3184 9.09399L68.2321 9.77153L76.9608 10.8823L77.047 10.2047Z" fill="#D1D2D3"/>
<path d="M76.7921 12.2157L68.0635 11.105L67.9773 11.7825L76.7059 12.8932L76.7921 12.2157Z" fill="#D1D2D3"/>
<path d="M76.5362 14.2257L67.8076 13.115L67.7214 13.7925L76.45 14.9033L76.5362 14.2257Z" fill="#D1D2D3"/>
<path d="M76.2804 16.2367L67.5518 15.126L67.4655 15.8035L76.1942 16.9143L76.2804 16.2367Z" fill="#D1D2D3"/>
<path d="M76.0235 18.2477L67.2949 17.137L67.2087 17.8145L75.9373 18.9253L76.0235 18.2477Z" fill="#D1D2D3"/>
<path d="M75.7677 20.2577L67.0391 19.147L66.9528 19.8245L75.6815 20.9353L75.7677 20.2577Z" fill="#D1D2D3"/>
<path d="M87.5812 11.5457L78.8525 10.435L78.7663 11.1125L87.4949 12.2233L87.5812 11.5457Z" fill="#D1D2D3"/>
<path d="M87.3263 13.5567L78.5977 12.446L78.5114 13.1235L87.2401 14.2342L87.3263 13.5567Z" fill="#D1D2D3"/>
<path d="M87.0704 15.5667L78.3418 14.456L78.2556 15.1335L86.9842 16.2443L87.0704 15.5667Z" fill="#D1D2D3"/>
<path d="M86.8145 17.5777L78.0859 16.467L77.9997 17.1445L86.7283 18.2553L86.8145 17.5777Z" fill="#D1D2D3"/>
<path d="M86.5577 19.5887L77.8291 18.478L77.7429 19.1555L86.4715 20.2663L86.5577 19.5887Z" fill="#D1D2D3"/>
<path d="M86.3019 21.5987L77.5732 20.488L77.487 21.1655L86.2156 22.2763L86.3019 21.5987Z" fill="#D1D2D3"/>
<path d="M90.4733 57.853L44.3803 58.394C43.8393 58.4003 43.3147 58.2091 42.9047 57.8562C42.4947 57.5033 42.2275 57.0129 42.1533 56.477L38.0833 27.009C38.0403 26.6968 38.0642 26.3789 38.1535 26.0766C38.2427 25.7744 38.3953 25.4945 38.601 25.2557C38.8067 25.0169 39.0608 24.8246 39.3466 24.6915C39.6323 24.5585 39.9431 24.4877 40.2583 24.484L93.7983 23.856C94.1135 23.8523 94.426 23.9157 94.7149 24.042C95.0038 24.1683 95.2625 24.3547 95.4738 24.5887C95.6851 24.8227 95.8442 25.099 95.9405 25.3992C96.0368 25.6995 96.0681 26.0168 96.0323 26.33L92.6543 55.885C92.5925 56.4223 92.3369 56.9186 91.9354 57.2809C91.5339 57.6432 91.014 57.8466 90.4733 57.853Z" fill="#FFFF5F"/>
<path d="M90.4811 58.505L44.3881 59.046C43.847 59.0523 43.3222 58.8609 42.9122 58.5078C42.5022 58.1547 42.2351 57.664 42.1611 57.128L38.0911 27.66C38.0481 27.3478 38.072 27.0299 38.1613 26.7276C38.2505 26.4253 38.4031 26.1455 38.6088 25.9067C38.8145 25.6679 39.0687 25.4755 39.3544 25.3425C39.6401 25.2095 39.9509 25.1387 40.2661 25.135L93.8071 24.507C94.1221 24.5034 94.4342 24.5669 94.7229 24.6932C95.0115 24.8195 95.2699 25.0056 95.4811 25.2394C95.6923 25.4732 95.8513 25.7492 95.9477 26.0491C96.0441 26.349 96.0756 26.666 96.0401 26.979L92.6631 56.534C92.602 57.072 92.3465 57.5691 91.9447 57.932C91.543 58.295 91.0225 58.4987 90.4811 58.505Z" fill="#FFD600"/>
<path d="M56.4196 36.844H55.5426C55.1831 36.844 54.8916 37.1355 54.8916 37.495V37.496C54.8916 37.8555 55.1831 38.147 55.5426 38.147H56.4196C56.7791 38.147 57.0706 37.8555 57.0706 37.496V37.495C57.0706 37.1355 56.7791 36.844 56.4196 36.844Z" fill="white"/>
<path d="M79.7675 36.844H59.5885C59.229 36.844 58.9375 37.1355 58.9375 37.495V37.496C58.9375 37.8555 59.229 38.147 59.5885 38.147H79.7675C80.127 38.147 80.4185 37.8555 80.4185 37.496V37.495C80.4185 37.1355 80.127 36.844 79.7675 36.844Z" fill="white"/>
<path d="M56.4196 40.676H55.5426C55.1831 40.676 54.8916 40.9675 54.8916 41.327V41.328C54.8916 41.6876 55.1831 41.979 55.5426 41.979H56.4196C56.7791 41.979 57.0706 41.6876 57.0706 41.328V41.327C57.0706 40.9675 56.7791 40.676 56.4196 40.676Z" fill="white"/>
<path d="M79.7675 40.676H59.5885C59.229 40.676 58.9375 40.9675 58.9375 41.327V41.328C58.9375 41.6876 59.229 41.979 59.5885 41.979H79.7675C80.127 41.979 80.4185 41.6876 80.4185 41.328V41.327C80.4185 40.9675 80.127 40.676 79.7675 40.676Z" fill="white"/>
<path d="M56.4196 44.502H55.5426C55.1831 44.502 54.8916 44.7935 54.8916 45.153V45.154C54.8916 45.5136 55.1831 45.805 55.5426 45.805H56.4196C56.7791 45.805 57.0706 45.5136 57.0706 45.154V45.153C57.0706 44.7935 56.7791 44.502 56.4196 44.502Z" fill="white"/>
<path d="M79.7675 44.502H59.5885C59.229 44.502 58.9375 44.7935 58.9375 45.153V45.154C58.9375 45.5136 59.229 45.805 59.5885 45.805H79.7675C80.127 45.805 80.4185 45.5136 80.4185 45.154V45.153C80.4185 44.7935 80.127 44.502 79.7675 44.502Z" fill="white"/>
<path d="M56.4196 48.328H55.5426C55.1831 48.328 54.8916 48.6195 54.8916 48.979V48.98C54.8916 49.3395 55.1831 49.631 55.5426 49.631H56.4196C56.7791 49.631 57.0706 49.3395 57.0706 48.98V48.979C57.0706 48.6195 56.7791 48.328 56.4196 48.328Z" fill="white"/>
<path d="M79.7675 48.328H59.5885C59.229 48.328 58.9375 48.6195 58.9375 48.979V48.98C58.9375 49.3395 59.229 49.631 59.5885 49.631H79.7675C80.127 49.631 80.4185 49.3395 80.4185 48.98V48.979C80.4185 48.6195 80.127 48.328 79.7675 48.328Z" fill="white"/>
<defs>
<linearGradient id="paint0_linear" x1="124.121" y1="68.6349" x2="17.501" y2="68.6349" gradientUnits="userSpaceOnUse">
<stop stop-color="#D3D6DB"/>
<stop offset="0.999" stop-color="#7A869B"/>
</linearGradient>
</defs>
</svg>
