<svg width="50" height="48" viewBox="0 0 50 48" fill="none" xmlns="http://www.w3.org/2000/svg">
<path d="M49.2231 18.1102C49.0653 17.622 48.7673 17.1911 48.3663 16.871C47.9654 16.551 47.4791 16.3559 46.9681 16.3102L32.7401 15.0172L27.1151 1.84917C26.9134 1.37738 26.5775 0.975219 26.1493 0.692581C25.721 0.409944 25.2192 0.259277 24.7061 0.259277C24.193 0.259277 23.6912 0.409944 23.2629 0.692581C22.8347 0.975219 22.4989 1.37738 22.2971 1.84917L16.6701 15.0172L2.44112 16.3092C1.93097 16.3574 1.44612 16.554 1.04644 16.8747C0.646761 17.1953 0.349766 17.6261 0.192134 18.1136C0.0345013 18.6012 0.0231355 19.1243 0.15944 19.6182C0.295744 20.1122 0.573749 20.5554 0.959119 20.8932L11.7131 30.3242L8.53712 44.2932C8.42116 44.794 8.45532 45.3179 8.63533 45.7994C8.81535 46.2809 9.13324 46.6987 9.5493 47.0006C9.96535 47.3025 10.4611 47.4751 10.9747 47.4969C11.4883 47.5187 11.997 47.3887 12.4371 47.1232L24.7091 39.7882L36.9771 47.1232C37.4175 47.3872 37.9257 47.516 38.4387 47.4936C38.9516 47.4711 39.4466 47.2983 39.8622 46.9968C40.2778 46.6952 40.5955 46.2782 40.776 45.7975C40.9564 45.3168 40.9916 44.7937 40.8771 44.2932L37.7001 30.3242L48.4591 20.8952C48.8459 20.5573 49.1249 20.1132 49.2615 19.618C49.398 19.1229 49.3861 18.5986 49.2271 18.1102H49.2231Z" fill="#2B8AFF"/>
<path d="M41.674 20.8981C41.5645 20.5587 41.3575 20.2592 41.0788 20.0367C40.8002 19.8142 40.4622 19.6787 40.107 19.6471L30.223 18.7471L26.32 9.60606C26.1799 9.27829 25.9466 8.99888 25.6491 8.80251C25.3516 8.60614 25.003 8.50146 24.6465 8.50146C24.2901 8.50146 23.9415 8.60614 23.644 8.80251C23.3464 8.99888 23.1132 9.27829 22.973 9.60606L19.06 18.7491L9.17504 19.6491C8.82064 19.6822 8.4837 19.8183 8.20582 20.0408C7.92795 20.2632 7.72132 20.5622 7.61144 20.9007C7.50157 21.2393 7.49326 21.6026 7.58756 21.9459C7.68185 22.2891 7.87462 22.5972 8.14204 22.8321L15.613 29.3841L13.413 39.0841C13.3317 39.432 13.3547 39.7961 13.4793 40.131C13.6038 40.4659 13.8243 40.7566 14.1132 40.9669C14.4021 41.1771 14.7465 41.2975 15.1035 41.313C15.4604 41.3285 15.814 41.2385 16.12 41.0541L24.646 35.9541L33.168 41.0541C33.474 41.2368 33.8268 41.3257 34.1828 41.3098C34.5388 41.2938 34.8822 41.1737 35.1706 40.9644C35.4589 40.755 35.6795 40.4656 35.8049 40.1321C35.9303 39.7986 35.955 39.4355 35.876 39.0881L33.676 29.3881L41.147 22.8371C41.4159 22.6023 41.6098 22.2938 41.7047 21.9498C41.7997 21.6058 41.7914 21.2414 41.681 20.9021L41.674 20.8981Z" fill="white"/>
<path d="M35.5242 23.3353C35.4548 23.1205 35.3237 22.9309 35.1473 22.7901C34.9709 22.6492 34.757 22.5634 34.5322 22.5433L28.2772 21.9763L25.8092 16.1863C25.7204 15.979 25.5727 15.8023 25.3845 15.6782C25.1962 15.554 24.9757 15.4878 24.7502 15.4878C24.5246 15.4878 24.3041 15.554 24.1158 15.6782C23.9276 15.8023 23.7799 15.979 23.6912 16.1863L21.2092 21.9753L14.9532 22.5433C14.7288 22.5646 14.5156 22.6511 14.3399 22.7923C14.1642 22.9334 14.0337 23.1229 13.9646 23.3374C13.8954 23.5519 13.8906 23.7819 13.9508 23.9991C14.011 24.2163 14.1335 24.411 14.3032 24.5593L19.0312 28.7053L17.6362 34.8473C17.5842 35.0676 17.5984 35.2984 17.6769 35.5107C17.7555 35.723 17.895 35.9073 18.0779 36.0407C18.2608 36.1741 18.479 36.2505 18.7051 36.2604C18.9313 36.2703 19.1553 36.2132 19.3492 36.0963L24.7492 32.8713L30.1382 36.0963C30.3318 36.2119 30.555 36.2682 30.7803 36.2581C31.0056 36.248 31.2229 36.172 31.4054 36.0395C31.5879 35.9071 31.7275 35.724 31.8069 35.513C31.8863 35.3019 31.9021 35.0722 31.8522 34.8523L30.4582 28.7113L35.1862 24.5653C35.3562 24.4169 35.4789 24.2217 35.539 24.0041C35.5991 23.7865 35.594 23.556 35.5242 23.3413V23.3353Z" fill="#82C61B"/>
</svg>
