<svg width="24" height="23" viewBox="0 0 24 23" fill="none" xmlns="http://www.w3.org/2000/svg">
<g style="mix-blend-mode:luminosity">
<g style="mix-blend-mode:luminosity">
<g style="mix-blend-mode:luminosity">
<path d="M10.9677 20.914C8.89955 20.914 6.87779 20.3007 5.15815 19.1517C3.4385 18.0027 2.0982 16.3695 1.30674 14.4587C0.515273 12.548 0.30819 10.4454 0.711675 8.41695C1.11516 6.38849 2.11109 4.52523 3.57353 3.06279C5.03597 1.60035 6.89923 0.604419 8.92769 0.200933C10.9561 -0.202553 13.0587 0.00453085 14.9695 0.795996C16.8802 1.58746 18.5134 2.92776 19.6624 4.64741C20.8115 6.36705 21.4247 8.38881 21.4247 10.457C21.425 11.8303 21.1547 13.1902 20.6293 14.459C20.1039 15.7279 19.3336 16.8807 18.3625 17.8518C17.3915 18.8229 16.2386 19.5931 14.9698 20.1185C13.701 20.644 12.3411 20.9143 10.9677 20.914Z" fill="#2B8AFF"/>
</g>
<g style="mix-blend-mode:luminosity">
<path d="M10.9678 0V20.914C13.7411 20.914 16.4009 19.8123 18.362 17.8512C20.3231 15.8901 21.4248 13.2304 21.4248 10.457C21.4248 7.68363 20.3231 5.02385 18.362 3.06278C16.4009 1.10172 13.7411 4.13264e-08 10.9678 0V0Z" fill="#2682FF"/>
</g>
<g style="mix-blend-mode:luminosity">
<path d="M10.9678 12.9082C9.38394 12.906 7.82309 13.2874 6.41875 14.0199C5.01442 14.7523 3.80839 15.8141 2.90381 17.1142C3.89114 18.31 5.1321 19.2712 6.53678 19.9282C7.94146 20.5852 9.47469 20.9216 11.0254 20.9129C12.5761 20.9041 14.1055 20.5506 15.5027 19.8779C16.8999 19.2051 18.13 18.23 19.1038 17.0232C18.0778 16.0002 15.7608 12.9082 10.9678 12.9082Z" fill="white"/>
</g>
<g style="mix-blend-mode:luminosity">
<path d="M19.1058 17.0232C18.127 18.2395 16.8876 19.2205 15.4792 19.894C14.0707 20.5674 12.529 20.9161 10.9678 20.9142V12.9082C15.7608 12.9082 18.0778 16.0002 19.1058 17.0232Z" fill="white"/>
</g>
<g style="mix-blend-mode:luminosity">
<path d="M10.9675 11.0702C9.99254 11.0691 9.05785 10.6812 8.36864 9.99165C7.67943 9.30206 7.29203 8.36716 7.2915 7.3922V6.1682C7.2915 5.19313 7.67885 4.258 8.36833 3.56852C9.05781 2.87904 9.99293 2.4917 10.968 2.4917C11.9431 2.4917 12.8782 2.87904 13.5677 3.56852C14.2572 4.258 14.6445 5.19313 14.6445 6.1682V7.3922C14.6437 8.36725 14.2561 9.30215 13.5667 9.99171C12.8773 10.6813 11.9425 11.0691 10.9675 11.0702Z" fill="white"/>
</g>
<g style="mix-blend-mode:luminosity">
<path d="M10.9678 2.49219V11.0702C11.9424 11.0691 12.8768 10.6815 13.5659 9.99234C14.2551 9.30319 14.6427 8.3688 14.6438 7.39419V6.16819C14.6427 5.19358 14.2551 4.25919 13.5659 3.57003C12.8768 2.88088 11.9424 2.49325 10.9678 2.49219Z" fill="white"/>
</g>
</g>
<g style="mix-blend-mode:luminosity">
<path d="M18.917 22.7559C21.7248 22.7559 24.001 20.4797 24.001 17.6719C24.001 14.8641 21.7248 12.5879 18.917 12.5879C16.1092 12.5879 13.833 14.8641 13.833 17.6719C13.833 20.4797 16.1092 22.7559 18.917 22.7559Z" fill="white"/>
</g>
<g style="mix-blend-mode:luminosity">
<g style="mix-blend-mode:luminosity">
<g style="mix-blend-mode:luminosity">
<path d="M19.0149 13.6982C18.2095 13.6982 17.4222 13.9371 16.7526 14.3845C16.083 14.8319 15.561 15.4679 15.2528 16.212C14.9446 16.956 14.864 17.7748 15.0211 18.5646C15.1782 19.3545 15.5661 20.0801 16.1355 20.6496C16.705 21.2191 17.4306 21.6069 18.2205 21.764C19.0104 21.9211 19.8291 21.8405 20.5732 21.5323C21.3172 21.2241 21.9532 20.7022 22.4006 20.0325C22.8481 19.3629 23.0869 18.5756 23.0869 17.7702C23.0858 16.6906 22.6565 15.6555 21.893 14.8921C21.1296 14.1287 20.0945 13.6993 19.0149 13.6982ZM18.7469 19.7722C18.7052 19.813 18.6492 19.8359 18.5909 19.8359C18.5326 19.8359 18.4765 19.813 18.4349 19.7722L16.4759 17.7982C16.4553 17.7779 16.439 17.7537 16.4279 17.727C16.4168 17.7003 16.4111 17.6717 16.4111 17.6427C16.4111 17.6138 16.4168 17.5852 16.4279 17.5585C16.439 17.5318 16.4553 17.5076 16.4759 17.4872L16.9439 17.0192C16.9855 16.9784 17.0416 16.9556 17.0999 16.9556C17.1582 16.9556 17.2142 16.9784 17.2559 17.0192L18.5929 18.3662L21.1929 15.7662C21.2343 15.725 21.2904 15.7018 21.3489 15.7018C21.4074 15.7018 21.4634 15.725 21.5049 15.7662L21.9709 16.2322C22.0123 16.2742 22.0356 16.3308 22.0356 16.3897C22.0356 16.4487 22.0123 16.5053 21.9709 16.5472L18.7469 19.7722Z" fill="#82C61B"/>
</g>
</g>
</g>
</g>
</svg>
