<svg width="69" height="67" viewBox="0 0 69 67" fill="none" xmlns="http://www.w3.org/2000/svg">
<path d="M46.8944 23.9091L30.4918 43.8565L22.8325 35.7942C21.3873 34.2651 18.8583 34.2651 17.4131 35.7942L8.52539 45.1076V57.2011C8.52539 57.5486 8.81442 57.8266 9.17571 57.8266H59.4673C59.8286 57.8266 60.1176 57.5486 60.1176 57.2011V33.292L52.386 23.9091C51.0131 22.1716 48.3396 22.1716 46.8944 23.9091Z" fill="#C9D4FA"/>
<path d="M19.0755 24.3958C22.6671 24.3958 25.5787 21.5952 25.5787 18.1405C25.5787 14.6858 22.6671 11.8853 19.0755 11.8853C15.4839 11.8853 12.5723 14.6858 12.5723 18.1405C12.5723 21.5952 15.4839 24.3958 19.0755 24.3958Z" fill="#C9D4FA"/>
<path d="M59.4684 0H9.17677C4.11871 0 0 3.96167 0 8.82688V57.201C0 62.0662 4.11871 66.0279 9.17677 66.0279H59.4684C64.5264 66.0279 68.6451 62.0662 68.6451 57.201V8.82688C68.6451 3.96167 64.5264 0 59.4684 0ZM63.5148 57.201C63.5148 59.3556 61.7084 61.0932 59.4684 61.0932H9.17677C6.93677 61.0932 5.13032 59.3556 5.13032 57.201V8.82688C5.13032 6.67229 6.93677 4.93472 9.17677 4.93472H59.4684C61.7084 4.93472 63.5148 6.67229 63.5148 8.82688V57.201Z" fill="#C9D4FA"/>
</svg>
