<svg width="348" height="213" viewBox="0 0 348 213" fill="none" xmlns="http://www.w3.org/2000/svg">
<g opacity="0.91">
<g opacity="0.91">
<path opacity="0.59" d="M4.68691 105.145C6.59639 40.4804 80.8043 26.1197 110.817 43.376C138.464 59.2711 139.639 85.4077 156.508 92.1837C219.446 117.461 268.87 61.7752 312.002 93.9227C333.285 109.786 339.131 143.041 323.678 160.943C313.29 172.975 293.774 179.199 268.985 182.208C221.667 183.387 155.665 181.952 97.5313 182.254C52.2152 167.801 4.04996 126.729 4.68691 105.145Z" fill="#D8DADF"/>
<path opacity="0.3" d="M12.2756 196.018C5.8256 196.508 0.0685157 199.604 0.000319888 201.568C-0.0596924 203.341 8.34069 204.788 11.2799 205.297C44.9032 211.105 52.2069 201.368 96.6951 205.57C120.029 207.773 116.509 211.435 137.203 212.35C165.517 213.609 208.673 205.97 244.066 206.312C259.167 206.458 259.406 207.696 279.958 208.685C288.031 209.074 344.583 211.736 345.589 207.668C345.771 206.933 354.571 196.533 337.373 192.789C337.372 192.79 194.486 182.195 12.2756 196.018Z" fill="url(#paint0_linear)"/>
</g>
<g opacity="0.91">
<g opacity="0.91">
<path opacity="0.91" d="M314.843 74.1362C314.733 73.8635 314.623 73.5875 314.514 73.3083C282.061 86.0163 254.567 108.843 236.106 138.405L236.753 138.814C255.156 109.423 282.538 86.7432 314.843 74.1362Z" fill="#85A2D2"/>
<path opacity="0.91" d="M328.314 69.068C327.549 66.2215 317.418 67.4763 313.821 74.0613C320.811 76.2177 329.04 71.8081 328.314 69.068Z" fill="#85A2D2"/>
<path opacity="0.91" d="M306.883 77.0127C309.177 83.9495 318.221 87.1575 319.851 84.8511C321.597 82.4561 314.879 75.335 306.883 77.0127Z" fill="#85A2D2"/>
<path opacity="0.91" d="M294.652 83.1858C298.021 91.0869 308.941 94.0234 310.647 91.207C312.507 88.2555 304.013 80.3475 294.652 83.1858Z" fill="#85A2D2"/>
<path opacity="0.91" d="M242.438 129.672C249.257 135.913 261.887 133.188 262.531 129.503C263.299 125.552 251.063 121.603 242.438 129.672Z" fill="#85A2D2"/>
<path opacity="0.91" d="M281.005 91.7307C285.856 100.561 299 102.81 300.712 99.3877C302.631 95.7501 291.853 87.1752 281.005 91.7307Z" fill="#85A2D2"/>
<path opacity="0.91" d="M253.443 116.047C260.458 123.948 274.824 122.846 275.925 118.888C277.215 114.619 263.985 108.253 253.443 116.047Z" fill="#85A2D2"/>
<path opacity="0.91" d="M267.021 102.671C273.482 111.87 288.48 112.783 290.035 108.823C291.835 104.56 278.818 96.0395 267.021 102.671Z" fill="#85A2D2"/>
<path opacity="0.91" d="M310.917 62.0452C307.545 61.5378 302.834 70.7878 306.881 77.0114C313.238 72.2745 314.168 62.633 310.917 62.0452Z" fill="#85A2D2"/>
<path opacity="0.91" d="M298.244 65.0743C294.135 64.8097 289.264 76.298 294.652 83.1857C301.755 76.9513 302.183 65.4521 298.244 65.0743Z" fill="#85A2D2"/>
<path opacity="0.91" d="M238.764 108.958C234.272 110.886 233.906 125.542 242.436 129.671C247.255 119.387 243.111 107.277 238.764 108.958Z" fill="#85A2D2"/>
<path opacity="0.91" d="M283.579 69.8467C278.583 70.0349 273.845 84.3274 281.004 91.7321C288.758 83.5036 288.348 69.844 283.579 69.8467Z" fill="#85A2D2"/>
<path opacity="0.91" d="M251.639 92.2817C246.319 93.8107 244.273 110.257 253.446 116.047C259.904 105.284 256.733 91.0296 251.639 92.2817Z" fill="#85A2D2"/>
<path opacity="0.91" d="M267.745 77.636C262.025 78.5061 258.093 95.3669 267.023 102.671C274.872 92.3895 273.193 77.0358 267.745 77.636Z" fill="#85A2D2"/>
</g>
<g opacity="0.91">
<path opacity="0.91" d="M252.846 127.862C261.613 126.178 260.116 132.812 266.792 125.35C276.476 114.525 283.38 115.376 286.911 120.41C290.442 125.444 288.837 132.148 275.21 137.355C265.818 140.945 272.619 141.873 267.964 149.419C263.918 155.977 249.735 157.686 246.729 164.406C239.311 180.988 219.707 175.829 215.359 169.623C211.011 163.417 212.972 143.423 231.253 142.332C238.653 141.89 245.229 129.326 252.846 127.862Z" fill="#6689BC"/>
<path opacity="0.91" d="M224.918 162.258L250.539 144.637L253.566 127.741C254.05 127.669 254.499 127.624 254.919 127.605L252.055 143.601L276.903 126.511L278.598 117.044C279.047 116.948 279.503 116.886 279.962 116.858L278.419 125.47L286.525 119.896C286.661 120.065 286.798 120.238 286.916 120.417C287.035 120.595 287.161 120.778 287.272 120.962L279.167 126.537L287.855 128.113C287.668 128.528 287.45 128.929 287.203 129.311L277.655 127.579L252.808 144.667L268.943 147.596C268.774 147.977 268.574 148.378 268.337 148.801L251.288 145.708L225.667 163.33L245.422 166.914C245.174 167.323 244.918 167.716 244.654 168.091L224.153 164.37L216.497 169.636L215.758 170.144L215.011 169.077L215.75 168.568L223.406 163.304L227.046 142.981C227.493 142.867 227.954 142.766 228.428 142.679L224.918 162.258Z" fill="#37639A"/>
</g>
<g opacity="0.91">
<g opacity="0.91">
<path opacity="0.91" d="M305.036 20.158L304.187 19.2441C278.42 43.0073 260.58 74.1177 253.087 108.36L254.136 108.587C261.634 74.5893 279.403 43.7184 305.036 20.158Z" fill="#6689BC"/>
</g>
<g opacity="0.91">
<path opacity="0.91" d="M303.943 19.7216C303.92 19.9425 303.898 20.1635 303.876 20.3844L304.544 20.364C311.207 20.1417 318.467 9.06941 318.964 8.58522C319.319 8.0742 319.677 7.56413 320.038 7.05493C319.439 7.24406 318.841 7.4368 318.243 7.63321C317.683 7.61684 304.576 12.6906 303.943 19.7216Z" fill="#6689BC"/>
</g>
<path opacity="0.91" d="M256.998 95.509C256.929 95.7354 256.861 95.9605 256.793 96.191L257.317 96.3478C270.129 99.5639 285.102 88.0061 285.959 88.0047C286.339 87.7529 286.719 87.5042 287.1 87.2587L285.844 86.9477C285.018 86.559 261.41 81.2288 256.998 95.509Z" fill="#6689BC"/>
<path opacity="0.91" d="M264.663 75.0842C264.567 75.2984 264.47 75.5125 264.375 75.7266L264.891 75.9585C276.041 80.4744 290.547 71.9567 291.291 71.9827C291.703 71.7726 292.117 71.5658 292.532 71.3621L291.286 70.8942C290.566 70.4769 270.058 63.2318 264.663 75.0842Z" fill="#6689BC"/>
<path opacity="0.91" d="M274.346 56.685L273.981 57.2865L274.481 57.5892C283.808 62.8539 297.284 56.9427 297.922 56.9837C298.363 56.8154 298.806 56.6504 299.249 56.4885L298.03 55.8748C297.419 55.4506 280.178 47.1457 274.346 56.685Z" fill="#6689BC"/>
<path opacity="0.91" d="M285.615 40.3454L285.184 40.9019L285.657 41.2688C293.12 46.7613 305.102 42.9955 305.64 43.0418C306.105 42.9155 306.571 42.7923 307.038 42.6722L305.861 41.9221C305.36 41.5184 291.404 32.9502 285.615 40.3454Z" fill="#6689BC"/>
<path opacity="0.91" d="M296.782 27.4058L296.295 27.9187L296.741 28.3401C302.427 33.4998 312.512 31.2985 312.95 31.3408C313.434 31.2498 313.919 31.162 314.405 31.0775L313.272 30.2169C312.873 29.8554 302.063 21.8943 296.782 27.4058Z" fill="#6689BC"/>
<path opacity="0.91" d="M241.565 67.5365L240.515 66.7522C240.539 67.325 240.566 67.8965 240.595 68.4666C240.28 69.6505 242.914 92.5916 256.261 96.0246L256.785 96.1814C256.852 95.955 256.92 95.7277 256.989 95.4994C261.254 82.3117 242.461 68.3821 241.565 67.5365Z" fill="#6689BC"/>
<path opacity="0.91" d="M253.572 48.93L252.585 48.0161C252.553 48.5835 252.522 49.1496 252.493 49.7142C252.156 50.7003 252.304 70.7731 263.849 75.4922L264.365 75.7241L264.653 75.0817C269.834 64.0503 254.285 49.7388 253.572 48.93Z" fill="#6689BC"/>
<path opacity="0.91" d="M266.985 33.0376C266.68 32.6948 266.375 32.3515 266.071 32.0078C265.986 32.5643 265.903 33.1203 265.822 33.6759C265.489 34.4779 263.875 51.5432 273.481 56.9797L273.979 57.2825C274.099 57.0815 274.22 56.8811 274.342 56.681C279.942 47.7338 267.531 33.7823 266.985 33.0376Z" fill="#6689BC"/>
<path opacity="0.91" d="M281.295 19.7638L280.464 18.6304C280.33 19.1759 280.198 19.7183 280.069 20.2575C279.761 20.8917 277.049 34.8964 284.694 40.5266L285.167 40.8949L285.598 40.3384C291.19 33.3456 281.714 20.4212 281.295 19.7638Z" fill="#6689BC"/>
<path opacity="0.91" d="M294.659 10.383C294.408 9.97837 294.157 9.57326 293.906 9.16772C293.731 9.69511 293.56 10.222 293.392 10.7485C293.131 11.2327 290.042 22.2327 295.84 27.4892L296.286 27.9107L296.773 27.3978C301.892 22.1399 294.954 10.9299 294.659 10.383Z" fill="#6689BC"/>
</g>
<g opacity="0.91">
<g opacity="0.91">
<g opacity="0.91">
<path opacity="0.91" d="M52.4054 97.2192L51.6104 98.1616L121.07 156.764L121.866 155.822L52.4054 97.2192Z" fill="#85A2D2"/>
</g>
<g opacity="0.91">
<g opacity="0.91">
<path opacity="0.91" d="M38.8115 86.5547L40.3555 87.1002C40.8342 87.2694 52.0852 91.3284 52.6225 97.6351L52.6744 98.2502L52.0592 98.3021C45.7552 98.8367 39.8576 88.426 39.6108 87.9827L38.8115 86.5547Z" fill="#85A2D2"/>
</g>
</g>
<path opacity="0.91" d="M112.576 148.798L113.048 149.195L112.65 149.667C102.775 161.371 83.6814 159.215 82.874 159.112L81.4814 158.945L82.5467 158.032C83.3759 157.321 102.99 140.712 112.576 148.798Z" fill="#85A2D2"/>
<path opacity="0.91" d="M98.0035 136.504L98.4754 136.902L98.0772 137.374C89.4108 147.646 72.6633 145.751 71.9541 145.665L70.5615 145.498L71.6267 144.585C72.351 143.961 89.569 129.387 98.0035 136.504Z" fill="#85A2D2"/>
<path opacity="0.91" d="M84.0615 124.739L84.5334 125.137L84.1351 125.608C76.6759 134.447 62.2757 132.819 61.666 132.745L60.2734 132.577L61.3386 131.665C61.966 131.129 76.7741 118.59 84.0615 124.739Z" fill="#85A2D2"/>
<path opacity="0.91" d="M70.7474 113.506L71.2193 113.904L70.821 114.376C64.5702 121.785 52.5159 120.421 52.0058 120.359L50.6133 120.19L51.6799 119.278C52.205 118.829 64.6084 108.327 70.7474 113.506Z" fill="#85A2D2"/>
<path opacity="0.91" d="M59.3185 103.864L59.789 104.261L59.3907 104.733C54.3443 110.711 44.64 109.613 44.2295 109.564L42.8369 109.395L43.9021 108.482C44.3263 108.12 54.3279 99.6539 59.3185 103.864Z" fill="#85A2D2"/>
<path opacity="0.91" d="M116.627 117.633L117.347 116.428L117.748 117.773C117.981 118.553 123.324 137.011 113.45 148.715L113.052 149.187L112.58 148.789C102.996 140.702 116.067 118.571 116.627 117.633Z" fill="#85A2D2"/>
<path opacity="0.91" d="M101.536 109.136L102.256 107.931L102.657 109.276C102.86 109.958 107.548 126.15 98.8803 136.418L98.4821 136.89L98.0101 136.492C89.5757 129.379 101.044 109.958 101.536 109.136Z" fill="#85A2D2"/>
<path opacity="0.91" d="M87.0699 101.166L87.7901 99.9619L88.1911 101.307C88.3657 101.895 92.396 115.816 84.9368 124.657L84.5385 125.129L84.0666 124.731C76.7806 118.582 86.6471 101.874 87.0699 101.166Z" fill="#85A2D2"/>
<path opacity="0.91" d="M73.2331 93.7356L73.9532 92.5312L74.3529 93.8761C74.5002 94.3685 77.8718 106.015 71.625 113.429L71.2267 113.901L70.7562 113.503C64.6158 108.319 72.8839 94.3235 73.2331 93.7356Z" fill="#85A2D2"/>
<path opacity="0.91" d="M61.2832 87.883L62.0034 86.6787L62.4044 88.0235C62.523 88.4191 65.2386 97.8028 60.1948 103.781L59.7966 104.253L59.3247 103.854C54.3355 99.6441 60.9968 88.3604 61.2832 87.883Z" fill="#85A2D2"/>
</g>
<g opacity="0.91">
<path opacity="0.91" d="M45.1543 8.78579L45.6753 8.28931C65.112 28.8606 77.4634 55.1068 80.9257 83.1955L80.316 83.2706C76.8364 55.3285 64.5163 29.2303 45.1543 8.78579Z" fill="#85A2D2"/>
<path opacity="0.91" d="M37.0287 0.419468C38.5522 -1.41363 45.5314 2.99588 45.9283 9.08167C40.088 8.26605 35.5679 2.18847 37.0287 0.419468Z" fill="#85A2D2"/>
<path opacity="0.91" d="M49.9982 13.6426C45.9719 17.9622 38.2754 17.2134 37.8594 14.9547C37.4011 12.5911 44.7212 9.65591 49.9982 13.6426Z" fill="#85A2D2"/>
<path opacity="0.91" d="M56.844 22.3949C51.7048 27.0554 42.7316 25.461 42.4383 22.8041C42.0783 19.9862 50.9642 17.0852 56.844 22.3949Z" fill="#85A2D2"/>
<path opacity="0.91" d="M79.2666 74.5879C72.1742 76.8397 63.8612 70.4866 64.6386 67.5514C65.4106 64.3776 75.689 65.6788 79.2666 74.5879Z" fill="#85A2D2"/>
<path opacity="0.91" d="M63.9255 33.3827C57.3882 38.2164 47.0211 35.3522 46.9297 32.2438C46.7592 28.9049 57.5396 26.2958 63.9255 33.3827Z" fill="#85A2D2"/>
<path opacity="0.91" d="M75.8288 60.7673C68.0258 64.1771 57.9001 58.42 58.4375 55.1275C58.9394 51.5404 70.7646 51.4026 75.8288 60.7673Z" fill="#85A2D2"/>
<path opacity="0.91" d="M70.4388 46.2497C62.6004 50.8025 51.3304 46.3152 51.535 42.8659C51.6645 39.1042 64.0639 37.3052 70.4388 46.2497Z" fill="#85A2D2"/>
<path opacity="0.91" d="M52.1199 1.23231C54.7564 2.01792 55.0646 10.451 49.999 13.6439C46.9575 7.96733 49.5476 0.542166 52.1199 1.23231Z" fill="#85A2D2"/>
<path opacity="0.91" d="M60.3561 7.82143C63.4494 9.04077 63.1166 19.176 56.8453 22.3949C53.767 15.3557 57.3486 6.7453 60.3561 7.82143Z" fill="#85A2D2"/>
<path opacity="0.91" d="M88.9581 60.5967C91.5891 63.5605 86.8904 74.4814 79.258 74.5864C79.2211 65.3568 86.353 57.8634 88.9581 60.5967Z" fill="#85A2D2"/>
<path opacity="0.91" d="M69.4632 16.38C73.0503 18.2363 71.6713 30.3915 63.9311 33.3826C61.0464 24.6562 65.9729 14.7392 69.4632 16.38Z" fill="#85A2D2"/>
<path opacity="0.91" d="M85.1991 43.8888C88.5653 46.8431 84.4899 59.6571 75.829 60.7673C74.7529 50.6198 81.8971 41.2142 85.1991 43.8888Z" fill="#85A2D2"/>
<path opacity="0.91" d="M78.3885 27.5626C82.2743 30.1704 79.4346 43.9419 70.4355 46.2482C68.181 35.9766 74.6077 25.248 78.3885 27.5626Z" fill="#85A2D2"/>
</g>
<g opacity="0.91">
<path opacity="0.91" d="M26.9648 48.4798L27.3317 47.7773C54.8737 62.3413 77.039 85.3281 90.5915 113.382L89.9832 113.675C76.4648 85.7805 54.3843 62.9373 26.9648 48.4798Z" fill="#6689BC"/>
<path opacity="0.91" d="M15.532 42.6299C16.4703 40.1748 25.3071 42.3053 27.8754 48.5097C21.5005 49.7263 14.6386 44.9922 15.532 42.6299Z" fill="#6689BC"/>
<path opacity="0.91" d="M33.7336 51.8227C31.0658 57.7517 22.7773 59.6939 21.5498 57.4843C20.2295 55.1861 26.8227 49.5341 33.7336 51.8227Z" fill="#6689BC"/>
<path opacity="0.91" d="M43.9694 58.5237C40.2623 65.2069 30.3426 66.7154 29.0959 64.0462C27.7238 61.2338 35.9674 55.0703 43.9694 58.5237Z" fill="#6689BC"/>
<path opacity="0.91" d="M85.8081 104.998C79.2094 109.857 68.2967 106.176 68.069 102.84C67.7553 99.2516 78.9312 96.9752 85.8081 104.998Z" fill="#6689BC"/>
<path opacity="0.91" d="M55.2385 67.4709C50.1347 74.8238 38.3137 75.5071 37.1175 72.2992C35.7577 68.8785 46.073 62.3426 55.2385 67.4709Z" fill="#6689BC"/>
<path opacity="0.91" d="M77.3439 91.8059C70.4152 98.1181 57.8235 95.704 57.2166 92.0787C56.476 88.1656 68.7512 83.8366 77.3439 91.8059Z" fill="#6689BC"/>
<path opacity="0.91" d="M66.5813 78.5814C60.0208 86.102 46.6845 85.4132 45.6766 81.7443C44.4818 77.7767 56.7706 71.5122 66.5813 78.5814Z" fill="#6689BC"/>
<path opacity="0.91" d="M31.5528 38.1359C34.5793 38.0227 37.8854 46.704 33.735 51.8228C28.5549 46.9836 28.6217 38.3268 31.5528 38.1359Z" fill="#6689BC"/>
<path opacity="0.91" d="M42.471 42.0884C46.1263 42.2643 49.3669 52.9479 43.9713 58.5235C38.2701 52.2795 38.9548 42.0297 42.471 42.0884Z" fill="#6689BC"/>
<path opacity="0.91" d="M90.9671 86.9803C94.7587 89.1394 93.7262 102.185 85.8073 104.998C82.5012 95.3834 87.2831 85.0544 90.9671 86.9803Z" fill="#6689BC"/>
<path opacity="0.91" d="M54.9906 47.7897C59.3879 48.4553 62.2521 61.6143 55.2416 67.471C49.149 59.3939 50.7747 47.3109 54.9906 47.7897Z" fill="#6689BC"/>
<path opacity="0.91" d="M81.1297 70.893C85.6851 72.7806 85.9716 87.5818 77.3353 91.8059C72.6298 81.6079 76.7501 69.2726 81.1297 70.893Z" fill="#6689BC"/>
<path opacity="0.91" d="M68.2602 56.2897C73.2344 57.6331 75.1479 72.9935 66.5839 78.5829C60.5963 68.6686 63.5015 55.2094 68.2602 56.2897Z" fill="#6689BC"/>
</g>
</g>
</g>
</g>
<path d="M132.549 38.2295L125.113 182.231L246.648 188.506L254.084 44.5052L132.549 38.2295Z" fill="#2E96D5"/>
<path d="M141.06 47.9985L135.502 155.643L236.737 160.87L242.296 53.2261L141.06 47.9985Z" fill="#D8E7FF"/>
<path fill-rule="evenodd" clip-rule="evenodd" d="M130.975 139.176C130.975 139.176 155.833 97.0843 162.663 98.1713C171.018 99.5012 181.909 134.966 181.909 134.966C181.909 134.966 193.26 113.905 200.821 114.811C210.422 115.958 242.365 166.776 242.365 166.776L128.226 159.194L130.975 139.176Z" fill="#FFDF3F"/>
<path d="M207.201 96.469C214.916 96.469 221.17 90.2142 221.17 82.4984C221.17 74.7827 214.916 68.5278 207.201 68.5278C199.486 68.5278 193.231 74.7827 193.231 82.4984C193.231 90.2142 199.486 96.469 207.201 96.469Z" fill="#FFDF3F"/>
<path d="M103.807 32.0013L57.0576 144.303L151.839 183.759L198.588 71.457L103.807 32.0013Z" fill="#2E96D5"/>
<path d="M107.796 42.1785L72.8506 126.126L151.801 158.992L186.746 75.0439L107.796 42.1785Z" fill="#D8E7FF"/>
<path fill-rule="evenodd" clip-rule="evenodd" d="M73.9241 111.76C73.9241 111.76 105.611 85.367 110.729 88.1644C116.99 91.5892 115.585 122.857 115.585 122.857C115.585 122.857 130.576 109.343 136.329 112.208C143.63 115.842 154.597 165.275 154.597 165.275L66.0625 126.876L73.9241 111.76Z" fill="#FFDF3F"/>
<path d="M150.563 100.131C157.072 100.131 162.349 94.8547 162.349 88.3456C162.349 81.8366 157.072 76.5601 150.563 76.5601C144.054 76.5601 138.777 81.8366 138.777 88.3456C138.777 94.8547 144.054 100.131 150.563 100.131Z" fill="#FFDF3F"/>
<defs>
<linearGradient id="paint0_linear" x1="348" y1="200.7" x2="49.068" y2="200.7" gradientUnits="userSpaceOnUse">
<stop stop-color="#D3D6DB"/>
<stop offset="0.999" stop-color="#7A869B"/>
</linearGradient>
</defs>
</svg>
