<svg width="68" height="64" viewBox="0 0 68 64" fill="none" xmlns="http://www.w3.org/2000/svg">
<path d="M14.196 25.7631C14.3167 25.923 14.4333 26.0874 14.546 26.2561C16.6613 29.3754 17.5724 33.1566 17.11 36.8971C16.751 39.4661 15.735 41.897 15.183 44.431C14.527 47.445 14.555 51.3511 17.492 53.1631C19.867 54.6291 22.975 53.6351 25.567 53.5811C30.308 53.4811 33.833 57.759 38.717 57.528C40.4613 57.4005 42.1366 56.794 43.5583 55.7752C44.9799 54.7564 46.0927 53.3649 46.774 51.7541C47.725 49.4771 47.613 46.8951 48.56 44.613C49.939 41.29 53.62 41.0031 56.644 40.1841C61.1 38.9761 66.06 36.0091 67.454 31.3221C69.754 23.6031 62.774 20.5741 56.677 19.0581C48.987 17.1471 41.483 15.202 35.404 9.79805C33.504 8.10805 31.828 6.17705 29.93 4.48305C27.5797 2.30377 24.5761 0.960698 21.3848 0.662021C18.1936 0.363344 14.9929 1.12575 12.279 2.83105C6.62899 6.14705 2.87899 13.5811 7.54599 19.3681C9.50399 21.7951 12.312 23.267 14.196 25.7631Z" fill="#D8E7FF"/>
<path d="M14.4083 34.8985C14.8042 31.1344 12.0738 27.7621 8.3098 27.3662C4.54576 26.9702 1.17342 29.7006 0.777475 33.4646C0.381527 37.2287 3.1119 40.601 6.87594 40.997C10.64 41.3929 14.0123 38.6625 14.4083 34.8985Z" fill="#D8E7FF"/>
<path d="M55.167 49.4661C55.167 49.4661 55.433 49.5011 55.867 49.6041C56.4626 49.7446 57.0445 49.9377 57.606 50.1811C58.4059 50.524 59.148 50.9885 59.806 51.558C60.1919 51.8971 60.5418 52.2751 60.85 52.6861C61.1854 53.139 61.4648 53.6309 61.682 54.1511C61.8864 54.6481 62.0279 55.1688 62.103 55.701C62.1653 56.15 62.1758 56.6047 62.134 57.0561C62.0656 57.7643 61.8644 58.4533 61.541 59.0871C61.3165 59.528 61.0402 59.9406 60.718 60.3161C60.569 60.4939 60.4076 60.661 60.235 60.8161C60.172 60.2821 60.108 59.7481 60.035 59.2161C60.1957 58.9541 60.3537 58.6874 60.509 58.416C60.665 58.14 60.821 57.8611 60.963 57.5681C61.2655 56.9685 61.52 56.3459 61.724 55.7061C61.4821 56.3237 61.2049 56.9271 60.894 57.5131C60.742 57.7971 60.594 58.078 60.43 58.351C60.2927 58.587 60.1526 58.8204 60.01 59.0511L59.953 58.683C59.879 58.239 59.795 57.7971 59.694 57.3581C59.8327 57.0874 59.966 56.8097 60.094 56.5251C60.222 56.2251 60.344 55.9251 60.449 55.6091C60.6655 54.9571 60.8267 54.2881 60.931 53.6091C60.857 53.9421 60.769 54.2781 60.68 54.6001C60.591 54.9221 60.487 55.246 60.373 55.558C60.259 55.87 60.139 56.1711 60.009 56.4641C59.8977 56.7127 59.7813 56.9554 59.66 57.192C59.5364 56.6706 59.3828 56.1568 59.2 55.653L59.158 55.5461L59.277 55.192C59.314 55.073 59.348 54.9531 59.383 54.8321C59.458 54.5731 59.521 54.3151 59.577 54.0461C59.69 53.5035 59.7695 52.9544 59.815 52.4021C59.726 52.9431 59.621 53.4861 59.498 54.0081C59.429 54.2721 59.37 54.5291 59.292 54.7851C59.23 54.9911 59.171 55.1911 59.098 55.3911C58.8846 54.8632 58.6391 54.3489 58.363 53.851C58.445 53.456 58.512 53.0511 58.557 52.6421C58.581 52.4311 58.602 52.2171 58.616 52.0041C58.63 51.7911 58.643 51.5731 58.646 51.3571L58.563 51.9881C58.536 52.1971 58.506 52.406 58.473 52.614C58.444 52.798 58.416 52.9801 58.382 53.1631C58.348 53.3461 58.319 53.524 58.282 53.705C58.123 53.423 57.955 53.1461 57.782 52.8741C57.649 52.6741 57.515 52.467 57.374 52.274C57.399 52.041 57.42 51.8051 57.428 51.5681C57.428 51.4471 57.437 51.3231 57.439 51.2021C57.441 51.0811 57.439 50.9571 57.433 50.8321C57.414 50.9501 57.401 51.07 57.385 51.188C57.369 51.306 57.359 51.4271 57.344 51.5461L57.28 52.1381C57.152 51.9561 57.02 51.7781 56.888 51.5991C56.575 51.1841 56.248 50.7801 55.917 50.3791C56.235 50.7901 56.548 51.2041 56.848 51.6281C56.982 51.8161 57.117 52.0041 57.248 52.1971C57.048 52.1461 56.848 52.097 56.654 52.063C56.431 52.019 56.204 51.9821 55.979 51.9571C56.2 52.0261 56.424 52.0851 56.646 52.1461L57.316 52.3271L57.34 52.334C57.47 52.526 57.595 52.723 57.719 52.92C57.895 53.201 58.066 53.4861 58.226 53.7771C58.051 53.7121 57.87 53.6531 57.693 53.5961C57.516 53.5391 57.338 53.4881 57.159 53.4411C56.98 53.3941 56.772 53.3411 56.577 53.2981C56.382 53.2551 56.19 53.2161 55.994 53.1841C56.187 53.2391 56.377 53.2911 56.569 53.3501C56.761 53.4091 56.953 53.4621 57.145 53.5231C57.529 53.6451 57.914 53.7731 58.299 53.9231H58.306C58.5755 54.42 58.8142 54.9329 59.021 55.459C58.827 55.359 58.621 55.2591 58.427 55.1721C58.198 55.0721 57.958 54.972 57.727 54.886C57.496 54.8 57.258 54.723 57.02 54.653C56.782 54.583 56.55 54.521 56.31 54.468C56.544 54.543 56.773 54.6181 57.01 54.7021C57.247 54.7861 57.473 54.8701 57.71 54.9651C57.947 55.0601 58.175 55.156 58.402 55.265C58.516 55.319 58.633 55.3741 58.747 55.4321L59.087 55.6131L59.117 55.6911C59.3054 56.1991 59.464 56.7176 59.592 57.244C59.3646 57.0827 59.1353 56.9297 58.904 56.7851C58.642 56.6241 58.382 56.4711 58.115 56.3401C57.848 56.2091 57.579 56.0911 57.315 55.9831C57.051 55.8751 56.777 55.7831 56.501 55.7071C56.769 55.8071 57.029 55.9071 57.295 56.0301C57.4283 56.0881 57.5597 56.1487 57.689 56.2121C57.821 56.2761 57.949 56.344 58.082 56.412C58.341 56.556 58.603 56.7061 58.861 56.8721C59.119 57.0381 59.375 57.2151 59.626 57.4011H59.632C59.732 57.8271 59.818 58.2571 59.893 58.6891L59.962 59.0891C59.746 58.9071 59.5283 58.7297 59.309 58.5571C59.066 58.3671 58.824 58.1801 58.575 58.0101C58.326 57.8401 58.075 57.6761 57.825 57.5261C57.575 57.3761 57.318 57.2421 57.061 57.1261C57.307 57.2641 57.556 57.4101 57.799 57.5731C58.042 57.7361 58.29 57.9031 58.532 58.0831C58.774 58.2631 59.017 58.45 59.257 58.644C59.497 58.838 59.735 59.038 59.972 59.244L59.99 59.2591C60.074 59.7791 60.15 60.3011 60.227 60.8241C60.0193 60.7203 59.8188 60.6027 59.627 60.472C59.2261 60.1999 58.8494 59.8938 58.501 59.5571C58.0506 59.1234 57.6424 58.648 57.282 58.1371C57.0894 57.8661 56.9115 57.5851 56.749 57.295C56.5819 56.9983 56.4336 56.6914 56.305 56.3761C56.1632 56.0328 56.0426 55.6811 55.944 55.3231C55.838 54.9601 55.75 54.5841 55.67 54.2041C55.511 53.4441 55.39 52.6641 55.311 51.9601C55.232 51.2561 55.193 50.6321 55.181 50.1861C55.169 49.7401 55.167 49.4661 55.167 49.4661Z" fill="#31395C"/>
<path d="M59.9525 59.2371C59.7158 59.0324 59.4775 58.8324 59.2375 58.6371C58.9975 58.4431 58.7545 58.2581 58.5125 58.0761C58.2705 57.8941 58.0264 57.7241 57.7794 57.5661C57.5324 57.4081 57.2864 57.2571 57.0414 57.1191C57.2984 57.2371 57.5525 57.3741 57.8055 57.5191C58.0585 57.6641 58.3055 57.8311 58.5555 58.0031C58.8055 58.1751 59.0475 58.3601 59.2895 58.5501C59.5088 58.7227 59.7264 58.9001 59.9424 59.0821L59.8734 58.6821C59.7984 58.2501 59.7125 57.8201 59.6125 57.3941H59.6064C59.3544 57.2071 59.0985 57.0301 58.8415 56.8651C58.5845 56.7001 58.3224 56.5481 58.0624 56.4051C57.9304 56.3351 57.8024 56.2671 57.6704 56.2051C57.5384 56.1431 57.4065 56.0811 57.2765 56.0231C57.0105 55.9051 56.7505 55.8001 56.4825 55.7001C56.7585 55.7781 57.0214 55.8741 57.2964 55.9761C57.5714 56.0781 57.8325 56.2001 58.0965 56.3331C58.3605 56.4661 58.6234 56.6171 58.8854 56.7781C59.1161 56.9227 59.3455 57.0757 59.5735 57.2371C59.4454 56.7106 59.2868 56.1921 59.0984 55.6841L59.0685 55.6061L58.7285 55.4251C58.6145 55.3671 58.4975 55.3121 58.3835 55.2581C58.1565 55.1491 57.9195 55.0581 57.6915 54.9581C57.4635 54.8581 57.2275 54.7761 56.9915 54.6951C56.7555 54.6141 56.5294 54.5361 56.2914 54.4611C56.5314 54.5131 56.7635 54.5781 57.0015 54.6461C57.2395 54.7141 57.4695 54.7961 57.7085 54.8791C57.9475 54.9621 58.1774 55.0601 58.4084 55.1651C58.6084 55.2551 58.8084 55.3481 59.0024 55.4521C58.7957 54.9259 58.5569 54.413 58.2874 53.9161H58.2794C57.8944 53.7691 57.5105 53.6411 57.1255 53.5161C56.9335 53.4551 56.7434 53.3971 56.5494 53.3431C56.3554 53.2891 56.1675 53.2331 55.9745 53.1771C56.1745 53.2081 56.3635 53.2501 56.5575 53.2911C56.7515 53.3321 56.9465 53.3831 57.1395 53.4341C57.3325 53.4851 57.4975 53.5341 57.6735 53.5891C57.8495 53.6441 58.0315 53.7041 58.2065 53.7701C58.0465 53.4791 57.8755 53.1941 57.6995 52.9131C57.5755 52.7131 57.4515 52.5201 57.3205 52.3271L57.2964 52.3201L56.6265 52.1391C56.4045 52.0771 56.1804 52.0181 55.9594 51.9501C56.1844 51.9751 56.4115 52.0121 56.6345 52.0561C56.8345 52.0931 57.0345 52.1381 57.2285 52.1901C57.0995 51.9981 56.9645 51.8101 56.8285 51.6211C56.5285 51.1971 56.2155 50.7831 55.8975 50.3721C56.2285 50.7721 56.5554 51.1721 56.8684 51.5921C57.0004 51.7711 57.1324 51.9491 57.2604 52.1311L57.3245 51.5391C57.3395 51.4201 57.3534 51.3001 57.3654 51.1811C57.3774 51.0621 57.3945 50.9431 57.4135 50.8241C57.4195 50.9491 57.4135 51.0711 57.4195 51.1941C57.4255 51.3171 57.4124 51.4391 57.4084 51.5601C57.4004 51.7971 57.3795 52.0331 57.3545 52.2661C57.4955 52.4661 57.6285 52.6661 57.7625 52.8661C57.9365 53.1391 58.1045 53.4151 58.2625 53.6971C58.3015 53.5161 58.3315 53.3381 58.3625 53.1551C58.3935 52.9721 58.4245 52.7891 58.4535 52.6061C58.4865 52.3971 58.5165 52.1881 58.5435 51.9801L58.6265 51.3491C58.6265 51.5651 58.6115 51.7821 58.5965 51.9961C58.5815 52.2101 58.5604 52.4231 58.5374 52.6341C58.4924 53.0451 58.4264 53.4491 58.3434 53.8431C58.6195 54.341 58.865 54.8553 59.0785 55.3831C59.1515 55.1831 59.2105 54.9831 59.2725 54.7771C59.3505 54.5211 59.4085 54.2641 59.4785 54.0001C59.6015 53.4781 59.7064 52.9351 59.7954 52.3941C59.7499 52.9464 59.6705 53.4955 59.5575 54.0381C59.5015 54.3071 59.4385 54.5651 59.3635 54.8241C59.3285 54.9461 59.2944 55.0651 59.2574 55.1841L59.1385 55.5381L59.1805 55.6451C59.3633 56.1488 59.5169 56.6627 59.6404 57.1841C59.7624 56.9467 59.8788 56.7041 59.9894 56.4561C60.1194 56.1631 60.2395 55.8561 60.3535 55.5501C60.4675 55.2441 60.5645 54.9211 60.6605 54.5921C60.7565 54.2631 60.8374 53.9331 60.9114 53.6011C60.8071 54.2801 60.6459 54.9491 60.4294 55.6011C60.3244 55.9181 60.2025 56.2211 60.0745 56.5171C59.9465 56.8131 59.8174 57.0801 59.6744 57.3501C59.7744 57.7891 59.8594 58.2311 59.9334 58.6751L59.9904 59.0431C60.1338 58.8144 60.2738 58.5811 60.4105 58.3431C60.5695 58.0701 60.7235 57.7891 60.8745 57.5051C61.1854 56.9191 61.4625 56.3157 61.7044 55.6981C61.5005 56.3379 61.246 56.9605 60.9435 57.5601C60.8015 57.8521 60.6434 58.1311 60.4894 58.4081C60.3354 58.6851 60.1764 58.9441 60.0154 59.2081C60.0924 59.7411 60.1565 60.2751 60.2155 60.8081L60.2014 60.8201L60.1855 60.8121C60.1085 60.2901 60.0325 59.7681 59.9485 59.2471L59.9525 59.2371Z" fill="#1A2242"/>
<path d="M65.4509 49.1211C65.4509 49.1211 65.5659 49.4031 65.7129 49.8861C65.9084 50.5308 66.065 51.1866 66.1819 51.8501C66.3387 52.7195 66.4206 53.6007 66.4269 54.4841C66.4392 55.4276 66.3173 56.368 66.0649 57.2771C65.8384 58.0732 65.4805 58.8259 65.0059 59.5041C64.6216 60.0277 64.1839 60.51 63.6999 60.9431C63.2739 61.3431 62.8749 61.6951 62.5749 61.9801C62.2749 62.2651 62.0669 62.4631 62.0099 62.5121C61.9198 61.9276 61.8976 61.3347 61.9439 60.7451C62.1909 60.5021 62.4439 60.2791 62.7099 60.0671C62.9759 59.8551 63.2499 59.6521 63.5239 59.4521C63.7979 59.2521 64.0779 59.0611 64.3599 58.8681C64.6419 58.6751 64.9219 58.4901 65.2029 58.3061C64.9099 58.4691 64.6159 58.6401 64.3289 58.8191C64.0419 58.9981 63.7529 59.1851 63.4719 59.3751C63.1909 59.5651 62.9149 59.7661 62.6439 59.9751C62.4119 60.1581 62.1809 60.3511 61.9589 60.5571C61.9709 60.4211 61.9859 60.2861 62.0029 60.1511C62.0619 59.6611 62.1509 59.1751 62.2539 58.6921C62.5349 58.4921 62.8089 58.2921 63.0909 58.1051C63.3729 57.9181 63.6729 57.7221 63.9669 57.5341C64.5499 57.1621 65.1449 56.8111 65.7319 56.4651C65.1219 56.7651 64.5159 57.0971 63.9219 57.4521C63.6219 57.6271 63.3289 57.8161 63.0359 58.0081C62.7849 58.1711 62.5419 58.3391 62.2939 58.5081C62.4169 57.9341 62.5669 57.3651 62.7219 56.7991L62.7559 56.6781C62.9929 56.5291 63.2239 56.3781 63.4629 56.2411L64.2149 55.7981C64.7149 55.5051 65.2149 55.2241 65.7149 54.9391C65.1929 55.1781 64.6789 55.4391 64.1699 55.7121C63.9119 55.8471 63.6619 55.9931 63.4099 56.1391C63.2052 56.2571 63.0022 56.3781 62.8009 56.5021C62.9696 55.9021 63.1532 55.3051 63.3519 54.7111C63.7459 54.4891 64.1459 54.2741 64.5399 54.0561C64.9339 53.8381 65.3519 53.6151 65.7539 53.3881C65.3329 53.5681 64.9159 53.7641 64.5029 53.9681C64.1349 54.1481 63.7729 54.3391 63.4099 54.5371C63.5239 54.2001 63.6389 53.8641 63.7609 53.5291L64.0319 52.7741C64.2659 52.6531 64.5029 52.5331 64.7319 52.4051L65.0869 52.2101C65.2039 52.1411 65.3219 52.0761 65.4379 52.0041C65.3119 52.0491 65.1889 52.1041 65.0649 52.1521L64.6969 52.3141C64.4969 52.4051 64.2969 52.5031 64.0969 52.6031L64.3539 51.9161C64.5539 51.3791 64.7539 50.8441 64.9619 50.3091C64.7389 50.8361 64.5159 51.3641 64.2989 51.8941L64.0169 52.6061C63.9309 52.3921 63.8459 52.1771 63.7529 51.9651C63.6529 51.7231 63.5459 51.4831 63.4299 51.2471C63.4999 51.5061 63.5809 51.7571 63.6679 52.0091C63.7549 52.2611 63.8449 52.5091 63.9409 52.7511L63.9509 52.7771L63.6769 53.4971C63.5489 53.8411 63.4269 54.1871 63.3069 54.5341L62.7969 53.3521L62.5199 52.7041L62.2369 52.0581C62.3089 52.2861 62.3879 52.5091 62.4639 52.7331L62.7109 53.3981C62.8789 53.8401 63.0569 54.2721 63.2439 54.6981V54.7061C63.0439 55.2981 62.8519 55.8951 62.6789 56.4971C62.5649 56.2718 62.4536 56.0444 62.3449 55.8151L61.9669 55.0061C61.8409 54.7361 61.7169 54.4631 61.5959 54.1891L61.2269 53.3681C61.3269 53.6541 61.4349 53.9381 61.5419 54.2201C61.6489 54.5021 61.7669 54.7791 61.8819 55.0551C61.9969 55.3311 62.1229 55.6041 62.2449 55.8731C62.3669 56.1421 62.4979 56.4091 62.6259 56.6731L62.5999 56.7621C62.4459 57.3421 62.2999 57.9251 62.1769 58.5131C62.0189 58.2411 61.8579 57.9631 61.7089 57.6831C61.5359 57.3681 61.3719 57.0441 61.2089 56.7231C61.0459 56.4021 60.8839 56.0741 60.7249 55.7431C60.5659 55.4121 60.4119 55.0831 60.2539 54.7491C60.3879 55.0991 60.5269 55.4371 60.6729 55.7781C60.8189 56.1191 60.9729 56.4481 61.1279 56.7781C61.2829 57.1081 61.4509 57.4301 61.6169 57.7491C61.7829 58.0681 61.9619 58.3811 62.1379 58.6881V58.6951C62.0379 59.1701 61.9589 59.6491 61.9039 60.1321C61.8879 60.2791 61.8759 60.4271 61.8649 60.5751C61.6649 60.3231 61.4789 60.0571 61.2979 59.7821C61.0979 59.4821 60.9109 59.1631 60.7229 58.8481C60.5349 58.5331 60.3569 58.2141 60.1809 57.8931C60.0049 57.5721 59.8289 57.2481 59.6539 56.9221C59.8039 57.2651 59.9649 57.5991 60.1299 57.9321C60.2949 58.2651 60.4679 58.5871 60.6449 58.9121C60.8219 59.2371 61.0129 59.5531 61.2109 59.8611C61.4089 60.1691 61.6169 60.4611 61.8389 60.7421L61.8559 60.7631C61.8235 61.3468 61.8611 61.9323 61.9679 62.5071C61.7187 62.4036 61.4836 62.2692 61.2679 62.1071C60.7882 61.7412 60.3863 61.2833 60.0859 60.7601C59.6635 60.0236 59.3916 59.2105 59.2859 58.3681C59.1521 57.3629 59.2311 56.3408 59.5179 55.3681C59.8291 54.3292 60.3384 53.3604 61.0179 52.5151C61.5983 51.7908 62.2672 51.1421 63.0089 50.5841C63.5504 50.1734 64.1216 49.8033 64.7179 49.4771C65.1709 49.2421 65.4509 49.1211 65.4509 49.1211Z" fill="#83C8E6"/>
<path d="M61.8462 60.7521C61.6252 60.4741 61.4161 60.1781 61.2181 59.8711C61.0201 59.5641 60.8292 59.2481 60.6522 58.9221C60.4752 58.5961 60.3021 58.2701 60.1371 57.9421C59.9721 57.6141 59.8121 57.2751 59.6611 56.9321C59.8361 57.2581 60.0051 57.5831 60.1881 57.9031C60.3711 58.2231 60.5431 58.5411 60.7301 58.8581C60.9171 59.1751 61.1051 59.4891 61.3051 59.7921C61.4861 60.0671 61.6742 60.3331 61.8722 60.5851C61.8832 60.4371 61.8951 60.2851 61.9111 60.1421C61.9661 59.6591 62.0491 59.1801 62.1451 58.7051V58.6981C61.9701 58.3921 61.7921 58.0771 61.6241 57.7591C61.4561 57.4411 61.2871 57.1181 61.1351 56.7881C60.9831 56.4581 60.8281 56.1241 60.6801 55.7881C60.5321 55.4521 60.3961 55.1091 60.2611 54.7591C60.4201 55.0921 60.5712 55.4241 60.7332 55.7531C60.8952 56.0821 61.0491 56.4101 61.2171 56.7331C61.3851 57.0561 61.5471 57.3771 61.7171 57.6931C61.8671 57.9731 62.0272 58.2521 62.1852 58.5231C62.3062 57.9351 62.4532 57.3521 62.6082 56.7721L62.6342 56.6831C62.5062 56.4211 62.3741 56.1531 62.2531 55.8831C62.1321 55.6131 62.0021 55.3411 61.8901 55.0651C61.7781 54.7891 61.6591 54.5091 61.5501 54.2301C61.4411 53.9511 61.3331 53.6641 61.2351 53.3781L61.6042 54.1991C61.7242 54.4721 61.8482 54.7451 61.9742 55.0161L62.3511 55.8251C62.4591 56.0538 62.5705 56.2811 62.6852 56.5071C62.8582 55.9071 63.0472 55.3071 63.2502 54.7161V54.7081C63.0622 54.2801 62.8851 53.8481 62.7171 53.4081L62.4702 52.7431C62.3942 52.5191 62.3142 52.2961 62.2422 52.0681L62.5251 52.7141L62.8022 53.3621L63.3121 54.5441C63.4321 54.1971 63.5542 53.8511 63.6822 53.5071L63.9561 52.7871L63.9461 52.7611C63.8461 52.5161 63.7572 52.2711 63.6732 52.0191C63.5892 51.7671 63.5052 51.5191 63.4352 51.2571C63.5512 51.4931 63.6541 51.7341 63.7581 51.9751C63.8511 52.1871 63.9362 52.4021 64.0222 52.6161L64.3041 51.9041C64.5211 51.3741 64.7441 50.8461 64.9671 50.3191C64.7621 50.8541 64.5572 51.3881 64.3592 51.9261L64.1021 52.6131C64.3021 52.5131 64.5021 52.4131 64.7021 52.3241L65.0702 52.1621C65.1952 52.1131 65.3171 52.0621 65.4431 52.0141C65.3281 52.0861 65.2091 52.1511 65.0921 52.2201L64.7372 52.4151C64.5062 52.5431 64.2691 52.6621 64.0371 52.7841L63.7661 53.5391C63.6451 53.8731 63.5302 54.2101 63.4152 54.5471C63.7782 54.3471 64.1401 54.1581 64.5081 53.9781C64.9211 53.7781 65.3382 53.5781 65.7592 53.3981C65.3592 53.6251 64.9511 53.8441 64.5451 54.0661C64.1391 54.2881 63.7521 54.4991 63.3571 54.7211C63.1571 55.3138 62.9735 55.9108 62.8062 56.5121C63.0062 56.3881 63.2092 56.2671 63.4152 56.1491C63.6682 56.0031 63.9151 55.8571 64.1761 55.7221C64.6851 55.4471 65.1992 55.1881 65.7212 54.9491C65.2212 55.2341 64.7212 55.5151 64.2212 55.8081L63.4691 56.2511C63.2301 56.3931 62.9981 56.5391 62.7621 56.6881L62.7281 56.8091C62.5731 57.3761 62.4231 57.9441 62.3001 58.5181C62.5471 58.3451 62.7901 58.1761 63.0421 58.0181C63.3351 57.8261 63.6282 57.6371 63.9282 57.4621C64.5222 57.1071 65.1282 56.7771 65.7382 56.4751C65.1512 56.8211 64.5561 57.1751 63.9731 57.5441C63.6791 57.7321 63.3891 57.9191 63.0971 58.1161C62.8051 58.3131 62.5411 58.5011 62.2601 58.7031C62.1601 59.1861 62.0682 59.6721 62.0092 60.1621C61.9922 60.2971 61.9771 60.4321 61.9651 60.5681C62.1881 60.3621 62.4181 60.1681 62.6501 59.9861C62.9221 59.7741 63.1961 59.5721 63.4781 59.3861C63.7601 59.2001 64.0461 59.0101 64.3351 58.8301C64.6241 58.6501 64.9152 58.4801 65.2082 58.3171C64.9272 58.5011 64.6431 58.6881 64.3651 58.8791C64.0871 59.0701 63.8041 59.2651 63.5291 59.4631C63.2541 59.6611 62.9821 59.8631 62.7151 60.0781C62.4481 60.2931 62.1962 60.5131 61.9492 60.7561C61.9029 61.3457 61.925 61.9386 62.0151 62.5231L61.9991 62.5371L61.9801 62.5291C61.8733 61.9543 61.8357 61.3688 61.8681 60.7851L61.8462 60.7521Z" fill="#1A2242"/>
<path d="M10.9998 52.667C10.9998 52.667 11.1898 52.692 11.4998 52.767C11.9262 52.8675 12.3428 53.0058 12.7448 53.18C13.3167 53.4257 13.8473 53.7583 14.3178 54.166C14.5943 54.4088 14.845 54.6796 15.0658 54.974C15.3075 55.2981 15.5089 55.6503 15.6658 56.023C15.8117 56.379 15.9125 56.7519 15.9658 57.133C16.0103 57.4544 16.0177 57.7799 15.9878 58.103C15.9387 58.6104 15.7945 59.104 15.5628 59.558C15.4019 59.8738 15.2038 60.1692 14.9728 60.438C14.8664 60.5644 14.7511 60.683 14.6278 60.793C14.5828 60.411 14.5368 60.028 14.4818 59.647C14.5968 59.459 14.7108 59.269 14.8208 59.076C14.9308 58.883 15.0438 58.676 15.1458 58.469C15.3624 58.0398 15.5447 57.594 15.6908 57.136C15.5177 57.5783 15.3194 58.0104 15.0968 58.43C14.9878 58.63 14.8788 58.83 14.7638 59.03C14.6658 59.1986 14.5658 59.3653 14.4638 59.53L14.4228 59.267C14.3698 58.949 14.3098 58.633 14.2368 58.319C14.3368 58.125 14.4308 57.927 14.5198 57.719C14.6088 57.511 14.6988 57.291 14.7738 57.063C14.9286 56.5965 15.044 56.1178 15.1188 55.632C15.0658 55.87 15.0028 56.111 14.9388 56.342C14.8748 56.573 14.8008 56.805 14.7188 57.028C14.6368 57.251 14.5508 57.467 14.4578 57.677C14.3778 57.855 14.2948 58.029 14.2078 58.199C14.1194 57.8263 14.0095 57.459 13.8788 57.099L13.8488 57.023L13.9338 56.769C13.9608 56.684 13.9848 56.598 14.0098 56.511C14.0628 56.326 14.1098 56.141 14.1488 55.948C14.2296 55.5595 14.2864 55.1665 14.3188 54.771C14.2548 55.159 14.1798 55.547 14.0918 55.921C14.0418 56.11 13.9998 56.294 13.9438 56.478C13.8988 56.626 13.8568 56.769 13.8048 56.912C13.652 56.535 13.4763 56.1676 13.2788 55.812C13.3378 55.53 13.3848 55.241 13.4178 54.946C13.4348 54.795 13.4498 54.646 13.4598 54.49C13.4698 54.334 13.4788 54.181 13.4818 54.027L13.4228 54.478C13.4038 54.627 13.3828 54.778 13.3588 54.926C13.3388 55.058 13.3178 55.188 13.2938 55.319C13.2698 55.45 13.2488 55.578 13.2208 55.707C13.1068 55.507 12.9868 55.307 12.8618 55.107C12.7618 54.961 12.6708 54.816 12.5698 54.674C12.5878 54.507 12.6018 54.338 12.6078 54.169C12.6078 54.082 12.6148 53.994 12.6158 53.907C12.6168 53.82 12.6158 53.732 12.6158 53.642C12.6018 53.727 12.5928 53.813 12.5818 53.897C12.5708 53.981 12.5628 54.068 12.5528 54.153L12.5068 54.577C12.4158 54.447 12.3208 54.319 12.2258 54.191C12.0018 53.891 11.7678 53.605 11.5258 53.318C11.7528 53.612 11.9778 53.909 12.1918 54.213C12.2918 54.348 12.3838 54.483 12.4768 54.62C12.3358 54.583 12.1928 54.551 12.0518 54.52C11.8918 54.488 11.7288 54.462 11.5688 54.444C11.7268 54.493 11.8878 54.536 12.0468 54.58L12.5268 54.709H12.5438C12.6368 54.847 12.7258 54.987 12.8148 55.128C12.9408 55.328 13.0628 55.533 13.1778 55.741C13.0518 55.694 12.9228 55.652 12.7958 55.612C12.6688 55.572 12.5418 55.535 12.4138 55.501C12.2858 55.467 12.1368 55.43 11.9968 55.401C11.8568 55.372 11.7198 55.342 11.5798 55.32C11.7178 55.36 11.8538 55.397 11.9918 55.439C12.1298 55.481 12.2658 55.519 12.4038 55.563C12.6788 55.65 12.9548 55.742 13.2298 55.847H13.2348C13.4277 56.2029 13.5987 56.5702 13.7468 56.947C13.6078 56.873 13.4628 56.806 13.3208 56.742C13.1568 56.667 12.9858 56.598 12.8208 56.542C12.6558 56.486 12.4848 56.426 12.3148 56.375C12.1448 56.324 11.9778 56.28 11.8068 56.243C11.9748 56.297 12.1378 56.351 12.3068 56.411C12.4758 56.471 12.6388 56.531 12.8068 56.599C12.9748 56.667 13.1398 56.736 13.3068 56.815C13.3888 56.853 13.4718 56.893 13.5538 56.934L13.7978 57.064L13.8198 57.12C13.9546 57.4841 14.0681 57.8557 14.1598 58.233C13.9968 58.117 13.8318 58.008 13.6668 57.904C13.4798 57.789 13.2928 57.679 13.1018 57.586C12.9108 57.493 12.7178 57.408 12.5288 57.33C12.3398 57.252 12.1438 57.188 11.9458 57.13C12.1378 57.201 12.3238 57.276 12.5138 57.361C12.6071 57.4023 12.7015 57.4457 12.7968 57.491C12.8918 57.536 12.9828 57.585 13.0778 57.635C13.2628 57.735 13.4508 57.846 13.6348 57.965C13.8188 58.084 14.0028 58.21 14.1828 58.344C14.2548 58.649 14.3158 58.957 14.3698 59.266L14.4188 59.549C14.2641 59.4156 14.1081 59.2886 13.9508 59.168C13.7768 59.032 13.6038 58.898 13.4248 58.777C13.2458 58.656 13.0688 58.538 12.8878 58.431C12.7068 58.324 12.5248 58.231 12.3408 58.143C12.5168 58.243 12.6948 58.343 12.8688 58.463C13.0428 58.583 13.2198 58.699 13.3938 58.829C13.5678 58.959 13.7408 59.091 13.9128 59.229C14.0848 59.367 14.2548 59.511 14.4248 59.658L14.4378 59.669C14.4978 60.042 14.5528 60.415 14.6078 60.789C14.4603 60.7147 14.3179 60.6305 14.1818 60.537C13.8948 60.3422 13.6252 60.123 13.3758 59.882C13.0532 59.5715 12.7609 59.2309 12.5028 58.865C12.3648 58.672 12.2373 58.4717 12.1208 58.265C12.0011 58.0525 11.8949 57.8328 11.8028 57.607C11.7013 57.3612 11.6152 57.1094 11.5448 56.853C11.4688 56.593 11.4058 56.324 11.3448 56.053C11.2308 55.509 11.1448 54.953 11.0878 54.447C11.0308 53.941 11.0028 53.496 10.9948 53.177C10.9868 52.858 10.9998 52.667 10.9998 52.667Z" fill="#31395C"/>
<path d="M14.4266 59.6641C14.2573 59.5174 14.0866 59.3744 13.9146 59.2351C13.7426 59.0961 13.5686 58.9631 13.3956 58.8351C13.2226 58.7071 13.0476 58.5831 12.8706 58.4701C12.6936 58.3571 12.5176 58.2491 12.3416 58.1501C12.5256 58.2341 12.7076 58.3331 12.8886 58.4381C13.0696 58.5431 13.2486 58.6611 13.4256 58.7841C13.6026 58.9071 13.7776 59.0391 13.9516 59.1751C14.1089 59.2984 14.2649 59.4254 14.4196 59.5561L14.3706 59.2731C14.3166 58.9641 14.2556 58.6561 14.1836 58.3511C14.0036 58.2171 13.8196 58.0911 13.6356 57.9721C13.4516 57.8531 13.2636 57.7451 13.0786 57.6421C12.9836 57.5921 12.8926 57.5421 12.7976 57.4981C12.7026 57.4541 12.6086 57.4091 12.5146 57.3681C12.3246 57.2831 12.1376 57.2081 11.9466 57.1371C12.1466 57.1931 12.3326 57.2621 12.5296 57.3371C12.7266 57.4121 12.9136 57.4971 13.1026 57.5931C13.2916 57.6891 13.4796 57.7931 13.6676 57.9111C13.8326 58.0111 13.9976 58.1241 14.1606 58.2401C14.0689 57.8628 13.9554 57.4912 13.8206 57.1271L13.7886 57.0651L13.5446 56.9351C13.4636 56.8931 13.3796 56.8541 13.2976 56.8161C13.1356 56.7381 12.9656 56.6701 12.7976 56.6001C12.6296 56.5301 12.4656 56.4701 12.2976 56.4121C12.1296 56.3541 11.9666 56.2981 11.7976 56.2441C11.9696 56.2811 12.1356 56.3281 12.3056 56.3761C12.4756 56.4241 12.6406 56.4831 12.8116 56.5431C12.9826 56.6031 13.1476 56.6731 13.3116 56.7431C13.4526 56.8071 13.5986 56.8741 13.7376 56.9481C13.5895 56.5713 13.4185 56.204 13.2256 55.8481H13.2206C12.9456 55.7481 12.6696 55.6481 12.3946 55.5641C12.2566 55.5201 12.1216 55.4781 11.9826 55.4401C11.8436 55.4021 11.7086 55.3611 11.5706 55.3211C11.7106 55.3441 11.8496 55.3731 11.9876 55.4021C12.1256 55.4311 12.2656 55.4681 12.4046 55.5021C12.5436 55.5361 12.6606 55.5721 12.7866 55.6131C12.9126 55.6541 13.0426 55.6961 13.1686 55.7421C13.0546 55.5341 12.9316 55.3301 12.8056 55.1291C12.7166 54.9881 12.6276 54.8481 12.5346 54.7101H12.5176L12.0376 54.5811C11.8786 54.5371 11.7186 54.4951 11.5596 54.4451C11.7206 54.4631 11.8826 54.4891 12.0426 54.5211C12.1836 54.5481 12.3266 54.5801 12.4676 54.6211C12.3756 54.4831 12.2786 54.3491 12.1826 54.2141C11.9686 53.9141 11.7436 53.6141 11.5166 53.3191C11.7536 53.6061 11.9876 53.8951 12.2166 54.1921C12.3106 54.3201 12.4056 54.4481 12.4976 54.5781L12.5436 54.1541C12.5546 54.0691 12.5646 53.9831 12.5726 53.8981C12.5806 53.8131 12.5936 53.7281 12.6066 53.6431C12.6066 53.7321 12.6066 53.8201 12.6066 53.9081C12.6066 53.9961 12.6016 54.0831 12.5986 54.1701C12.5926 54.3401 12.5776 54.5091 12.5606 54.6751C12.6606 54.8171 12.7606 54.9631 12.8526 55.1081C12.9766 55.3081 13.0976 55.5011 13.2116 55.7081C13.2396 55.5791 13.2606 55.4511 13.2846 55.3201C13.3086 55.1891 13.3286 55.0581 13.3496 54.9271C13.3736 54.7781 13.3946 54.6271 13.4136 54.4791L13.4726 54.0281C13.4726 54.1831 13.4616 54.3381 13.4506 54.4911C13.4396 54.6441 13.4246 54.7971 13.4086 54.9471C13.3766 55.2411 13.3286 55.5301 13.2696 55.8131C13.4671 56.1687 13.6428 56.5361 13.7956 56.9131C13.8476 56.7701 13.8896 56.6271 13.9346 56.4791C13.9906 56.2961 14.0346 56.1111 14.0826 55.9221C14.1706 55.5481 14.2456 55.1591 14.3096 54.7721C14.2772 55.1675 14.2204 55.5606 14.1396 55.9491C14.0996 56.1421 14.0546 56.3261 14.0006 56.5121C13.9756 56.5991 13.9516 56.6851 13.9246 56.7701L13.8396 57.0241L13.8696 57.1001C14.0004 57.4601 14.1102 57.8274 14.1986 58.2001C14.2856 58.0301 14.3686 57.8571 14.4486 57.6781C14.5416 57.4681 14.6276 57.2511 14.7096 57.0291C14.7916 56.8071 14.8606 56.5781 14.9296 56.3431C14.9986 56.1081 15.0566 55.8711 15.1096 55.6331C15.0348 56.1189 14.9194 56.5976 14.7646 57.0641C14.6896 57.2911 14.6016 57.5081 14.5106 57.7201C14.4196 57.9321 14.3266 58.1201 14.2276 58.3201C14.2996 58.6341 14.3606 58.9511 14.4136 59.2681L14.4546 59.5311C14.5566 59.3671 14.6566 59.2004 14.7546 59.0311C14.8686 58.8311 14.9786 58.6311 15.0876 58.4311C15.3102 58.0115 15.5085 57.5794 15.6816 57.1371C15.5354 57.5951 15.3532 58.0409 15.1366 58.4701C15.0366 58.6791 14.9226 58.8791 14.8116 59.0771C14.7006 59.2751 14.5876 59.4611 14.4726 59.6481C14.5276 60.0291 14.5726 60.4121 14.6186 60.7941L14.6086 60.8021L14.5966 60.7961C14.5416 60.4221 14.4876 60.0481 14.4266 59.6761V59.6641Z" fill="#1A2242"/>
<path d="M18.3625 52.4199C18.3625 52.4199 18.4445 52.6199 18.5505 52.9679C18.6905 53.4294 18.8027 53.899 18.8865 54.3739C18.999 54.9964 19.0579 55.6274 19.0625 56.2599C19.0714 56.9355 18.9842 57.6089 18.8035 58.2599C18.6414 58.8298 18.3852 59.3685 18.0455 59.8539C17.7703 60.2287 17.457 60.5739 17.1105 60.8839C16.8055 61.1679 16.5205 61.4229 16.3045 61.6259C16.0885 61.8289 15.9405 61.9719 15.9045 62.0069C15.8401 61.5885 15.8244 61.164 15.8575 60.7419C16.0345 60.5679 16.2175 60.4079 16.4055 60.2569C16.5935 60.1059 16.7925 59.9569 16.9885 59.8159C17.1845 59.6749 17.3885 59.5359 17.5885 59.3979C17.7885 59.2599 17.9885 59.1269 18.1885 58.9979C17.9785 59.1149 17.7675 59.2369 17.5635 59.3649C17.3595 59.4929 17.1505 59.6269 16.9505 59.7649C16.7505 59.9029 16.5505 60.0449 16.3575 60.1959C16.1915 60.3269 16.0265 60.4649 15.8665 60.6129C15.8745 60.5129 15.8865 60.4189 15.8975 60.3219C15.9395 59.9709 16.0035 59.6219 16.0775 59.2769C16.2775 59.1329 16.4775 58.9919 16.6775 58.8569C16.8775 58.7219 17.0945 58.5829 17.3045 58.4479C17.7215 58.1809 18.1475 57.9299 18.5685 57.6819C18.1315 57.8979 17.6975 58.1339 17.2685 58.3889C17.0535 58.5139 16.8435 58.6499 16.6345 58.7889C16.4545 58.9059 16.2805 59.0259 16.1035 59.1499C16.1915 58.7389 16.3035 58.3319 16.4095 57.9259L16.4335 57.8389C16.6035 57.7329 16.7685 57.6279 16.9405 57.5259L17.4785 57.2089C17.8375 56.9999 18.1965 56.7979 18.5555 56.5939C18.1815 56.7649 17.8135 56.9509 17.4495 57.1479C17.2645 57.2479 17.0855 57.3479 16.9045 57.4539C16.7578 57.5386 16.6125 57.6253 16.4685 57.7139C16.5892 57.2833 16.7205 56.8559 16.8625 56.4319C17.1445 56.2729 17.4315 56.1189 17.7125 55.9629C17.9935 55.8069 18.2935 55.6469 18.5815 55.4849C18.2815 55.6139 17.9815 55.7539 17.6815 55.8999C17.4175 56.0289 17.1585 56.1659 16.8985 56.3069C16.9805 56.0659 17.0625 55.8249 17.1495 55.5859L17.3435 55.0449C17.5115 54.9579 17.6805 54.8719 17.8435 54.7809L18.0975 54.6419C18.1815 54.5929 18.2655 54.5419 18.3485 54.4949C18.2585 54.5269 18.1705 54.5659 18.0815 54.6009L17.8175 54.7169C17.6725 54.7819 17.5285 54.8519 17.3845 54.9239L17.5745 54.4259C17.7165 54.0409 17.8635 53.6579 18.0105 53.2759C17.8505 53.6539 17.6905 54.0309 17.5355 54.4109L17.3355 54.9209C17.2745 54.7679 17.2125 54.6139 17.1465 54.4619C17.0725 54.2889 16.9985 54.1169 16.9155 53.9479C16.9655 54.1329 17.0235 54.3139 17.0855 54.4929C17.1475 54.6719 17.2125 54.8489 17.2855 55.0239L17.2925 55.0429L17.0925 55.5589C17.0015 55.8049 16.9135 56.0529 16.8275 56.3019L16.4625 55.4549L16.2625 54.9909L16.0625 54.5289C16.1145 54.6919 16.1705 54.8519 16.2255 55.0119L16.4015 55.4879C16.5215 55.8039 16.6495 56.1139 16.7835 56.4199V56.4259C16.6388 56.8499 16.5055 57.2773 16.3835 57.7079C16.3015 57.5459 16.2215 57.3839 16.1445 57.2199L15.8745 56.6409C15.7845 56.4469 15.6955 56.2519 15.6095 56.0559L15.3455 55.4689C15.4155 55.6739 15.4945 55.8769 15.5705 56.0789C15.6465 56.2809 15.7315 56.4789 15.8145 56.6789C15.8975 56.8789 15.9865 57.0719 16.0745 57.2649C16.1625 57.4579 16.2555 57.6489 16.3475 57.8369L16.3295 57.9009C16.2195 58.3159 16.1135 58.7339 16.0295 59.1549C15.9165 58.9599 15.8015 58.7609 15.6945 58.5609C15.5705 58.3349 15.4535 58.1039 15.3345 57.8739C15.2155 57.6439 15.1015 57.4089 14.9875 57.1739C14.8735 56.9389 14.7635 56.7009 14.6495 56.4619C14.7495 56.7119 14.8495 56.9539 14.9495 57.1989C15.0495 57.4439 15.1625 57.6789 15.2755 57.9159C15.3885 58.1529 15.5065 58.3829 15.6255 58.6159C15.7445 58.8489 15.8725 59.0689 15.9985 59.2879V59.2929C15.9295 59.6329 15.8695 59.9759 15.8305 60.3219C15.8195 60.4279 15.8105 60.5329 15.8035 60.6389C15.6625 60.4589 15.5275 60.2679 15.3975 60.0719C15.2545 59.8549 15.1205 59.6289 14.9855 59.4029C14.8505 59.1769 14.7235 58.9489 14.5975 58.7189C14.4715 58.4889 14.3455 58.2569 14.2205 58.0189C14.3285 58.2649 14.4425 58.5039 14.5605 58.7419C14.6785 58.9799 14.8025 59.2109 14.9295 59.4419C15.0565 59.6729 15.1935 59.9009 15.3345 60.1209C15.4755 60.3409 15.6255 60.5529 15.7835 60.7519L15.7955 60.7669C15.7725 61.185 15.7997 61.6043 15.8765 62.0159C15.6984 61.9413 15.5304 61.8445 15.3765 61.7279C15.0328 61.4662 14.7448 61.1385 14.5295 60.7639C14.2273 60.2364 14.0329 59.6542 13.9575 59.0509C13.8616 58.3309 13.9181 57.5987 14.1235 56.9019C14.3462 56.158 14.7109 55.4642 15.1975 54.8589C15.6129 54.3405 16.0916 53.8762 16.6225 53.4769C17.01 53.1827 17.4188 52.9177 17.8455 52.6839C18.1635 52.5059 18.3625 52.4199 18.3625 52.4199Z" fill="#83C8E6"/>
<path d="M15.7827 60.748C15.6247 60.548 15.4747 60.337 15.3337 60.117C15.1927 59.897 15.0547 59.671 14.9287 59.438C14.8027 59.205 14.6787 58.971 14.5597 58.738C14.4407 58.505 14.3267 58.261 14.2197 58.015C14.3447 58.248 14.4657 58.481 14.5967 58.715C14.7277 58.949 14.8507 59.172 14.9847 59.399C15.1187 59.626 15.2537 59.851 15.3967 60.068C15.5267 60.268 15.6607 60.4549 15.8027 60.6349C15.8097 60.5289 15.8187 60.424 15.8297 60.318C15.8687 59.972 15.9297 59.629 15.9977 59.289V59.284C15.8717 59.065 15.7447 58.84 15.6247 58.612C15.5047 58.384 15.3837 58.153 15.2747 57.912C15.1657 57.671 15.0547 57.437 14.9487 57.195C14.8427 56.953 14.7487 56.709 14.6487 56.458C14.7627 56.697 14.8707 56.935 14.9867 57.17C15.1027 57.405 15.2127 57.64 15.3337 57.87C15.4547 58.1 15.5697 58.331 15.6937 58.557C15.8007 58.757 15.9157 58.957 16.0287 59.151C16.1157 58.73 16.2207 58.313 16.3287 57.897L16.3467 57.833C16.2547 57.645 16.1607 57.453 16.0737 57.261C15.9867 57.069 15.8937 56.873 15.8137 56.675C15.7337 56.477 15.6487 56.275 15.5697 56.075C15.4907 55.875 15.4147 55.67 15.3447 55.465L15.6087 56.052C15.6947 56.252 15.7837 56.443 15.8737 56.637L16.1437 57.216C16.2207 57.38 16.3007 57.5429 16.3827 57.7039C16.5067 57.2733 16.6401 56.846 16.7827 56.422V56.416C16.6487 56.109 16.5207 55.7999 16.4007 55.4839L16.2247 55.008C16.1697 54.848 16.1137 54.688 16.0617 54.525L16.2617 54.987L16.4617 55.451L16.8267 56.298C16.9127 56.05 16.9997 55.798 17.0917 55.555L17.2917 55.039L17.2847 55.02C17.2157 54.844 17.1497 54.669 17.0847 54.489C17.0197 54.309 16.9647 54.129 16.9147 53.944C16.9977 54.113 17.0717 54.285 17.1457 54.458C17.2117 54.61 17.2737 54.764 17.3347 54.917L17.5347 54.407C17.6897 54.027 17.8497 53.65 18.0097 53.272C17.8627 53.655 17.7167 54.038 17.5737 54.422L17.3897 54.914C17.5337 54.843 17.6777 54.772 17.8227 54.707L18.0867 54.591C18.1757 54.556 18.2637 54.517 18.3537 54.485C18.2707 54.537 18.1867 54.585 18.1027 54.632L17.8487 54.771C17.6837 54.862 17.5137 54.948 17.3487 55.035L17.1547 55.576C17.0677 55.815 16.9857 56.056 16.9037 56.297C17.1637 56.156 17.4227 56.018 17.6867 55.89C17.9867 55.744 18.2807 55.603 18.5867 55.475C18.2987 55.637 18.0077 55.794 17.7177 55.953C17.4277 56.112 17.1497 56.263 16.8677 56.422C16.7257 56.846 16.5944 57.2733 16.4737 57.7039C16.6177 57.6153 16.7631 57.5286 16.9097 57.444C17.0907 57.344 17.2697 57.235 17.4547 57.138C17.8197 56.938 18.1877 56.755 18.5607 56.584C18.2017 56.784 17.8417 56.99 17.4837 57.199L16.9457 57.516C16.7747 57.616 16.6087 57.7219 16.4387 57.8289L16.4147 57.916C16.3037 58.322 16.1957 58.729 16.1087 59.14C16.2857 59.016 16.4597 58.895 16.6397 58.779C16.8497 58.642 17.0587 58.507 17.2737 58.379C17.6987 58.125 18.1327 57.888 18.5737 57.672C18.1537 57.92 17.7267 58.172 17.3097 58.438C17.0997 58.573 16.8917 58.706 16.6827 58.847C16.4737 58.988 16.2827 59.123 16.0827 59.267C16.0087 59.613 15.9457 59.961 15.9027 60.312C15.8907 60.412 15.8797 60.506 15.8717 60.603C16.0317 60.455 16.1967 60.317 16.3627 60.186C16.5567 60.035 16.7537 59.886 16.9557 59.755C17.1577 59.624 17.3617 59.485 17.5687 59.3549C17.7757 59.2249 17.9837 59.104 18.1937 58.988C17.9937 59.12 17.7937 59.253 17.5937 59.388C17.3937 59.523 17.1937 59.664 16.9937 59.806C16.7937 59.948 16.6017 60.0919 16.4107 60.2469C16.2197 60.4019 16.0397 60.558 15.8627 60.732C15.8296 61.154 15.8453 61.5785 15.9097 61.9969L15.8987 62.007L15.8847 62.002C15.8079 61.5903 15.7807 61.171 15.8037 60.753L15.7827 60.748Z" fill="#1A2242"/>
<path d="M36.6252 13.6069H32.6132C32.7662 14.2129 32.2902 14.7459 32.1002 15.3069C31.9385 15.7501 31.9103 16.2309 32.0192 16.6899C32.0914 16.9509 32.2192 17.1932 32.3936 17.4003C32.5681 17.6074 32.7852 17.7744 33.0302 17.8899C33.7831 18.1578 34.5947 18.2159 35.3782 18.0579C35.7871 18.0412 36.1814 17.9018 36.51 17.6578C36.8385 17.4138 37.086 17.0765 37.2202 16.6899C37.329 16.2309 37.3008 15.7501 37.1392 15.3069C36.9502 14.7459 36.4722 14.2129 36.6252 13.6069Z" fill="#1A2242"/>
<path d="M37.3799 15.801C37.0239 15.243 35.8589 15.038 35.3169 14.971H35.2739C35.1259 14.954 35.0339 14.948 35.0339 14.948L34.7409 14.956L34.4479 14.948C34.4479 14.948 34.3559 14.954 34.2079 14.971H34.1649C33.6229 15.038 32.4579 15.243 32.1019 15.801C31.8339 16.222 32.4119 18.514 32.6019 20.401C32.6846 21.2647 32.6436 22.1359 32.4799 22.988H37.0049C36.8588 22.0261 36.8282 21.0502 36.9139 20.081C37.0869 18.264 37.6329 16.199 37.3799 15.801Z" fill="#83C8E6"/>
<path d="M35.6691 19.463L34.3201 19.47L34.2891 17.131L35.6381 17.124L35.6691 19.463Z" fill="#FFC64D"/>
<path d="M35.6539 18.337C35.6467 18.329 35.6379 18.3224 35.6282 18.3178C35.6184 18.3131 35.6079 18.3105 35.5971 18.3099C35.5863 18.3093 35.5756 18.3109 35.5654 18.3145C35.5552 18.3182 35.5459 18.3237 35.5379 18.331C35.5379 18.331 35.2379 18.574 35.2379 18.566C35.2379 18.558 35.6379 18.166 35.6379 18.166C35.6541 18.1514 35.6638 18.131 35.6649 18.1092C35.666 18.0875 35.6585 18.0662 35.6439 18.05C35.6293 18.0338 35.6089 18.0241 35.5871 18.023C35.5654 18.0218 35.5441 18.0294 35.5279 18.044C35.5279 18.044 35.1129 18.397 35.1079 18.391C35.1029 18.385 35.5169 17.976 35.5169 17.976C35.5249 17.9688 35.5314 17.96 35.536 17.9503C35.5407 17.9406 35.5433 17.93 35.5439 17.9192C35.5445 17.9085 35.5429 17.8977 35.5393 17.8875C35.5357 17.8774 35.5301 17.868 35.5229 17.86C35.5156 17.852 35.5069 17.8455 35.4972 17.8408C35.4874 17.8362 35.4769 17.8335 35.4661 17.833C35.4553 17.8324 35.4446 17.834 35.4344 17.8376C35.4242 17.8412 35.4149 17.8468 35.4069 17.854C35.4069 17.854 34.9609 18.235 34.9549 18.23C34.9489 18.225 35.3079 17.876 35.3079 17.876C35.3241 17.8614 35.3338 17.841 35.3349 17.8192C35.336 17.7975 35.3285 17.7762 35.3139 17.76C35.2993 17.7438 35.2789 17.7341 35.2571 17.733C35.2354 17.7318 35.2141 17.7394 35.1979 17.754L34.8089 18.104C34.8019 18.099 34.4089 18.461 34.3089 18.41V18.292C34.2643 18.2998 34.223 18.3204 34.19 18.3513C34.157 18.3822 34.1336 18.4221 34.1229 18.466C34.1052 18.5376 34.1052 18.6124 34.1229 18.684C34.1339 18.743 34.1229 18.803 34.1319 18.863C34.1391 18.9182 34.1532 18.9723 34.1739 19.024C34.1609 19.032 32.8849 19.663 31.6879 20.324C32.145 19.1107 32.7012 17.937 33.3509 16.815C33.4189 16.6476 33.4359 16.4639 33.3996 16.2869C33.3634 16.1099 33.2756 15.9476 33.1472 15.8204C33.0189 15.6933 32.8558 15.607 32.6785 15.5724C32.5012 15.5378 32.3176 15.5564 32.1509 15.626L32.0779 15.657C31.9471 15.7127 31.8312 15.7981 31.7392 15.9064C31.6472 16.0147 31.5817 16.143 31.5479 16.281C31.5479 16.281 30.0619 20.1 30.2979 21.395C30.3142 21.4786 30.337 21.5608 30.3659 21.641C31.4399 22.207 34.4519 19.434 34.4859 19.399C34.815 19.2397 35.1077 19.0144 35.3459 18.737L35.6599 18.454C35.6673 18.446 35.673 18.4365 35.6767 18.4263C35.6804 18.416 35.682 18.4051 35.6815 18.3942C35.6809 18.3833 35.6782 18.3727 35.6734 18.3628C35.6687 18.353 35.662 18.3442 35.6539 18.337Z" fill="#FFB691"/>
<path d="M32.4213 18.991C33.0113 17.742 33.6474 16.643 33.6474 16.643C33.7664 16.1174 33.7779 15.5731 33.6814 15.043C33.1795 15.074 32.6821 15.1551 32.1964 15.285C32.0312 15.341 31.882 15.436 31.7615 15.5621C31.641 15.6881 31.5528 15.8415 31.5043 16.009C31.5043 16.009 31.1184 17.002 30.7354 18.216C31.234 18.5943 31.8095 18.8588 32.4213 18.991Z" fill="#83C8E6"/>
<path d="M34.6404 16.6221C34.1734 16.6431 33.6924 15.7221 33.6924 15.1321C33.6924 14.0201 35.5074 13.9581 35.5074 15.0951C35.5124 15.6381 35.0804 16.6031 34.6404 16.6221Z" fill="#FFAE85"/>
<path d="M36.2163 13.65C36.2213 14.1143 36.0857 14.5693 35.8273 14.955C35.5257 15.3244 35.0984 15.5694 34.6273 15.643C34.1474 15.5633 33.7135 15.3099 33.4083 14.931C33.1603 14.5498 33.0305 14.1038 33.0353 13.649C33.0457 13.2336 33.2181 12.8387 33.5156 12.5485C33.8131 12.2583 34.2122 12.0959 34.6278 12.0959C35.0434 12.0959 35.4425 12.2583 35.74 12.5485C36.0375 12.8387 36.2099 13.2336 36.2203 13.649L36.2163 13.65Z" fill="#FFBF9E"/>
<path d="M36.7136 13.268C36.7136 13.247 36.7136 13.226 36.7136 13.204C36.6875 12.8842 36.6006 12.5723 36.4576 12.285C36.3349 12.0124 36.1495 11.7725 35.9166 11.585C35.6479 11.4129 35.3437 11.3037 35.0268 11.2656C34.7099 11.2275 34.3885 11.2615 34.0866 11.365C33.7318 11.4583 33.4109 11.6508 33.1616 11.92C33.0415 12.0589 32.9406 12.2133 32.8616 12.379C32.7862 12.5664 32.6963 12.7476 32.5926 12.921C32.5189 13.015 32.4686 13.1252 32.4457 13.2424C32.4228 13.3597 32.428 13.4807 32.4608 13.5955C32.4937 13.7104 32.5534 13.8158 32.6348 13.9031C32.7163 13.9905 32.8174 14.0573 32.9296 14.098C32.9846 14.3921 33.1355 14.6597 33.3586 14.859C33.2177 14.6536 33.1475 14.4079 33.1586 14.159C33.2679 14.1533 33.376 14.1342 33.4806 14.102C33.5904 14.0653 33.6979 14.0222 33.8026 13.973C34.0896 14.2605 34.4545 14.4575 34.8523 14.5398C35.25 14.6221 35.6632 14.586 36.0406 14.436C36.2435 14.3153 36.4119 14.1445 36.5297 13.9399C36.6476 13.7354 36.7109 13.5041 36.7136 13.268Z" fill="#1A2242"/>
<path d="M30.3835 40.3992L33.4026 39.9802C30.0469 40.4556 26.9297 41.9868 24.5025 44.3522C24.0347 44.8076 23.434 45.1021 22.7876 45.1932L19.7686 45.6122C20.415 45.5211 21.0157 45.2266 21.4836 44.7712C23.9107 42.4058 27.0279 40.8745 30.3835 40.3992Z" fill="#FFC64D"/>
<path d="M28.8479 28.158L31.8669 27.739C26.3641 28.5193 21.2545 31.037 17.2829 34.925C16.8145 35.3826 16.2123 35.6786 15.5639 35.77L12.5449 36.189C13.1933 36.0976 13.7955 35.8016 14.2639 35.344C18.2354 31.456 23.3451 28.9382 28.8479 28.158Z" fill="#FFC64D"/>
<path d="M31.8965 46.0161L34.9155 45.5971C35.3563 45.536 35.802 45.5169 36.2465 45.5401L33.2275 45.9591C32.783 45.9359 32.3373 45.955 31.8965 46.0161Z" fill="#FFC64D"/>
<path d="M29.4336 33.6461L32.4526 33.2271C33.8381 33.0351 35.2387 32.9752 36.6356 33.0481L33.6166 33.4671C32.2197 33.3942 30.8191 33.4541 29.4336 33.6461Z" fill="#FFC64D"/>
<path d="M27.8955 21.4061L30.9145 20.9871C32.935 20.7073 34.9775 20.6199 37.0145 20.7261L33.9955 21.1451C31.9585 21.039 29.916 21.1263 27.8955 21.4061Z" fill="#FFC64D"/>
<path d="M34.065 61.5369C38.1083 60.9733 40.9016 57.0414 40.3041 52.7548C39.7066 48.4681 35.9444 45.4501 31.9011 46.0137C27.8578 46.5773 25.0645 50.5092 25.662 54.7958C26.2595 59.0824 30.0217 62.1005 34.065 61.5369Z" fill="#FFDF3F"/>
<path d="M37.0905 61.1291L34.0715 61.5481C35.826 61.2605 37.4222 60.3614 38.5775 59.01C39.7327 57.6585 40.3725 55.9419 40.3835 54.1641C40.4912 52.1345 39.8044 50.1427 38.4685 48.6108C37.1327 47.079 35.2529 46.1276 33.2275 45.9581L36.2465 45.5391C38.272 45.7083 40.152 46.6597 41.4878 48.1916C42.8237 49.7235 43.5105 51.7154 43.4025 53.7451C43.3915 55.5229 42.7517 57.2396 41.5965 58.591C40.4412 59.9424 38.845 60.8415 37.0905 61.1291Z" fill="#FFC64D"/>
<path d="M50.9892 46.8221L47.9702 47.2411C48.6171 47.1496 49.2181 46.8548 49.6862 46.3991C50.316 45.7673 50.684 44.9209 50.7164 44.0294C50.7488 43.1379 50.4434 42.267 49.8612 41.5911C47.8497 39.2018 45.3711 37.2486 42.5776 35.8516C39.7841 34.4546 36.7346 33.6432 33.6162 33.4671L36.6352 33.0481C39.7536 33.2241 42.8031 34.0356 45.5966 35.4326C48.3901 36.8296 50.8687 38.7827 52.8802 41.1721C53.4624 41.848 53.7678 42.7189 53.7354 43.6104C53.7029 44.5019 53.335 45.3483 52.7052 45.9801C52.2371 46.4358 51.6361 46.7306 50.9892 46.8221Z" fill="#FFC64D"/>
<path d="M33.6159 33.4671C36.7343 33.6432 39.7838 34.4546 42.5773 35.8516C45.3708 37.2487 47.8493 39.2018 49.8609 41.5911C50.4431 42.267 50.7485 43.1379 50.7161 44.0294C50.6836 44.9209 50.3157 45.7673 49.6859 46.3991C49.3839 46.6939 49.0242 46.9231 48.6295 47.0723C48.2347 47.2215 47.8134 47.2875 47.3919 47.2661C46.9591 47.2407 46.5359 47.1276 46.1481 46.9337C45.7603 46.7398 45.4159 46.4692 45.1359 46.1381C43.6833 44.412 41.8933 43.0011 39.8756 41.992C37.8579 40.9829 35.6553 40.3969 33.4029 40.2701C31.2129 40.1558 29.023 40.4967 26.9714 41.2713C24.9198 42.0458 23.051 43.2371 21.4829 44.7701C21.1811 45.0647 20.8215 45.2938 20.4269 45.4428C20.0323 45.5918 19.6112 45.6576 19.1899 45.6361C18.7571 45.6112 18.3338 45.4984 17.946 45.3047C17.5581 45.1109 17.2138 44.8402 16.9339 44.5091C16.3516 43.8328 16.0461 42.9616 16.0785 42.0698C16.111 41.1779 16.479 40.3312 17.1089 39.6991C19.2804 37.5761 21.8683 35.9262 24.7095 34.8536C27.5506 33.781 30.5832 33.3089 33.6159 33.4671Z" fill="#FFDF3F"/>
<path d="M58.7849 38.1741L55.7659 38.5931C56.4137 38.5018 57.0154 38.2057 57.4829 37.7481C58.1116 37.1151 58.4781 36.268 58.5091 35.3763C58.5401 34.4847 58.2332 33.6142 57.6499 32.9391C54.7167 29.4696 51.1072 26.6344 47.0416 24.6066C42.9761 22.5788 38.5399 21.401 34.0039 21.1451L37.0229 20.7261C41.5583 20.9828 45.9939 22.1612 50.0587 24.1893C54.1235 26.2174 57.7324 29.0527 60.6649 32.5221C61.2484 33.1971 61.5554 34.0676 61.5245 34.9593C61.4935 35.851 61.1268 36.6982 60.4979 37.3311C60.0312 37.7872 59.4311 38.0825 58.7849 38.1741Z" fill="#FFDF3F"/>
<path d="M34.0004 21.1461C38.5363 21.4021 42.9725 22.5799 47.0381 24.6077C51.1036 26.6355 54.7132 29.4707 57.6464 32.9401C58.2297 33.6152 58.5365 34.4856 58.5056 35.3773C58.4746 36.269 58.1081 37.116 57.4794 37.7491C57.1772 38.0455 56.8167 38.2759 56.4208 38.4257C56.0248 38.5755 55.6021 38.6413 55.1794 38.6191C54.7475 38.5943 54.3251 38.482 53.938 38.2889C53.5509 38.0959 53.207 37.8261 52.9274 37.4961C50.5529 34.6874 47.6309 32.3922 44.3397 30.7506C41.0486 29.109 37.4574 28.1554 33.7854 27.9481C30.1957 27.7611 26.6065 28.3224 23.2453 29.5963C19.8841 30.8702 16.8244 32.8289 14.2604 35.3481C13.958 35.6443 13.5975 35.8745 13.2016 36.0243C12.8057 36.174 12.3831 36.24 11.9604 36.2181C11.5285 36.1931 11.1062 36.0807 10.7191 35.8877C10.332 35.6947 9.98814 35.425 9.70838 35.0951C9.12486 34.4201 8.81785 33.5495 8.84881 32.6578C8.87978 31.7661 9.24644 30.919 9.87538 30.2861C13.0434 27.1735 16.8239 24.7536 20.9771 23.1801C25.1303 21.6066 29.5652 20.914 34.0004 21.1461Z" fill="#FFDF3F"/>
<path d="M55.9827 56.2199L56.4537 52.1799H56.2297L55.2617 56.2199H55.9827Z" fill="#E6EBFF"/>
<path d="M55.9824 56.2198H51.9424V55.9958L55.9824 55.4958V56.2198Z" fill="#E6EBFF"/>
<path d="M55.9824 56.2198H51.9424V55.9958L55.9824 55.9229V56.2198Z" fill="#FFC64D"/>
<path d="M55.9796 56.2199L56.4506 52.1799H56.2266L55.6826 56.2199H55.9796Z" fill="#FFC64D"/>
<path d="M60.1449 60.741C57.5235 61.3173 54.8109 61.3432 52.1789 60.817C50.0509 61.098 47.0449 61.268 47.0449 61.268C46.7777 61.4817 46.4685 61.637 46.1375 61.7237C45.8064 61.8105 45.4609 61.8267 45.1232 61.7715C44.7854 61.7163 44.4631 61.5908 44.1769 61.4031C43.8907 61.2154 43.6471 60.9697 43.4619 60.682L43.8619 57.982C43.8619 57.982 47.4779 57.213 53.0999 59.175L60.2219 60.075L60.1449 60.741Z" fill="#1A2242"/>
<path d="M60.1514 60.734L61.1404 60.723L61.0794 60.207L60.2234 60.072L60.1514 60.734Z" fill="#FFBF9E"/>
<path d="M61.14 60.7229C61.459 60.8759 61.651 60.9389 61.904 60.6909L62.773 59.5659C62.7991 59.5329 62.8146 59.4927 62.8172 59.4506C62.8199 59.4086 62.8097 59.3668 62.788 59.3307C62.7662 59.2946 62.734 59.266 62.6956 59.2487C62.6572 59.2314 62.6144 59.2263 62.573 59.2339C62.5 59.2539 61.084 60.2059 61.084 60.2059L61.14 60.7229Z" fill="#1A2242"/>
<path d="M43.4148 51.9269C42.6999 52.9088 42.2299 54.0472 42.044 55.2474C41.858 56.4476 41.9615 57.6748 42.3458 58.8269L45.8248 58.602C45.5303 57.6711 45.3694 56.7031 45.3468 55.727C47.4578 54.574 45.8988 54.2509 45.8228 52.0269C45.6886 51.8366 45.5125 51.6796 45.308 51.5681C45.1035 51.4566 44.8762 51.3935 44.6434 51.3839C44.4107 51.3742 44.1789 51.4182 43.9659 51.5123C43.7528 51.6065 43.5643 51.7483 43.4148 51.9269Z" fill="#83C8E6"/>
<path d="M47.7075 55.9919C46.6965 55.4569 44.9385 52.3479 44.9385 52.3479C44.8032 52.1694 44.6032 52.0513 44.3815 52.0189C44.2694 52.0026 44.1551 52.0088 44.0454 52.037C43.9356 52.0653 43.8326 52.1152 43.7423 52.1837C43.652 52.2522 43.5763 52.338 43.5195 52.436C43.4627 52.5341 43.426 52.6425 43.4115 52.7549L43.4025 52.8279C43.3855 52.9596 43.3995 53.0934 43.4432 53.2187C43.487 53.344 43.5593 53.4574 43.6545 53.5499C43.6545 53.5499 46.0275 56.5499 47.1825 56.9769C48.3015 57.3869 51.9375 56.6479 51.9375 56.6479L51.9155 56.2099C50.5094 56.2425 49.1028 56.1697 47.7075 55.9919Z" fill="#FFBF9E"/>
<path d="M45.6896 53.5819C45.2526 52.9019 44.9386 52.3479 44.9386 52.3479C44.8361 52.2126 44.6957 52.111 44.5352 52.0558C44.3747 52.0007 44.2014 51.9946 44.0375 52.0384C43.8735 52.0822 43.7263 52.1738 43.6146 52.3016C43.503 52.4294 43.4319 52.5876 43.4106 52.756L43.4016 52.8289C43.3846 52.9606 43.3985 53.0944 43.4422 53.2197C43.486 53.3451 43.5583 53.4585 43.6536 53.5509C43.6536 53.5509 43.9536 53.9289 44.3876 54.4339C44.8924 54.2766 45.3433 53.9816 45.6896 53.5819Z" fill="#83C8E6"/>
<path d="M53.887 56.4139C53.367 56.2769 53.027 56.7589 51.937 56.6549L51.915 56.2139H53.887C53.9027 56.2254 53.9155 56.2404 53.9243 56.2578C53.9331 56.2752 53.9377 56.2944 53.9377 56.3139C53.9377 56.3334 53.9331 56.3526 53.9243 56.3699C53.9155 56.3873 53.9027 56.4024 53.887 56.4139Z" fill="#FFBF9E"/>
<path d="M44.3496 51.1731C44.5994 51.0424 44.8121 50.8506 44.9679 50.6156C45.1236 50.3806 45.2175 50.1101 45.2406 49.8291L46.3946 50.3691C46.1787 50.5834 46.0145 50.8441 45.9145 51.1314C45.8145 51.4187 45.7814 51.7251 45.8176 52.0271L44.3496 51.1731Z" fill="#FFAE85"/>
<path d="M46.0988 50.782L46.1088 50.789C46.202 50.859 46.3081 50.9098 46.421 50.9384C46.534 50.9671 46.6515 50.9731 46.7668 50.956C47.2368 50.868 47.5598 50.396 47.9018 49.73C48.0453 49.5334 48.1429 49.307 48.1873 49.0677C48.2318 48.8283 48.2219 48.582 48.1586 48.347C48.0953 48.1119 47.9801 47.894 47.8214 47.7094C47.6627 47.5247 47.4646 47.378 47.2418 47.28C46.2088 46.886 44.5228 47.033 45.1198 49.352C45.2666 49.9295 45.6135 50.4362 46.0988 50.782Z" fill="#FFBF9E"/>
<path d="M48.9486 47.961C48.6568 47.7776 48.3107 47.7003 47.9686 47.742C47.969 47.7295 47.9669 47.7171 47.9624 47.7054C47.958 47.6937 47.9512 47.6831 47.9426 47.674C47.7089 47.3812 47.3969 47.1607 47.0428 47.0382C46.6888 46.9157 46.3073 46.8962 45.9426 46.982C45.5782 47.0449 45.2421 47.219 44.9806 47.4804C44.719 47.7418 44.5447 48.0777 44.4816 48.442C44.3556 49.255 43.9416 49.548 43.2246 49.856C42.881 49.9921 42.5684 50.1962 42.3056 50.456C42.0457 50.7304 41.8513 51.0601 41.7372 51.4203C41.623 51.7806 41.5921 52.1621 41.6466 52.536C41.2816 53.036 40.8186 53.422 40.9466 54.116C40.9879 54.3437 41.0982 54.5531 41.2626 54.716C41.3647 54.8184 41.4842 54.9017 41.6156 54.962C41.7797 55.038 41.9602 55.0715 42.1406 55.0597C42.3211 55.0478 42.4956 54.9908 42.6483 54.894C42.8011 54.7972 42.9271 54.6637 43.0148 54.5056C43.1025 54.3474 43.1492 54.1699 43.1506 53.989C43.1406 53.6736 43.2221 53.362 43.3854 53.0919C43.5486 52.8218 43.7866 52.6048 44.0706 52.467C44.2616 52.38 44.4706 52.332 44.6656 52.267C45.0541 52.1255 45.3859 51.8612 45.6106 51.514C45.7237 51.3321 45.7952 51.1274 45.8201 50.9146C45.845 50.7018 45.8226 50.4862 45.7546 50.283C45.5983 49.9127 45.5955 49.4955 45.7466 49.123C45.8354 48.9869 45.9515 48.8706 46.0874 48.7814C46.2234 48.6923 46.3763 48.6323 46.5366 48.605C47.1456 49.153 48.4586 49.561 49.0846 48.818C49.1353 48.7541 49.1721 48.6804 49.1928 48.6015C49.2136 48.5226 49.2177 48.4402 49.2049 48.3596C49.1921 48.2791 49.1627 48.202 49.1186 48.1334C49.0745 48.0648 49.0166 48.0061 48.9486 47.961Z" fill="#1A2242"/>
<path d="M45.9021 49.0801C45.8769 49.033 45.8412 48.9922 45.7978 48.961C45.7544 48.9298 45.7044 48.909 45.6517 48.9001C45.599 48.8912 45.5449 48.8946 45.4937 48.9098C45.4425 48.9251 45.3954 48.9518 45.3561 48.9881C45.1631 49.2161 45.4101 49.4881 45.7291 49.4881C45.7573 49.3414 45.8162 49.2023 45.9021 49.0801Z" fill="#FFBF9E"/>
<path d="M42.3418 58.822C42.3418 58.822 42.7718 62.022 44.6608 62.039C45.5091 62.0853 46.35 61.8593 47.0608 61.394C48.5554 60.743 49.9602 59.9028 51.2408 58.894C51.2408 58.894 52.0408 60.259 55.2408 62.354L55.8408 61.812C55.8408 61.812 52.8148 57.579 51.8878 56.962C51.8402 56.9303 51.7879 56.9064 51.7328 56.891C50.1328 56.442 45.8158 58.591 45.8158 58.591L42.3418 58.822Z" fill="#31395C"/>
<path d="M55.248 62.3618L56.015 62.9729L56.3701 62.5799L55.846 61.8188L55.248 62.3618Z" fill="#FFBF9E"/>
<path d="M56.0146 62.973C56.0733 63.1352 56.1804 63.2755 56.3216 63.3746C56.4628 63.4737 56.6311 63.5269 56.8036 63.5269C56.8242 63.527 56.8446 63.5229 56.8635 63.5148C56.8824 63.5067 56.8995 63.4949 56.9136 63.4799L58.1556 62.167C58.1797 62.1414 58.1977 62.1107 58.2082 62.0772C58.2186 62.0437 58.2213 62.0082 58.216 61.9735C58.2107 61.9388 58.1975 61.9058 58.1776 61.8769C58.1576 61.8481 58.1313 61.8241 58.1006 61.8069C58.0681 61.7888 58.0317 61.7787 57.9944 61.7777C57.9571 61.7766 57.9202 61.7846 57.8867 61.801L56.3336 62.5619L56.0146 62.973Z" fill="#1A2242"/>
<path d="M54.9487 48.7219H50.9717V51.4959H52.3607L52.6487 51.9959L52.9607 52.5359L53.2727 51.9959L53.5607 51.4959H54.9497L54.9487 48.7219Z" fill="#83C8E6"/>
<path d="M54.6169 49.3669H51.3799V49.5709H54.6169V49.3669Z" fill="white"/>
<path d="M54.6169 49.7739H51.3799V49.9779H54.6169V49.7739Z" fill="white"/>
<path d="M54.6169 50.1819H51.3799V50.3859H54.6169V50.1819Z" fill="white"/>
<path d="M53.5129 50.5889H51.3799V50.7929H53.5129V50.5889Z" fill="white"/>
<path d="M26.6711 43.3801H21.9541V46.6711H23.6021L23.9431 47.2621L24.3131 47.9021L24.6831 47.2621L25.0241 46.6711H26.6711V43.3801Z" fill="#83C8E6"/>
<path d="M26.2795 44.145H22.4395V44.387H26.2795V44.145Z" fill="white"/>
<path d="M26.2795 44.6279H22.4395V44.8699H26.2795V44.6279Z" fill="white"/>
<path d="M26.2795 45.1111H22.4395V45.3531H26.2795V45.1111Z" fill="white"/>
<path d="M24.9695 45.594H22.4395V45.836H24.9695V45.594Z" fill="white"/>
<path d="M27.1922 53.0151C26.8562 52.5151 25.7562 52.3261 25.2452 52.2661H25.2052C25.0652 52.2501 24.9792 52.2451 24.9792 52.2451L24.7032 52.2531L24.4272 52.2451C24.4272 52.2451 24.3402 52.2501 24.2012 52.2661H24.1612C23.6492 52.3261 22.5492 52.5111 22.2142 53.0151C21.9612 53.3951 22.5072 55.4651 22.6842 57.1661C22.7623 57.9462 22.7235 58.7335 22.5692 59.5021H26.8412C26.7033 58.6341 26.6744 57.7523 26.7552 56.8771C26.9152 55.2391 27.4312 53.3741 27.1922 53.0151Z" fill="#83C8E6"/>
<path d="M29.7604 62.259H28.3704C28.295 62.2666 28.2188 62.2582 28.1469 62.2344C28.075 62.2105 28.0089 62.1717 27.953 62.1206C27.8971 62.0694 27.8527 62.007 27.8226 61.9375C27.7925 61.8679 27.7774 61.7928 27.7784 61.717C27.7798 61.6398 27.7972 61.5636 27.8294 61.4934C27.8617 61.4232 27.9081 61.3604 27.9657 61.3089C28.0234 61.2575 28.091 61.2185 28.1644 61.1944C28.2378 61.1704 28.3154 61.1617 28.3924 61.169L29.6764 61.18C30.0154 61.18 30.3684 61.38 30.3684 61.717C30.3674 61.7936 30.3504 61.8692 30.3187 61.9389C30.2869 62.0086 30.2409 62.0709 30.1837 62.1219C30.1265 62.1729 30.0594 62.2114 29.9865 62.235C29.9136 62.2586 29.8366 62.2668 29.7604 62.259Z" fill="#1A2242"/>
<path d="M28.3598 62.263C28.2845 62.2671 28.2091 62.2561 28.1381 62.2308C28.0671 62.2055 28.0018 62.1664 27.946 62.1157C27.8902 62.065 27.845 62.0038 27.813 61.9355C27.7811 61.8673 27.763 61.7933 27.7598 61.718C27.7611 61.6432 27.7776 61.5695 27.8081 61.5012C27.8386 61.433 27.8826 61.3715 27.9374 61.3207C27.9922 61.2698 28.0567 61.2305 28.127 61.2051C28.1974 61.1797 28.2721 61.1688 28.3468 61.173L29.6748 61.217C29.9978 61.217 30.3318 61.405 30.3318 61.717C30.3313 61.7892 30.3155 61.8604 30.2857 61.9261C30.2558 61.9918 30.2124 62.0505 30.1584 62.0983C30.1043 62.1462 30.0408 62.1821 29.972 62.2037C29.9031 62.2254 29.8305 62.2323 29.7588 62.224L28.3598 62.263Z" fill="#1A2242"/>
<path d="M29.7109 61.218V62.224H29.7609C29.8326 62.2323 29.9053 62.2254 29.9741 62.2037C30.043 62.1821 30.1065 62.1462 30.1606 62.0984C30.2146 62.0505 30.258 61.9919 30.2879 61.9261C30.3177 61.8604 30.3334 61.7892 30.3339 61.717C30.3339 61.409 30.0229 61.23 29.7109 61.218Z" fill="#EBFFFF"/>
<path d="M28.8854 61.433C28.9241 61.433 28.9554 61.4016 28.9554 61.363C28.9554 61.3243 28.9241 61.293 28.8854 61.293C28.8468 61.293 28.8154 61.3243 28.8154 61.363C28.8154 61.4016 28.8468 61.433 28.8854 61.433Z" fill="#1A2242"/>
<path d="M29.1074 61.363C29.1074 61.3491 29.1115 61.3356 29.1192 61.3241C29.1269 61.3126 29.1378 61.3036 29.1506 61.2983C29.1634 61.293 29.1775 61.2916 29.1911 61.2943C29.2047 61.297 29.2171 61.3037 29.2269 61.3135C29.2367 61.3232 29.2434 61.3357 29.2461 61.3493C29.2488 61.3629 29.2474 61.377 29.2421 61.3897C29.2368 61.4025 29.2278 61.4135 29.2163 61.4211C29.2048 61.4288 29.1913 61.433 29.1774 61.433C29.1589 61.433 29.1411 61.4256 29.1279 61.4125C29.1148 61.3993 29.1074 61.3815 29.1074 61.363Z" fill="#1A2242"/>
<path d="M29.3984 61.363C29.3984 61.3491 29.4025 61.3356 29.4102 61.3241C29.4179 61.3126 29.4289 61.3036 29.4417 61.2983C29.4544 61.293 29.4685 61.2916 29.4821 61.2943C29.4957 61.297 29.5081 61.3037 29.5179 61.3135C29.5277 61.3232 29.5344 61.3357 29.5371 61.3493C29.5398 61.3629 29.5384 61.377 29.5331 61.3897C29.5278 61.4025 29.5188 61.4135 29.5073 61.4211C29.4958 61.4288 29.4823 61.433 29.4684 61.433C29.4499 61.433 29.4321 61.4256 29.4189 61.4125C29.4058 61.3993 29.3984 61.3815 29.3984 61.363Z" fill="#1A2242"/>
<path d="M28.8854 62.1161C28.9241 62.1161 28.9554 62.0847 28.9554 62.0461C28.9554 62.0074 28.9241 61.9761 28.8854 61.9761C28.8468 61.9761 28.8154 62.0074 28.8154 62.0461C28.8154 62.0847 28.8468 62.1161 28.8854 62.1161Z" fill="#1A2242"/>
<path d="M29.1074 62.0461C29.1074 62.0322 29.1115 62.0187 29.1192 62.0072C29.1269 61.9957 29.1378 61.9867 29.1506 61.9814C29.1634 61.9761 29.1775 61.9747 29.1911 61.9774C29.2047 61.9801 29.2171 61.9868 29.2269 61.9966C29.2367 62.0064 29.2434 62.0188 29.2461 62.0324C29.2488 62.046 29.2474 62.0601 29.2421 62.0729C29.2368 62.0857 29.2278 62.0966 29.2163 62.1043C29.2048 62.112 29.1913 62.1161 29.1774 62.1161C29.1589 62.1161 29.1411 62.1087 29.1279 62.0956C29.1148 62.0825 29.1074 62.0646 29.1074 62.0461Z" fill="#1A2242"/>
<path d="M29.3984 62.0461C29.3984 62.0322 29.4025 62.0187 29.4102 62.0072C29.4179 61.9957 29.4289 61.9867 29.4417 61.9814C29.4544 61.9761 29.4685 61.9747 29.4821 61.9774C29.4957 61.9801 29.5081 61.9868 29.5179 61.9966C29.5277 62.0064 29.5344 62.0188 29.5371 62.0324C29.5398 62.046 29.5384 62.0601 29.5331 62.0729C29.5278 62.0857 29.5188 62.0966 29.5073 62.1043C29.4958 62.112 29.4823 62.1161 29.4684 62.1161C29.4499 62.1161 29.4321 62.1087 29.4189 62.0956C29.4058 62.0825 29.3984 62.0646 29.3984 62.0461Z" fill="#1A2242"/>
<path d="M29.2177 62.0609H29.1437L28.8438 61.3379H28.9177L29.2177 62.0609Z" fill="#CCE3E3"/>
<path d="M29.5127 62.0609H29.4387L29.1387 61.3379H29.2127L29.5127 62.0609Z" fill="#CCE3E3"/>
<path d="M28.9226 61.3369H28.8486V62.0599H28.9226V61.3369Z" fill="#EBFFFF"/>
<path d="M29.2176 61.3369H29.1436V62.0599H29.2176V61.3369Z" fill="#EBFFFF"/>
<path d="M29.5125 61.3369H29.4385V62.0599H29.5125V61.3369Z" fill="#EBFFFF"/>
<path d="M26.5278 62.049V60.676C26.5278 60.676 21.7278 57.694 18.3828 58.299C18.2793 58.3182 18.1808 58.3587 18.0937 58.418C18.0066 58.4772 17.9328 58.5538 17.8768 58.6431C17.7906 58.7773 17.7491 58.9354 17.758 59.0947C17.767 59.2539 17.8261 59.4063 17.9268 59.53C18.5808 60.32 20.5928 61.807 26.5278 62.049Z" fill="#1A2242"/>
<path d="M27.0586 60.9861L28.3186 61.3971C28.3868 61.4193 28.4463 61.4624 28.4885 61.5204C28.5307 61.5785 28.5535 61.6483 28.5536 61.7201C28.5536 61.8103 28.5178 61.8967 28.454 61.9605C28.3902 62.0243 28.3038 62.0601 28.2136 62.0601H27.0806L27.0586 60.9861Z" fill="#FFBF9E"/>
<path d="M27.0839 60.5662H26.5049V62.2932H27.0839V60.5662Z" fill="#31395C"/>
<path d="M19.1978 63.1152L20.5718 62.9062C20.6472 62.9019 20.7208 62.8817 20.7879 62.8471C20.855 62.8125 20.914 62.7641 20.9611 62.7052C21.0083 62.6462 21.0425 62.578 21.0616 62.5049C21.0807 62.4319 21.0841 62.3556 21.0718 62.2812C21.0589 62.2049 21.0302 62.1321 20.9878 62.0675C20.9454 62.0028 20.89 61.9476 20.8252 61.9053C20.7604 61.8631 20.6876 61.8346 20.6113 61.8219C20.535 61.8091 20.4568 61.8123 20.3818 61.8312L19.1138 62.0312C18.7788 62.0822 18.4598 62.3312 18.5138 62.6662C18.5259 62.7423 18.5537 62.815 18.5955 62.8797C18.6373 62.9444 18.6921 62.9996 18.7565 63.0419C18.8209 63.0842 18.8935 63.1126 18.9694 63.1252C19.0454 63.1378 19.1232 63.1344 19.1978 63.1152Z" fill="#1A2242"/>
<path d="M20.5828 62.9082C20.6577 62.9006 20.7302 62.8782 20.7964 62.8424C20.8625 62.8067 20.921 62.7581 20.9683 62.6997C21.0156 62.6412 21.0509 62.5739 21.0721 62.5018C21.0933 62.4296 21.1 62.354 21.0918 62.2792C21.0793 62.2055 21.052 62.135 21.0116 62.0721C20.9712 62.0092 20.9185 61.955 20.8567 61.9129C20.7949 61.8708 20.7253 61.8416 20.6519 61.827C20.5785 61.8125 20.503 61.8129 20.4298 61.8282L19.1228 62.0702C18.8028 62.1182 18.5018 62.3542 18.5488 62.6642C18.5602 62.7355 18.5864 62.8036 18.6259 62.8641C18.6653 62.9246 18.717 62.9761 18.7777 63.0152C18.8384 63.0544 18.9066 63.0803 18.9779 63.0913C19.0493 63.1023 19.1222 63.0982 19.1918 63.0792L20.5828 62.9082Z" fill="#1A2242"/>
<path d="M19.0909 62.0781L19.2419 63.0731L19.1929 63.0801C19.1233 63.0992 19.0504 63.1033 18.979 63.0923C18.9077 63.0812 18.8394 63.0553 18.7788 63.0161C18.7181 62.977 18.6664 62.9255 18.6269 62.865C18.5875 62.8045 18.5613 62.7364 18.5499 62.6651C18.5039 62.3651 18.7839 62.1371 19.0909 62.0781Z" fill="#EBFFFF"/>
<path d="M19.9966 62.0851C19.9945 62.0715 19.9884 62.0588 19.979 62.0486C19.9697 62.0384 19.9575 62.0312 19.9441 62.0279C19.9307 62.0246 19.9166 62.0253 19.9036 62.03C19.8906 62.0347 19.8793 62.0432 19.8711 62.0543C19.8629 62.0655 19.8582 62.0787 19.8575 62.0925C19.8568 62.1063 19.8603 62.1201 19.8674 62.1319C19.8745 62.1438 19.885 62.1532 19.8975 62.1591C19.91 62.165 19.9239 62.1672 19.9376 62.1651C19.9467 62.1638 19.9555 62.1607 19.9634 62.1559C19.9714 62.1511 19.9783 62.1449 19.9838 62.1374C19.9892 62.13 19.9932 62.1215 19.9954 62.1126C19.9976 62.1036 19.998 62.0943 19.9966 62.0851Z" fill="#1A2242"/>
<path d="M19.7085 62.13C19.7064 62.1164 19.7003 62.1037 19.6909 62.0935C19.6816 62.0833 19.6694 62.0761 19.656 62.0728C19.6426 62.0695 19.6285 62.0703 19.6155 62.075C19.6025 62.0797 19.5912 62.0881 19.583 62.0993C19.5748 62.1104 19.5701 62.1237 19.5694 62.1375C19.5688 62.1513 19.5722 62.165 19.5793 62.1768C19.5864 62.1887 19.5969 62.1981 19.6094 62.2041C19.6219 62.21 19.6358 62.2121 19.6495 62.2101C19.6587 62.2087 19.6674 62.2056 19.6754 62.2008C19.6833 62.1961 19.6902 62.1898 19.6957 62.1824C19.7012 62.1749 19.7051 62.1665 19.7073 62.1575C19.7095 62.1485 19.7099 62.1392 19.7085 62.13Z" fill="#1A2242"/>
<path d="M19.4195 62.174C19.4173 62.1604 19.4112 62.1476 19.4019 62.1375C19.3925 62.1273 19.3804 62.1201 19.367 62.1168C19.3535 62.1135 19.3394 62.1142 19.3264 62.1189C19.3135 62.1236 19.3021 62.1321 19.2939 62.1432C19.2857 62.1543 19.281 62.1676 19.2804 62.1814C19.2797 62.1952 19.2831 62.2089 19.2903 62.2208C19.2974 62.2326 19.3078 62.2421 19.3203 62.248C19.3328 62.2539 19.3468 62.256 19.3604 62.254C19.3696 62.2527 19.3784 62.2495 19.3863 62.2448C19.3942 62.24 19.4011 62.2338 19.4066 62.2263C19.4121 62.2189 19.4161 62.2104 19.4183 62.2014C19.4205 62.1925 19.4209 62.1831 19.4195 62.174Z" fill="#1A2242"/>
<path d="M20.0981 62.7611C20.096 62.7475 20.0899 62.7348 20.0806 62.7246C20.0712 62.7144 20.0591 62.7072 20.0457 62.7039C20.0323 62.7006 20.0182 62.7014 20.0052 62.7061C19.9922 62.7108 19.9808 62.7192 19.9726 62.7303C19.9644 62.7415 19.9597 62.7548 19.9591 62.7686C19.9584 62.7824 19.9619 62.7961 19.969 62.8079C19.9761 62.8198 19.9865 62.8292 19.999 62.8351C20.0115 62.8411 20.0255 62.8432 20.0392 62.8412C20.0483 62.8398 20.0571 62.8367 20.065 62.8319C20.0729 62.8272 20.0798 62.8209 20.0853 62.8134C20.0908 62.806 20.0948 62.7976 20.097 62.7886C20.0992 62.7796 20.0996 62.7703 20.0981 62.7611Z" fill="#1A2242"/>
<path d="M19.8091 62.8051C19.807 62.7915 19.8008 62.7787 19.7915 62.7685C19.7822 62.7583 19.77 62.7512 19.7566 62.7479C19.7432 62.7446 19.7291 62.7453 19.7161 62.75C19.7031 62.7547 19.6918 62.7632 19.6836 62.7743C19.6754 62.7854 19.6707 62.7987 19.67 62.8125C19.6693 62.8263 19.6728 62.84 19.6799 62.8519C19.687 62.8637 19.6975 62.8732 19.71 62.8791C19.7225 62.885 19.7364 62.8871 19.7501 62.8851C19.7592 62.8838 19.768 62.8806 19.7759 62.8759C19.7839 62.8711 19.7908 62.8648 19.7963 62.8574C19.8017 62.85 19.8057 62.8415 19.8079 62.8325C19.8101 62.8235 19.8105 62.8142 19.8091 62.8051Z" fill="#1A2242"/>
<path d="M19.521 62.849C19.5189 62.8354 19.5128 62.8227 19.5034 62.8125C19.4941 62.8023 19.4819 62.7951 19.4685 62.7918C19.4551 62.7885 19.441 62.7893 19.428 62.794C19.415 62.7987 19.4037 62.8071 19.3955 62.8182C19.3873 62.8294 19.3826 62.8427 19.3819 62.8565C19.3813 62.8703 19.3847 62.884 19.3918 62.8958C19.3989 62.9077 19.4094 62.9172 19.4219 62.9231C19.4344 62.929 19.4483 62.9311 19.462 62.929C19.4712 62.9277 19.4799 62.9246 19.4879 62.9198C19.4958 62.915 19.5027 62.9088 19.5082 62.9013C19.5137 62.8939 19.5176 62.8854 19.5198 62.8765C19.522 62.8675 19.5224 62.8582 19.521 62.849Z" fill="#1A2242"/>
<path d="M19.7031 62.8371L19.7761 62.8261L19.9591 62.0671L19.8861 62.0781L19.7031 62.8371Z" fill="#CCE3E3"/>
<path d="M19.4111 62.8811L19.4841 62.8701L19.6671 62.1111L19.5941 62.1221L19.4111 62.8811Z" fill="#CCE3E3"/>
<path d="M19.9952 62.7923L20.0684 62.7812L19.9599 62.0664L19.8868 62.0775L19.9952 62.7923Z" fill="#EBFFFF"/>
<path d="M19.7032 62.8363L19.7764 62.8252L19.668 62.1104L19.5948 62.1215L19.7032 62.8363Z" fill="#EBFFFF"/>
<path d="M19.4112 62.8812L19.4844 62.8701L19.376 62.1553L19.3028 62.1664L19.4112 62.8812Z" fill="#EBFFFF"/>
<path d="M22.3613 62.4232L22.1553 61.0622C22.1553 61.0622 26.4553 57.3932 29.8553 57.4902C29.9605 57.4936 30.0639 57.5189 30.1589 57.5643C30.2539 57.6098 30.3385 57.6744 30.4073 57.7541C30.5127 57.874 30.5776 58.0241 30.5926 58.183C30.6077 58.342 30.5722 58.5016 30.4913 58.6392C29.9583 59.5222 28.1923 61.2932 22.3613 62.4232Z" fill="#1A2242"/>
<path d="M21.6775 61.4512L20.4936 62.0512C20.4295 62.0835 20.3773 62.1352 20.3444 62.199C20.3116 62.2627 20.2997 62.3352 20.3106 62.4062C20.3241 62.4953 20.3725 62.5753 20.4451 62.6288C20.5176 62.6822 20.6084 62.7046 20.6975 62.6912L21.8175 62.5212L21.6775 61.4512Z" fill="#FFBF9E"/>
<path d="M21.8484 62.747L22.4209 62.6602L22.1619 60.9527L21.5895 61.0395L21.8484 62.747Z" fill="#31395C"/>
<path d="M25.5774 56.5068L24.3044 56.5139L24.2754 54.3048L25.5484 54.2979L25.5774 56.5068Z" fill="#FFC64D"/>
<path d="M25.5628 55.445C25.549 55.4297 25.5297 55.4204 25.5091 55.4193C25.4884 55.4182 25.4682 55.4253 25.4528 55.439C25.4528 55.439 25.1718 55.668 25.1678 55.661C25.1638 55.654 25.5478 55.287 25.5478 55.287C25.558 55.2814 25.5669 55.2736 25.5737 55.2642C25.5805 55.2547 25.5851 55.2438 25.5872 55.2324C25.5892 55.2209 25.5887 55.2091 25.5856 55.1978C25.5825 55.1866 25.5769 55.1762 25.5692 55.1674C25.5616 55.1586 25.5521 55.1516 25.5414 55.147C25.5307 55.1424 25.5191 55.1402 25.5074 55.1407C25.4958 55.1411 25.4844 55.1441 25.4741 55.1496C25.4637 55.155 25.4548 55.1627 25.4478 55.172C25.4478 55.172 25.0558 55.505 25.0478 55.499C25.0398 55.493 25.4338 55.107 25.4338 55.107C25.4444 55.0928 25.4499 55.0753 25.4492 55.0575C25.4485 55.0397 25.4418 55.0227 25.4301 55.0093C25.4184 54.9959 25.4025 54.9868 25.385 54.9837C25.3675 54.9806 25.3494 54.9835 25.3338 54.992C25.3338 54.992 24.9128 55.352 24.9078 55.347C24.9028 55.342 25.2408 55.012 25.2408 55.012C25.2514 54.9978 25.2569 54.9803 25.2562 54.9625C25.2555 54.9447 25.2488 54.9277 25.2371 54.9143C25.2254 54.9009 25.2095 54.8918 25.192 54.8887C25.1745 54.8856 25.1564 54.8885 25.1408 54.897L24.7738 55.228C24.7678 55.223 24.3938 55.565 24.2988 55.517V55.405C24.2569 55.4125 24.2181 55.432 24.187 55.4611C24.1559 55.4902 24.134 55.5277 24.1238 55.569C24.1071 55.6367 24.1071 55.7074 24.1238 55.775C24.1338 55.831 24.1238 55.888 24.1318 55.944C24.1388 55.9962 24.1523 56.0472 24.1718 56.096C24.1598 56.103 22.9548 56.696 21.8248 57.319C22.2564 56.1735 22.7815 55.0654 23.3948 54.006C23.46 53.8476 23.4765 53.6734 23.4424 53.5055C23.4082 53.3377 23.3248 53.1838 23.2029 53.0634C23.0809 52.9431 22.926 52.8618 22.7577 52.8298C22.5894 52.7979 22.4154 52.8168 22.2578 52.884L22.1888 52.913C22.0654 52.9656 21.956 53.0462 21.8692 53.1485C21.7824 53.2507 21.7207 53.3718 21.6888 53.502C21.6888 53.502 20.2888 57.108 20.5088 58.33C20.5241 58.4089 20.5455 58.4865 20.5728 58.562C21.5868 59.096 24.4298 56.478 24.4628 56.445C24.7736 56.2947 25.05 56.082 25.2748 55.82L25.5748 55.553C25.5875 55.5371 25.5934 55.5168 25.5911 55.4966C25.5889 55.4763 25.5787 55.4578 25.5628 55.445Z" fill="#FFBF9E"/>
<path d="M22.5109 56.062C23.0679 54.882 23.6689 53.845 23.6689 53.845C23.7811 53.3489 23.792 52.8353 23.7009 52.335C23.2278 52.3646 22.7588 52.4413 22.3009 52.564C22.1449 52.6167 22.004 52.7064 21.8901 52.8253C21.7763 52.9442 21.6928 53.0889 21.6469 53.247C21.6469 53.247 21.2819 54.185 20.9219 55.331C21.3919 55.6875 21.9343 55.937 22.5109 56.062Z" fill="#83C8E6"/>
<path d="M27.5846 53.502C27.5528 53.3718 27.491 53.2507 27.4042 53.1485C27.3174 53.0462 27.208 52.9656 27.0846 52.913L27.0156 52.884C26.8581 52.8168 26.6841 52.7979 26.5158 52.8298C26.3475 52.8618 26.1925 52.9431 26.0705 53.0634C25.9486 53.1838 25.8652 53.3377 25.8311 53.5055C25.7969 53.6734 25.8134 53.8476 25.8786 54.006C25.8786 54.006 27.6876 57.129 27.6356 58.284C26.6589 58.9852 25.6352 59.6184 24.5716 60.179C24.5223 60.1235 24.4629 60.0777 24.3966 60.044C24.2335 59.9443 24.0964 59.8072 23.9966 59.644C23.9746 59.617 23.9376 59.673 23.9286 59.705C23.9036 59.797 24.0056 59.961 24.0036 60.044C24.0036 60.159 23.4836 60.333 23.4846 60.344L22.9846 60.522C22.965 60.5305 22.9494 60.546 22.9409 60.5656C22.9323 60.5851 22.9316 60.6071 22.9387 60.6272C22.9458 60.6473 22.9603 60.664 22.9792 60.6738C22.9981 60.6836 23.0201 60.6858 23.0406 60.68C23.0406 60.68 23.5266 60.527 23.5286 60.536C23.5306 60.545 22.9736 60.758 22.9736 60.758C22.954 60.7665 22.9384 60.782 22.9299 60.8016C22.9213 60.8211 22.9206 60.8431 22.9277 60.8632C22.9348 60.8833 22.9493 60.9 22.9682 60.9098C22.9871 60.9196 23.0091 60.9218 23.0296 60.916C23.0296 60.916 23.5946 60.74 23.5996 60.751C23.6046 60.762 23.0856 60.959 23.0856 60.959C23.0745 60.9622 23.0642 60.9675 23.0553 60.9748C23.0464 60.982 23.0391 60.991 23.0338 61.0013C23.0285 61.0115 23.0253 61.0226 23.0246 61.0341C23.0238 61.0456 23.0253 61.0571 23.0292 61.068C23.033 61.0788 23.039 61.0887 23.0469 61.0971C23.0547 61.1056 23.0642 61.1123 23.0747 61.1169C23.0853 61.1215 23.0967 61.1239 23.1082 61.1239C23.1197 61.1239 23.131 61.1216 23.1416 61.117C23.1416 61.117 23.6866 60.942 23.6906 60.949C23.6946 60.956 23.3336 61.105 23.3336 61.105C23.322 61.1076 23.311 61.1126 23.3015 61.1198C23.2919 61.1269 23.284 61.136 23.2782 61.1464C23.2725 61.1568 23.269 61.1684 23.268 61.1802C23.267 61.1921 23.2686 61.2041 23.2726 61.2153C23.2766 61.2265 23.283 61.2367 23.2912 61.2453C23.2995 61.2539 23.3095 61.2606 23.3206 61.265C23.3316 61.2695 23.3435 61.2715 23.3554 61.271C23.3673 61.2704 23.379 61.2674 23.3896 61.262L23.7946 61.119C24.137 61.0439 24.4616 60.9033 24.7506 60.705C24.8276 60.681 28.5506 59.442 28.7716 58.33C29.0036 57.111 27.5846 53.502 27.5846 53.502Z" fill="#FFBF9E"/>
<path d="M26.7487 56.062C26.1917 54.882 25.5917 53.845 25.5917 53.845C25.4792 53.349 25.4679 52.8354 25.5587 52.335C26.0318 52.3646 26.5008 52.4413 26.9587 52.564C27.1146 52.6167 27.2555 52.7064 27.3694 52.8253C27.4833 52.9442 27.5667 53.0889 27.6127 53.247C27.6127 53.247 27.9777 54.185 28.3387 55.331C27.8683 55.6876 27.3256 55.9371 26.7487 56.062Z" fill="#83C8E6"/>
<path d="M24.6051 53.8262C24.1641 53.8462 23.7051 52.9762 23.7051 52.4202C23.7051 51.3702 25.4191 51.3122 25.4191 52.3852C25.4241 52.8962 25.0201 53.8072 24.6051 53.8262Z" fill="#FFAE85"/>
<path d="M26.093 51.0201C26.0979 51.4584 25.97 51.8879 25.726 52.2521C25.4406 52.6016 25.036 52.8332 24.59 52.9021C24.137 52.8268 23.7273 52.5877 23.439 52.2301C23.2049 51.8703 23.0825 51.4493 23.087 51.0201C23.087 50.6213 23.2454 50.2389 23.5274 49.957C23.8094 49.675 24.1918 49.5166 24.5905 49.5166C24.9893 49.5166 25.3717 49.675 25.6537 49.957C25.9356 50.2389 26.094 50.6213 26.094 51.0201H26.093Z" fill="#FFBF9E"/>
<path d="M26.3972 50.5281C26.4042 50.4671 26.4122 50.4061 26.4142 50.3451C26.4204 50.1362 26.3864 49.9281 26.3142 49.7321C26.2168 49.4639 26.0391 49.2324 25.8052 49.0691C25.5483 48.9143 25.2616 48.8159 24.9639 48.7802C24.6662 48.7445 24.3643 48.7724 24.0782 48.8621C23.7429 48.95 23.4397 49.1317 23.2042 49.3861C23.089 49.517 22.9921 49.663 22.9162 49.82C22.8572 50.0023 22.7716 50.1748 22.6622 50.3321C22.5782 50.4221 22.4112 50.4561 22.3622 50.5661C22.1952 50.9101 22.6622 51.3111 22.9862 51.4441C23.038 51.7219 23.1804 51.9747 23.3912 52.1631C23.2573 51.9683 23.1909 51.7351 23.2022 51.4991C23.304 51.4931 23.4047 51.475 23.5022 51.445C23.6044 51.4101 23.7046 51.3694 23.8022 51.3231C23.9053 51.422 24.0309 51.4944 24.1682 51.5341C24.1882 51.5401 24.2072 51.5471 24.2282 51.5521C24.2938 51.5686 24.3607 51.58 24.4282 51.5861C24.6436 51.5957 24.8585 51.5585 25.0582 51.4771C25.2012 51.4261 25.2362 51.3991 25.3732 51.3391C25.5682 51.2645 25.7744 51.2232 25.9832 51.2171L26.0602 51.2041C26.0354 51.4744 25.9742 51.7401 25.8782 51.9941C25.9242 52.0131 26.1292 51.4821 26.1442 51.4441C26.1812 51.3441 26.2172 51.2501 26.2492 51.1501C26.3202 51.129 26.3848 51.0905 26.4372 51.0381C26.4896 50.9857 26.5281 50.9211 26.5492 50.85C26.5596 50.7873 26.5506 50.7229 26.5234 50.6654C26.4963 50.6078 26.4522 50.5599 26.3972 50.5281Z" fill="#1A2242"/>
<path d="M38.4958 18.291C38.0732 18.5926 37.5986 18.8136 37.0958 18.943C37.4982 19.6878 37.7554 20.5022 37.8538 21.343C36.818 22.0854 35.7325 22.7556 34.6048 23.349C34.5526 23.2902 34.4899 23.2417 34.4198 23.206C34.2457 23.1017 34.099 22.9574 33.9918 22.785C33.9688 22.756 33.9288 22.816 33.9198 22.85C33.8928 22.95 34.0018 23.121 33.9988 23.209C33.9988 23.331 33.4478 23.515 33.4488 23.524L32.9168 23.713C32.8968 23.7224 32.881 23.7389 32.8725 23.7592C32.864 23.7796 32.8634 23.8024 32.8707 23.8232C32.8781 23.844 32.8929 23.8614 32.9123 23.8719C32.9317 23.8824 32.9543 23.8853 32.9758 23.88C32.9758 23.88 33.4898 23.718 33.4928 23.728C33.4958 23.738 32.9048 23.963 32.9048 23.963C32.8927 23.966 32.8814 23.9714 32.8715 23.979C32.8617 23.9866 32.8535 23.9962 32.8476 24.0071C32.8417 24.0181 32.8382 24.0301 32.8372 24.0425C32.8362 24.0549 32.8379 24.0674 32.842 24.0791C32.8461 24.0908 32.8527 24.1016 32.8612 24.1106C32.8698 24.1196 32.8801 24.1268 32.8916 24.1316C32.9031 24.1364 32.9154 24.1387 32.9279 24.1384C32.9403 24.1382 32.9525 24.1353 32.9638 24.13C32.9638 24.13 33.5638 23.944 33.5638 23.955C33.5638 23.966 33.0198 24.175 33.0198 24.175C32.9998 24.1844 32.984 24.2009 32.9755 24.2212C32.967 24.2416 32.9664 24.2644 32.9737 24.2852C32.9811 24.306 32.9959 24.3234 33.0153 24.3338C33.0347 24.3443 33.0573 24.3473 33.0788 24.342C33.0788 24.342 33.6558 24.156 33.6608 24.164C33.6658 24.172 33.2828 24.329 33.2828 24.329C33.2606 24.3368 33.2425 24.3531 33.2324 24.3743C33.2222 24.3955 33.2209 24.4199 33.2288 24.442C33.2366 24.4642 33.2529 24.4823 33.2741 24.4924C33.2953 24.5025 33.3196 24.5038 33.3418 24.496L33.7708 24.344C34.1332 24.2641 34.4768 24.1151 34.7828 23.905C34.8638 23.88 38.8108 22.567 39.0408 21.39C39.0559 20.3319 38.871 19.2805 38.4958 18.291Z" fill="#FFBF9E"/>
<path d="M38.5967 18.2121C38.2147 16.9981 37.8277 16.0051 37.8277 16.0051C37.7791 15.8376 37.6909 15.6843 37.5704 15.5583C37.4499 15.4322 37.3008 15.3371 37.1357 15.2811C36.65 15.1512 36.1525 15.0701 35.6507 15.0391C35.5541 15.5692 35.5657 16.1135 35.6847 16.6391C35.6847 16.6391 36.3207 17.7391 36.9107 18.9871C36.9717 18.9721 37.0317 18.9561 37.0927 18.9391C37.5955 18.8097 38.0701 18.5886 38.4927 18.2871C38.5257 18.2661 38.5637 18.2431 38.5967 18.2121Z" fill="#83C8E6"/>
<path d="M40.6192 23.092C40.6192 23.092 40.3332 23.13 39.8612 23.241C39.2198 23.3922 38.593 23.6 37.9882 23.862C37.128 24.2317 36.3299 24.7319 35.6222 25.345C35.2064 25.7103 34.8295 26.1174 34.4972 26.56C34.1347 27.0478 33.8325 27.5777 33.5972 28.138C33.3769 28.6733 33.2244 29.2339 33.1432 29.807C33.0761 30.2905 33.0651 30.7801 33.1102 31.266C33.184 32.029 33.4008 32.7713 33.7492 33.454C33.9912 33.9291 34.2889 34.3736 34.6362 34.778C34.7968 34.9681 34.9705 35.1465 35.1562 35.312C35.2242 34.737 35.2932 34.162 35.3762 33.588C35.2029 33.306 35.0329 33.0197 34.8662 32.729C34.6982 32.429 34.5302 32.129 34.3772 31.816C34.0513 31.1701 33.7771 30.4993 33.5572 29.81C33.8179 30.4752 34.1164 31.125 34.4512 31.756C34.6142 32.062 34.7792 32.364 34.9512 32.656C35.0986 32.91 35.2492 33.16 35.4032 33.406L35.4642 33.006C35.5442 32.528 35.6342 32.052 35.7432 31.579C35.5939 31.2877 35.4519 30.9877 35.3172 30.679C35.1792 30.36 35.0482 30.034 34.9352 29.693C34.7022 28.9915 34.5286 28.2716 34.4162 27.541C34.4952 27.899 34.5912 28.261 34.6862 28.609C34.7812 28.957 34.8942 29.309 35.0172 29.641C35.1402 29.973 35.2692 30.302 35.4092 30.617C35.5292 30.8837 35.6546 31.145 35.7852 31.401C35.9198 30.8392 36.0868 30.2856 36.2852 29.743L36.3302 29.628L36.1972 29.256C36.1572 29.128 36.1202 28.999 36.0832 28.868C36.0032 28.589 35.9352 28.312 35.8742 28.022C35.7526 27.4375 35.6671 26.8461 35.6182 26.251C35.7182 26.834 35.8272 27.418 35.9602 27.981C36.0352 28.265 36.0982 28.542 36.1822 28.818C36.2492 29.041 36.3122 29.256 36.3912 29.471C36.6213 28.9025 36.8858 28.3485 37.1832 27.812C37.0942 27.387 37.0232 26.953 36.9742 26.512C36.9492 26.285 36.9252 26.054 36.9102 25.825C36.8952 25.596 36.8812 25.361 36.8772 25.125L36.9662 25.804C36.9952 26.029 37.0272 26.254 37.0662 26.479C37.0972 26.679 37.1282 26.873 37.1662 27.07C37.2042 27.267 37.2342 27.459 37.2762 27.654C37.4472 27.354 37.6282 27.054 37.8162 26.754C37.9602 26.535 38.1042 26.316 38.2552 26.102C38.2282 25.851 38.2062 25.602 38.1972 25.342C38.1972 25.211 38.1872 25.078 38.1852 24.948C38.1832 24.818 38.1852 24.684 38.1912 24.548C38.2122 24.676 38.2252 24.805 38.2432 24.932C38.2612 25.059 38.2712 25.189 38.2872 25.317L38.3562 25.955C38.4932 25.755 38.6362 25.567 38.7782 25.375C39.1162 24.928 39.4682 24.493 39.8242 24.061C39.4822 24.504 39.1442 24.95 38.8242 25.407C38.6802 25.607 38.5342 25.812 38.3962 26.019C38.6082 25.964 38.8232 25.919 39.0362 25.875C39.2772 25.827 39.5212 25.787 39.7632 25.761C39.5242 25.835 39.2842 25.899 39.0452 25.961L38.3232 26.156L38.2972 26.163C38.1572 26.37 38.0222 26.582 37.8892 26.794C37.6992 27.094 37.5152 27.404 37.3432 27.717C37.5322 27.646 37.7262 27.583 37.9172 27.522C38.1082 27.461 38.2992 27.406 38.4922 27.355C38.7002 27.2997 38.9092 27.2484 39.1192 27.201C39.3282 27.157 39.5362 27.112 39.7472 27.078C39.5392 27.138 39.3342 27.194 39.1282 27.256C38.9222 27.318 38.7152 27.377 38.5082 27.442C38.0942 27.573 37.6802 27.711 37.2662 27.869H37.2582C36.9681 28.4041 36.7109 28.9565 36.4882 29.523C36.6972 29.412 36.9162 29.311 37.1282 29.214C37.3752 29.102 37.6282 28.998 37.8812 28.906C38.1342 28.814 38.3812 28.731 38.6422 28.655C38.9032 28.579 39.1482 28.512 39.4062 28.455C39.1542 28.536 38.9062 28.617 38.6562 28.707C38.4062 28.797 38.1562 28.888 37.9072 28.99C37.6582 29.092 37.4072 29.196 37.1622 29.314C37.0392 29.372 36.9132 29.431 36.7912 29.494L36.4242 29.689L36.3922 29.773C36.1893 30.3203 36.0183 30.8789 35.8802 31.446C36.1256 31.272 36.3726 31.1074 36.6212 30.952C36.9032 30.779 37.1832 30.614 37.4712 30.473C37.7592 30.332 38.0492 30.204 38.3332 30.089C38.6172 29.974 38.9122 29.876 39.2102 29.789C38.9212 29.896 38.6422 30.009 38.3552 30.136C38.2152 30.1987 38.0736 30.2654 37.9302 30.336C37.7872 30.404 37.6502 30.478 37.5072 30.553C37.2282 30.708 36.9462 30.87 36.6692 31.053C36.3922 31.236 36.1162 31.422 35.8452 31.623H35.8392C35.7302 32.082 35.6392 32.545 35.5572 33.01L35.4832 33.436C35.7162 33.236 35.9502 33.048 36.1832 32.863C36.4452 32.663 36.7052 32.457 36.9742 32.274C37.2432 32.091 37.5102 31.914 37.7812 31.753C38.0522 31.592 38.3272 31.447 38.6032 31.32C38.3392 31.468 38.0702 31.626 37.8082 31.801C37.5462 31.976 37.2802 32.157 37.0182 32.351C36.7562 32.545 36.4962 32.746 36.2372 32.951C35.9782 33.156 35.7222 33.376 35.4672 33.596L35.4482 33.613C35.3572 34.174 35.2762 34.736 35.1932 35.298C35.4151 35.1861 35.6292 35.0595 35.8342 34.919C36.2661 34.6261 36.6719 34.2966 37.0472 33.934C37.5325 33.4669 37.9721 32.9546 38.3602 32.404C38.5676 32.1122 38.7593 31.8094 38.9342 31.497C39.1142 31.1777 39.2738 30.8474 39.4122 30.508C39.5651 30.1384 39.695 29.7597 39.8012 29.374C39.9152 28.983 40.0102 28.574 40.1012 28.169C40.2732 27.35 40.4012 26.51 40.4882 25.753C40.5752 24.996 40.6162 24.323 40.6282 23.842C40.6402 23.361 40.6192 23.092 40.6192 23.092Z" fill="#31395C"/>
<path d="M35.4648 33.62C35.7194 33.4 35.9761 33.185 36.2348 32.975C36.4938 32.766 36.7548 32.567 37.0158 32.375C37.2768 32.183 37.5388 31.995 37.8058 31.825C38.0728 31.655 38.3368 31.492 38.6008 31.344C38.3238 31.471 38.0508 31.619 37.7788 31.777C37.5068 31.935 37.2378 32.113 36.9718 32.298C36.7058 32.483 36.4428 32.682 36.1808 32.887C35.9448 33.073 35.7098 33.264 35.4808 33.46L35.5548 33.034C35.6358 32.569 35.7278 32.106 35.8368 31.647H35.8428C36.1138 31.447 36.3898 31.255 36.6668 31.077C36.9438 30.899 37.2268 30.736 37.5058 30.577C37.6478 30.502 37.7858 30.428 37.9288 30.36C38.0718 30.292 38.2138 30.227 38.3538 30.16C38.6408 30.033 38.9198 29.92 39.2088 29.813C38.9088 29.897 38.6278 30.001 38.3318 30.113C38.0358 30.225 37.7538 30.354 37.4698 30.497C37.1858 30.64 36.9018 30.803 36.6198 30.976C36.3711 31.1313 36.1241 31.296 35.8788 31.47C36.0168 30.9028 36.1878 30.3442 36.3908 29.797L36.4228 29.713L36.7898 29.518C36.9118 29.455 37.0388 29.397 37.1608 29.338C37.4048 29.22 37.6608 29.119 37.9058 29.014C38.1508 28.909 38.4058 28.814 38.6548 28.731C38.9038 28.648 39.1548 28.56 39.4048 28.479C39.1468 28.535 38.8968 28.605 38.6408 28.679C38.3848 28.753 38.1408 28.84 37.8798 28.93C37.6188 29.02 37.3738 29.13 37.1268 29.238C36.9148 29.338 36.6958 29.438 36.4868 29.547C36.7094 28.9804 36.9666 28.428 37.2568 27.893H37.2648C37.6788 27.735 38.0928 27.593 38.5068 27.466C38.7138 27.4 38.9178 27.338 39.1268 27.28C39.3358 27.222 39.5378 27.161 39.7458 27.102C39.5348 27.136 39.3268 27.181 39.1178 27.225C38.9088 27.269 38.6988 27.325 38.4908 27.379C38.2978 27.429 38.1058 27.484 37.9158 27.546C37.7258 27.608 37.5308 27.67 37.3418 27.741C37.5138 27.428 37.6978 27.121 37.8878 26.818C38.0208 26.606 38.1548 26.395 38.2958 26.187L38.3218 26.18L39.0438 25.985C39.2828 25.919 39.5238 25.855 39.7618 25.785C39.5198 25.811 39.2748 25.851 39.0348 25.899C38.8218 25.939 38.6068 25.988 38.3948 26.043C38.5328 25.836 38.6788 25.634 38.8228 25.431C39.1448 24.974 39.4828 24.531 39.8228 24.085C39.4668 24.516 39.1148 24.952 38.7768 25.399C38.6348 25.591 38.4918 25.783 38.3548 25.979L38.2858 25.341C38.2698 25.213 38.2548 25.084 38.2418 24.956C38.2288 24.828 38.2108 24.7 38.1898 24.572C38.1838 24.706 38.1898 24.838 38.1838 24.972C38.1778 25.106 38.1908 25.236 38.1958 25.366C38.2048 25.622 38.2268 25.875 38.2538 26.126C38.1018 26.34 37.9538 26.559 37.8148 26.778C37.6278 27.072 37.4468 27.37 37.2748 27.678C37.2328 27.483 37.2008 27.291 37.1648 27.094C37.1288 26.897 37.0978 26.7 37.0648 26.503C37.0298 26.278 36.9978 26.053 36.9648 25.828L36.8758 25.149C36.8758 25.382 36.8918 25.615 36.9088 25.849C36.9258 26.083 36.9468 26.309 36.9728 26.536C37.0218 26.979 37.0928 27.413 37.1818 27.836C36.8843 28.3724 36.6198 28.9264 36.3898 29.495C36.3108 29.28 36.2478 29.064 36.1808 28.842C36.0968 28.566 36.0338 28.289 35.9588 28.005C35.8268 27.443 35.7128 26.858 35.6168 26.275C35.6656 26.87 35.7511 27.4615 35.8728 28.046C35.9328 28.336 36.0008 28.613 36.0818 28.892C36.1188 29.023 36.1558 29.152 36.1958 29.28L36.3238 29.662L36.2788 29.777C36.0803 30.3195 35.9134 30.8731 35.7788 31.435C35.6454 31.1796 35.5201 30.918 35.4028 30.65C35.2628 30.335 35.1338 30.007 35.0108 29.674C34.8878 29.341 34.7838 28.996 34.6798 28.642C34.5758 28.288 34.4888 27.932 34.4098 27.574C34.5222 28.3046 34.6958 29.0244 34.9288 29.726C35.0418 30.068 35.1728 30.394 35.3108 30.712C35.4488 31.03 35.5868 31.318 35.7368 31.612C35.6278 32.085 35.5368 32.561 35.4578 33.039L35.3968 33.439C35.2428 33.1923 35.0921 32.9423 34.9448 32.689C34.7728 32.395 34.6078 32.089 34.4448 31.789C34.1099 31.1579 33.8114 30.5082 33.5508 29.843C33.7706 30.5323 34.0448 31.203 34.3708 31.849C34.5238 32.164 34.6918 32.464 34.8598 32.762C35.0278 33.06 35.1968 33.339 35.3698 33.621C35.2868 34.195 35.2178 34.77 35.1498 35.345L35.1648 35.358L35.1828 35.35C35.2658 34.788 35.3468 34.225 35.4378 33.665L35.4648 33.62Z" fill="#1A2242"/>
<path d="M29.5441 22.7209C29.5441 22.7209 29.4211 23.0209 29.2621 23.5449C29.0516 24.2392 28.883 24.9455 28.7571 25.6599C28.5884 26.596 28.5 27.5448 28.4931 28.4959C28.4799 29.512 28.6112 30.5248 28.8831 31.5039C29.1267 32.3619 29.512 33.1731 30.0231 33.9039C30.4367 34.468 30.9079 34.9875 31.4291 35.4539C31.8881 35.8809 32.3171 36.2639 32.6411 36.5709C32.9651 36.8779 33.1891 37.0909 33.2501 37.1439C33.3469 36.5155 33.3707 35.8779 33.3211 35.2439C33.0551 34.9829 32.7791 34.7439 32.4961 34.5139C32.2131 34.2839 31.9151 34.0669 31.6191 33.8509C31.3231 33.6349 31.0191 33.4299 30.7191 33.2219C30.4191 33.0139 30.1191 32.8149 29.8111 32.6169C30.1271 32.7919 30.4441 32.9769 30.7521 33.1699C31.0601 33.3629 31.3731 33.5639 31.6751 33.7699C31.9771 33.9759 32.2751 34.1909 32.5671 34.4189C32.8171 34.6189 33.0671 34.8189 33.3051 35.0459C33.2921 34.8999 33.2761 34.7539 33.2581 34.6089C33.1941 34.0819 33.0981 33.5579 32.9881 33.0369C32.6881 32.8199 32.3881 32.6089 32.0881 32.4049C31.7881 32.2009 31.4611 31.9919 31.1441 31.7889C30.5161 31.3889 29.8751 31.0099 29.2441 30.6379C29.9011 30.9629 30.5541 31.3179 31.1931 31.7009C31.5171 31.8899 31.8321 32.0929 32.1471 32.3009C32.4181 32.4759 32.6791 32.6579 32.9471 32.8439C32.8151 32.2249 32.6531 31.6129 32.4861 31.0029L32.4491 30.8729C32.1941 30.7129 31.9491 30.5549 31.6871 30.4029L30.8771 29.9259C30.3381 29.6109 29.7961 29.3079 29.2571 29.0009C29.8191 29.2589 30.3731 29.5379 30.9211 29.8339C31.1991 29.9789 31.4681 30.1339 31.7401 30.2939C31.9608 30.4213 32.1794 30.5513 32.3961 30.6839C32.2148 30.0366 32.0171 29.3936 31.8031 28.7549C31.3781 28.5149 30.9481 28.2849 30.5241 28.0489C30.1001 27.8129 29.6501 27.5739 29.2171 27.3299C29.6711 27.5229 30.1171 27.7349 30.5641 27.9549C30.9641 28.1479 31.3501 28.3549 31.7411 28.5679C31.6181 28.2049 31.4941 27.8429 31.3631 27.4829L31.0711 26.6699C30.8191 26.5389 30.5641 26.4099 30.3151 26.2699L29.9331 26.0599C29.8071 25.9859 29.6801 25.9159 29.5551 25.8389C29.6901 25.8879 29.8231 25.9449 29.9551 25.9989L30.3551 26.1739C30.5741 26.2739 30.7901 26.3739 31.0061 26.4849L30.7291 25.7449C30.5151 25.1669 30.2951 24.5909 30.0741 24.0149C30.3151 24.5829 30.5551 25.1509 30.7881 25.7219L31.0881 26.4889C31.1801 26.2579 31.2731 26.0269 31.3721 25.7979C31.4841 25.5379 31.5951 25.2789 31.7201 25.0239C31.6451 25.3029 31.5571 25.5739 31.4641 25.8439C31.3711 26.1139 31.2731 26.3789 31.1691 26.6439L31.1581 26.6719L31.4581 27.4479C31.5951 27.8189 31.7271 28.1909 31.8581 28.5649L32.4081 27.2919L32.7081 26.5919L33.0081 25.8919C32.9301 26.1379 32.8451 26.3779 32.7631 26.6189L32.4971 27.3349C32.3161 27.8109 32.1251 28.2759 31.9231 28.7349V28.7439C32.1411 29.3819 32.3451 30.0249 32.5311 30.6729C32.6538 30.4303 32.7738 30.1856 32.8911 29.9389L33.2981 29.0679C33.4341 28.7769 33.5681 28.4829 33.6981 28.1879L34.0981 27.3039C33.9921 27.6129 33.8741 27.9179 33.7591 28.2219C33.6441 28.5259 33.5171 28.8219 33.3921 29.1219C33.2671 29.4219 33.1331 29.7129 33.0011 30.0029C32.8691 30.2929 32.7281 30.5799 32.5901 30.8629L32.6181 30.9629C32.7841 31.5879 32.9431 32.2149 33.0731 32.8489C33.2431 32.5559 33.4161 32.2569 33.5731 31.9549C33.7591 31.6149 33.9361 31.2669 34.1141 30.9209C34.2921 30.5749 34.4641 30.2209 34.6351 29.8649C34.8061 29.5089 34.9721 29.1539 35.1431 28.7949C34.9981 29.1719 34.8481 29.5359 34.6921 29.9029C34.5361 30.2699 34.3721 30.6249 34.2021 30.9809C34.0321 31.3369 33.8541 31.6809 33.6751 32.0259C33.4961 32.3709 33.3031 32.7069 33.1141 33.0369V33.0449C33.2141 33.5569 33.3071 34.0729 33.3661 34.5929C33.3831 34.7519 33.3961 34.9109 33.4081 35.0699C33.6201 34.7989 33.8231 34.5129 34.0181 34.2159C34.2331 33.8899 34.4351 33.5489 34.6381 33.2099C34.8411 32.8709 35.0331 32.5269 35.2221 32.1809C35.4111 31.8349 35.6011 31.4859 35.7891 31.1349C35.6271 31.5049 35.4541 31.8639 35.2771 32.2229C35.1001 32.5819 34.9131 32.9289 34.7221 33.2779C34.5311 33.6269 34.3221 33.9689 34.1131 34.2999C33.9041 34.6309 33.6761 34.9489 33.4371 35.2489L33.4191 35.2709C33.4538 35.8995 33.4132 36.53 33.2981 37.1489C33.5655 37.0365 33.8178 36.891 34.0491 36.7159C34.5657 36.3218 34.9985 35.8285 35.3221 35.2649C35.7768 34.4717 36.0694 33.5961 36.1831 32.6889C36.3273 31.606 36.2421 30.5048 35.9331 29.4569C35.5983 28.3379 35.0498 27.2944 34.3181 26.3839C33.6931 25.6041 32.9728 24.9057 32.1741 24.3049C31.5911 23.8627 30.9761 23.4642 30.3341 23.1129C29.8451 22.8509 29.5441 22.7209 29.5441 22.7209Z" fill="#83C8E6"/>
<path d="M33.4261 35.247C33.6651 34.947 33.8891 34.629 34.1021 34.298C34.3151 33.967 34.5211 33.627 34.7111 33.276C34.9011 32.925 35.0871 32.576 35.2661 32.221C35.4451 31.866 35.6161 31.503 35.7781 31.133C35.5891 31.484 35.4071 31.833 35.2111 32.179C35.0151 32.525 34.8291 32.866 34.6271 33.208C34.4251 33.55 34.227 33.888 34.007 34.214C33.812 34.514 33.607 34.796 33.397 35.067C33.386 34.908 33.3731 34.749 33.3551 34.59C33.2961 34.07 33.2071 33.554 33.1031 33.042V33.034C33.2921 32.704 33.483 32.365 33.664 32.023C33.845 31.681 34.0271 31.333 34.1911 30.978C34.3551 30.623 34.5221 30.264 34.6811 29.9C34.8401 29.536 34.987 29.169 35.132 28.792C34.961 29.151 34.7981 29.509 34.6241 29.862C34.4501 30.215 34.2831 30.569 34.1031 30.918C33.9231 31.267 33.7481 31.612 33.5621 31.952C33.4011 32.252 33.2281 32.552 33.0621 32.846C32.9321 32.212 32.7731 31.585 32.6071 30.96L32.5791 30.86C32.7171 30.577 32.8591 30.289 32.9901 30C33.1211 29.711 33.2601 29.416 33.3811 29.119C33.5021 28.822 33.63 28.519 33.748 28.219C33.866 27.919 33.9811 27.61 34.0871 27.301L33.6871 28.185C33.5581 28.479 33.424 28.773 33.287 29.065L32.8801 29.936C32.7641 30.1826 32.6441 30.4273 32.5201 30.67C32.334 30.022 32.13 29.379 31.912 28.741V28.732C32.112 28.271 32.3061 27.805 32.4861 27.332L32.7521 26.616C32.8341 26.375 32.9201 26.135 32.9971 25.889L32.6971 26.589L32.397 27.289L31.847 28.562C31.718 28.188 31.5861 27.816 31.4471 27.445L31.147 26.669L31.1581 26.641C31.2581 26.377 31.358 26.113 31.453 25.841C31.548 25.569 31.6341 25.3 31.7091 25.021C31.5841 25.275 31.4731 25.534 31.3611 25.795C31.2611 26.024 31.1691 26.255 31.0771 26.486L30.7771 25.719C30.5441 25.148 30.304 24.58 30.063 24.012C30.284 24.588 30.505 25.164 30.718 25.742L30.9951 26.482C30.7791 26.374 30.5631 26.269 30.3441 26.171L29.944 25.996C29.81 25.943 29.6781 25.885 29.5441 25.836C29.6681 25.914 29.7961 25.983 29.9221 26.057L30.304 26.267C30.553 26.405 30.8041 26.534 31.0601 26.667L31.3521 27.48C31.4821 27.84 31.6071 28.203 31.7301 28.565C31.3391 28.352 30.9491 28.145 30.5531 27.952C30.1081 27.732 29.6601 27.521 29.2061 27.327C29.6391 27.571 30.076 27.807 30.513 28.046C30.95 28.285 31.3671 28.512 31.7921 28.752C32.0054 29.39 32.2031 30.033 32.3851 30.681C32.1684 30.5476 31.9497 30.4173 31.729 30.29C31.457 30.133 31.187 29.975 30.91 29.83C30.361 29.53 29.81 29.255 29.246 28.997C29.786 29.304 30.3271 29.607 30.8661 29.922L31.6761 30.399C31.9341 30.551 32.183 30.709 32.438 30.869L32.4751 30.999C32.6421 31.609 32.8041 32.221 32.9361 32.84C32.6701 32.654 32.408 32.472 32.136 32.297C31.82 32.09 31.5051 31.887 31.1821 31.697C30.5431 31.315 29.89 30.959 29.233 30.634C29.865 31.007 30.5061 31.384 31.1331 31.785C31.4491 31.985 31.7621 32.185 32.0771 32.401C32.3921 32.617 32.6771 32.816 32.9771 33.033C33.0881 33.554 33.1841 34.077 33.2471 34.605C33.2651 34.75 33.2811 34.896 33.2941 35.042C33.0541 34.82 32.8061 34.612 32.5561 34.415C32.2631 34.187 31.968 33.969 31.664 33.766C31.36 33.563 31.0531 33.361 30.7411 33.166C30.4291 32.971 30.117 32.789 29.8 32.613C30.1 32.813 30.4081 33.013 30.7081 33.218C31.0081 33.423 31.308 33.633 31.608 33.847C31.908 34.061 32.197 34.277 32.485 34.51C32.773 34.743 33.0441 34.978 33.3101 35.24C33.3597 35.8739 33.3358 36.5115 33.2391 37.14L33.2561 37.155L33.276 37.147C33.3911 36.528 33.4318 35.8976 33.397 35.269L33.4261 35.247Z" fill="#1A2242"/>
</svg>
