<svg width="64" height="64" viewBox="0 0 64 64" fill="none" xmlns="http://www.w3.org/2000/svg">
<path d="M10.609 36.8426C10.3007 35.3535 8.97392 34.2302 7.38896 34.2302H2.66504V62.0685H7.38896C9.20145 62.0685 10.6767 60.5998 10.6767 58.7951V58.7537C10.6331 58.6215 10.609 58.4813 10.609 58.3368V36.8426H10.609Z" fill="white"/>
<path d="M60.3976 42.8896L41.7638 50.3841C40.6799 51.799 39.1183 52.4443 37.597 52.4443H27.6335C26.8965 52.4443 26.3002 51.8473 26.3002 51.1109C26.3002 50.3746 26.8965 49.7776 27.6335 49.7776H37.597C39.1324 49.7776 40.2558 48.4509 40.2558 47.1194C40.2558 45.6461 39.0631 44.4476 37.597 44.4476C37.1286 44.4476 29.8305 44.4476 30.1648 44.4476C27.1166 44.4476 24.2039 43.0049 22.3731 40.5889C21.0333 38.8356 18.9135 37.7862 16.7052 37.7862H13.3433V57.4061L31.9863 63.7638C33.127 64.161 34.3835 64.0308 35.4147 63.4318L62.5955 47.6188C63.7912 46.9758 64.3111 45.5882 63.8038 44.3252C63.2739 43.029 61.7192 42.3519 60.3976 42.8896Z" fill="white"/>
<path d="M59.9995 29.6664C59.197 27.2207 58.4482 26.8932 59.0395 25.9598L60.6661 23.2798L57.4262 20.0265C55.2279 21.1784 54.4903 22.2914 53.3996 21.6932C51.2032 20.5573 50.3991 20.8356 50.1462 19.7598L49.3996 16.7066H44.8129C44.0585 19.1106 44.3118 20.3574 43.1596 20.7065C40.7496 21.4597 40.4721 22.2623 39.4796 21.6665L36.7731 20.0265L33.5329 23.2798C34.7019 25.5024 35.7942 26.1882 35.1995 27.3065C34.0599 29.3582 34.3795 30.2846 33.2663 30.5465L30.2129 31.2931V35.8931L33.2663 36.6398C34.3642 36.8979 34.0743 37.8053 35.1995 39.9064C35.6945 40.8082 34.9625 41.4534 34.8263 41.7864H37.5996C40.5063 41.7864 42.8795 44.133 42.9195 47.0397L58.8528 40.6397C58.8261 40.3864 58.8793 40.1331 58.9995 39.8931C61.1645 35.8618 58.472 37.5893 63.9994 35.8931V31.2931C61.5405 30.5359 60.383 30.8174 59.9995 29.6664ZM47.1063 40.3998C43.3596 40.3998 40.3063 37.3464 40.3063 33.5998C40.3063 29.8398 43.3596 26.7865 47.1063 26.7865C50.8529 26.7865 53.9061 29.8398 53.9061 33.5998C53.9061 37.3464 50.8529 40.3998 47.1063 40.3998Z" fill="white"/>
<path d="M28.1865 21.6399C28.3198 21.3465 28.4531 21.0265 28.573 20.7199L31.1598 20.0799C31.7465 19.9332 32.1731 19.3999 32.1731 18.7866V13.3733C32.1731 12.7599 31.7465 12.2266 31.1598 12.0799L28.5597 11.44C28.4531 11.1333 28.3198 10.8266 28.1865 10.52L29.5597 8.25329C29.8797 7.73336 29.7997 7.05335 29.3598 6.62668L25.5464 2.80004C25.1066 2.36002 24.4399 2.28002 23.9064 2.60001L21.6265 3.97337C21.3198 3.83998 21.0265 3.70669 20.7199 3.6L20.0799 1.01334C19.9331 0.413334 19.3999 0 18.7865 0H13.3733C12.76 0 12.2265 0.413321 12.08 1.01334L11.44 3.6C11.1332 3.72004 10.8266 3.83998 10.5331 3.97337L8.23985 2.60001C7.71999 2.28002 7.03998 2.36002 6.61324 2.80004L2.7866 6.62668C2.36001 7.05335 2.26658 7.73336 2.58657 8.25329L3.97327 10.5333C3.83997 10.8266 3.70667 11.1333 3.58656 11.44L1.01333 12.0799C0.413411 12.2266 0 12.7599 0 13.3733V18.7866C0 19.3999 0.413411 19.9332 1.01334 20.0799L3.59991 20.7199C3.70669 21.0265 3.83998 21.3332 3.97328 21.6266L2.58658 23.9066C2.26659 24.4399 2.36002 25.1065 2.78662 25.5465L6.61325 29.3598C7.04 29.7998 7.72 29.8798 8.23986 29.5598L10.5331 28.1865C10.8266 28.3199 11.1199 28.4398 11.44 28.5598L12.0667 31.1465C12.2131 31.7464 12.7467 32.1598 13.3599 32.1598H18.7865C19.3999 32.1598 19.9331 31.7464 20.0799 31.1465L20.7199 28.5598C21.0266 28.4532 21.3199 28.3199 21.6265 28.1865L23.9064 29.5598C24.4399 29.8798 25.1066 29.7998 25.5464 29.3598L29.3598 25.5465C29.7998 25.1065 29.8797 24.4399 29.5597 23.9066L28.1865 21.6399ZM16.08 23.8665C11.7865 23.8665 8.29322 20.3732 8.29322 16.0799C8.29322 11.7866 11.7865 8.29333 16.08 8.29333C20.3732 8.29333 23.8664 11.7866 23.8664 16.0799C23.8664 20.3732 20.3732 23.8665 16.08 23.8665Z" fill="white"/>
</svg>
