
<svg width="65" height="63" viewBox="0 0 65 63" fill="none" xmlns="http://www.w3.org/2000/svg">
<path d="M44.4053 22.8128L28.8737 41.8454L21.6211 34.1528C20.2527 32.6938 17.8579 32.6938 16.4895 34.1528L8.07373 43.0391V54.578C8.07373 54.9096 8.34741 55.1749 8.68952 55.1749H56.3106C56.6527 55.1749 56.9264 54.9096 56.9264 54.578V31.7654L49.6053 22.8128C48.3053 21.1549 45.7737 21.1549 44.4053 22.8128Z" fill="white"/>
<path d="M18.0632 23.2767C21.4641 23.2767 24.2211 20.6045 24.2211 17.3083C24.2211 14.012 21.4641 11.3398 18.0632 11.3398C14.6623 11.3398 11.9053 14.012 11.9053 17.3083C11.9053 20.6045 14.6623 23.2767 18.0632 23.2767Z" fill="white"/>
<path d="M56.3105 0H8.68947C3.9 0 0 3.78 0 8.4221V54.5779C0 59.22 3.9 63 8.68947 63H56.3105C61.1 63 65 59.22 65 54.5779V8.4221C65 3.78 61.1 0 56.3105 0ZM60.1421 54.5779C60.1421 56.6337 58.4316 58.2916 56.3105 58.2916H8.68947C6.56842 58.2916 4.85789 56.6337 4.85789 54.5779V8.4221C4.85789 6.36632 6.56842 4.70842 8.68947 4.70842H56.3105C58.4316 4.70842 60.1421 6.36632 60.1421 8.4221V54.5779Z" fill="white"/>
</svg>
