<svg width="65" height="63" viewBox="0 0 65 63" fill="none" xmlns="http://www.w3.org/2000/svg">
<path d="M56.3105 0H8.68947C3.9 0 0 3.78 0 8.4221V54.5779C0 59.22 3.9 63 8.68947 63H56.3105C61.1 63 65 59.22 65 54.5779V8.4221C65 3.78 61.1 0 56.3105 0ZM60.1421 54.5779C60.1421 56.6337 58.4316 58.2916 56.3105 58.2916H8.68947C6.56842 58.2916 4.85789 56.6337 4.85789 54.5779V8.4221C4.85789 6.36632 6.56842 4.70842 8.68947 4.70842H56.3105C58.4316 4.70842 60.1421 6.36632 60.1421 8.4221V54.5779Z" fill="white"/>
</svg>
