<svg width="66" height="66" viewBox="0 0 66 66" fill="none" xmlns="http://www.w3.org/2000/svg">
<path d="M58 0H8C3.58172 0 0 3.58172 0 8V58C0 62.4183 3.58172 66 8 66H58C62.4183 66 66 62.4183 66 58V8C66 3.58172 62.4183 0 58 0Z" fill="#FCFCFC"/>
<path d="M58 0.5H8C3.85786 0.5 0.5 3.85786 0.5 8V58C0.5 62.1421 3.85786 65.5 8 65.5H58C62.1421 65.5 65.5 62.1421 65.5 58V8C65.5 3.85786 62.1421 0.5 58 0.5Z" stroke="#FCFCFC"/>
<path opacity="0.51" d="M33.1123 36.3989C44.3413 36.3989 53.4443 41.0589 53.4443 46.8069C53.4443 52.5549 44.3443 57.2149 33.1123 57.2149C21.8803 57.2149 12.7803 52.5549 12.7803 46.8069C12.7803 41.0589 21.8803 36.3989 33.1123 36.3989Z" fill="#D8E7FF"/>
<path d="M23.2181 47.9449C24.3685 48.1934 25.5635 48.14 26.6871 47.7899L32.0251 40.6649C32.7893 39.6506 33.178 38.4027 33.1251 37.1339L32.7011 27.2929L30.4841 26.6499L29.9161 32.7719L29.6241 35.9019C29.5034 37.2296 28.9013 38.4674 27.9311 39.3819C26.6761 40.5669 24.6481 42.4749 21.8931 45.0239C21.5661 46.8239 22.2651 47.6309 23.2181 47.9449Z" fill="#2E96D5"/>
<path d="M23.2168 47.9449C24.3671 48.1934 25.5622 48.14 26.6858 47.7899L32.0238 40.6649C32.788 39.6506 33.1767 38.4027 33.1238 37.1339L32.6998 27.2929L30.4828 26.6499L29.9108 32.7719L31.3808 33.6719C31.3808 33.6719 31.7148 38.4229 30.6268 39.6499C29.8358 40.5439 25.4978 45.3939 23.2168 47.9449Z" fill="#0D71AE"/>
<path d="M47.1791 21.399L46.8261 30.225L45.1831 30.375C39.3911 30.898 20.2541 32.575 19.8181 32.015C19.3081 31.349 19.5981 20.215 20.8451 19.683C21.2451 19.507 36.7231 18.368 45.7881 17.817C49.1941 17.607 51.6991 17.477 52.1591 17.517C52.8971 17.574 47.1791 21.399 47.1791 21.399Z" fill="#2E96D5"/>
<path d="M40.7813 21.491L40.8443 24.071L22.5693 26.237L22.9793 22.037L40.7813 21.491Z" fill="#FE5F38"/>
<path d="M28.4193 39.606C28.6669 40.1622 29.0738 40.6325 29.5887 40.9574C30.1036 41.2823 30.7033 41.4473 31.3119 41.4313C31.9206 41.4154 32.5108 41.2193 33.008 40.8679C33.5051 40.5164 33.8869 40.0255 34.105 39.457C34.3231 38.8886 34.3678 38.2682 34.2333 37.6744C34.0988 37.0806 33.7912 36.5401 33.3495 36.1211C32.9077 35.7021 32.3517 35.4236 31.7516 35.3207C31.1515 35.2177 30.5344 35.2951 29.9783 35.543C29.2329 35.8752 28.65 36.4898 28.3576 37.2517C28.0653 38.0136 28.0874 38.8604 28.4193 39.606Z" fill="#2E96D5"/>
<path d="M29.779 39C29.9076 39.2864 30.1183 39.5283 30.3843 39.695C30.6504 39.8618 30.9599 39.9459 31.2738 39.9368C31.5876 39.9277 31.8917 39.8257 32.1477 39.6438C32.4036 39.4619 32.5998 39.2082 32.7116 38.9148C32.8234 38.6214 32.8457 38.3014 32.7757 37.9953C32.7056 37.6892 32.5464 37.4108 32.3182 37.1952C32.09 36.9795 31.8029 36.8364 31.4934 36.7839C31.1838 36.7313 30.8656 36.7717 30.579 36.9C30.3885 36.9852 30.2167 37.1072 30.0733 37.2589C29.93 37.4106 29.818 37.5891 29.7437 37.7842C29.6694 37.9792 29.6343 38.187 29.6403 38.3956C29.6464 38.6042 29.6935 38.8096 29.779 39Z" fill="#D8E7FF"/>
<path d="M30.6266 38.6231C30.6799 38.7427 30.7675 38.8438 30.8783 38.9136C30.989 38.9835 31.118 39.0189 31.2489 39.0154C31.3798 39.0119 31.5068 38.9697 31.6137 38.8941C31.7206 38.8185 31.8026 38.7129 31.8495 38.5906C31.8964 38.4683 31.9059 38.3349 31.8769 38.2072C31.848 38.0795 31.7818 37.9633 31.6867 37.8732C31.5917 37.7831 31.4721 37.7232 31.343 37.7011C31.214 37.679 31.0812 37.6957 30.9616 37.7491C30.8013 37.8206 30.676 37.9528 30.6132 38.1167C30.5504 38.2806 30.5552 38.4627 30.6266 38.6231Z" fill="#2E96D5"/>
<path d="M47.1786 21.399L46.8256 30.225L45.1826 30.375C45.3256 27.547 45.7106 19.814 45.7826 17.816C49.1886 17.606 51.6936 17.476 52.1536 17.516C52.8956 17.574 47.1786 21.399 47.1786 21.399Z" fill="#FFDF3F"/>
<path d="M35.9059 28.1471C35.9051 28.3021 35.8584 28.4535 35.7716 28.5819C35.6848 28.7104 35.5619 28.8102 35.4184 28.8689C35.2749 28.9275 35.1173 28.9423 34.9654 28.9114C34.8135 28.8804 34.6742 28.8051 34.5651 28.695C34.4559 28.5849 34.3819 28.4449 34.3523 28.2928C34.3227 28.1406 34.3389 27.9831 34.3988 27.8401C34.4587 27.6971 34.5597 27.5751 34.6889 27.4895C34.8182 27.4039 34.9699 27.3585 35.1249 27.3591C35.3329 27.3602 35.532 27.4438 35.6784 27.5915C35.8249 27.7393 35.9067 27.9391 35.9059 28.1471Z" fill="#FE5F38"/>
<path d="M39.0426 28.164C39.0418 28.319 38.9951 28.4703 38.9083 28.5988C38.8216 28.7272 38.6987 28.8271 38.5552 28.8857C38.4117 28.9444 38.254 28.9591 38.1021 28.9282C37.9502 28.8973 37.8109 28.822 37.7018 28.7119C37.5926 28.6018 37.5186 28.4618 37.489 28.3096C37.4594 28.1575 37.4756 27.9999 37.5355 27.857C37.5954 27.714 37.6964 27.592 37.8256 27.5064C37.9549 27.4208 38.1066 27.3754 38.2616 27.376C38.3646 27.3764 38.4666 27.3971 38.5616 27.4369C38.6567 27.4767 38.7429 27.5349 38.8154 27.6081C38.888 27.6813 38.9454 27.768 38.9844 27.8634C39.0233 27.9588 39.0431 28.061 39.0426 28.164Z" fill="#FE5F38"/>
</svg>
