<svg width="523" height="256" viewBox="0 0 523 256" fill="none" xmlns="http://www.w3.org/2000/svg">
<path opacity="0.59" d="M7.03087 96.871C9.89487 6.10403 121.231 -14.052 166.261 10.171C207.74 32.482 209.503 69.171 234.818 78.679C329.246 114.159 403.397 35.997 468.108 81.12C500.041 103.387 508.808 150.065 485.627 175.192C470.042 192.082 440.762 200.816 403.56 205.04C332.568 206.696 233.545 204.682 146.325 205.105C78.3378 184.814 6.07487 127.165 7.03087 96.871Z" fill="#D8DADF"/>
<path opacity="0.3" d="M18.4165 230.485C8.73949 231.219 0.10148 235.865 0.000479507 238.81C-0.0895205 241.467 12.5145 243.643 16.9245 244.41C67.3705 253.122 78.3245 238.51 145.075 244.821C180.083 248.129 174.801 253.614 205.847 254.994C248.326 256.882 313.07 245.421 366.174 245.936C388.831 246.155 389.189 248.013 420.023 249.497C432.135 250.08 516.981 254.075 518.491 247.971C518.764 246.871 531.966 231.265 506.164 225.647C506.165 225.641 291.785 209.746 18.4165 230.485Z" fill="url(#paint0_linear)"/>
<path d="M439.821 112.299C439.693 111.975 439.564 111.651 439.436 111.328C401.41 126.217 369.194 152.964 347.563 187.602L348.32 188.076C369.885 153.64 401.97 127.068 439.821 112.299Z" fill="#85A2D2"/>
<path d="M455.606 106.359C454.706 103.024 442.838 104.494 438.625 112.21C446.816 114.736 456.456 109.57 455.606 106.359Z" fill="#85A2D2"/>
<path d="M430.493 115.668C433.181 123.796 443.778 127.555 445.693 124.852C447.733 122.047 439.864 113.702 430.493 115.668Z" fill="#85A2D2"/>
<path d="M416.163 122.9C420.11 132.159 432.905 135.6 434.904 132.3C437.086 128.84 427.132 119.575 416.163 122.9Z" fill="#85A2D2"/>
<path d="M354.981 177.368C362.965 184.681 377.771 181.488 378.525 177.168C379.428 172.54 365.088 167.914 354.981 177.368Z" fill="#85A2D2"/>
<path d="M400.172 132.913C405.857 143.259 421.257 145.894 423.264 141.885C425.512 137.623 412.884 127.575 400.172 132.913Z" fill="#85A2D2"/>
<path d="M367.878 161.404C376.097 170.663 392.93 169.37 394.219 164.733C395.732 159.731 380.23 152.273 367.878 161.404Z" fill="#85A2D2"/>
<path d="M383.788 145.732C391.359 156.511 408.933 157.58 410.754 152.941C412.862 147.945 397.611 137.961 383.788 145.732Z" fill="#85A2D2"/>
<path d="M435.222 98.1318C431.272 97.5378 425.752 108.377 430.493 115.669C437.943 110.117 439.03 98.8128 435.222 98.1318Z" fill="#85A2D2"/>
<path d="M420.373 101.679C415.557 101.369 409.85 114.83 416.164 122.901C424.486 115.595 424.989 102.121 420.373 101.679Z" fill="#85A2D2"/>
<path d="M350.674 153.099C345.409 155.357 344.98 172.531 354.974 177.368C360.626 165.319 355.774 151.129 350.674 153.099Z" fill="#85A2D2"/>
<path d="M403.187 107.271C397.333 107.491 391.783 124.238 400.171 132.913C409.256 123.272 408.775 107.269 403.187 107.271Z" fill="#85A2D2"/>
<path d="M365.762 133.559C359.534 135.351 357.137 154.62 367.879 161.404C375.445 148.794 371.732 132.092 365.762 133.559Z" fill="#85A2D2"/>
<path d="M384.635 116.398C377.935 117.418 373.325 137.177 383.788 145.732C392.986 133.682 391.017 115.695 384.635 116.398Z" fill="#85A2D2"/>
<path d="M384.095 152.651C391.903 151.151 390.57 157.06 396.518 150.414C405.146 140.771 411.294 141.53 414.439 146.014C417.584 150.498 416.154 156.469 404.017 161.107C395.651 164.307 401.708 165.131 397.562 171.853C393.962 177.694 381.325 179.216 378.647 185.202C372.04 199.972 354.578 195.377 350.701 189.849C346.824 184.321 348.575 166.512 364.858 165.543C371.457 165.143 377.31 153.954 384.095 152.651Z" fill="#6689BC"/>
<path d="M359.219 183.287L382.041 167.587L384.741 152.538C385.172 152.473 385.571 152.438 385.945 152.412L383.393 166.659L405.526 151.438L407.036 143.005C407.436 142.92 407.841 142.865 408.249 142.84L406.87 150.51L414.09 145.545C414.21 145.695 414.327 145.845 414.439 146.009C414.551 146.173 414.655 146.331 414.755 146.495L407.536 151.46L415.275 152.86C415.108 153.229 414.914 153.586 414.695 153.927L406.187 152.384L384.056 167.61L398.429 170.218C398.278 170.558 398.1 170.918 397.888 171.292L382.707 168.537L359.885 184.237L377.484 187.43C377.264 187.794 377.036 188.143 376.801 188.478L358.539 185.164L351.72 189.854L351.062 190.306L350.396 189.356L351.054 188.904L357.874 184.214L361.117 166.114C361.517 166.012 361.926 165.922 362.346 165.845L359.219 183.287Z" fill="#37639A"/>
<path d="M438.329 16.051L437.335 14.981C407.142 42.8238 386.238 79.2761 377.458 119.398L378.687 119.665C387.473 79.8286 408.295 43.6566 438.329 16.051Z" fill="#6689BC"/>
<path d="M437.048 15.5378C437.021 15.7968 436.995 16.0557 436.97 16.3147L437.752 16.2917C445.56 16.0317 454.066 3.05773 454.652 2.49173C455.067 1.89173 455.487 1.29406 455.911 0.69873C455.209 0.920064 454.509 1.14607 453.811 1.37674C453.14 1.35674 437.794 7.30175 437.048 15.5378Z" fill="#6689BC"/>
<path d="M382.045 104.338C381.964 104.604 381.884 104.871 381.805 105.138L382.419 105.322C397.431 109.09 414.976 95.5486 415.978 95.5456C416.422 95.2509 416.868 94.9593 417.316 94.6706L415.844 94.3056C414.876 93.8506 387.219 87.6066 382.045 104.338Z" fill="#6689BC"/>
<path d="M391.021 80.4069C390.907 80.6576 390.795 80.9086 390.684 81.1599L391.284 81.4319C404.349 86.7229 421.346 76.7439 422.217 76.7739C422.701 76.5279 423.185 76.2853 423.671 76.0459C423.185 75.8626 422.698 75.6803 422.212 75.4989C421.378 75.0099 397.349 66.5209 391.021 80.4069Z" fill="#6689BC"/>
<path d="M402.371 58.8498C402.229 59.0844 402.087 59.3177 401.945 59.5497L402.529 59.9037C413.459 66.0727 429.248 59.1458 429.996 59.1948C430.513 58.9948 431.031 58.8014 431.55 58.6147L430.123 57.8958C429.406 57.4038 409.204 47.6738 402.371 58.8498Z" fill="#6689BC"/>
<path d="M415.576 39.7037C415.408 39.9204 415.239 40.1377 415.071 40.3557L415.626 40.7857C424.37 47.2207 438.411 42.8077 439.04 42.8657C439.586 42.7177 440.132 42.5734 440.678 42.4327L439.298 41.5537C438.711 41.0777 422.36 31.0427 415.576 39.7037Z" fill="#6689BC"/>
<path d="M428.659 24.5428L428.089 25.1428L428.611 25.6368C435.273 31.6828 447.09 29.1028 447.603 29.1538C448.171 29.0478 448.738 28.9452 449.303 28.8458L447.975 27.8378C447.514 27.4128 434.847 18.0858 428.659 24.5428Z" fill="#6689BC"/>
<path d="M363.959 71.566C363.549 71.2593 363.139 70.953 362.729 70.647C362.757 71.3176 362.789 71.9873 362.823 72.656C362.454 74.042 365.534 100.924 381.178 104.946L381.792 105.13C381.872 104.863 381.951 104.597 382.031 104.33C387.029 88.878 365.012 72.556 363.959 71.566Z" fill="#6689BC"/>
<path d="M378.029 49.7629C377.643 49.4069 377.258 49.0502 376.873 48.6929C376.835 49.3595 376.8 50.0226 376.767 50.6819C376.372 51.8379 376.544 75.3559 390.073 80.8819L390.673 81.1539L391.011 80.4009C397.085 67.4799 378.865 50.7109 378.029 49.7629Z" fill="#6689BC"/>
<path d="M393.738 31.1406C393.38 30.7406 393.024 30.3386 392.668 29.9346C392.567 30.5866 392.47 31.2382 392.376 31.8896C391.986 32.8296 390.095 52.8196 401.351 59.1896L401.935 59.5435C402.076 59.3082 402.218 59.0749 402.361 58.8436C408.923 48.3616 394.384 32.0126 393.738 31.1406Z" fill="#6689BC"/>
<path d="M410.523 15.5887C410.198 15.1467 409.873 14.7041 409.549 14.2607C409.392 14.8974 409.238 15.5331 409.086 16.1678C408.725 16.9108 405.546 33.3207 414.505 39.9167L415.06 40.3477C415.228 40.1297 415.397 39.9124 415.565 39.6957C422.109 31.5027 411.005 16.3587 410.523 15.5887Z" fill="#6689BC"/>
<path d="M426.173 4.59586C425.878 4.12186 425.584 3.64752 425.29 3.17285C425.085 3.79085 424.885 4.40851 424.69 5.02585C424.39 5.59285 420.766 18.4809 427.559 24.6409L428.082 25.1349L428.652 24.5349C434.647 18.3719 426.519 5.23686 426.173 4.59586Z" fill="#6689BC"/>
<path d="M90.3127 114.343L89.3809 115.447L170.77 184.114L171.701 183.01L90.3127 114.343Z" fill="#85A2D2"/>
<path d="M74.3848 101.848L76.1938 102.49C76.7548 102.69 89.9418 107.447 90.5678 114.833L90.6288 115.553L89.9088 115.614C82.5228 116.24 75.6088 104.043 75.3218 103.523L74.3848 101.848Z" fill="#85A2D2"/>
<path d="M160.815 174.779L161.367 175.245L160.901 175.797C149.331 189.51 126.958 186.979 126.011 186.864L124.379 186.664L125.627 185.596C126.601 184.765 149.585 165.304 160.815 174.779Z" fill="#85A2D2"/>
<path d="M143.742 160.374L144.295 160.84L143.829 161.392C133.674 173.428 114.051 171.208 113.22 171.107L111.588 170.907L112.837 169.838C113.69 169.11 133.858 152.034 143.742 160.374Z" fill="#85A2D2"/>
<path d="M127.404 146.59L127.957 147.056L127.491 147.608C118.752 157.966 101.878 156.058 101.164 155.972L99.5322 155.772L100.781 154.703C101.514 154.077 118.865 139.382 127.404 146.59Z" fill="#85A2D2"/>
<path d="M111.804 133.427L112.356 133.893L111.89 134.445C104.566 143.126 90.4419 141.529 89.8439 141.457L88.2119 141.257L89.4609 140.188C90.0759 139.664 104.611 127.358 111.804 133.427Z" fill="#85A2D2"/>
<path d="M98.4125 122.129L98.9645 122.595L98.4985 123.147C92.5885 130.147 81.2155 128.865 80.7345 128.807L79.1025 128.607L80.3505 127.538C80.8465 127.115 92.5655 117.195 98.4125 122.129Z" fill="#85A2D2"/>
<path d="M165.566 138.263L166.41 136.852L166.879 138.428C167.151 139.341 173.412 160.969 161.842 174.683L161.376 175.236L160.824 174.77C149.592 165.294 164.908 139.362 165.566 138.263Z" fill="#85A2D2"/>
<path d="M147.879 128.306L148.723 126.895L149.192 128.471C149.431 129.271 154.922 148.242 144.768 160.278L144.302 160.831L143.749 160.365C133.864 152.025 147.302 129.27 147.879 128.306Z" fill="#85A2D2"/>
<path d="M130.931 118.969L131.775 117.558L132.244 119.134C132.449 119.823 137.171 136.134 128.431 146.493L127.965 147.046L127.413 146.58C118.874 139.375 130.431 119.799 130.931 118.969Z" fill="#85A2D2"/>
<path d="M114.718 110.255L115.562 108.844L116.031 110.42C116.203 110.997 120.155 124.65 112.831 133.331L112.365 133.884L111.813 133.418C104.619 127.348 114.302 110.95 114.718 110.255Z" fill="#85A2D2"/>
<path d="M100.715 103.404L101.559 101.994L102.028 103.569C102.166 104.034 105.349 115.028 99.4392 122.032L98.9732 122.585L98.4202 122.119C92.5742 117.186 100.38 103.965 100.715 103.404Z" fill="#85A2D2"/>
<path d="M81.8174 10.726L82.4274 10.144C105.2 34.2481 119.671 65.0008 123.727 97.912L123.013 98.0001C118.937 65.2606 104.503 34.6813 81.8174 10.726Z" fill="#85A2D2"/>
<path d="M72.2931 0.922901C74.0781 -1.2241 82.2551 3.94089 82.7211 11.0719C75.8811 10.1169 70.5841 2.9959 72.2931 0.922901Z" fill="#85A2D2"/>
<path d="M87.4927 16.416C82.7747 21.478 73.7567 20.601 73.2767 17.954C72.7317 15.184 81.3097 11.745 87.4927 16.416Z" fill="#85A2D2"/>
<path d="M95.5155 26.672C89.4945 32.133 78.9795 30.265 78.6355 27.148C78.2125 23.849 88.6255 20.45 95.5155 26.672Z" fill="#85A2D2"/>
<path d="M121.777 87.8248C113.465 90.4638 103.726 83.0248 104.638 79.5808C105.545 75.8628 117.594 77.3868 121.777 87.8248Z" fill="#85A2D2"/>
<path d="M103.811 39.5461C96.1519 45.2091 84.0039 41.8531 83.8959 38.2111C83.6969 34.2981 96.3289 31.2421 103.811 39.5461Z" fill="#85A2D2"/>
<path d="M117.759 71.6327C108.616 75.6237 96.7524 68.8827 97.3814 65.0247C97.9704 60.8217 111.825 60.6607 117.759 71.6327Z" fill="#85A2D2"/>
<path d="M111.442 54.6198C102.258 59.9538 89.0523 54.6968 89.2933 50.6548C89.4433 46.2488 103.972 44.1418 111.442 54.6198Z" fill="#85A2D2"/>
<path d="M89.978 1.8769C93.067 2.7979 93.429 12.6769 87.493 16.4169C83.929 9.76591 86.964 1.0669 89.978 1.8769Z" fill="#85A2D2"/>
<path d="M99.6276 9.59584C103.252 11.0248 102.862 22.8958 95.5146 26.6718C91.9076 18.4288 96.1046 8.33384 99.6276 9.59584Z" fill="#85A2D2"/>
<path d="M133.143 71.4329C136.226 74.9059 130.721 87.7009 121.777 87.8249C121.734 77.0099 130.09 68.2309 133.143 71.4329Z" fill="#85A2D2"/>
<path d="M110.291 19.6238C114.491 21.7998 112.878 36.0418 103.809 39.5448C100.437 29.3208 106.21 17.6998 110.291 19.6238Z" fill="#85A2D2"/>
<path d="M128.74 51.8559C132.685 55.3179 127.909 70.3319 117.76 71.6329C116.501 59.7429 124.874 48.7219 128.74 51.8559Z" fill="#85A2D2"/>
<path d="M120.759 32.7271C125.311 35.7831 121.985 51.9191 111.441 54.6201C108.795 42.5851 116.332 30.0141 120.759 32.7271Z" fill="#85A2D2"/>
<path d="M60.5059 57.2239C60.6499 56.9499 60.7932 56.6755 60.9359 56.4009C93.2085 73.4673 119.18 100.404 135.059 133.277L134.347 133.621C118.508 100.934 92.6352 74.1655 60.5059 57.2239Z" fill="#6689BC"/>
<path d="M47.1092 50.3768C48.2092 47.5068 58.5622 49.9968 61.5722 57.2658C54.1032 58.6948 46.0612 53.1458 47.1092 50.3768Z" fill="#6689BC"/>
<path d="M68.437 61.1521C65.311 68.0981 55.599 70.3761 54.161 67.7871C52.614 65.0921 60.339 58.4701 68.437 61.1521Z" fill="#6689BC"/>
<path d="M80.4287 69.0029C76.0847 76.8259 64.4617 78.6029 63.0007 75.4739C61.3937 72.1849 71.0447 64.9559 80.4287 69.0029Z" fill="#6689BC"/>
<path d="M129.453 123.463C121.722 129.156 108.935 124.843 108.668 120.935C108.301 116.731 121.397 114.057 129.453 123.463Z" fill="#6689BC"/>
<path d="M93.6349 79.4862C87.6549 88.1012 73.8029 88.9022 72.4009 85.1432C70.8089 81.1362 82.8949 73.4782 93.6349 79.4862Z" fill="#6689BC"/>
<path d="M119.532 108C111.413 115.4 96.6591 112.568 95.9491 108.324C95.0751 103.734 109.462 98.6621 119.532 108Z" fill="#6689BC"/>
<path d="M106.925 92.4989C99.2378 101.311 83.6118 100.504 82.4308 96.2049C81.0298 91.5599 95.4288 84.2219 106.925 92.4989Z" fill="#6689BC"/>
<path d="M65.8814 45.1141C69.4274 44.9811 73.3024 55.1521 68.4374 61.1511C62.3694 55.4801 62.4554 45.3381 65.8814 45.1141Z" fill="#6689BC"/>
<path d="M78.6736 49.7449C82.9576 49.9519 86.7546 62.4689 80.4296 69.0019C73.7526 61.6869 74.5546 49.6779 78.6736 49.7449Z" fill="#6689BC"/>
<path d="M135.498 102.347C139.941 104.876 138.731 120.163 129.452 123.458C125.578 112.199 131.181 100.09 135.498 102.347Z" fill="#6689BC"/>
<path d="M93.341 56.4253C98.493 57.2053 101.849 72.6253 93.635 79.4863C86.496 70.0203 88.404 55.8653 93.341 56.4253Z" fill="#6689BC"/>
<path d="M123.979 83.4959C129.317 85.7079 129.653 103.051 119.533 107.996C114.012 96.0509 118.84 81.5969 123.979 83.4959Z" fill="#6689BC"/>
<path d="M108.889 66.3802C114.717 67.9542 116.96 85.9532 106.925 92.5002C99.9115 80.8902 103.315 65.1192 108.889 66.3802Z" fill="#6689BC"/>
<path d="M432.319 196.253H90.2396C88.644 196.253 87.3506 197.546 87.3506 199.142C87.3506 200.737 88.644 202.031 90.2396 202.031H432.319C433.914 202.031 435.208 200.737 435.208 199.142C435.208 197.546 433.914 196.253 432.319 196.253Z" fill="#707070"/>
<defs>
<linearGradient id="paint0_linear" x1="522.108" y1="237.512" x2="73.6172" y2="237.512" gradientUnits="userSpaceOnUse">
<stop stop-color="#D3D6DB"/>
<stop offset="0.999" stop-color="#7A869B"/>
</linearGradient>
</defs>
</svg>
