<svg width="527" height="37" viewBox="0 0 527 37" fill="none" xmlns="http://www.w3.org/2000/svg">
<path opacity="0.3" d="M18.587 11.6121C8.82003 12.3531 0.100997 17.0421 -2.57368e-06 20.0121C-0.0910026 22.6931 12.63 24.8901 17.082 25.6591C67.999 34.4531 79.059 19.7081 146.429 26.0741C181.763 29.4131 176.429 34.9491 207.769 36.3421C250.644 38.2481 315.993 26.6791 369.593 27.1991C392.461 27.4211 392.822 29.2991 423.944 30.7931C436.169 31.3811 521.806 35.4131 523.33 29.2531C523.605 28.1391 536.93 12.3911 510.887 6.7211C510.887 6.7241 294.506 -9.31991 18.587 11.6121Z" fill="url(#paint0_linear)"/>
<defs>
<linearGradient id="paint0_linear" x1="526.981" y1="18.7009" x2="74.3039" y2="18.7009" gradientUnits="userSpaceOnUse">
<stop stop-color="#D3D6DB"/>
<stop offset="0.999" stop-color="#7A869B"/>
</linearGradient>
</defs>
</svg>
