<svg width="70" height="72" viewBox="0 0 70 72" fill="none" xmlns="http://www.w3.org/2000/svg">
<path d="M60 3H10C5.58172 3 2 6.58172 2 11V61C2 65.4183 5.58172 69 10 69H60C64.4183 69 68 65.4183 68 61V11C68 6.58172 64.4183 3 60 3Z" fill="#FCFCFC"/>
<path d="M60 3.5H10C5.85786 3.5 2.5 6.85786 2.5 11V61C2.5 65.1421 5.85786 68.5 10 68.5H60C64.1421 68.5 67.5 65.1421 67.5 61V11C67.5 6.85786 64.1421 3.5 60 3.5Z" stroke="#FCFCFC"/>
<path d="M35 58.6441C54.33 58.6441 70 50.6223 70 40.7271C70 30.8318 54.33 22.8101 35 22.8101C15.67 22.8101 0 30.8318 0 40.7271C0 50.6223 15.67 58.6441 35 58.6441Z" fill="#E9F1FD"/>
<path d="M40.7671 45.5581H29.1201V65.2281H40.7671V45.5581Z" fill="#B6C0CB"/>
<path d="M40.7676 45.5581H35.9766V65.2281H40.7676V45.5581Z" fill="#969BA4"/>
<path d="M54.7169 70.0001H15.1699C14.7637 69.9766 14.3834 69.7934 14.1119 69.4904C13.8404 69.1875 13.6998 68.7894 13.7209 68.3831V60.7481C13.6996 60.3417 13.84 59.9433 14.1115 59.6402C14.3831 59.337 14.7636 59.1536 15.1699 59.1301H54.7169C55.1233 59.1536 55.5038 59.337 55.7755 59.6401C56.0472 59.9433 56.1879 60.3416 56.1668 60.7481V68.3831C56.1879 68.7895 56.0472 69.1878 55.7755 69.4908C55.5038 69.7937 55.1232 69.9769 54.7169 70.0001Z" fill="#6F787E"/>
<path d="M12.8787 60.9421H57.0077C57.4368 60.9421 57.8484 61.1126 58.1518 61.416C58.4552 61.7195 58.6257 62.131 58.6257 62.5601V70.1951C58.6257 70.4076 58.5839 70.618 58.5026 70.8143C58.4212 71.0106 58.3021 71.189 58.1518 71.3392C58.0016 71.4895 57.8232 71.6087 57.6269 71.69C57.4306 71.7713 57.2202 71.8131 57.0077 71.8131H12.8797C12.6672 71.8131 12.4568 71.7713 12.2605 71.69C12.0642 71.6087 11.8859 71.4895 11.7356 71.3392C11.5854 71.189 11.4662 71.0106 11.3849 70.8143C11.3036 70.618 11.2617 70.4076 11.2617 70.1951V62.5591C11.2617 62.1303 11.4321 61.719 11.7353 61.4157C12.0386 61.1125 12.4499 60.9421 12.8787 60.9421V60.9421Z" fill="#9CA6AD"/>
<path d="M57.0076 71.8122H37.6006C37.813 71.8123 38.0234 71.7706 38.2197 71.6894C38.416 71.6082 38.5943 71.4891 38.7446 71.3389C38.8949 71.1888 39.0141 71.0105 39.0954 70.8142C39.1767 70.618 39.2186 70.4076 39.2186 70.1952V62.5592C39.2188 62.3466 39.1772 62.136 39.096 61.9395C39.0148 61.743 38.8956 61.5645 38.7453 61.4141C38.595 61.2637 38.4166 61.1445 38.2202 61.0632C38.0237 60.9818 37.8132 60.9401 37.6006 60.9402H57.0126C57.4415 60.9402 57.8529 61.1105 58.1563 61.4137C58.4597 61.7169 58.6303 62.1282 58.6306 62.5572V70.1932C58.6307 70.4062 58.5888 70.6171 58.5072 70.8138C58.4257 71.0106 58.3061 71.1893 58.1553 71.3397C58.0045 71.4901 57.8255 71.6093 57.6285 71.6904C57.4316 71.7714 57.2206 71.8128 57.0076 71.8122Z" fill="#8C959C"/>
<path d="M23.3521 71.8121H17.8011C17.6044 71.2973 17.5358 70.7424 17.6012 70.1951V62.5591C17.5358 62.0119 17.6044 61.457 17.8011 60.9421H23.3472C23.5448 61.4567 23.6135 62.0119 23.5471 62.5591V70.1951C23.6151 70.742 23.5481 71.2971 23.3521 71.8121Z" fill="#C7CDD3"/>
<path d="M57.0079 71.8121H45.8789C46.0913 71.8121 46.3015 71.7703 46.4977 71.6891C46.6939 71.6078 46.8722 71.4887 47.0223 71.3385C47.1725 71.1884 47.2916 71.0101 47.3728 70.8139C47.4541 70.6178 47.4959 70.4075 47.4959 70.1951V62.5591C47.4959 62.3468 47.4541 62.1365 47.3728 61.9403C47.2916 61.7442 47.1725 61.5659 47.0223 61.4157C46.8722 61.2656 46.6939 61.1465 46.4977 61.0652C46.3015 60.984 46.0913 60.9421 45.8789 60.9421H57.0079C57.4369 60.9421 57.8482 61.1125 58.1516 61.4157C58.455 61.7189 58.6257 62.1302 58.6259 62.5591V70.1951C58.6257 70.6241 58.455 71.0354 58.1516 71.3386C57.8482 71.6418 57.4369 71.8121 57.0079 71.8121Z" fill="#7D868C"/>
<path d="M59.5774 32.8169C61.785 19.212 52.5458 6.39343 38.9409 4.18578C25.336 1.97813 12.5175 11.2174 10.3098 24.8223C8.10215 38.4271 17.3414 51.2457 30.9463 53.4534C44.5512 55.661 57.3697 46.4217 59.5774 32.8169Z" fill="#FE5F38"/>
<path d="M48.358 42.2343C55.767 34.8253 55.767 22.8129 48.358 15.4039C40.949 7.99484 28.9366 7.99483 21.5275 15.4039C14.1185 22.8129 14.1185 34.8253 21.5275 42.2343C28.9366 49.6433 40.949 49.6433 48.358 42.2343Z" fill="white"/>
<path d="M34.9439 31.5501C36.4522 31.5501 37.6749 30.3274 37.6749 28.8191C37.6749 27.3108 36.4522 26.0881 34.9439 26.0881C33.4356 26.0881 32.2129 27.3108 32.2129 28.8191C32.2129 30.3274 33.4356 31.5501 34.9439 31.5501Z" fill="#FFDF3F"/>
<path d="M29.8018 16.0229L33.4128 29.4599L35.9768 28.5079L29.8018 16.0229Z" fill="#FFDF3F"/>
<path d="M34.9692 11.293H34.9172C34.361 11.293 33.9102 11.7438 33.9102 12.3V13.874C33.9102 14.4301 34.361 14.881 34.9172 14.881H34.9692C35.5253 14.881 35.9762 14.4301 35.9762 13.874V12.3C35.9762 11.7438 35.5253 11.293 34.9692 11.293Z" fill="#2E96D5"/>
<path d="M34.9692 43.1331H34.9172C34.361 43.1331 33.9102 43.5839 33.9102 44.1401V45.7141C33.9102 46.2702 34.361 46.7211 34.9172 46.7211H34.9692C35.5253 46.7211 35.9762 46.2702 35.9762 45.7141V44.1401C35.9762 43.5839 35.5253 43.1331 34.9692 43.1331Z" fill="#2E96D5"/>
<path d="M47.4881 16.4988L47.4513 16.4621C47.0581 16.0688 46.4205 16.0688 46.0272 16.4621L44.9142 17.575C44.521 17.9683 44.521 18.6059 44.9142 18.9992L44.951 19.0359C45.3442 19.4292 45.9818 19.4292 46.3751 19.0359L47.4881 17.9229C47.8813 17.5297 47.8813 16.8921 47.4881 16.4988Z" fill="#2E96D5"/>
<path d="M24.9734 39.014L24.9367 38.9772C24.5434 38.5839 23.9058 38.5839 23.5126 38.9772L22.3996 40.0902C22.0063 40.4834 22.0063 41.121 22.3996 41.5143L22.4363 41.5511C22.8296 41.9443 23.4672 41.9443 23.8604 41.5511L24.9734 40.4381C25.3667 40.0448 25.3667 39.4072 24.9734 39.014Z" fill="#2E96D5"/>
<path d="M52.6572 29.0331V28.9811C52.6572 28.425 52.2064 27.9741 51.6502 27.9741H50.0762C49.5201 27.9741 49.0692 28.425 49.0692 28.9811V29.0331C49.0692 29.5893 49.5201 30.0401 50.0762 30.0401H51.6502C52.2064 30.0401 52.6572 29.5893 52.6572 29.0331Z" fill="#2E96D5"/>
<path d="M20.8174 29.0331V28.9811C20.8174 28.425 20.3665 27.9741 19.8104 27.9741H18.2364C17.6802 27.9741 17.2294 28.425 17.2294 28.9811V29.0331C17.2294 29.5893 17.6802 30.0401 18.2364 30.0401H19.8104C20.3665 30.0401 20.8174 29.5893 20.8174 29.0331Z" fill="#2E96D5"/>
<path d="M47.4514 41.5508L47.4881 41.5141C47.8814 41.1208 47.8814 40.4832 47.4881 40.0899L46.3752 38.977C45.9819 38.5837 45.3443 38.5837 44.951 38.977L44.9143 39.0137C44.521 39.407 44.521 40.0446 44.9143 40.4378L46.0273 41.5508C46.4205 41.9441 47.0581 41.9441 47.4514 41.5508Z" fill="#2E96D5"/>
<path d="M24.9367 19.0359L24.9735 18.9992C25.3667 18.6059 25.3667 17.9683 24.9735 17.5751L23.8605 16.4621C23.4672 16.0688 22.8296 16.0688 22.4364 16.4621L22.3996 16.4988C22.0064 16.8921 22.0064 17.5297 22.3996 17.9229L23.5126 19.0359C23.9059 19.4292 24.5435 19.4292 24.9367 19.0359Z" fill="#2E96D5"/>
</svg>
