<svg width="69" height="72" viewBox="0 0 69 72" fill="none" xmlns="http://www.w3.org/2000/svg">
<path d="M30.2327 0C13.5975 0 0 13.7528 0 30.7416C0 47.6568 13.5252 61.4832 30.2327 61.4832C35.6572 61.4832 41.0094 59.9387 45.7107 57.0705L47.0849 56.1879L61.3333 70.6762C62.2013 71.5587 63.2862 72 64.5157 72C65.7453 72 66.8302 71.5587 67.6981 70.6762C68.566 69.7937 69 68.6905 69 67.4402C69 66.19 68.4937 65.0868 67.6981 64.2043L53.8836 50.0102L55.2579 47.8774C58.6572 42.8029 60.4654 36.8458 60.4654 30.668C60.4654 13.7528 46.8679 0 30.2327 0ZM30.2327 53.761C17.7201 53.761 7.52201 43.3912 7.52201 30.668C7.52201 17.9448 17.7201 7.57508 30.2327 7.57508C42.7453 7.57508 52.9434 17.9448 52.9434 30.668C52.9434 43.3912 42.7453 53.761 30.2327 53.761Z" fill="#C9D4FA"/>
</svg>
