<svg width="66" height="68" viewBox="0 0 66 68" fill="none" xmlns="http://www.w3.org/2000/svg">
<path d="M58.001 1H8.00098C3.5827 1 0.000976562 4.58172 0.000976562 9V59C0.000976562 63.4183 3.5827 67 8.00098 67H58.001C62.4193 67 66.001 63.4183 66.001 59V9C66.001 4.58172 62.4193 1 58.001 1Z" fill="#FCFCFC"/>
<path d="M58.001 1.5H8.00098C3.85884 1.5 0.500977 4.85786 0.500977 9V59C0.500977 63.1421 3.85884 66.5 8.00098 66.5H58.001C62.1431 66.5 65.501 63.1421 65.501 59V9C65.501 4.85786 62.1431 1.5 58.001 1.5Z" stroke="#FCFCFC"/>
<path d="M33.0003 56.9501C44.1912 56.9501 53.2633 52.306 53.2633 46.5771C53.2633 40.8483 44.1912 36.2041 33.0003 36.2041C21.8094 36.2041 12.7373 40.8483 12.7373 46.5771C12.7373 52.306 21.8094 56.9501 33.0003 56.9501Z" fill="#E9F1FD"/>
<path d="M48.7521 67.4163L46.3231 39.9863H39.8421L37.4141 67.4163C37.4141 67.4863 39.9521 67.5443 43.0821 67.5443C46.2121 67.5443 48.7511 67.4863 48.7511 67.4163H48.7521Z" fill="#CFCFCF"/>
<path d="M46.655 43.746L46.555 42.665C45.738 42.688 44.484 42.703 43.076 42.703C41.668 42.703 40.417 42.688 39.6 42.665L39.5 43.746C40.313 43.771 41.61 43.786 43.071 43.786C44.532 43.786 45.842 43.771 46.655 43.746Z" fill="#C43635"/>
<path d="M47.2603 50.5725L47.1793 49.6465C46.1153 49.6695 44.6723 49.6835 43.0793 49.6835C41.4863 49.6835 40.0473 49.6695 38.9843 49.6465L38.9033 50.5725C39.9723 50.5965 41.4493 50.6115 43.0783 50.6115C44.7073 50.6115 46.1893 50.5965 47.2603 50.5725Z" fill="#C43635"/>
<path d="M43.0813 60.8873C40.9193 60.8873 39.0293 60.8613 37.9973 60.8223L37.7393 63.7423C39.0853 63.7743 40.9813 63.7943 43.0813 63.7943C45.1813 63.7943 47.0813 63.7743 48.4273 63.7423L48.1683 60.8223C47.1373 60.8643 45.2463 60.8873 43.0813 60.8873Z" fill="#C43635"/>
<path d="M43.088 63.8769C40.811 63.8769 38.8199 63.8449 37.7329 63.7959L37.4609 67.4019C38.8779 67.4419 40.876 67.4659 43.088 67.4659C45.3 67.4659 47.3 67.4419 48.719 67.4019L48.446 63.7959C47.36 63.8439 45.368 63.8769 43.088 63.8769Z" fill="#2E96D5"/>
<path d="M47.8311 57.0353L47.7501 56.1104C46.6681 56.1414 44.9791 56.1624 43.0811 56.1624C41.1831 56.1624 39.497 56.1414 38.415 56.1104L38.332 57.0353C39.409 57.0683 41.132 57.0893 43.08 57.0893C45.028 57.0893 46.7541 57.0683 47.8311 57.0353Z" fill="#C43635"/>
<g style="mix-blend-mode:multiply">
<path d="M48.7517 67.4163L46.3227 39.9863H44.8438L46.4877 67.5183C47.2434 67.5352 47.9994 67.5018 48.7507 67.4183L48.7517 67.4163Z" fill="#C9CACC"/>
</g>
<path d="M46.3239 39.9861C46.3239 40.0261 44.8729 40.0591 43.0809 40.0591C41.2889 40.0591 39.8389 40.0261 39.8389 39.9861C39.8389 39.9461 41.2909 39.9121 43.0809 39.9121C44.8709 39.9121 46.3239 39.9451 46.3239 39.9861Z" fill="#D6E1F2"/>
<path d="M46.0563 39.9865C46.0563 40.0145 44.7363 40.0375 43.1043 40.0375C41.4723 40.0375 40.1533 40.0145 40.1533 39.9865C40.1533 39.9585 41.4743 39.9355 43.1043 39.9355C44.7343 39.9355 46.0563 39.9575 46.0563 39.9865Z" fill="#363739"/>
<path d="M28.709 67.3662L26.915 37.4492H22.126L20.332 67.3662C23.1213 67.5518 25.9198 67.5518 28.709 67.3662Z" fill="#CFCFCF"/>
<g style="mix-blend-mode:multiply">
<path d="M28.5799 65.2049L28.5589 64.8369H20.4829L20.4609 65.2049H28.5799Z" fill="#E2E3E4"/>
</g>
<path d="M27.1619 41.5501L27.0909 40.3711C26.4909 40.3961 25.5599 40.4121 24.5209 40.4121C23.4819 40.4121 22.5549 40.3961 21.9509 40.3711L21.8799 41.5501C22.4799 41.5771 23.4399 41.5941 24.5199 41.5941C25.5999 41.5941 26.5609 41.5771 27.1619 41.5501Z" fill="#C43635"/>
<path d="M27.6047 48.9963L27.5437 47.9863C26.7587 48.0113 25.6927 48.0273 24.5167 48.0273C23.3407 48.0273 22.2757 48.0113 21.4907 47.9863L21.4297 48.9963C22.2197 49.0233 23.3107 49.0393 24.5167 49.0393C25.7227 49.0393 26.8177 49.0233 27.6047 48.9963Z" fill="#C43635"/>
<path d="M24.5213 60.2497C22.9213 60.2497 21.5213 60.2217 20.7633 60.1787L20.5713 63.3637C21.5713 63.3977 22.9713 63.4197 24.5213 63.4197C26.0713 63.4197 27.4763 63.3977 28.4703 63.3637L28.2803 60.1787C27.5183 60.2207 26.1203 60.2497 24.5213 60.2497Z" fill="#C43635"/>
<path d="M24.5092 63.5079C22.8672 63.5079 21.4312 63.4729 20.6492 63.4199L20.4492 67.3509C21.4712 67.3929 22.9112 67.4199 24.5062 67.4199C26.1012 67.4199 27.5422 67.3929 28.5632 67.3509L28.3632 63.4199C27.5882 63.4719 26.1522 63.5079 24.5092 63.5079Z" fill="#2E96D5"/>
<path d="M28.0318 56.0461L27.9698 55.0361C27.1698 55.0701 25.9228 55.0921 24.5208 55.0921C23.1188 55.0921 21.8718 55.0701 21.0708 55.0361L21.0098 56.0461C21.8098 56.0821 23.0818 56.1051 24.5198 56.1051C25.9578 56.1051 27.2348 56.0811 28.0318 56.0461Z" fill="#C43635"/>
<g style="mix-blend-mode:multiply">
<path d="M28.7103 67.3662L26.9163 37.4492H25.8223L27.0393 67.4782C27.5986 67.4962 28.1583 67.4591 28.7103 67.3672V67.3662Z" fill="#C9CACC"/>
</g>
<path d="M26.917 37.4494C25.3211 37.5555 23.7199 37.5555 22.124 37.4494C23.7199 37.3424 25.3211 37.3424 26.917 37.4494Z" fill="#D6E1F2"/>
<path d="M26.7184 37.4493C25.2654 37.5241 23.8095 37.5241 22.3564 37.4493C23.8095 37.375 25.2654 37.375 26.7184 37.4493Z" fill="#363739"/>
<path d="M28.8504 64.6846H20.1924V64.9746H28.8504V64.6846Z" fill="#EAEDF0"/>
<path d="M57.0711 16.0871C56.5001 15.5425 55.8077 15.1418 55.0511 14.9181C55.2581 14.5901 55.4511 14.2671 55.6241 13.9551C57.6641 10.2861 57.4741 5.18215 54.1811 2.32915C49.6011 -1.63785 38.2911 0.824145 38.9301 8.41315C38.6727 8.43181 38.4061 8.45948 38.1301 8.49615C36.3116 8.86219 34.6869 9.87377 33.5561 11.3441C33.0763 11.0432 32.5257 10.8743 31.9597 10.8545C31.3938 10.8346 30.8327 10.9646 30.3331 11.2311C29.7297 11.5392 29.2105 11.9895 28.8201 12.5431C26.8311 11.6161 23.3121 12.6371 21.9071 14.3791C21.2425 13.9769 20.5244 13.6709 19.7741 13.4701C18.5858 13.2107 17.3571 13.1966 16.1633 13.4287C14.9694 13.6608 13.8355 14.1343 12.8311 14.8202C11.9313 15.4138 11.1793 16.2056 10.633 17.1349C10.0866 18.0642 9.76029 19.1062 9.67906 20.1812C9.62712 20.8119 9.72015 21.4462 9.95101 22.0355C10.1819 22.6248 10.5445 23.1535 11.0111 23.5811C10.7512 23.7988 10.5069 24.0343 10.2801 24.2861C9.99876 24.7251 9.81081 25.2173 9.72788 25.732C9.64496 26.2467 9.66885 26.773 9.79806 27.2782C9.11623 27.7726 8.62936 28.4905 8.42216 29.3068C8.21496 30.1232 8.30056 30.9864 8.66406 31.7461C8.83825 32.0963 9.10197 32.3942 9.42846 32.6095C9.75495 32.8248 10.1326 32.9499 10.5231 32.9722C10.3364 33.4967 10.353 34.0721 10.5696 34.585C10.7861 35.0979 11.187 35.5111 11.6931 35.7431C13.0401 36.4031 15.0761 35.6331 16.2931 34.3741C17.0853 34.7214 17.958 34.8436 18.8151 34.7273C19.6723 34.6111 20.4809 34.2609 21.1521 33.7151C22.1562 33.023 22.9188 32.0342 23.3331 30.8871C24.5733 31.4757 25.9347 31.7638 27.3071 31.7281C29.2053 31.6595 31.0383 31.0181 32.5651 29.8881C33.6541 33.1111 38.1651 35.1261 41.6541 34.1221C42.892 33.8513 44.0236 33.224 44.9094 32.3178C45.7952 31.4116 46.3965 30.266 46.6391 29.0221C46.7715 28.1997 46.8028 27.3642 46.7321 26.5341C47.8044 26.6241 48.884 26.5625 49.9391 26.3511C52.5511 25.9695 54.913 24.5889 56.5271 22.5002C57.9181 20.5802 59.0261 17.9601 57.0711 16.0871Z" fill="#AAAAAA"/>
<g style="mix-blend-mode:multiply" opacity="0.5">
<path d="M57.0711 16.0871C56.5001 15.5425 55.8077 15.1418 55.0511 14.9181C55.2581 14.5901 55.4511 14.2671 55.6241 13.9551C57.6641 10.2861 57.4741 5.18215 54.1811 2.32915C49.6011 -1.63785 38.2911 0.824145 38.9301 8.41315C38.6727 8.43181 38.4061 8.45948 38.1301 8.49615C36.3116 8.86219 34.6869 9.87377 33.5561 11.3441C33.0763 11.0432 32.5257 10.8743 31.9597 10.8545C31.3938 10.8346 30.8327 10.9646 30.3331 11.2311C29.7297 11.5392 29.2105 11.9895 28.8201 12.5431C26.8311 11.6161 23.3121 12.6371 21.9071 14.3791C21.2425 13.9769 20.5244 13.6709 19.7741 13.4701C18.5858 13.2107 17.3571 13.1966 16.1633 13.4287C14.9694 13.6608 13.8355 14.1343 12.8311 14.8202C11.9313 15.4138 11.1793 16.2056 10.633 17.1349C10.0866 18.0642 9.76029 19.1062 9.67906 20.1812C9.62712 20.8119 9.72015 21.4462 9.95101 22.0355C10.1819 22.6248 10.5445 23.1535 11.0111 23.5811C10.7512 23.7988 10.5069 24.0343 10.2801 24.2861C9.99876 24.7251 9.81081 25.2173 9.72788 25.732C9.64496 26.2467 9.66885 26.773 9.79806 27.2782C9.11623 27.7726 8.62936 28.4905 8.42216 29.3068C8.21496 30.1232 8.30056 30.9864 8.66406 31.7461C8.83825 32.0963 9.10197 32.3942 9.42846 32.6095C9.75495 32.8248 10.1326 32.9499 10.5231 32.9722C10.3364 33.4967 10.353 34.0721 10.5696 34.585C10.7861 35.0979 11.187 35.5111 11.6931 35.7431C13.0401 36.4031 15.0761 35.6331 16.2931 34.3741C17.0853 34.7214 17.958 34.8436 18.8151 34.7273C19.6723 34.6111 20.4809 34.2609 21.1521 33.7151C22.1562 33.023 22.9188 32.0342 23.3331 30.8871C24.5733 31.4757 25.9347 31.7638 27.3071 31.7281C29.2053 31.6595 31.0383 31.0181 32.5651 29.8881C33.6541 33.1111 38.1651 35.1261 41.6541 34.1221C42.892 33.8513 44.0236 33.224 44.9094 32.3178C45.7952 31.4116 46.3965 30.266 46.6391 29.0221C46.7715 28.1997 46.8028 27.3642 46.7321 26.5341C47.8044 26.6241 48.884 26.5625 49.9391 26.3511C52.5511 25.9695 54.913 24.5889 56.5271 22.5002C57.9181 20.5802 59.0261 17.9601 57.0711 16.0871ZM28.9711 25.0271C28.7737 25.1317 28.568 25.2197 28.3561 25.2901C28.5015 26.0396 28.3546 26.8162 27.9455 27.4608C27.5364 28.1053 26.8961 28.5688 26.1561 28.7561C25.6179 28.9103 25.0506 28.933 24.5018 28.8225C23.953 28.712 23.4387 28.4715 23.0021 28.1211C22.893 28.8965 22.6175 29.6391 22.1946 30.298C21.7717 30.9569 21.2113 31.5166 20.5518 31.9387C19.8924 32.3608 19.1495 32.6354 18.374 32.7435C17.5985 32.8516 16.8088 32.7908 16.0591 32.5651C15.1122 32.2516 14.2869 31.6504 13.6982 30.8453C13.1095 30.0402 12.7868 29.0714 12.7751 28.0741C12.7889 27.7116 12.8646 27.3541 12.9991 27.0171C12.6883 26.8627 12.4154 26.6419 12.1995 26.3702C11.9837 26.0985 11.8302 25.7827 11.7501 25.4452C11.6502 24.9211 11.691 24.3799 11.8684 23.8768C12.0459 23.3737 12.3535 22.9266 12.7601 22.5811C12.2554 22.1931 11.8619 21.6787 11.6194 21.09C11.377 20.5013 11.2941 19.8591 11.3791 19.2281C11.5045 18.3431 11.8472 17.503 12.3767 16.7828C12.9061 16.0626 13.6058 15.4849 14.4131 15.1011C16.3071 14.2671 19.8851 13.8011 21.3811 15.6341C21.8303 15.3486 22.3467 15.1862 22.8785 15.1632C23.4103 15.1402 23.9389 15.2574 24.4111 15.5031C24.9433 15.7158 25.3919 16.096 25.689 16.5861C25.9862 17.0763 26.1157 17.6499 26.0581 18.2201C28.1261 17.8961 30.3021 18.7441 30.7321 21.1601C30.8923 21.9091 30.8076 22.6896 30.4905 23.3867C30.1735 24.0839 29.6408 24.6607 28.9711 25.0321V25.0271ZM48.4601 23.9341C47.8744 24.5282 47.1468 24.963 46.3461 25.1971C45.8806 25.3004 45.3992 25.3099 44.93 25.2253C44.4608 25.1406 44.0131 24.9635 43.6131 24.7041C43.8751 25.4799 43.9034 26.3155 43.6945 27.1072C43.4856 27.8988 43.0487 28.6117 42.4381 29.1571C40.4171 31.0001 37.2081 31.8971 34.7721 30.2441C34.2195 29.8805 33.7451 29.4101 33.3767 28.8606C33.0084 28.3111 32.7535 27.6936 32.627 27.0442C32.5005 26.3949 32.505 25.7269 32.6401 25.0793C32.7753 24.4317 33.0384 23.8177 33.4141 23.2731C32.2837 22.4382 31.5159 21.2024 31.2681 19.8192C31.1097 18.7845 31.3568 17.7286 31.9578 16.8717C32.5588 16.0147 33.4673 15.4227 34.4941 15.2191C34.3715 14.4451 34.4158 13.6537 34.6239 12.8982C34.8321 12.1426 35.1994 11.4402 35.7011 10.8381C36.1161 10.3365 36.6553 9.95254 37.2651 9.72443C37.8748 9.49632 38.5337 9.43209 39.1761 9.53815C39.6631 9.61055 40.1251 9.80092 40.5218 10.0927C40.9185 10.3844 41.2379 10.7688 41.4521 11.2121C41.547 11.1098 41.6472 11.0123 41.7521 10.9201C41.1452 10.0856 40.8157 9.08151 40.8102 8.04964C40.8046 7.01777 41.1232 6.01021 41.7211 5.16915C42.5626 4.00037 43.7474 3.12293 45.1108 2.65891C46.4742 2.19489 47.9483 2.16736 49.3281 2.58014C51.7061 3.36115 53.4351 6.11515 52.5571 8.57215C52.0777 9.89103 51.1913 11.0233 50.0261 11.8051C50.2448 12.3742 50.3391 12.9836 50.3025 13.5921C50.2659 14.2007 50.0994 14.7944 49.8141 15.3332C49.7691 15.4232 49.7211 15.5121 49.6721 15.6011C50.512 15.2963 51.4072 15.1739 52.2981 15.2421C53.4145 15.298 54.4664 15.7825 55.2345 16.5948C56.0026 17.407 56.4276 18.4843 56.4211 19.6021C56.2621 23.1981 51.2431 25.7301 48.4611 23.9381L48.4601 23.9341Z" fill="#AAAAAA"/>
</g>
<g style="mix-blend-mode:multiply" opacity="0.3">
<path d="M14.5301 14.7939C16.0949 13.862 17.9343 13.5012 19.7351 13.7729C20.4761 13.9659 21.1484 14.3621 21.6761 14.9169C23.3321 13.1919 26.1761 12.0639 28.2471 13.4519C28.3271 13.5059 28.3991 13.5639 28.4721 13.6209C28.6983 13.169 29.0276 12.7765 29.4334 12.4753C29.8392 12.1741 30.3101 11.9725 30.8081 11.8869C31.3546 11.7947 31.9151 11.8319 32.4446 11.9955C32.9741 12.1591 33.4579 12.4445 33.8571 12.8289C33.9379 12.3343 34.1047 11.8578 34.3501 11.4209C34.7098 10.8183 35.193 10.2987 35.7681 9.89645C36.3431 9.49416 36.9968 9.21824 37.6861 9.08689C38.2998 8.9597 38.9255 8.89968 39.5521 8.90789C39.2781 6.79689 41.2581 4.49589 42.8521 3.40789C44.2879 2.45949 45.9531 1.91616 47.6719 1.8352C49.3907 1.75423 51.0996 2.13865 52.6181 2.94789C53.737 3.64705 54.6475 4.63389 55.2546 5.80528C55.8617 6.97667 56.143 8.2896 56.0691 9.60689C56.0465 10.948 55.7102 12.2651 55.0871 13.4529C54.7678 14.0474 54.3928 14.6102 53.9671 15.1339C54.9994 15.3473 55.9415 15.8719 56.6666 16.6369C57.3918 17.4019 57.8652 18.3707 58.0231 19.4129C58.1784 18.8257 58.1717 18.2074 58.0037 17.6237C57.8357 17.04 57.5128 16.5127 57.0691 16.0979C56.4982 15.5533 55.8058 15.1525 55.0491 14.9289C55.2561 14.6009 55.4491 14.2779 55.6221 13.9659C57.6621 10.2969 57.4721 5.19289 54.1791 2.33989C49.5991 -1.62711 38.2891 0.834887 38.9281 8.42389C38.6708 8.44255 38.4041 8.47022 38.1281 8.50689C36.3096 8.87293 34.685 9.88452 33.5541 11.3549C33.0744 11.054 32.5238 10.885 31.9578 10.8652C31.3919 10.8454 30.8307 10.9753 30.3311 11.2419C29.7278 11.55 29.2085 12.0003 28.8181 12.5539C26.8291 11.6269 23.3101 12.6479 21.9051 14.3899C21.2406 13.9877 20.5225 13.6816 19.7721 13.4809C18.5839 13.2214 17.3552 13.2073 16.1613 13.4395C14.9675 13.6716 13.8336 14.1451 12.8291 14.8309C11.9987 15.3818 11.2944 16.1024 10.7626 16.9453C10.2309 17.7882 9.88375 18.7341 9.74414 19.7209C10.7062 17.564 12.4021 15.8182 14.5301 14.7939Z" fill="#AAAAAA"/>
</g>
<g style="mix-blend-mode:screen" opacity="0.4">
<path d="M24.1758 20.8475C23.3972 20.5645 22.5583 20.4894 21.7418 20.6295C21.9356 20.2268 22.0079 19.7764 21.9498 19.3333C21.8917 18.8902 21.7058 18.4736 21.4148 18.1345C20.3968 16.9525 18.3378 16.9555 16.9838 17.3665C16.0997 17.633 15.3187 18.1644 14.7464 18.8891C14.1742 19.6138 13.8381 20.4967 13.7838 21.4185C13.7448 21.8614 13.8275 22.3065 14.0229 22.7059C14.2183 23.1052 14.5191 23.4436 14.8928 23.6845C14.6037 24.1274 14.4929 24.6633 14.5828 25.1845C14.6215 25.5093 14.7407 25.8193 14.9297 26.0864C15.1187 26.3534 15.3714 26.569 15.6648 26.7135C15.2292 27.1186 14.8961 27.6214 14.6928 28.1805C14.1438 29.7175 15.8399 30.8045 17.1189 30.9895C17.9485 31.0334 18.7739 30.8434 19.5009 30.4412C20.2278 30.039 20.8273 29.4407 21.2309 28.7145C21.5418 28.1254 21.6928 27.4651 21.6688 26.7995C22.4434 26.8605 23.2191 26.6966 23.9028 26.3274C24.5864 25.9583 25.149 25.3996 25.5228 24.7185C25.6904 24.3762 25.7884 24.0041 25.8113 23.6237C25.8342 23.2433 25.7815 22.8621 25.6563 22.5022C25.531 22.1423 25.3357 21.8107 25.0816 21.5267C24.8275 21.2427 24.5197 21.0119 24.1758 20.8475Z" fill="#AAAAAA"/>
</g>
<g style="mix-blend-mode:screen" opacity="0.4">
<path d="M54.1857 17.7346C53.4479 16.8766 52.4109 16.332 51.2857 16.2116C49.9937 16.0478 48.6889 16.3963 47.6507 17.1826C47.6447 17.1486 47.6437 17.1146 47.6367 17.0826C47.2167 15.0746 45.4107 14.2596 43.4997 14.5506C43.3413 14.5752 43.1844 14.6086 43.0297 14.6506C42.8944 13.8423 42.4902 13.1034 41.8825 12.5535C41.2749 12.0036 40.4994 11.6749 39.6817 11.6206C39.1384 11.5342 38.5822 11.5832 38.0622 11.763C37.5423 11.9428 37.0748 12.2481 36.7009 12.6517C36.3271 13.0553 36.0585 13.5448 35.9189 14.077C35.7793 14.6091 35.7731 15.1674 35.9007 15.7026C35.2327 15.8502 34.6041 16.1393 34.0574 16.5506C33.5108 16.9619 33.0587 17.4857 32.7317 18.0866C32.3876 18.7249 32.2762 19.4631 32.4165 20.1746C32.5568 20.886 32.9401 21.5266 33.5007 21.9866C33.7853 22.2019 34.1009 22.3729 34.4367 22.4936C34.3459 22.6247 34.265 22.7624 34.1947 22.9056C33.9292 23.4068 33.7776 23.9604 33.7507 24.5269C33.7238 25.0934 33.8223 25.6589 34.0391 26.183C34.2559 26.7071 34.5857 27.1769 35.005 27.5588C35.4243 27.9408 35.9227 28.2255 36.4647 28.3926C37.3664 28.6606 38.3227 28.6861 39.2374 28.4667C40.1521 28.2472 40.9927 27.7906 41.6747 27.1427C42.3566 26.4948 42.8557 25.6787 43.1217 24.7764C43.3877 23.8742 43.4112 22.9178 43.1897 22.0036C43.8165 21.8467 44.4249 21.6238 45.0047 21.3386C45.3018 21.1871 45.5832 21.0066 45.8447 20.7996C46.1118 21.2478 46.4655 21.6383 46.8851 21.9484C47.3047 22.2584 47.7819 22.4819 48.2887 22.6056C50.3887 23.1196 53.1117 22.5716 54.0097 20.3756C54.3507 19.5516 54.8127 18.5666 54.1857 17.7346Z" fill="#AAAAAA"/>
</g>
<g style="mix-blend-mode:screen" opacity="0.4">
<path d="M50.539 5.95617C50.3987 5.37336 50.0791 4.84924 49.6252 4.45762C49.1714 4.066 48.6061 3.82662 48.009 3.77317C46.8797 3.65836 45.7505 3.99202 44.865 4.70217C44.3686 4.89864 43.9186 5.19635 43.5436 5.57633C43.1686 5.95631 42.8769 6.41023 42.687 6.90918C41.587 9.57018 43.996 11.2472 46.424 10.9282C47.6212 10.7958 48.7199 10.203 49.4879 9.27507C50.2558 8.34718 50.6328 7.15698 50.539 5.95617Z" fill="#AAAAAA"/>
</g>
<path d="M49.6322 35.5906C49.3835 35.1137 49.0254 34.7025 48.5872 34.3906C48.7942 34.2256 48.9872 34.0596 49.1712 33.8966C51.2972 31.9816 52.3022 28.6466 50.8092 26.0796C48.7322 22.5076 40.8922 21.5946 39.6272 26.6326C39.4565 26.588 39.2792 26.5466 39.0952 26.5086C37.8414 26.3431 36.5701 26.6368 35.5162 27.3356C35.2728 27.0358 34.9547 26.8053 34.594 26.6673C34.2332 26.5293 33.8425 26.4887 33.4612 26.5496C33.0039 26.6153 32.5695 26.791 32.1952 27.0616C31.4981 26.5542 30.6725 26.2529 29.8125 26.1921C28.9525 26.1313 28.0927 26.3134 27.3311 26.7176C26.9908 26.3118 26.5953 25.9557 26.1562 25.6596C25.447 25.2297 24.6575 24.9491 23.8361 24.8349C23.0147 24.7208 22.1787 24.7754 21.3791 24.9956C20.6677 25.1796 20.0078 25.5241 19.4501 26.0027C18.8925 26.4813 18.4519 27.0813 18.1622 27.7566C17.9889 28.152 17.9084 28.5817 17.9268 29.0129C17.9452 29.4442 18.0619 29.8655 18.2682 30.2446C18.0527 30.3278 17.8432 30.4257 17.6412 30.5376C17.3629 30.7587 17.133 31.0345 16.9658 31.3481C16.7985 31.6617 16.6976 32.0064 16.6692 32.3606C16.1201 32.5287 15.6473 32.8841 15.3332 33.3649C15.0191 33.8456 14.8836 34.4213 14.9501 34.9916C14.9854 35.2558 15.0899 35.506 15.2531 35.7167C15.4162 35.9275 15.6322 36.0913 15.8791 36.1916C15.6428 36.4886 15.5261 36.8633 15.5522 37.242C15.5783 37.6207 15.7453 37.9759 16.0202 38.2376C16.4953 38.5712 17.0564 38.7612 17.6365 38.7849C18.2166 38.8087 18.7913 38.6652 19.2922 38.3716C19.7263 38.7707 20.262 39.0424 20.8404 39.1569C21.4189 39.2714 22.0177 39.2243 22.5712 39.0206C23.3719 38.7956 24.0823 38.326 24.6031 37.6776C25.2722 38.3325 26.0867 38.8197 26.9801 39.0996C28.2201 39.4756 29.5448 39.4676 30.7802 39.0766C30.7692 41.3966 33.2321 43.6926 35.7061 43.8156C36.5645 43.9148 37.4331 43.7604 38.2047 43.3716C38.9763 42.9828 39.6172 42.3765 40.0482 41.6276C40.3153 41.1264 40.5201 40.5945 40.6582 40.0436C41.3301 40.3382 42.04 40.5371 42.7672 40.6346C44.5363 40.9654 46.3647 40.5965 47.8672 39.6056C49.1852 38.6726 50.4782 37.2276 49.6322 35.5906Z" fill="#AAAAAA"/>
<g style="mix-blend-mode:multiply" opacity="0.5">
<path d="M49.6322 35.5906C49.3835 35.1137 49.0254 34.7025 48.5872 34.3906C48.7942 34.2256 48.9872 34.0596 49.1712 33.8966C51.2972 31.9816 52.3022 28.6466 50.8092 26.0796C48.7322 22.5076 40.8922 21.5946 39.6272 26.6326C39.4565 26.588 39.2792 26.5466 39.0952 26.5086C37.8414 26.3431 36.5701 26.6368 35.5162 27.3356C35.2728 27.0358 34.9547 26.8053 34.594 26.6673C34.2332 26.5293 33.8425 26.4887 33.4612 26.5496C33.0039 26.6153 32.5695 26.791 32.1952 27.0616C31.4981 26.5542 30.6725 26.2529 29.8125 26.1921C28.9525 26.1313 28.0927 26.3134 27.3311 26.7176C26.9908 26.3118 26.5953 25.9557 26.1562 25.6596C25.447 25.2297 24.6575 24.9491 23.8361 24.8349C23.0147 24.7208 22.1787 24.7754 21.3791 24.9956C20.6677 25.1796 20.0078 25.5241 19.4501 26.0027C18.8925 26.4813 18.4519 27.0813 18.1622 27.7566C17.9889 28.152 17.9084 28.5817 17.9268 29.0129C17.9452 29.4442 18.0619 29.8655 18.2682 30.2446C18.0527 30.3278 17.8432 30.4257 17.6412 30.5376C17.3629 30.7587 17.133 31.0345 16.9658 31.3481C16.7985 31.6617 16.6976 32.0064 16.6692 32.3606C16.1201 32.5287 15.6473 32.8841 15.3332 33.3649C15.0191 33.8456 14.8836 34.4213 14.9501 34.9916C14.9854 35.2558 15.0899 35.506 15.2531 35.7167C15.4162 35.9275 15.6322 36.0913 15.8791 36.1916C15.6428 36.4886 15.5261 36.8633 15.5522 37.242C15.5783 37.6207 15.7453 37.9759 16.0202 38.2376C16.4953 38.5712 17.0564 38.7612 17.6365 38.7849C18.2166 38.8087 18.7913 38.6652 19.2922 38.3716C19.7263 38.7707 20.262 39.0424 20.8404 39.1569C21.4189 39.2714 22.0177 39.2243 22.5712 39.0206C23.3719 38.7956 24.0823 38.326 24.6031 37.6776C25.2722 38.3325 26.0867 38.8197 26.9801 39.0996C28.2201 39.4756 29.5448 39.4676 30.7802 39.0766C30.7692 41.3966 33.2321 43.6926 35.7061 43.8156C36.5645 43.9148 37.4331 43.7604 38.2047 43.3716C38.9763 42.9828 39.6172 42.3765 40.0482 41.6276C40.3153 41.1264 40.5201 40.5945 40.6582 40.0436C41.3301 40.3382 42.04 40.5371 42.7672 40.6346C44.5363 40.9654 46.3647 40.5965 47.8672 39.6056C49.1852 38.6726 50.4782 37.2276 49.6322 35.5906ZM29.5321 35.1456C29.382 35.1696 29.2302 35.181 29.0782 35.1796C29.0061 35.6953 28.7393 36.1638 28.3325 36.4889C27.9258 36.814 27.41 36.971 26.8912 36.9276C26.5101 36.9079 26.1392 36.7973 25.8097 36.6048C25.4802 36.4124 25.2016 36.1438 24.9971 35.8216C24.7551 36.2975 24.4131 36.7155 23.9945 37.0469C23.5759 37.3783 23.0906 37.6154 22.5719 37.7418C22.0532 37.8682 21.5132 37.881 20.9891 37.7793C20.465 37.6776 19.969 37.4638 19.5352 37.1526C18.9942 36.7407 18.5952 36.1703 18.3936 35.521C18.1919 34.8716 18.1977 34.1755 18.4102 33.5296C18.4996 33.2989 18.6278 33.0852 18.7892 32.8976C18.6229 32.7293 18.4958 32.5265 18.4166 32.3036C18.3375 32.0807 18.3083 31.8431 18.3311 31.6076C18.3828 31.2478 18.5288 30.9081 18.7543 30.623C18.9798 30.3379 19.2769 30.1177 19.6152 29.9846C19.3752 29.6228 19.235 29.2041 19.2086 28.7708C19.1823 28.3374 19.2708 27.9048 19.4651 27.5166C19.7417 26.9735 20.1485 26.5074 20.6491 26.1598C21.1497 25.8122 21.7286 25.594 22.3342 25.5246C23.7412 25.4056 26.1512 25.8966 26.7102 27.4086C27.0634 27.3237 27.4327 27.3332 27.7811 27.436C28.1295 27.5389 28.4447 27.7315 28.6952 27.9946C28.9912 28.2495 29.1963 28.5938 29.2795 28.9755C29.3626 29.3573 29.3194 29.7557 29.1562 30.1106C29.5081 30.1365 29.851 30.2344 30.1636 30.3981C30.4762 30.5618 30.7518 30.7879 30.9735 31.0625C31.1952 31.3371 31.3582 31.6542 31.4524 31.9943C31.5466 32.3344 31.57 32.6901 31.5211 33.0396C31.4582 33.5574 31.2308 34.0412 30.8725 34.4202C30.5141 34.7991 30.0436 35.053 29.5302 35.1446L29.5321 35.1456ZM42.3452 38.7456C41.836 38.9995 41.2704 39.119 40.7021 39.0926C40.3792 39.0563 40.0668 38.9561 39.783 38.7978C39.4992 38.6395 39.2497 38.4263 39.0491 38.1706C39.0463 38.729 38.8796 39.2742 38.5698 39.7387C38.2599 40.2032 37.8206 40.5665 37.3062 40.7836C36.4538 41.2144 35.4828 41.3506 34.5449 41.1709C33.6069 40.9913 32.755 40.5059 32.1221 39.7906C31.8456 39.4338 31.6432 39.0252 31.5268 38.589C31.4104 38.1527 31.3824 37.6976 31.4445 37.2504C31.5065 36.8032 31.6573 36.3729 31.8881 35.9848C32.1188 35.5967 32.4249 35.2587 32.7881 34.9906C32.2434 34.2032 32.0212 33.2369 32.1672 32.2906C32.2937 31.5878 32.6867 30.9609 33.2644 30.5409C33.842 30.1209 34.5595 29.9403 35.2672 30.0366C35.3592 29.5102 35.5627 29.0096 35.864 28.5683C36.1653 28.1269 36.5574 27.7551 37.0141 27.4776C37.3927 27.2455 37.8254 27.1165 38.2693 27.1035C38.7132 27.0905 39.1527 27.194 39.5442 27.4036C39.8427 27.5578 40.099 27.7826 40.2907 28.0585C40.4825 28.3345 40.6038 28.6531 40.6441 28.9866C40.7281 28.9426 40.8145 28.902 40.9032 28.8646C40.6961 28.1923 40.7055 27.4718 40.93 26.8051C41.1544 26.1383 41.5827 25.5589 42.1542 25.1486C42.9553 24.5812 43.9133 24.2774 44.8951 24.2795C45.8768 24.2817 46.8335 24.5897 47.6322 25.1606C48.3266 25.6774 48.7935 26.4433 48.9349 27.2972C49.0763 28.1512 48.881 29.0267 48.3902 29.7396C47.7894 30.4843 46.9675 31.0187 46.0432 31.2656C46.0589 31.6813 45.9851 32.0954 45.8267 32.48C45.6683 32.8646 45.4291 33.2107 45.1252 33.4946C45.0772 33.5426 45.0252 33.5946 44.9742 33.6356C45.5838 33.6254 46.1887 33.7444 46.7491 33.9846C47.4566 34.2679 48.0275 34.8132 48.3431 35.5069C48.6586 36.2005 48.6945 36.9892 48.4431 37.7086C47.5381 39.9956 43.7422 40.5186 42.3432 38.7486L42.3452 38.7456Z" fill="#AAAAAA"/>
</g>
<g style="mix-blend-mode:multiply" opacity="0.3">
<path d="M22.4786 25.3495C23.6938 25.0932 24.9602 25.2667 26.0616 25.8405C26.4976 26.1283 26.8441 26.5326 27.0616 27.0075C28.5116 26.2605 30.5936 26.1615 31.6246 27.5155C31.6636 27.5675 31.6976 27.6155 31.7316 27.6735C31.9778 27.4324 32.2772 27.2525 32.6057 27.1483C32.9341 27.0441 33.2825 27.0185 33.6226 27.0735C33.9954 27.1348 34.3486 27.2826 34.6539 27.5051C34.9592 27.7276 35.2081 28.0185 35.3806 28.3545C35.5415 28.0529 35.7544 27.782 36.0096 27.5545C36.3746 27.2453 36.8011 27.0169 37.2608 26.8846C37.7205 26.7522 38.2031 26.7188 38.6766 26.7865C39.1006 26.8412 39.5174 26.9418 39.9196 27.0865C40.2116 25.6635 41.9966 24.6185 43.2676 24.2665C44.4032 23.9721 45.5973 23.9897 46.7237 24.3174C47.8501 24.6452 48.8672 25.2709 49.6676 26.1285C50.2344 26.8269 50.6032 27.6646 50.7355 28.5542C50.8678 29.4437 50.7587 30.3525 50.4196 31.1855C50.1097 32.0461 49.6017 32.8217 48.9366 33.4495C48.5996 33.7629 48.2333 34.0432 47.8426 34.2865C48.4614 34.6523 48.9533 35.1989 49.2519 35.8528C49.5505 36.5067 49.6415 37.2364 49.5126 37.9435C49.7425 37.5991 49.8748 37.1989 49.8956 36.7853C49.9164 36.3717 49.8248 35.9603 49.6306 35.5945C49.3819 35.1176 49.0238 34.7064 48.5856 34.3945C48.7926 34.2295 48.9856 34.0635 49.1696 33.9005C51.2956 31.9855 52.3006 28.6505 50.8076 26.0835C48.7306 22.5115 40.8906 21.5985 39.6256 26.6365C39.455 26.5919 39.2776 26.5505 39.0936 26.5125C37.8399 26.347 36.5686 26.6407 35.5146 27.3395C35.2712 27.0397 34.9532 26.8092 34.5925 26.6712C34.2317 26.5332 33.841 26.4926 33.4596 26.5535C33.0024 26.6192 32.568 26.7949 32.1936 27.0655C31.4966 26.5581 30.671 26.2569 29.811 26.196C28.9509 26.1352 28.0912 26.3173 27.3296 26.7215C26.9893 26.3157 26.5938 25.9596 26.1546 25.6635C25.4455 25.2337 24.656 24.953 23.8346 24.8389C23.0132 24.7247 22.1772 24.7794 21.3776 24.9995C20.7203 25.1715 20.1068 25.4807 19.5775 25.9068C19.0482 26.3328 18.6151 26.8661 18.3066 27.4715C19.4024 26.2928 20.8807 25.5409 22.4786 25.3495Z" fill="#AAAAAA"/>
</g>
<g style="mix-blend-mode:screen" opacity="0.4">
<path d="M27.3624 31.386C26.9222 31.032 26.3978 30.798 25.8404 30.707C26.054 30.49 26.2 30.2155 26.2605 29.9171C26.3211 29.6187 26.2936 29.3091 26.1814 29.026C25.9048 28.5635 25.5099 28.183 25.0375 27.9238C24.565 27.6645 24.032 27.5358 23.4934 27.551C22.8642 27.5276 22.2431 27.6979 21.7139 28.0389C21.1847 28.38 20.7729 28.8753 20.5344 29.458C20.411 29.735 20.3658 30.0404 20.4035 30.3413C20.4412 30.6421 20.5605 30.927 20.7484 31.165C20.4642 31.3872 20.2745 31.7087 20.2174 32.065C20.1704 32.283 20.1787 32.5093 20.2415 32.7232C20.3044 32.9372 20.4199 33.132 20.5774 33.29C20.2065 33.4551 19.8802 33.706 19.6254 34.022C18.9324 34.892 19.7864 35.968 20.5694 36.369C21.0949 36.5809 21.6694 36.6409 22.2273 36.5423C22.7853 36.4436 23.3044 36.1902 23.7254 35.8109C24.0538 35.4991 24.2951 35.1068 24.4254 34.673C24.9116 34.8834 25.4482 34.949 25.9708 34.8619C26.4933 34.7748 26.9797 34.5387 27.3714 34.182C27.5556 33.9984 27.7016 33.7803 27.8009 33.54C27.9003 33.2997 27.951 33.0421 27.9501 32.7821C27.9493 32.5221 27.8969 32.2648 27.796 32.0252C27.6951 31.7855 27.5478 31.5683 27.3624 31.386Z" fill="#AAAAAA"/>
</g>
<g style="mix-blend-mode:screen" opacity="0.4">
<path d="M47.4114 36.0136C47.1257 35.297 46.5779 34.716 45.8794 34.3886C45.0817 33.9984 44.1632 33.9349 43.3194 34.2116C43.3194 34.1886 43.3304 34.1666 43.3334 34.1436C43.3676 33.8369 43.3397 33.5264 43.2514 33.2307C43.1631 32.9349 43.0162 32.66 42.8194 32.4222C42.6226 32.1845 42.38 31.9888 42.1059 31.8467C41.8319 31.7047 41.5321 31.6193 41.2244 31.5956C41.1161 31.578 41.007 31.566 40.8974 31.5596C40.9891 31.0084 40.892 30.4425 40.622 29.9534C40.3519 29.4643 39.9247 29.0806 39.4094 28.8646C38.9175 28.638 38.3641 28.5814 37.8365 28.7036C37.3088 28.8258 36.8367 29.1199 36.4944 29.5396C36.2598 29.8716 36.113 30.2576 36.0674 30.6616C35.6039 30.609 35.1346 30.6566 34.6911 30.801C34.2475 30.9454 33.8401 31.1833 33.4964 31.4986C33.1335 31.8345 32.8987 32.2861 32.8321 32.7761C32.7655 33.2661 32.8713 33.764 33.1314 34.1846C33.2674 34.3862 33.4333 34.5659 33.6234 34.7176C33.5358 34.7822 33.4529 34.8531 33.3754 34.9296C33.0935 35.1942 32.8734 35.5179 32.7308 35.8774C32.5883 36.2369 32.5269 36.6234 32.551 37.0094C32.5751 37.3953 32.684 37.7712 32.8701 38.1102C33.0562 38.4492 33.3148 38.743 33.6274 38.9706C34.1499 39.3425 34.7611 39.5702 35.3995 39.6308C36.0379 39.6914 36.6811 39.5826 37.2641 39.3156C37.8472 39.0486 38.3496 38.6326 38.7208 38.1096C39.0919 37.5866 39.3188 36.9751 39.3784 36.3366C39.8171 36.3738 40.2586 36.3647 40.6954 36.3096C40.9202 36.2774 41.1413 36.2231 41.3554 36.1476C41.4289 36.4949 41.5709 36.8241 41.7729 37.116C41.975 37.4078 42.2332 37.6565 42.5324 37.8476C43.7734 38.6476 45.6514 38.8926 46.7144 37.6746C47.1114 37.2206 47.6274 36.6876 47.4114 36.0136Z" fill="#AAAAAA"/>
</g>
<g style="mix-blend-mode:screen" opacity="0.4">
<path d="M47.6589 27.6088C47.6963 27.2023 47.6056 26.7943 47.3993 26.442C47.1931 26.0898 46.8817 25.811 46.5089 25.6448C45.8061 25.3197 45.0039 25.2838 44.2749 25.5447C43.9113 25.562 43.5553 25.6546 43.2294 25.8168C42.9035 25.979 42.6149 26.2071 42.3819 26.4867C41.0819 27.9587 42.2679 29.5747 43.9049 29.9047C44.7063 30.0845 45.5461 29.9454 46.2468 29.5169C46.9474 29.0884 47.4539 28.4041 47.6589 27.6088Z" fill="#AAAAAA"/>
</g>
</svg>
