<svg width="166" height="76" viewBox="0 0 166 76" fill="none" xmlns="http://www.w3.org/2000/svg">
<path d="M128.65 75.6559C108.592 75.6559 93.0499 58.819 78.02 42.5324C64.3527 27.7313 51.4462 13.7556 37.35 13.7556C24.3813 13.7556 13.8333 24.5538 13.8333 37.8279C13.8333 51.1021 24.3813 61.9003 37.35 61.9003C45.5186 61.9003 53.9915 57.2577 64.8438 46.8516C67.5966 44.2174 71.9748 44.2931 74.6239 47.0236C77.273 49.754 77.1969 54.1077 74.451 56.7488C65.2726 65.5524 52.7603 75.6559 37.35 75.6559C16.7522 75.6559 0 58.6814 0 37.8279C0 16.9675 16.7522 0 37.35 0C55.2434 0 69.5332 13.2879 83.0553 27.69C96.5636 13.3017 110.819 0 128.65 0C149.248 0 166 16.9675 166 37.8279C166 58.6814 149.241 75.6559 128.65 75.6559ZM92.462 37.8279C104.518 50.7444 116.138 61.9003 128.643 61.9003C141.612 61.9003 152.16 51.1021 152.16 37.8279C152.16 24.5538 141.619 13.7556 128.65 13.7556C116.138 13.7556 104.518 24.9183 92.462 37.8279Z" fill="url(#paint0_linear)"/>
<defs>
<linearGradient id="paint0_linear" x1="83" y1="0" x2="83" y2="75.6559" gradientUnits="userSpaceOnUse">
<stop stop-color="#43B49F"/>
<stop offset="1" stop-color="#562DF8" stop-opacity="0.89"/>
</linearGradient>
</defs>
</svg>
