<svg width="51" height="68" viewBox="0 0 51 68" fill="none" xmlns="http://www.w3.org/2000/svg">
<path d="M1.73331 68H15.8241V51.7927C15.8241 51.04 16.599 50.4315 17.5574 50.4315H33.4426C34.401 50.4315 35.1759 51.04 35.1759 51.7927V67.984H49.2667C50.2251 67.984 51 67.3914 51 66.6227V1.36128C51 0.608572 50.2251 0 49.2667 0H1.73331C0.774889 0 0 0.608572 0 1.36128V66.6387C0 67.3914 0.774889 68 1.73331 68ZM10.563 9.17664H40.437C41.3954 9.17664 42.1703 9.78521 42.1703 10.5379C42.1703 11.3066 41.3954 11.8992 40.437 11.8992H10.563C9.60456 11.8992 8.82967 11.3066 8.82967 10.5379C8.82967 9.80122 9.60456 9.17664 10.563 9.17664ZM10.563 19.8907H40.437C41.3954 19.8907 42.1703 20.4833 42.1703 21.252C42.1703 22.0047 41.3954 22.6133 40.437 22.6133H10.563C9.60456 22.6133 8.82967 22.0047 8.82967 21.252C8.82967 20.4833 9.60456 19.8907 10.563 19.8907ZM10.563 30.5728H40.437C41.3954 30.5728 42.1703 31.1653 42.1703 31.9341C42.1703 32.6868 41.3954 33.2953 40.437 33.2953H10.563C9.60456 33.2953 8.82967 32.6868 8.82967 31.9341C8.82967 31.1653 9.60456 30.5728 10.563 30.5728ZM10.563 41.2548H40.437C41.3954 41.2548 42.1703 41.8634 42.1703 42.6161C42.1703 43.3688 41.3954 43.9774 40.437 43.9774H10.563C9.60456 43.9774 8.82967 43.3688 8.82967 42.6161C8.82967 41.8634 9.60456 41.2548 10.563 41.2548Z" fill="white"/>
</svg>
