<svg width="71" height="65" viewBox="0 0 71 65" fill="none" xmlns="http://www.w3.org/2000/svg">
<path d="M55.2378 11.973C55.0423 11.973 54.8489 11.978 54.6568 11.9857C51.4306 4.77602 43.7399 0 35.1873 0C24.3043 0 15.2394 7.70353 14.2458 17.4624C13.757 17.4078 13.2848 17.3812 12.8224 17.3812C5.7521 17.3812 0 22.6472 0 29.1205C0 35.5863 5.7521 40.8459 12.8224 40.8459H19.6915V60.935C19.6915 63.177 21.6827 65 24.1303 65H46.869C49.3173 65 51.3092 63.177 51.3092 60.935V40.8459H55.2378C63.9291 40.8459 71 34.3726 71 26.4164C71 18.4526 63.9291 11.973 55.2378 11.973ZM22.5315 39.5615C22.5316 39.5561 22.5349 39.5515 22.5349 39.5459C22.5349 39.5404 22.5316 39.5358 22.5315 39.5303V30.6579H48.4693V39.5239C48.4692 39.5317 48.4645 39.5381 48.4645 39.5459C48.4645 39.5537 48.4692 39.5602 48.4693 39.568V56.2251H22.5315V39.5615ZM48.4693 28.0579H22.5315V25.948C22.5315 25.1405 23.2484 24.483 24.1303 24.483H46.869C47.7516 24.483 48.4693 25.1405 48.4693 25.948V28.0579ZM46.869 62.4H24.1303C23.2484 62.4 22.5315 61.7425 22.5315 60.935V58.8251H48.4693V60.935C48.4693 61.7425 47.7516 62.4 46.869 62.4ZM55.2378 38.2459H51.3092V25.948C51.3092 23.706 49.3173 21.883 46.869 21.883H24.1303C21.6827 21.883 19.6915 23.706 19.6915 25.948V38.2459H12.8224C7.31774 38.2459 2.84 34.1517 2.84 29.1205C2.84 24.0805 7.31774 19.9812 12.8224 19.9812C13.5732 19.9812 14.3435 20.0725 15.247 20.2707C15.6658 20.3633 16.1089 20.2732 16.4493 20.0319C16.7897 19.7895 16.9915 19.4187 16.9971 19.0239C17.1281 9.96712 25.2882 2.6 35.1873 2.6C42.8996 2.6 49.8026 7.09286 52.3638 13.7808C52.5782 14.3394 53.173 14.6822 53.8303 14.6453C54.2866 14.6098 54.7552 14.573 55.2378 14.573C62.3628 14.573 68.16 19.886 68.16 26.4164C68.16 32.9393 62.3628 38.2459 55.2378 38.2459Z" fill="white"/>
</svg>
