<svg xmlns="http://www.w3.org/2000/svg" width="23.851" height="28.73" viewBox="0 0 23.851 28.73"><defs><style>.a{fill:#b1b1b1;}</style></defs><g transform="translate(-43.481)"><g transform="translate(43.481)"><path class="a" d="M63.548,2.18,60.607.485,57.666,2.18,54.725.485,51.784,2.18,48,0V22.592H43.481v3.036a3.106,3.106,0,0,0,3.1,3.1H64.23a3.106,3.106,0,0,0,3.1-3.1V0ZM46.583,27.046a1.419,1.419,0,0,1-1.417-1.417V24.277H61.128v1.352a3.085,3.085,0,0,0,.343,1.417Zm17.646,0a1.419,1.419,0,0,1-1.417-1.417V22.592H49.685V2.915l2.1,1.209L54.725,2.43l2.941,1.695L60.607,2.43l2.941,1.695,2.1-1.209V25.628h0A1.419,1.419,0,0,1,64.23,27.046Z" transform="translate(-43.481)"/></g><g transform="translate(51.37 7.603)"><rect class="a" width="12.592" height="1.685"/></g><g transform="translate(51.37 10.816)"><rect class="a" width="12.592" height="1.685"/></g><g transform="translate(51.37 14.028)"><rect class="a" width="6.296" height="1.685"/></g></g></svg>