<svg xmlns="http://www.w3.org/2000/svg" width="24.892" height="30.009" viewBox="0 0 24.892 30.009"><defs><style>.a{fill:#b1b1b1;}</style></defs><g transform="translate(-41 0.187)"><ellipse class="a" cx="5" cy="5.5" rx="5" ry="5.5" transform="translate(48 -0.187)"/><path class="a" d="M149.54,181.515a6.644,6.644,0,0,1-7.231,0,10.12,10.12,0,0,0-3.148,1.923l6.764,2.536,6.764-2.536A10.119,10.119,0,0,0,149.54,181.515Z" transform="translate(-92.479 -170.824)"/><path class="a" d="M412.447,310h-.579a.868.868,0,0,0-.868.868v2.316a.868.868,0,0,0,.868.868h.579a2.026,2.026,0,0,0,0-4.052Z" transform="translate(-348.581 -291.871)"/><path class="a" d="M81.374,231.758a.868.868,0,0,0-.374.714v1.933h.289a2.608,2.608,0,0,1,2.6,2.6v2.316a2.608,2.608,0,0,1-2.6,2.605H81v1.83a.868.868,0,0,0,.563.813l8.7,3.262V234.692l-8.089-3.033a.868.868,0,0,0-.8.1Z" transform="translate(-37.684 -218.013)"/><path class="a" d="M277.368,239.326V237.01a2.608,2.608,0,0,1,2.6-2.605h.289v-1.933a.868.868,0,0,0-1.173-.813L271,234.692v13.143l8.7-3.262a.868.868,0,0,0,.563-.813v-1.83h-.289A2.608,2.608,0,0,1,277.368,239.326Z" transform="translate(-216.686 -218.013)"/><path class="a" d="M44.473,313.184v-2.316A.868.868,0,0,0,43.6,310h-.579a2.026,2.026,0,0,0,0,4.052H43.6A.868.868,0,0,0,44.473,313.184Z" transform="translate(0 -291.871)"/></g></svg>