<svg xmlns="http://www.w3.org/2000/svg" width="16.941" height="20.009" viewBox="0 0 16.941 20.009"><defs><style>.a{fill:#b1b1b1;}</style></defs><g transform="translate(-41 -0.313)"><circle class="a" cx="3.5" cy="3.5" r="3.5" transform="translate(46 0.313)"/><path class="a" d="M146.225,181.515a4.522,4.522,0,0,1-4.922,0,6.888,6.888,0,0,0-2.142,1.309l4.6,1.726,4.6-1.726A6.887,6.887,0,0,0,146.225,181.515Z" transform="translate(-94.294 -174.214)"/><path class="a" d="M411.985,310h-.394a.591.591,0,0,0-.591.591v1.576a.591.591,0,0,0,.591.591h.394a1.379,1.379,0,1,0,0-2.758Z" transform="translate(-355.423 -297.637)"/><path class="a" d="M81.254,231.709a.591.591,0,0,0-.254.486v1.316h.2a1.775,1.775,0,0,1,1.773,1.773v1.576a1.775,1.775,0,0,1-1.773,1.773H81v1.245a.591.591,0,0,0,.383.553l5.92,2.22v-8.945L81.8,231.641a.591.591,0,0,0-.544.068Z" transform="translate(-38.424 -222.329)"/><path class="a" d="M275.334,236.859v-1.576a1.775,1.775,0,0,1,1.773-1.773h.2v-1.316a.591.591,0,0,0-.8-.553L271,233.706v8.945l5.92-2.22a.591.591,0,0,0,.383-.553v-1.245h-.2A1.775,1.775,0,0,1,275.334,236.859Z" transform="translate(-220.938 -222.329)"/><path class="a" d="M43.364,312.167v-1.576a.591.591,0,0,0-.591-.591h-.394a1.379,1.379,0,1,0,0,2.758h.394A.591.591,0,0,0,43.364,312.167Z" transform="translate(0 -297.637)"/></g></svg>