<svg xmlns="http://www.w3.org/2000/svg" width="25.914" height="25.914" viewBox="0 0 25.914 25.914"><defs><style>.a{isolation:isolate;}.b{fill:#b1b1b1;}</style></defs><g class="a"><path class="b" d="M9.988,0H1.89A1.892,1.892,0,0,0,0,1.89V6.748a1.892,1.892,0,0,0,1.89,1.89h8.1a1.892,1.892,0,0,0,1.89-1.89V1.89A1.892,1.892,0,0,0,9.988,0Zm0,0"/><path class="b" d="M9.988,213.332H1.89A1.892,1.892,0,0,0,0,215.222v11.337a1.892,1.892,0,0,0,1.89,1.889h8.1a1.892,1.892,0,0,0,1.89-1.889V215.222A1.892,1.892,0,0,0,9.988,213.332Zm0,0" transform="translate(0 -202.535)"/><path class="b" d="M287.32,341.332h-8.1a1.892,1.892,0,0,0-1.89,1.89v4.859a1.892,1.892,0,0,0,1.89,1.889h8.1a1.892,1.892,0,0,0,1.889-1.889v-4.859A1.892,1.892,0,0,0,287.32,341.332Zm0,0" transform="translate(-263.295 -324.056)"/><path class="b" d="M287.32,0h-8.1a1.892,1.892,0,0,0-1.89,1.89V13.227a1.892,1.892,0,0,0,1.89,1.89h8.1a1.892,1.892,0,0,0,1.889-1.89V1.89A1.892,1.892,0,0,0,287.32,0Zm0,0" transform="translate(-263.295)"/></g></svg>