<svg xmlns="http://www.w3.org/2000/svg" width="14.22" height="17.501" viewBox="0 0 14.22 17.501"><defs><style>.a{fill:#707070;}</style></defs><g transform="translate(-48)"><path class="a" d="M60.852,2.188H57.844V1.641A1.641,1.641,0,0,0,56.2,0H54.016a1.641,1.641,0,0,0-1.641,1.641v.547H49.367A1.367,1.367,0,0,0,48,3.555V4.649a.547.547,0,0,0,.547.547H61.673a.547.547,0,0,0,.547-.547V3.555A1.367,1.367,0,0,0,60.852,2.188Zm-7.383-.547a.548.548,0,0,1,.547-.547H56.2a.548.548,0,0,1,.547.547v.547H53.469Z"/><path class="a" d="M73.535,184a.171.171,0,0,0-.171.179l.451,9.47a1.639,1.639,0,0,0,1.639,1.563H83.76a1.639,1.639,0,0,0,1.639-1.563l.451-9.47a.171.171,0,0,0-.171-.179Zm8.26,1.367a.547.547,0,1,1,1.094,0v7.11a.547.547,0,0,1-1.094,0Zm-2.735,0a.547.547,0,1,1,1.094,0v7.11a.547.547,0,0,1-1.094,0Zm-2.735,0a.547.547,0,1,1,1.094,0v7.11a.547.547,0,0,1-1.094,0Z" transform="translate(-24.497 -177.711)"/></g></svg>