<svg xmlns="http://www.w3.org/2000/svg" width="17.295" height="17.295" viewBox="0 0 17.295 17.295"><defs><style>.a,.b{fill:#36f;}.a{opacity:0.4;}</style></defs><path class="a" d="M13.511,72.647h1.081a.54.54,0,0,1,.54.54v4.324a1.621,1.621,0,0,1-1.621,1.621H1.621A1.621,1.621,0,0,1,0,77.511V65.621A1.621,1.621,0,0,1,1.621,64h5.4a.54.54,0,0,1,.54.54v1.081a.54.54,0,0,1-.54.54H2.162V76.971H12.971V73.188A.54.54,0,0,1,13.511,72.647Z" transform="translate(0 -61.838)"/><path class="b" d="M140,7.566h-.6a.946.946,0,0,1-.946-.946V6.594l.064-2.271-8.346,8.408a.811.811,0,0,1-1.145,0l0,0-.809-.806a.811.811,0,0,1,0-1.146l0,0,8.409-8.346-2.27.064a.946.946,0,0,1-.972-.919V.946A.946.946,0,0,1,134.322,0h5.36a1.261,1.261,0,0,1,1.261,1.261v5.36A.946.946,0,0,1,140,7.566Z" transform="translate(-123.648 0)"/></svg>