<svg xmlns="http://www.w3.org/2000/svg" width="19.962" height="19.962" viewBox="0 0 19.962 19.962"><defs><style>.a{fill:#b1b1b1;}</style></defs><path class="a" d="M351.742,246.484a2.242,2.242,0,1,1,2.242-2.242A2.244,2.244,0,0,1,351.742,246.484Z" transform="translate(-335.873 -232.565)"/><path class="a" d="M49.742,246.484a2.242,2.242,0,1,1,2.242-2.242A2.244,2.244,0,0,1,49.742,246.484Z" transform="translate(-45.648 -232.565)"/><path class="a" d="M149.383,1.56A1.928,1.928,0,0,1,147.649.488l-.082-.165A.585.585,0,0,0,147.043,0h-3.119a.585.585,0,0,0-.523.323l-.082.165a1.928,1.928,0,0,1-1.734,1.072.585.585,0,0,0-.585.585V5.482a6.056,6.056,0,0,0,4.316,5.8.584.584,0,0,0,.336,0,6.056,6.056,0,0,0,4.316-5.8V2.144A.585.585,0,0,0,149.383,1.56Zm-1.831,3.4L145.346,7.17a.585.585,0,0,1-.827,0l-1.1-1.1a.585.585,0,0,1,.827-.827l.689.689,1.792-1.792a.585.585,0,1,1,.827.827Z" transform="translate(-135.503)"/><g transform="translate(0 14.105)"><path class="a" d="M329.1,361.762a3.405,3.405,0,0,1-4.786,0,4.1,4.1,0,0,0-.863.839l.321.281a4.485,4.485,0,0,1,1.533,3.372v1.365h4.913a.585.585,0,0,0,.585-.585v-1.949A4.091,4.091,0,0,0,329.1,361.762Z" transform="translate(-310.837 -361.759)"/><path class="a" d="M1.7,361.762A4.091,4.091,0,0,0,0,365.083v1.949a.585.585,0,0,0,.585.585H5.5v-1.365A4.485,4.485,0,0,1,7.03,362.88l.321-.281a4.1,4.1,0,0,0-.863-.839,3.405,3.405,0,0,1-4.786,0Z" transform="translate(0 -361.759)"/><path class="a" d="M176.494,413.07a3.014,3.014,0,0,1-4.361,0A3.306,3.306,0,0,0,171,415.563v1.365h6.628v-1.365A3.306,3.306,0,0,0,176.494,413.07Z" transform="translate(-164.333 -411.069)"/></g><path class="a" d="M210.352,315.7a1.852,1.852,0,1,1,1.852-1.852A1.854,1.854,0,0,1,210.352,315.7Z" transform="translate(-200.371 -299.835)"/></svg>