<svg xmlns="http://www.w3.org/2000/svg" width="18.703" height="18.699" viewBox="0 0 18.703 18.699"><defs><style>.a{fill:#b1b1b1;}</style></defs><g transform="translate(-0.001 -0.049)"><g transform="translate(0.001 0.049)"><g transform="translate(0 0)"><path class="a" d="M17.9,14.088c-1.674-1.674-1.564-1.568-1.611-1.6L11.86,9.214l1.719-1.719a3.836,3.836,0,0,0,4.749-5.265.548.548,0,0,0-.882-.151L16.029,3.5a.548.548,0,0,1-.775-.775L16.671,1.3A.548.548,0,0,0,16.52.422a3.836,3.836,0,0,0-5.265,4.749L9.272,7.153c-.4-.314.129.222-3.672-3.809l.4-.4a.548.548,0,0,0-.105-.857L2.959.329A1.951,1.951,0,0,0,.282,3.005l1.76,2.934a.548.548,0,0,0,.857.105l.376-.376c3.782,4.01,3.284,3.465,3.583,3.85.007.009.015.017.023.026L5.123,11.3A3.836,3.836,0,0,0,.374,16.567a.548.548,0,0,0,.882.151L2.673,15.3a.548.548,0,0,1,.775.775L2.03,17.493a.548.548,0,0,0,.151.882,3.836,3.836,0,0,0,5.265-4.749l1.5-1.5,3.5,4.248c.027.032-.061-.058,1.5,1.506a2.94,2.94,0,0,0,2.07.864,2.621,2.621,0,0,0,1.538-.485A2.741,2.741,0,0,0,17.9,14.088ZM3.686,4.507A.548.548,0,0,0,2.9,4.5l-.279.279-1.4-2.332A.855.855,0,0,1,2.4,1.268l2.332,1.4-.279.279a.548.548,0,0,0-.011.763C8.806,8.341,8.119,7.644,8.491,7.934l-.831.831C7.373,8.4,8.04,9.124,3.686,4.507Zm2.728,8.6a.548.548,0,0,0-.107.623,2.742,2.742,0,0,1-2.86,3.893l.775-.775A1.643,1.643,0,0,0,1.9,14.527l-.775.775a2.74,2.74,0,0,1,3.893-2.86.548.548,0,0,0,.623-.107l6.649-6.648a.548.548,0,0,0,.107-.623,2.74,2.74,0,0,1,2.86-3.893l-.775.775A1.643,1.643,0,0,0,16.8,4.27l.775-.775a2.74,2.74,0,0,1-3.893,2.86.548.548,0,0,0-.623.107Zm3.311-1.761L11.076,10l1.378,1.017L10.808,12.66C9.689,11.3,9.758,11.382,9.724,11.349Zm7.189,6.019A1.723,1.723,0,0,1,14.72,17.1l-1.448-1.448L11.507,13.51l1.838-1.838,2.262,1.67,1.52,1.52A1.644,1.644,0,0,1,16.913,17.368Z" transform="translate(-0.001 -0.049)"/></g></g><g transform="translate(13.217 13.191)"><path class="a" d="M364.918,362.179l-2.191-2.191a.548.548,0,0,0-.775.775l2.191,2.191a.548.548,0,0,0,.775-.775Z" transform="translate(-361.792 -359.827)"/></g></g></svg>