<svg xmlns="http://www.w3.org/2000/svg" width="29.54" height="29.54" viewBox="0 0 29.54 29.54"><defs><style>.a{fill:#b1b1b1;}</style></defs><path class="a" d="M27.234,22.616v-1.2a2.664,2.664,0,0,0-2.661-2.661H13.5a1.153,1.153,0,0,0-.9,1.877l.234.214.02.021a1.148,1.148,0,0,0,.644.2h5.769a1.154,1.154,0,0,1,0,2.308H13.5a3.453,3.453,0,0,1-2.54-1.113L4.3,16.167l-.03-.028a1.154,1.154,0,0,0-1.626,1.637l5.872,5.436.019.018a14.144,14.144,0,0,0,9.887,4h9.965a1.154,1.154,0,0,1,0,2.308H18.423A16.522,16.522,0,0,1,6.94,24.9L1.064,19.456l-.024-.023a3.462,3.462,0,0,1,4.833-4.957l4.449,4.065a3.466,3.466,0,0,1,3.181-2.1h11.07a4.974,4.974,0,0,1,4.969,4.968v1.2a1.154,1.154,0,1,1-2.308,0ZM9.549,4.293l.577-1.053a1.154,1.154,0,0,1,1.34-.552l1.489.441a4.843,4.843,0,0,1,1.093-.668L14.252.994A1.154,1.154,0,0,1,15.395,0h1.178a1.154,1.154,0,0,1,1.136.95l.272,1.511a4.875,4.875,0,0,1,.987.584l1.382-.528a1.154,1.154,0,0,1,1.39.466l.646,1.032a1.154,1.154,0,0,1-.27,1.523l-1.246.969c0,.034,0,.068.007.1s0,.057.006.086c0,.077.006.153.006.23s0,.158-.006.237l1.208.887a1.154,1.154,0,0,1,.361,1.422l-.47,1a1.154,1.154,0,0,1-1.371.615l-1.453-.43a4.822,4.822,0,0,1-1.209.75l-.236,1.475a1.154,1.154,0,0,1-1.139.972H15.457a1.154,1.154,0,0,1-1.136-.95l-.272-1.511a4.864,4.864,0,0,1-1.019-.608l-1.405.506a1.154,1.154,0,0,1-1.4-.52l-.55-.978A1.154,1.154,0,0,1,9.96,8.322l1.2-.97c0-.035,0-.07-.007-.106s0-.06-.006-.091c0-.077-.006-.155-.006-.232s0-.147.006-.22c0-.016,0-.032,0-.049s0-.012,0-.018L9.916,5.8a1.154,1.154,0,0,1-.367-1.512Zm5.78,5.1a2.561,2.561,0,0,0,1.32.015l.024-.007.095-.027.019-.006a2.569,2.569,0,0,0,1.121-.718l.016-.017a2.564,2.564,0,0,0,.6-1.192c.005-.026.01-.053.015-.08s.006-.031.008-.047c.006-.038.011-.076.015-.115,0,0,0-.01,0-.015a2.557,2.557,0,0,0,.014-.266q0-.074,0-.148c0-.014,0-.028,0-.042,0-.036-.006-.071-.01-.107,0-.016,0-.031-.006-.047,0-.034-.01-.068-.016-.1,0-.016-.005-.031-.009-.047-.007-.035-.014-.07-.023-.1a2.566,2.566,0,0,0-.65-1.187c-.026-.027-.053-.053-.08-.079l-.036-.034c-.035-.032-.072-.064-.109-.094l-.05-.039-.074-.055L17.455,4.8q-.056-.038-.114-.073L17.28,4.69l-.073-.04-.066-.034-.094-.043-.084-.035L16.87,4.5l-.061-.021L16.7,4.449a2.561,2.561,0,0,0-3.186,1.9q-.015.067-.027.134v.007c-.008.045-.014.09-.019.135v.011c0,.043-.008.085-.011.128,0,.006,0,.012,0,.018,0,.048,0,.1,0,.142s0,.1,0,.147c0,.014,0,.027,0,.04,0,.036.006.072.01.108,0,.015,0,.03.006.045,0,.035.01.07.016.1,0,.014,0,.029.008.043.007.037.015.073.023.109A2.568,2.568,0,0,0,14.167,8.7l.069.069.048.046c.034.031.068.061.1.09l.057.045L14.509,9l.064.046.08.052.1.058.067.037.071.036.084.039.091.039.1.036.061.021.109.033Zm0,0" transform="translate(-0.003 0)"/></svg>