<svg width="30" height="31" viewBox="0 0 30 31" fill="none" xmlns="http://www.w3.org/2000/svg">
<path d="M28.1464 11.8539V27.5699C28.1509 28.1884 27.9667 28.7937 27.6184 29.3049C27.5064 29.4817 27.3756 29.646 27.2284 29.7949L14.7574 17.3239L14.3174 16.8839L22.9044 8.29688L23.4454 8.63588L27.8454 11.3139C27.9373 11.3709 28.0131 11.4504 28.0658 11.5449C28.1184 11.6394 28.1462 11.7457 28.1464 11.8539Z" fill="#CFD8DC"/>
<path d="M22.9034 8.29555L13.8764 17.3215L1.40538 29.7935C1.25811 29.6447 1.12735 29.4805 1.01538 29.3035C0.667075 28.7923 0.482888 28.1871 0.487385 27.5686V7.45354C0.487385 7.04072 0.568714 6.63193 0.726727 6.25054C0.88474 5.86915 1.11634 5.52263 1.4083 5.23076C1.70026 4.93889 2.04686 4.7074 2.4283 4.54951C2.80975 4.39162 3.21856 4.31042 3.63139 4.31055H16.2024C16.3167 4.31443 16.4286 4.34453 16.5294 4.39854L22.3624 7.95655L22.9034 8.29555Z" fill="#4CAF50"/>
<path d="M27.2283 29.7938C27.0795 29.9411 26.9152 30.0719 26.7383 30.1838C26.2271 30.5322 25.6218 30.7164 25.0033 30.7118H3.63125C3.01268 30.7164 2.40742 30.5322 1.89625 30.1838C1.71932 30.0719 1.55503 29.9411 1.40625 29.7938L13.8773 17.3228L14.3173 16.8828L14.7572 17.3228L27.2283 29.7938Z" fill="#2196F3"/>
<path d="M27.6186 29.303C27.3961 29.6596 27.0951 29.9606 26.7386 30.183L13.8776 17.322C13.7609 17.2053 13.6953 17.0471 13.6953 16.882C13.6953 16.717 13.7609 16.5587 13.8776 16.442C13.9943 16.3253 14.1525 16.2598 14.3176 16.2598C14.4826 16.2598 14.6409 16.3253 14.7576 16.442L27.6186 29.303Z" fill="#FAFAFA"/>
<path d="M23.4446 8.63603L14.7576 17.323L1.8966 30.184C1.54007 29.9615 1.23909 29.6606 1.0166 29.304L22.3636 7.95703L23.4446 8.63603Z" fill="#FFC107"/>
<path d="M6.14583 11.8542C5.64861 11.8542 5.16255 11.7067 4.74913 11.4305C4.3357 11.1542 4.01348 10.7616 3.8232 10.3022C3.63292 9.84286 3.58314 9.33738 3.68014 8.84971C3.77715 8.36205 4.01658 7.9141 4.36817 7.56251C4.71976 7.21092 5.16771 6.97148 5.65538 6.87448C6.14305 6.77748 6.64853 6.82726 7.1079 7.01754C7.56727 7.20782 7.95991 7.53004 8.23615 7.94346C8.51239 8.35689 8.65983 8.84295 8.65983 9.34017C8.65983 10.0069 8.39496 10.6464 7.9235 11.1178C7.45203 11.5893 6.81259 11.8542 6.14583 11.8542ZM6.14583 8.08217C5.89722 8.08217 5.6542 8.15589 5.44749 8.29401C5.24077 8.43213 5.07966 8.62845 4.98452 8.85814C4.88938 9.08782 4.86448 9.34057 4.91298 9.5844C4.96149 9.82824 5.08121 10.0522 5.257 10.228C5.4328 10.4038 5.65677 10.5235 5.9006 10.572C6.14444 10.6205 6.39718 10.5956 6.62687 10.5005C6.85655 10.4053 7.05287 10.2442 7.19099 10.0375C7.32911 9.83081 7.40284 9.58778 7.40284 9.33917C7.40284 9.00579 7.2704 8.68607 7.03467 8.45034C6.79893 8.21461 6.47921 8.08217 6.14583 8.08217Z" fill="#FAFAFA"/>
<path d="M8.65991 8.08121H6.14591C5.98356 8.07474 5.83001 8.00569 5.71744 7.88853C5.60486 7.77138 5.54199 7.6152 5.54199 7.45272C5.54199 7.29024 5.60486 7.13406 5.71744 7.01691C5.83001 6.89975 5.98356 6.8307 6.14591 6.82422H8.65991C8.82226 6.8307 8.97581 6.89975 9.08839 7.01691C9.20096 7.13406 9.26384 7.29024 9.26384 7.45272C9.26384 7.6152 9.20096 7.77138 9.08839 7.88853C8.97581 8.00569 8.82226 8.07474 8.65991 8.08121Z" fill="#FAFAFA"/>
<path d="M6.14584 16.882C5.40046 16.969 4.65104 16.7564 4.06239 16.291C3.47374 15.8256 3.09405 15.1454 3.00684 14.4V14.368C3.00684 13.193 4.12284 12.399 6.32784 12.002C6.21019 11.7599 6.14932 11.4942 6.14983 11.225C6.15631 11.0627 6.22536 10.9091 6.34252 10.7965C6.45968 10.684 6.61586 10.6211 6.77834 10.6211C6.94082 10.6211 7.09699 10.684 7.21415 10.7965C7.33131 10.9091 7.40036 11.0627 7.40683 11.225C7.40683 11.51 7.66683 11.781 8.09483 12.194C8.43766 12.4505 8.72197 12.777 8.92887 13.1518C9.13577 13.5267 9.26052 13.9412 9.29483 14.368C9.28883 16.578 7.77984 16.882 6.14584 16.882ZM7.25183 13.133C5.05183 13.411 4.25983 13.966 4.25983 14.368C4.25983 14.619 4.59584 15.625 6.14584 15.625C7.94584 15.625 8.03183 15.194 8.03183 14.368C8.03183 13.929 7.73883 13.604 7.25183 13.129V13.133Z" fill="#FAFAFA"/>
<path d="M22.4882 0.539062C20.6552 0.541444 18.898 1.27065 17.6019 2.56676C16.3058 3.86287 15.5766 5.62009 15.5742 7.45306C15.5764 7.83272 15.6139 8.21136 15.6862 8.58406C15.8378 9.55869 16.2014 10.4882 16.7512 11.3071C17.0432 11.8071 17.3802 12.3331 17.7352 12.8911C19.7791 15.8254 21.1882 19.1541 21.8722 22.6641C21.9015 22.8058 21.9788 22.9331 22.091 23.0245C22.2032 23.1159 22.3435 23.1658 22.4882 23.1658C22.633 23.1658 22.7733 23.1159 22.8855 23.0245C22.9977 22.9331 23.0749 22.8058 23.1042 22.6641C23.7877 19.1534 25.1964 15.8241 27.2402 12.8891C27.5982 12.3321 27.9332 11.8131 28.1992 11.3461C28.7595 10.5196 29.1312 9.58011 29.2882 8.59406C29.3616 8.21742 29.3997 7.83477 29.4022 7.45106C29.3993 5.61843 28.6699 3.86173 27.3738 2.56605C26.0778 1.27037 24.3209 0.541443 22.4882 0.539062Z" fill="#F44336"/>
<path d="M22.4897 10.5965C24.2255 10.5965 25.6327 9.18938 25.6327 7.45355C25.6327 5.71772 24.2255 4.31055 22.4897 4.31055C20.7538 4.31055 19.3467 5.71772 19.3467 7.45355C19.3467 9.18938 20.7538 10.5965 22.4897 10.5965Z" fill="#C62828"/>
</svg>
