<svg xmlns="http://www.w3.org/2000/svg" width="20.402" height="17.001" viewBox="0 0 20.402 17.001"><defs><style>.a{fill:#b1b1b1;}</style></defs><path class="a" d="M18.064,1.7H13.6V1.488A1.489,1.489,0,0,0,12.113,0H8.288A1.489,1.489,0,0,0,6.8,1.488V1.7H2.338A2.34,2.34,0,0,0,0,4.038V14.664A2.34,2.34,0,0,0,2.338,17H18.064A2.34,2.34,0,0,0,20.4,14.664V4.038A2.34,2.34,0,0,0,18.064,1.7ZM11.9,3.4H8.5V1.7h3.4ZM6.375,5.95A2.125,2.125,0,1,1,4.25,8.076,2.128,2.128,0,0,1,6.375,5.95ZM10.2,13.814a.638.638,0,0,1-.638.638H3.188a.638.638,0,0,1-.638-.638v-.425a2.34,2.34,0,0,1,2.338-2.338H7.863A2.34,2.34,0,0,1,10.2,13.389Zm7.013.638H12.539a.638.638,0,0,1,0-1.275h4.675a.638.638,0,0,1,0,1.275Zm0-3.4H12.539a.638.638,0,0,1,0-1.275h4.675a.638.638,0,0,1,0,1.275Zm0-3.4H12.539a.638.638,0,0,1,0-1.275h4.675a.638.638,0,0,1,0,1.275Zm0,0" transform="translate(0 0)"/></svg>