<svg xmlns="http://www.w3.org/2000/svg" width="14.938" height="23" viewBox="0 0 14.938 23"><defs><style>.a{fill:#36f;}</style></defs><path class="a" d="M104.938,5.467,99.909.564A2.04,2.04,0,0,0,98.481,0l-.013,0h0a6.909,6.909,0,0,0-2.792.559l.549.789-4.23,4.125A3.426,3.426,0,0,0,91,7.855V20.979A2.032,2.032,0,0,0,93.037,23H103.9a2.032,2.032,0,0,0,2.037-2.021V7.855A3.34,3.34,0,0,0,104.938,5.467ZM98.469,9.434a2.022,2.022,0,1,1,2.037-2.021A2.031,2.031,0,0,1,98.469,9.434Z" transform="translate(-91 0)"/><g transform="translate(7.469 0)"><path class="a" d="M263.469,20.984V7.861a3.34,3.34,0,0,0-1-2.388L257.44.57a2.041,2.041,0,0,0-1.427-.562l-.013,0V5.4a2.022,2.022,0,1,1,0,4.043V23.006h5.432A2.031,2.031,0,0,0,263.469,20.984Z" transform="translate(-256 -0.006)"/></g><path class="a" d="M98.469,5.391H94.395a2.054,2.054,0,0,1-2.037-2.021,2.031,2.031,0,0,1,2.037-2.021h1.83l.809-.789A2.034,2.034,0,0,1,98.467,0H94.395A3.386,3.386,0,0,0,91,3.369a3.415,3.415,0,0,0,3.395,3.369h4.074a.674.674,0,1,0,0-1.348Z" transform="translate(-91 0)"/><path class="a" d="M256.679,120.674A.676.676,0,0,0,256,120v1.348A.676.676,0,0,0,256.679,120.674Z" transform="translate(-248.531 -114.609)"/></svg>