<svg xmlns="http://www.w3.org/2000/svg" width="23.565" height="23.565" viewBox="0 0 23.565 23.565"><defs><style>.a{fill:#36f;}</style></defs><g transform="translate(0 0)"><path class="a" d="M33.071,11.046a2.061,2.061,0,0,0,1.434-.582l2.044,1.022a2.027,2.027,0,0,0-.025.251,2.071,2.071,0,0,0,4.142,0,2.046,2.046,0,0,0-.208-.887L43.23,8.077a2.046,2.046,0,0,0,.887.208,2.073,2.073,0,0,0,2.071-2.071,2.04,2.04,0,0,0-.1-.613l2.409-1.806a2.07,2.07,0,1,0-.925-1.723,2.04,2.04,0,0,0,.1.613L45.263,4.491a2.062,2.062,0,0,0-3.01,2.61L39.481,9.873a2.035,2.035,0,0,0-2.321.375L35.117,9.226a2.027,2.027,0,0,0,.025-.251,2.071,2.071,0,1,0-2.071,2.071Zm0,0" transform="translate(-29.573 0)"/><path class="a" d="M22.874,165.28h-.736V150.69a.69.69,0,0,0-.69-.69H18.686a.69.69,0,0,0-.69.69v14.59H16.615V154.833a.69.69,0,0,0-.69-.69H13.163a.69.69,0,0,0-.69.69V165.28H11.092v-4.925a.69.69,0,0,0-.69-.69H7.64a.69.69,0,0,0-.69.69v4.925H5.569v-7.686a.69.69,0,0,0-.69-.69H2.117a.69.69,0,0,0-.69.69v7.686H.69a.69.69,0,0,0,0,1.381H22.874a.69.69,0,0,0,0-1.381Zm0,0" transform="translate(0 -143.096)"/></g></svg>