<svg xmlns="http://www.w3.org/2000/svg" width="21.883" height="21.883" viewBox="0 0 21.883 21.883"><defs><style>.a{fill:#b1b1b1;}</style></defs><path class="a" d="M318.6,3.419h-1.923V1.282a1.282,1.282,0,1,0-2.565,0v1.2a1.488,1.488,0,0,1-1.056,1.43l-1.081.333V10.9c0,.017,0,.034,0,.051a2.016,2.016,0,0,0,1.426.591h5.2a1.923,1.923,0,0,0,1.923-1.923V5.342A1.923,1.923,0,0,0,318.6,3.419Z" transform="translate(-298.637)"/><path class="a" d="M223.923,88.12h-1.282a.641.641,0,0,1-.641-.641V80.641a.641.641,0,0,1,.641-.641h1.282a.641.641,0,0,1,.641.641v6.838A.641.641,0,0,1,223.923,88.12Z" transform="translate(-212.512 -76.581)"/><path class="a" d="M14.759,182.257a3.273,3.273,0,0,1-1.931-.624,1.918,1.918,0,0,1-1.417.624H10.129a1.923,1.923,0,0,1-1.923-1.923V177H.641a.641.641,0,0,0-.641.641v13.016a.661.661,0,0,0,.3.562.641.641,0,0,0,.7-.009l2.4-1.6H16.882a.641.641,0,0,0,.641-.641v-6.71ZM3.205,180.205H6.838a.641.641,0,1,1,0,1.282H3.205a.641.641,0,1,1,0-1.282Zm11.112,7.052H3.205a.641.641,0,1,1,0-1.282H14.318a.641.641,0,1,1,0,1.282Zm0-2.885H3.205a.641.641,0,1,1,0-1.282H14.318a.641.641,0,1,1,0,1.282Z" transform="translate(0 -169.435)"/></svg>