<svg width="35" height="33" viewBox="0 0 35 33" fill="none" xmlns="http://www.w3.org/2000/svg">
<path d="M15.4859 29.876C12.5314 29.876 9.64329 28.9999 7.18675 27.3585C4.73021 25.7171 2.81557 23.3841 1.68495 20.6545C0.554324 17.925 0.258502 14.9214 0.834888 12.0237C1.41127 9.12606 2.83398 6.46436 4.9231 4.37525C7.01221 2.28613 9.67391 0.863422 12.5716 0.287036C15.4693 -0.28935 18.4728 0.00647235 21.2024 1.13709C23.9319 2.26772 26.2649 4.18236 27.9064 6.6389C29.5478 9.09544 30.4239 11.9835 30.4239 14.938C30.4241 16.8998 30.0379 18.8424 29.2873 20.6548C28.5367 22.4673 27.4364 24.1142 26.0492 25.5014C24.662 26.8885 23.0152 27.9888 21.2027 28.7395C19.3902 29.4901 17.4476 29.8763 15.4859 29.876Z" fill="#6AA9FF"/>
<path d="M15.4863 0V29.876C19.4481 29.876 23.2477 28.3022 26.0491 25.5008C28.8505 22.6993 30.4243 18.8998 30.4243 14.938C30.4243 10.9762 28.8505 7.17666 26.0491 4.37524C23.2477 1.57382 19.4481 0 15.4863 0V0Z" fill="#2682FF"/>
<path d="M15.4839 18.4395C13.2212 18.4362 10.9915 18.981 8.98531 20.0273C6.97912 21.0736 5.2562 22.5902 3.96387 24.4475C5.37431 26.1563 7.14727 27.53 9.15426 28.4689C11.1612 29.4079 13.352 29.8886 15.5677 29.8761C17.7834 29.8637 19.9687 29.3584 21.965 28.397C23.9613 27.4356 25.7187 26.0421 27.1099 24.3175C25.6419 22.8565 22.3329 18.4395 15.4839 18.4395Z" fill="#D6F3FE"/>
<path d="M27.1123 24.3174C25.7141 26.0551 23.9436 27.4567 21.9314 28.4188C19.9192 29.381 17.7167 29.8791 15.4863 29.8765V18.4395C22.3333 18.4395 25.6433 22.8564 27.1123 24.3174Z" fill="#BDECFC"/>
<path d="M15.4854 15.8132C14.0926 15.8116 12.7574 15.2575 11.7727 14.2724C10.7881 13.2874 10.2345 11.952 10.2334 10.5592V8.81117C10.2711 7.44387 10.8408 6.14524 11.8213 5.19149C12.8017 4.23773 14.1156 3.7041 15.4834 3.7041C16.8512 3.7041 18.1651 4.23773 19.1455 5.19149C20.126 6.14524 20.6957 7.44387 20.7334 8.81117V10.5592C20.7323 11.9513 20.1793 13.2861 19.1955 14.271C18.2117 15.2559 16.8775 15.8105 15.4854 15.8132Z" fill="#FFBB85"/>
<path d="M15.4863 3.55859V15.8126C16.8792 15.8113 18.2146 15.2572 19.1993 14.2721C20.184 13.2871 20.7375 11.9515 20.7383 10.5586V8.81059C20.737 7.41808 20.1832 6.08299 19.1986 5.09833C18.2139 4.11368 16.8788 3.55992 15.4863 3.55859Z" fill="#F5A86C"/>
<path d="M26.8401 32.5064C30.8508 32.5064 34.1021 29.2551 34.1021 25.2444C34.1021 21.2337 30.8508 17.9824 26.8401 17.9824C22.8294 17.9824 19.5781 21.2337 19.5781 25.2444C19.5781 29.2551 22.8294 32.5064 26.8401 32.5064Z" fill="#F3F3F3"/>
<path d="M26.9801 19.5684C25.8298 19.5684 24.7053 19.9095 23.7489 20.5485C22.7924 21.1876 22.047 22.0959 21.6068 23.1587C21.1666 24.2214 21.0514 25.3908 21.2758 26.519C21.5002 27.6472 22.0541 28.6835 22.8675 29.4969C23.6809 30.3103 24.7172 30.8642 25.8454 31.0886C26.9736 31.313 28.143 31.1978 29.2058 30.7576C30.2685 30.3174 31.1768 29.572 31.8159 28.6156C32.455 27.6591 32.7961 26.5347 32.7961 25.3844C32.7942 23.8424 32.1809 22.3642 31.0906 21.2739C30.0002 20.1836 28.522 19.5702 26.9801 19.5684ZM26.6021 28.2444C26.5425 28.3026 26.4624 28.3353 26.3791 28.3353C26.2957 28.3353 26.2157 28.3026 26.1561 28.2444L23.3561 25.4244C23.3268 25.3953 23.3036 25.3607 23.2877 25.3226C23.2719 25.2845 23.2637 25.2436 23.2637 25.2024C23.2637 25.1611 23.2719 25.1202 23.2877 25.0821C23.3036 25.044 23.3268 25.0094 23.3561 24.9804L24.0251 24.3114C24.0847 24.2531 24.1647 24.2205 24.2481 24.2205C24.3314 24.2205 24.4115 24.2531 24.4711 24.3114L26.3811 26.2354L30.0901 22.5284C30.1193 22.499 30.1541 22.4758 30.1923 22.4599C30.2306 22.444 30.2716 22.4358 30.3131 22.4358C30.3545 22.4358 30.3955 22.444 30.4338 22.4599C30.472 22.4758 30.5068 22.499 30.5361 22.5284L31.2021 23.1944C31.2613 23.2543 31.2945 23.3351 31.2945 23.4194C31.2945 23.5036 31.2613 23.5845 31.2021 23.6444L26.6021 28.2444Z" fill="#82C61B"/>
</svg>
