<svg xmlns="http://www.w3.org/2000/svg" xmlns:xlink="http://www.w3.org/1999/xlink" width="53.072" height="18.319" viewBox="0 0 53.072 18.319"><defs><style>.a{fill:#4a8cff;}.b{clip-path:url(#a);}.c{fill:#e5e5e4;}.d{clip-path:url(#b);}.e{fill:#fff;}.f{clip-path:url(#c);}.g{clip-path:url(#d);}</style><clipPath id="a"><circle cx="9" cy="9" r="9" transform="translate(-0.001 0)"/></clipPath><clipPath id="b"><circle cx="9.055" cy="9.055" r="9.055"/></clipPath><clipPath id="c"><circle cx="8.33" cy="8.33" r="8.33"/></clipPath><clipPath id="d"><path d="M-530.329-44.079l2.355-1.722c.206-.168.363-.13.363.179v5.249c0,.347-.195.309-.363.179l-2.355-1.722Zm-7.971-1.527V-41.7a1.6,1.6,0,0,0,1.611,1.6h5.707a.3.3,0,0,0,.294-.29V-44.3a1.6,1.6,0,0,0-1.611-1.6h-5.707A.3.3,0,0,0-538.3-45.606Z" transform="translate(538.3 45.9)"/></clipPath></defs><path class="a" d="M96.423-64.8h0A3.619,3.619,0,0,0,92.8-61.181a3.62,3.62,0,0,0,3.619,3.623,3.62,3.62,0,0,0,3.623-3.619A3.62,3.62,0,0,0,96.423-64.8Zm1.531,5.158a2.175,2.175,0,0,1-3.073,0,2.177,2.177,0,0,1,0-3.069,2.172,2.172,0,0,1,3.073,0l0,0A2.168,2.168,0,0,1,97.954-59.642Z" transform="translate(-65.088 70.232)"/><path class="a" d="M-81.342-59.082-81.7-59.1h-3.26l4.348-4.348-.019-.363A1.1,1.1,0,0,0-81.7-64.881l-.363-.019H-87.5l.019.363a1.123,1.123,0,0,0,1.069,1.069l.363.019h3.26L-87.137-59.1l.019.363a1.109,1.109,0,0,0,1.069,1.069l.363.019h5.432l-.019-.363A1.117,1.117,0,0,0-81.342-59.082Z" transform="translate(108.329 70.329)"/><path class="a" d="M498.642-64.818a2.9,2.9,0,0,0-2.172.981,2.9,2.9,0,0,0-3.795-.485,1.976,1.976,0,0,0-1.275-.5v7.246l.363-.019a1.092,1.092,0,0,0,1.069-1.069l.019-.363v-2.535l.019-.363a1.6,1.6,0,0,1,.179-.725,1.446,1.446,0,0,1,1.978-.527,1.452,1.452,0,0,1,.527.527h0a1.558,1.558,0,0,1,.179.725l.019.363v2.535l.019.363a1.111,1.111,0,0,0,1.065,1.069l.363.019v-3.986l.019-.363a1.561,1.561,0,0,1,.179-.729,1.447,1.447,0,0,1,1.981-.523,1.452,1.452,0,0,1,.527.527,1.6,1.6,0,0,1,.176.725l.019.363v2.535l.019.363a1.108,1.108,0,0,0,1.065,1.069l.363.019V-61.92A2.9,2.9,0,0,0,498.642-64.818Z" transform="translate(-448.471 70.25)"/><path class="a" d="M298.245-63.739a3.62,3.62,0,0,0-2.562-1.061,3.62,3.62,0,0,0-2.562,1.061,3.623,3.623,0,0,0,0,5.123,3.623,3.623,0,0,0,5.123,0,3.615,3.615,0,0,0,0-5.119Zm-1.027,4.1a2.175,2.175,0,0,1-3.073,0,2.177,2.177,0,0,1,0-3.069,2.172,2.172,0,0,1,3.073,0l0,0A2.168,2.168,0,0,1,297.218-59.642Z" transform="translate(-256.744 70.232)"/><g transform="translate(0 0)"><g transform="translate(0.647 0.318)"><g class="b" transform="translate(0 0)"><path class="c" d="M-649.8-223.8h19.382v19.382H-649.8Z" transform="translate(648.516 222.844)"/></g></g><g transform="translate(0 0)"><g class="d"><path class="e" d="M-645-219h19.019v19.019H-645Z" transform="translate(644.546 218.546)"/></g></g><g transform="translate(0.725 0.725)"><g class="f"><path class="a" d="M-626-200h17.569v17.569H-626Z" transform="translate(625.546 199.546)"/></g></g><g transform="translate(3.619 6.154)"><g class="g" transform="translate(0 0)"><path class="e" d="M-550.1-57.7h11.594V-51H-550.1Z" transform="translate(549.649 57.25)"/></g></g></g></svg>