<svg xmlns="http://www.w3.org/2000/svg" width="23.414" height="21.597" viewBox="0 0 23.414 21.597">
  <g id="paperclip" transform="translate(0 -1.178)">
    <path id="Path_11679" data-name="Path 11679" d="M17.412,9.909s.947-.72.226-1.44-1.422.209-1.422.209L8.971,15.925s-1.7,2.19-2.987.866.865-2.988.865-2.988l9.5-9.5s2.217-2.443,4.3-.36-.368,4.305-.368,4.305L9.607,18.924s-3.416,3.946-6.577.783.823-6.54.823-6.54l8.1-8.107s.908-.758.228-1.44-1.439.228-1.439.228l-9.3,9.3a5.5,5.5,0,0,0,.41,7.77,5.5,5.5,0,0,0,7.773.411L22.41,8.546a4.136,4.136,0,0,0-.492-5.871,4.135,4.135,0,0,0-5.871-.493l-11,11s-2.817,2.291-.261,4.846,4.806-.3,4.806-.3Z" transform="translate(0)" fill="#2e96d5"/>
  </g>
</svg>
