<svg xmlns="http://www.w3.org/2000/svg" width="70" height="84.191" viewBox="0 0 70 84.191">
  <g id="Group_13660" data-name="Group 13660" transform="translate(-66 -80.811)">
    <g id="Group_13431" data-name="Group 13431" transform="translate(-281 -363.998)">
      <ellipse id="Ellipse_626" data-name="Ellipse 626" cx="35" cy="18" rx="35" ry="18" transform="translate(347 493)" fill="#d8e7ff" opacity="0.5"/>
    </g>
    <g id="Group_13432" data-name="Group 13432" transform="translate(-353.173 -105.298)">
      <path id="Path_13485" data-name="Path 13485" d="M466.482,243.244a13.563,13.563,0,0,1-5.173,10.469,13.733,13.733,0,0,1-8.657,3.017A13.523,13.523,0,0,1,439.2,243.123a12.768,12.768,0,0,1,7.031-11.757l.171-38.624a6.664,6.664,0,0,1,6.692-6.633,7.776,7.776,0,0,1,1.882.239,6.808,6.808,0,0,1,5.106,6.454l-.171,38.624A14.333,14.333,0,0,1,466.482,243.244Z" transform="translate(-0.002)" fill="#a6c7f9"/>
      <path id="Path_13486" data-name="Path 13486" d="M456.5,233.934l.054-12.093a3.25,3.25,0,0,0-3.3-3.331,3.179,3.179,0,0,0-2.919,3.386l-.054,12.126a8.16,8.16,0,0,1-2.762,6,8.272,8.272,0,0,0-2.622,6.2,8.533,8.533,0,1,0,17.063.145,8.344,8.344,0,0,0-2.634-6.3A8.32,8.32,0,0,1,456.5,233.934Z" transform="translate(-0.504 -2.85)" fill="#fe5f38"/>
      <path id="Path_13487" data-name="Path 13487" d="M461.218,253.712a13.527,13.527,0,0,1-22.045-10.589,12.787,12.787,0,0,1,7.053-11.757l.171-38.624a6.664,6.664,0,0,1,6.692-6.633,6.378,6.378,0,0,1,1.7.238c-2.472.425-5.7,2-6.18,7.293-.775,8.729-.472,39.678-.472,39.678s-5.467,3.381-5.959,8.416c-.465,4.733-.192,9.175,5.277,11.865C451.89,255.776,457.107,255.24,461.218,253.712Z" fill="#2e96d5"/>
      <path id="Path_13488" data-name="Path 13488" d="M460.533,248.338a3.109,3.109,0,1,1-3.1-3.123A3.11,3.11,0,0,1,460.533,248.338Z" transform="translate(-1.332 -5.2)" fill="#ffdf3f"/>
      <path id="Path_13489" data-name="Path 13489" d="M453.688,253.69a4.809,4.809,0,0,1-5.2-5.247c.094-2.556,1.529-4.8,3.156-6.672.289-.333-.167-.881-.528-.59-2.9,2.338-5.12,5.743-4.031,9.6a5.581,5.581,0,0,0,6.894,4.062C454.647,254.633,454.339,253.64,453.688,253.69Z" transform="translate(-0.671 -4.838)" fill="#faf5ff"/>
      <path id="Path_13490" data-name="Path 13490" d="M453.9,225c-.027-.424-.727-.494-.769-.048a43.251,43.251,0,0,0-.183,4.934c.012.552.954.6.982.041A43.307,43.307,0,0,0,453.9,225Z" transform="translate(-1.211 -3.39)" fill="#faf5ff"/>
      <path id="Path_13491" data-name="Path 13491" d="M470.782,203.285a14.093,14.093,0,0,0-4.9.045c-.938.1-1.038,1.156-.005,1.278a14.283,14.283,0,0,0,4.9.111A.722.722,0,0,0,470.782,203.285Z" transform="translate(-2.285 -1.493)" fill="#433d3a"/>
      <path id="Path_13492" data-name="Path 13492" d="M470.764,207.452a8.1,8.1,0,0,0-2.722-.1c-.8.043-1.375.086-2.174.129-.959.05-1.021,1.138-.005,1.2.806.05,1.307.1,2.112.15a8.582,8.582,0,0,0,2.784-.057C471.548,208.494,471.609,207.754,470.764,207.452Z" transform="translate(-2.283 -1.863)" fill="#433d3a"/>
      <path id="Path_13493" data-name="Path 13493" d="M470.733,212.148a10.965,10.965,0,0,0-2.7-.032c-.8.036-1.394.031-2.2.041-1.151.016-1.115,1.219-.005,1.244.784.016,1.5.02,2.284.063a11.132,11.132,0,0,0,2.613.006A.664.664,0,0,0,470.733,212.148Z" transform="translate(-2.271 -2.282)" fill="#433d3a"/>
      <path id="Path_13494" data-name="Path 13494" d="M470.714,216.449l-4.9-.083a.878.878,0,0,0-.008,1.756l4.9-.04A.817.817,0,0,0,470.714,216.449Z" transform="translate(-2.269 -2.662)" fill="#433d3a"/>
      <path id="Path_13495" data-name="Path 13495" d="M470.692,221.319l-4.9-.083a.878.878,0,0,0-.007,1.756l4.9-.04A.817.817,0,0,0,470.692,221.319Z" transform="translate(-2.267 -3.09)" fill="#433d3a"/>
      <path id="Path_13496" data-name="Path 13496" d="M470.671,226.19l-4.9-.084a.879.879,0,0,0-.008,1.757l4.9-.04A.817.817,0,0,0,470.671,226.19Z" transform="translate(-2.265 -3.519)" fill="#433d3a"/>
      <path id="Path_13497" data-name="Path 13497" d="M470.649,231.06l-4.9-.084a.879.879,0,0,0-.007,1.757l4.9-.04A.817.817,0,0,0,470.649,231.06Z" transform="translate(-2.263 -3.947)" fill="#433d3a"/>
    </g>
  </g>
</svg>
