<svg xmlns="http://www.w3.org/2000/svg" width="22.687" height="14.278" viewBox="0 0 22.687 14.278">
  <g id="Group_13321" data-name="Group 13321" transform="translate(-434.024 -150.203)">
    <path id="Path_13398" data-name="Path 13398" d="M1107.842,830.646a7.138,7.138,0,0,0-13.71,1.644c-.128-.012-.258-.019-.39-.019a4.069,4.069,0,1,0,0,8.138h13.729a4.889,4.889,0,0,0,.371-9.763" transform="translate(-655.65 -675.928)" fill="#2e96d5"/>
    <path id="signal" d="M1175.707,902.521a1.075,1.075,0,1,1-1.075,1.075A1.076,1.076,0,0,1,1175.707,902.521Zm3.213-.5a.5.5,0,0,1-.232.421.489.489,0,0,1-.676-.159,2.9,2.9,0,0,0-4.611,0,.488.488,0,0,1-.675.159.5.5,0,0,1-.158-.681,3.869,3.869,0,0,1,6.278,0A.492.492,0,0,1,1178.92,902.026Zm2.027-1.615a.517.517,0,0,1-.241.439.511.511,0,0,1-.706-.166,5.372,5.372,0,0,0-8.586,0,.511.511,0,0,1-.706.166.52.52,0,0,1-.164-.711,6.385,6.385,0,0,1,10.327,0A.52.52,0,0,1,1180.947,900.411Z" transform="translate(-730.339 -741.915)" fill="#fff" fill-rule="evenodd"/>
  </g>
</svg>
