<svg xmlns="http://www.w3.org/2000/svg" xmlns:xlink="http://www.w3.org/1999/xlink" width="34.188" height="32.546" viewBox="0 0 34.188 32.546"><defs><linearGradient id="a" x1="1.34" y1="1.58" x2="-0.083" y2="0.368" gradientUnits="objectBoundingBox"><stop offset="0" stop-color="#ffc200" stop-opacity="0"/><stop offset="0.203" stop-color="#fb0" stop-opacity="0.204"/><stop offset="0.499" stop-color="#ffa700" stop-opacity="0.498"/><stop offset="0.852" stop-color="#f80" stop-opacity="0.851"/><stop offset="1" stop-color="#ff7800"/></linearGradient></defs><g transform="translate(-97.859 -7)" style="isolation:isolate"><g transform="translate(97.859 7)"><g transform="translate(4.073 2.789)"><path d="M14.008,12.094l3.452,6.956,7.718,1.115a1.064,1.064,0,0,1,.593,1.817L20.187,27.4l1.318,7.645a1.07,1.07,0,0,1-1.554,1.123l-6.9-3.61-6.9,3.61a1.07,1.07,0,0,1-1.554-1.123L5.909,27.4.324,21.983a1.064,1.064,0,0,1,.593-1.817L8.636,19.05l3.452-6.956A1.073,1.073,0,0,1,14.008,12.094Z" transform="translate(0 -11.501)" fill="#fd0"/><path d="M260.413,19.051l-3.452-6.956A1.059,1.059,0,0,0,256,11.5v13.17Z" transform="translate(-242.953 -11.501)" fill="#e83709" opacity="0.62"/><path d="M263.139,203.512l5.585-5.415A1.048,1.048,0,0,0,269,197.02l-13,3.765Z" transform="translate(-242.952 -187.615)" fill="#e83709" opacity="0.68"/><path d="M264.035,282.7,256,271.289v7.885l6.9,3.61A1.063,1.063,0,0,0,264.035,282.7Z" transform="translate(-242.952 -258.119)" fill="#e83709" opacity="0.86"/><path d="M98.231,271.289l-7.139,2.727-1.318,7.646A1.05,1.05,0,0,0,90.2,282.7Z" transform="translate(-85.182 -258.119)" fill="#e83709" opacity="0.9"/><path d="M.968,162.284l13,3.765-4.412-5.62-7.718,1.116a1.057,1.057,0,0,0-.869.739Z" transform="translate(-0.919 -152.879)" fill="#e83709" opacity="0.86"/><path d="M5.915,203.513.33,198.1a1.048,1.048,0,0,1-.275-1.077l13,3.765Z" transform="translate(-0.006 -187.616)" fill="url(#a)"/></g><path d="M91.013,11.433c.455.629,1.74,3.33,2.475,4.9a.248.248,0,0,1-.4.284c-1.268-1.192-3.436-3.261-3.891-3.89a1.106,1.106,0,0,1,.254-1.55A1.12,1.12,0,0,1,91.013,11.433Z" transform="translate(-83.048 -10.971)" fill="#e83709"/><path d="M357.784,11.433c-.455.629-1.74,3.33-2.475,4.9a.248.248,0,0,0,.4.284c1.268-1.192,3.436-3.261,3.891-3.89a1.106,1.106,0,0,0-.254-1.55A1.12,1.12,0,0,0,357.784,11.433Z" transform="translate(-331.561 -10.971)" fill="#e83709"/><path d="M420.376,283.577c-.741-.24-3.719-.637-5.45-.855a.247.247,0,0,0-.151.461c1.527.839,4.168,2.265,4.909,2.5a1.111,1.111,0,1,0,.692-2.111Z" transform="translate(-386.958 -264.673)" fill="#e83709"/><path d="M.771,283.577c.741-.24,3.719-.637,5.45-.855a.247.247,0,0,1,.151.461c-1.527.839-4.168,2.265-4.909,2.5a1.111,1.111,0,1,1-.692-2.111Z" transform="translate(0 -264.673)" fill="#e83709"/><path d="M239.794,405.321c0-.775.544-3.714.872-5.418a.249.249,0,0,1,.488,0c.329,1.7.872,4.643.872,5.418a1.116,1.116,0,0,1-2.233,0Z" transform="translate(-223.782 -373.886)" fill="#e83709"/></g></g></svg>