<svg xmlns="http://www.w3.org/2000/svg" width="25.491" height="29.132" viewBox="0 0 25.491 29.132"><g transform="translate(-1001 -35.463)"><g transform="translate(1001 35.463)"><g transform="translate(0 0)"><path d="M25.49,21.849a1.823,1.823,0,0,1-1.826,1.821H1.825A1.822,1.822,0,0,1,0,21.849a1.778,1.778,0,0,1,.49-1.235c1.1-1.181,3.156-2.959,3.156-8.779a8.985,8.985,0,0,1,7.28-8.828V1.821a1.821,1.821,0,0,1,3.642,0V3.007a8.986,8.986,0,0,1,7.276,8.828c0,5.821,2.057,7.6,3.156,8.779a1.779,1.779,0,0,1,.491,1.235Z" transform="translate(0 0)" fill="#36f"/><path d="M160,448h7.283A3.642,3.642,0,0,1,160,448Z" transform="translate(-150.896 -422.509)" fill="#36f"/></g></g></g></svg>