<svg width="22" height="21" viewBox="0 0 22 21" fill="none" xmlns="http://www.w3.org/2000/svg">
<path d="M17.999 0H3.99902C1.78988 0 -0.000976562 1.79086 -0.000976562 4V17C-0.000976562 19.2091 1.78988 21 3.99902 21H17.999C20.2082 21 21.999 19.2091 21.999 17V4C21.999 1.79086 20.2082 0 17.999 0Z" fill="#D5F6FB"/>
<path d="M17.999 0.5H3.99902C2.06603 0.5 0.499023 2.067 0.499023 4V17C0.499023 18.933 2.06603 20.5 3.99902 20.5H17.999C19.932 20.5 21.499 18.933 21.499 17V4C21.499 2.067 19.932 0.5 17.999 0.5Z" stroke="#2E96D5"/>
<path d="M11.3139 2.56299C10.4136 2.56288 9.52865 2.79653 8.74574 3.24107C7.96282 3.68561 7.30874 4.32581 6.8475 5.09901C6.38626 5.8722 6.13368 6.75191 6.11447 7.65202C6.09525 8.55213 6.31007 9.44181 6.73789 10.234L11.0289 17.995C11.057 18.0458 11.0982 18.0882 11.1482 18.1178C11.1983 18.1473 11.2553 18.1629 11.3134 18.1629C11.3715 18.1629 11.4285 18.1473 11.4786 18.1178C11.5286 18.0882 11.5698 18.0458 11.5979 17.995L15.8909 10.232C16.3183 9.4398 16.5327 8.55024 16.5132 7.65034C16.4937 6.75043 16.2409 5.87099 15.7796 5.09806C15.3184 4.32514 14.6643 3.68519 13.8815 3.24082C13.0987 2.79646 12.214 2.5629 11.3139 2.56299V2.56299ZM11.3139 10.363C10.7997 10.363 10.297 10.2105 9.86941 9.92481C9.44184 9.63912 9.10859 9.23305 8.91181 8.75797C8.71502 8.28288 8.66353 7.7601 8.76385 7.25575C8.86417 6.7514 9.1118 6.28813 9.47541 5.92451C9.83903 5.56089 10.3023 5.31327 10.8067 5.21295C11.311 5.11263 11.8338 5.16411 12.3089 5.3609C12.784 5.55769 13.19 5.89094 13.4757 6.31851C13.7614 6.74607 13.9139 7.24876 13.9139 7.76299C13.9139 8.45255 13.64 9.11387 13.1524 9.60147C12.6648 10.0891 12.0035 10.363 11.3139 10.363Z" fill="#2E96D5"/>
</svg>
