<svg xmlns="http://www.w3.org/2000/svg" width="19.647" height="24" viewBox="0 0 19.647 24"><g transform="translate(0)"><path d="M194.075,6.545a2.183,2.183,0,0,0,1.871-3.305L194.075,0,192.2,3.24a2.183,2.183,0,0,0,1.871,3.305Z" transform="translate(-184.257)" fill="#2b8aff"/><path d="M58.924,151.515H53.469v-2.182H51.287v2.182H45.833a3.275,3.275,0,0,0-3.273,3.273v1.68a2.137,2.137,0,0,0,3.649,1.511l2.335-2.329,2.329,2.324a2.188,2.188,0,0,0,3.022,0l2.335-2.324,2.329,2.324a2.137,2.137,0,0,0,3.649-1.511v-1.675A3.292,3.292,0,0,0,58.924,151.515Z" transform="translate(-42.56 -141.697)" fill="#2b8aff"/><path d="M57.391,319.253h0l-1.173-1.173-1.178,1.173a3.865,3.865,0,0,1-5.335,0l-1.173-1.173-1.178,1.173A3.7,3.7,0,0,1,44.7,320.36a3.766,3.766,0,0,1-2.138-.671v5.035a1.094,1.094,0,0,0,1.091,1.091H61.105a1.094,1.094,0,0,0,1.091-1.091v-5.035a3.756,3.756,0,0,1-4.805-.436Z" transform="translate(-42.56 -301.815)" fill="#2b8aff"/></g></svg>