<svg xmlns="http://www.w3.org/2000/svg" width="16.336" height="26.136" viewBox="0 0 16.336 26.136"><path d="M11.437,1.235a1.22,1.22,0,0,1-.04.306L9.222,8.17,7.287,14.705H1.225A1.225,1.225,0,0,1,0,13.48a1.249,1.249,0,0,1,.011-.164L1.645,1.062A1.225,1.225,0,0,1,2.859,0h7.353A1.23,1.23,0,0,1,11.437,1.235Z" transform="translate(0 0)" fill="#00bfa5"/><path d="M107.433,161.229a1.222,1.222,0,0,1-.164.609L98.282,177.36a1.225,1.225,0,0,1-2.252-.894l2.354-9.931L100.319,160h5.892A1.225,1.225,0,0,1,107.433,161.229Z" transform="translate(-91.097 -151.83)" fill="#36f"/></svg>