<svg width="21" height="26" viewBox="0 0 21 26" fill="none" xmlns="http://www.w3.org/2000/svg">
<path d="M2.27288 25.36C1.90158 25.36 1.54548 25.2125 1.28293 24.9499C1.02038 24.6874 0.872884 24.3313 0.872884 23.96V3.46498C0.853957 2.62702 1.16601 1.81535 1.74141 1.20588C2.31682 0.596408 3.10922 0.238236 3.94688 0.208984H17.3609C18.1986 0.238236 18.9909 0.596408 19.5664 1.20588C20.1418 1.81535 20.4538 2.62702 20.4349 3.46498V23.965C20.4327 24.2097 20.3664 24.4495 20.2427 24.6606C20.1189 24.8717 19.942 25.0467 19.7295 25.1681C19.5171 25.2895 19.2765 25.3531 19.0318 25.3526C18.7871 25.352 18.5468 25.2873 18.3349 25.165L10.4159 20.679L2.97288 25.15C2.76226 25.2807 2.52069 25.3532 2.27288 25.36Z" fill="#2E96D5"/>
</svg>
