<svg width="14" height="13" viewBox="0 0 14 13" fill="none" xmlns="http://www.w3.org/2000/svg">
<path d="M11.9555 1.06389H11.3611V0.0693359H10.3679V1.06389H3.81742V0.0693359H2.82504V1.06389H2.22979C1.83514 1.06436 1.45679 1.22169 1.17773 1.50136C0.898666 1.78103 0.741683 2.1602 0.741211 2.55572L0.741211 11.3081C0.741683 11.7036 0.898666 12.0828 1.17773 12.3625C1.45679 12.6422 1.83514 12.7995 2.22979 12.8H11.9573C12.3519 12.7995 12.7303 12.6422 13.0093 12.3625C13.2884 12.0828 13.4454 11.7036 13.4459 11.3081V2.55572C13.4454 2.1599 13.2882 1.78045 13.0087 1.50073C12.7293 1.22101 12.3505 1.06389 11.9555 1.06389ZM12.4517 11.3081C12.4514 11.4399 12.3991 11.5663 12.3061 11.6595C12.2131 11.7527 12.087 11.8052 11.9555 11.8054H2.22979C2.09826 11.8052 1.97219 11.7527 1.87919 11.6595C1.78618 11.5663 1.73383 11.4399 1.73359 11.3081V4.74427H12.4517V11.3081ZM12.4517 3.74882H1.73359V2.55572C1.73383 2.4239 1.78618 2.29756 1.87919 2.20435C1.97219 2.11114 2.09826 2.05868 2.22979 2.05844H2.82504V3.05299H3.81742V2.05844H10.3679V3.05299H11.3611V2.05844H11.9564C12.0879 2.05868 12.214 2.11114 12.307 2.20435C12.4 2.29756 12.4523 2.4239 12.4526 2.55572L12.4517 3.74882Z" fill="#AEAEAE"/>
</svg>
