<svg xmlns="http://www.w3.org/2000/svg" width="29.623" height="26.332" viewBox="0 0 29.623 26.332"><g transform="translate(-872.879 -125.319)"><g transform="translate(872.879 125.319)"><path d="M179.411,64h-20.2L161.9,77.166h15.077a1.234,1.234,0,0,0,1.2-.961l2.431-10.7a1.234,1.234,0,0,0-.93-1.477A1.219,1.219,0,0,0,179.411,64Z" transform="translate(-151.022 -60.708)" fill="#36f"/><path d="M11.218,18.1h13.8a1.234,1.234,0,0,1,1.2,1.508l-.284,1.249a2.88,2.88,0,1,1-3.271.535H11.889a2.88,2.88,0,1,1-3.448-.441L4.828,3.291H1.234A1.234,1.234,0,0,1,0,2.057V1.234A1.234,1.234,0,0,1,1.234,0H6.507A1.234,1.234,0,0,1,7.714.987Z" transform="translate(0 0)" fill="#36f"/></g></g></svg>