<svg xmlns="http://www.w3.org/2000/svg" width="20.166" height="22" viewBox="0 0 20.166 22"><path d="M19,18.795V14.235A2.746,2.746,0,0,1,21.75,11.5a.912.912,0,1,1-.011,1.824.906.906,0,0,0-.906.912v2.735A1.828,1.828,0,0,1,19,18.795Z" transform="translate(-2.501 -1.014)" fill="#0277bd"/><path d="M4.667,18.795V14.235A2.746,2.746,0,0,0,1.917,11.5a.912.912,0,1,0,.011,1.824.906.906,0,0,1,.906.912v2.735A1.829,1.829,0,0,0,4.667,18.795Z" transform="translate(-1 -1.014)" fill="#0277bd"/><path d="M15.458,23.824H7.667a.912.912,0,1,1,0-1.824h7.791a.912.912,0,1,1,0,1.824Z" transform="translate(-1.479 -1.94)" fill="#cfd8dc"/><path d="M11.917,23.449A.915.915,0,0,1,11,22.537V18.662a.917.917,0,0,1,1.833,0v3.875A.915.915,0,0,1,11.917,23.449Z" transform="translate(-1.834 -1.565)" fill="#cfd8dc"/><path d="M16.071,11.854H6.793a1.6,1.6,0,0,1-1.227-.569,1.583,1.583,0,0,1-.353-1.3L6.727,1.322A1.6,1.6,0,0,1,8.307,0h6.249a1.6,1.6,0,0,1,1.58,1.323l1.514,8.662a1.583,1.583,0,0,1-.353,1.3A1.6,1.6,0,0,1,16.071,11.854Z" transform="translate(-1.349 0)" fill="#039be5"/><path d="M17.979,19.015H4.687A.686.686,0,0,1,4,18.331V16.507A2.516,2.516,0,0,1,6.521,14h9.625a2.516,2.516,0,0,1,2.521,2.507v1.824A.686.686,0,0,1,17.979,19.015Z" transform="translate(-1.25 -1.235)" fill="#03a9f4"/><path d="M1.917,11.5a.912.912,0,1,0,0,1.824H1.94a.906.906,0,0,1,.894.912v2.735A1.825,1.825,0,0,0,4.1,18.7a.682.682,0,0,1-.346-.594V16.287a2.5,2.5,0,0,1,.917-1.933v-.119A2.746,2.746,0,0,0,1.917,11.5Z" transform="translate(-1 -1.014)" fill="#0268a5"/><path d="M10.646,22H7.667a.912.912,0,1,0,0,1.824h3.9a.915.915,0,0,1-.917-.912Z" transform="translate(-1.479 -1.94)" fill="#b4bcc0"/><path d="M11.917,19.5H11v3.191a.915.915,0,0,0,.917.912Z" transform="translate(-1.834 -1.72)" fill="#b4bcc0"/><path d="M11.432,0H8.307a1.6,1.6,0,0,0-1.58,1.322L5.213,9.984a1.583,1.583,0,0,0,.353,1.3,1.6,1.6,0,0,0,1.227.569h4.639Z" transform="translate(-1.349)" fill="#0387c7"/><path d="M11.333,14H6.521A2.517,2.517,0,0,0,4,16.507v1.824a.687.687,0,0,0,.687.684h6.646Z" transform="translate(-1.25 -1.235)" fill="#0393d4"/></svg>