<svg width="22" height="28" viewBox="0 0 22 28" fill="none" xmlns="http://www.w3.org/2000/svg">
<path d="M11.1759 0.925781L4.54492 13.9838L11.1759 27.0418L11.4159 26.9628C14.3516 25.993 16.9067 24.1223 18.718 21.6168C20.5293 19.1113 21.5045 16.0985 21.5049 13.0068V4.75178L11.1759 0.925781Z" fill="#2682FF"/>
<path d="M0.84668 4.75178V13.0078C0.847333 16.0993 1.82264 19.1119 3.63391 21.6172C5.44518 24.1225 8.00021 25.9931 10.9357 26.9628L11.1747 27.0418V0.925781L0.84668 4.75178Z" fill="#6AA9FF"/>
<path d="M11.1699 20.8176V5.83863C12.1561 5.82459 13.1348 6.01192 14.0461 6.38917C14.9574 6.76642 15.7822 7.32564 16.4699 8.03263C17.1771 8.72025 17.7364 9.54498 18.1136 10.4563C18.4909 11.3676 18.6781 12.3464 18.6639 13.3326C18.6781 14.3188 18.4908 15.2976 18.1135 16.2089C17.7363 17.1202 17.177 17.945 16.4699 18.6326C15.7823 19.3397 14.9575 19.899 14.0462 20.2762C13.1349 20.6535 12.1561 20.8408 11.1699 20.8266V20.8176Z" fill="#F3F3F3"/>
<path d="M18.6556 13.3286C18.6697 14.3148 18.4824 15.2936 18.1052 16.2049C17.7279 17.1162 17.1686 17.941 16.4616 18.6286C15.7739 19.3357 14.9492 19.895 14.0378 20.2722C13.1265 20.6495 12.1478 20.8368 11.1616 20.8226C10.1767 20.8356 9.19949 20.6478 8.28963 20.2706C7.37977 19.8934 6.55633 19.3347 5.86956 18.6286C5.16244 17.941 4.60311 17.1163 4.22586 16.2049C3.8486 15.2936 3.66135 14.3149 3.67556 13.3286C3.66129 12.3424 3.84851 11.3636 4.22577 10.4523C4.60303 9.54094 5.16239 8.71621 5.86956 8.02863C6.55656 7.32316 7.38013 6.76512 8.29 6.38859C9.19988 6.01206 10.177 5.82493 11.1616 5.83863C12.1478 5.82459 13.1265 6.01192 14.0378 6.38917C14.9491 6.76642 15.7738 7.32564 16.4616 8.03263C17.1687 8.72025 17.728 9.54498 18.1053 10.4563C18.4825 11.3676 18.6698 12.3464 18.6556 13.3326V13.3286Z" fill="#FCFCFC"/>
<path d="M15.4978 10.1266C15.3391 9.96788 15.1507 9.84197 14.9434 9.75607C14.736 9.67018 14.5138 9.62598 14.2893 9.62598C14.0649 9.62598 13.8426 9.67018 13.6353 9.75607C13.4279 9.84197 13.2395 9.96788 13.0808 10.1266L10.1698 13.0376L8.90684 11.7746C8.58632 11.4541 8.15161 11.274 7.69833 11.274C7.24506 11.274 6.81035 11.4541 6.48984 11.7746C6.16932 12.0951 5.98926 12.5298 5.98926 12.9831C5.98926 13.4364 6.16932 13.8711 6.48984 14.1916L8.96184 16.6636C9.12054 16.8223 9.30894 16.9482 9.5163 17.0341C9.72365 17.12 9.94589 17.1642 10.1703 17.1642C10.3948 17.1642 10.617 17.12 10.8244 17.0341C11.0317 16.9482 11.2201 16.8223 11.3788 16.6636L15.4978 12.5446C15.8182 12.2238 15.9981 11.789 15.9981 11.3356C15.9981 10.8822 15.8182 10.4474 15.4978 10.1266Z" fill="#82C61B"/>
<path d="M15.4922 10.1266C15.3335 9.96788 15.1451 9.84197 14.9377 9.75607C14.7304 9.67018 14.5081 9.62598 14.2837 9.62598C14.0592 9.62598 13.837 9.67018 13.6296 9.75607C13.4223 9.84197 13.2339 9.96788 13.0752 10.1266L10.9922 12.2136V16.9526C11.1335 16.8748 11.2631 16.7775 11.3772 16.6636L15.4962 12.5446C15.8162 12.2238 15.996 11.7892 15.996 11.3361C15.996 10.883 15.8162 10.4483 15.4962 10.1276L15.4922 10.1266Z" fill="#6EAD0F"/>
</svg>
