<svg width="19" height="19" viewBox="0 0 19 19" fill="none" xmlns="http://www.w3.org/2000/svg">
<path d="M11.6413 7.47688C11.4277 7.26199 11.1909 7.07149 10.9353 6.90889C10.1276 6.39154 9.16732 6.16579 8.21372 6.2691C7.26012 6.37241 6.37047 6.79856 5.6923 7.47688L1.8703 11.3009C1.47948 11.6913 1.1694 12.1549 0.957738 12.6651C0.74608 13.1754 0.636998 13.7223 0.636719 14.2748C0.636441 14.8272 0.744971 15.3742 0.956114 15.8847C1.16726 16.3952 1.47688 16.8591 1.8673 17.2499C2.25772 17.6407 2.72129 17.9508 3.23155 18.1624C3.74181 18.3741 4.28876 18.4832 4.84118 18.4835C5.39359 18.4838 5.94065 18.3752 6.45113 18.1641C6.9616 17.9529 7.42548 17.6433 7.8163 17.2529L10.9713 14.0979C11.014 14.056 11.0431 14.0023 11.055 13.9437C11.067 13.8851 11.0611 13.8243 11.0382 13.769C11.0153 13.7138 10.9764 13.6666 10.9266 13.6336C10.8767 13.6007 10.8181 13.5833 10.7583 13.5839H10.6383C9.97891 13.5852 9.32565 13.4574 8.7153 13.2079C8.66038 13.1853 8.59999 13.1795 8.54178 13.1913C8.48357 13.203 8.43015 13.2318 8.3883 13.2739L6.1203 15.5469C5.95305 15.7166 5.75387 15.8516 5.53422 15.944C5.31458 16.0364 5.07882 16.0844 4.84053 16.0853C4.60225 16.0862 4.36614 16.0399 4.14582 15.9491C3.9255 15.8583 3.72533 15.7249 3.55683 15.5564C3.38833 15.3879 3.25485 15.1877 3.16406 14.9674C3.07328 14.747 3.027 14.5109 3.02788 14.2727C3.02876 14.0344 3.07678 13.7986 3.16919 13.579C3.2616 13.3593 3.39656 13.1601 3.5663 12.9929L7.4043 9.16389C7.57149 8.99638 7.77007 8.86348 7.98868 8.77281C8.20729 8.68214 8.44163 8.63547 8.6783 8.63547C8.91496 8.63547 9.14931 8.68214 9.36792 8.77281C9.58653 8.86348 9.78511 8.99638 9.9523 9.16389C10.1808 9.37906 10.4829 9.49887 10.7968 9.49887C11.1107 9.49887 11.4128 9.37906 11.6413 9.16389C11.7527 9.05328 11.8411 8.92172 11.9015 8.77678C11.9618 8.63184 11.9929 8.47639 11.9929 8.31939C11.9929 8.1624 11.9618 8.00694 11.9015 7.862C11.8411 7.71706 11.7527 7.58549 11.6413 7.47488V7.47688Z" fill="white"/>
<path d="M17.4349 1.68105C17.0443 1.29036 16.5806 0.980447 16.0702 0.769004C15.5598 0.55756 15.0128 0.44873 14.4604 0.44873C13.908 0.44873 13.3609 0.55756 12.8506 0.769004C12.3402 0.980447 11.8765 1.29036 11.4859 1.68105L8.33189 4.82905C8.28883 4.8713 8.25951 4.92556 8.24776 4.98474C8.236 5.04392 8.24236 5.10527 8.26601 5.16077C8.28966 5.21628 8.32949 5.26336 8.38031 5.29588C8.43113 5.3284 8.49058 5.34484 8.55089 5.34305H8.6619C9.32029 5.34197 9.97254 5.4697 10.5819 5.71905C10.6373 5.74137 10.6982 5.74664 10.7566 5.73417C10.815 5.72169 10.8684 5.69205 10.9099 5.64905L13.1719 3.39005C13.5112 3.05137 13.9712 2.86136 14.4507 2.86183C14.9301 2.8623 15.3897 3.0532 15.7284 3.39255C16.0671 3.73189 16.2571 4.19188 16.2566 4.67132C16.2561 5.15075 16.0652 5.61037 15.7259 5.94905L12.9099 8.76205L12.8859 8.78905L11.9009 9.76505C11.7337 9.93256 11.5351 10.0654 11.3165 10.1561C11.0979 10.2468 10.8636 10.2935 10.6269 10.2935C10.3902 10.2935 10.1559 10.2468 9.93727 10.1561C9.71866 10.0654 9.52008 9.93256 9.35289 9.76505C9.1244 9.55017 8.82255 9.43054 8.5089 9.43054C8.19524 9.43054 7.89338 9.55017 7.66489 9.76505C7.44047 9.99001 7.31445 10.2948 7.31445 10.6125C7.31445 10.9303 7.44047 11.2351 7.66489 11.46C8.01211 11.809 8.41838 12.0937 8.86488 12.301C8.92788 12.331 8.99089 12.355 9.05389 12.382C9.11689 12.409 9.1829 12.43 9.2459 12.457C9.3085 12.4821 9.37263 12.5031 9.4379 12.52L9.61488 12.568C9.73488 12.598 9.8549 12.622 9.9789 12.643C10.1284 12.6652 10.2789 12.6792 10.4299 12.685H10.6549L10.8349 12.664C10.9009 12.664 10.9699 12.646 11.0479 12.646H11.1479L11.3549 12.616L11.4549 12.598L11.6289 12.562H11.6619C12.4011 12.3771 13.0761 11.9948 13.6149 11.456L17.4369 7.62805C17.8276 7.23747 18.1375 6.77375 18.3489 6.26338C18.5604 5.75301 18.6692 5.20599 18.6692 4.65355C18.6692 4.10111 18.5604 3.55409 18.3489 3.04371C18.1375 2.53334 17.8276 2.06963 17.4369 1.67905L17.4349 1.68105Z" fill="white"/>
</svg>
