<svg xmlns="http://www.w3.org/2000/svg" width="26.83" height="26.83" viewBox="0 0 26.83 26.83"><g transform="translate(-539 -280)"><g transform="translate(386 271)"><path d="M14.2,13.089V8.7a.786.786,0,0,0-1.572,0v4.716a.8.8,0,0,0,.231.557L16,17.114A.786.786,0,1,0,17.114,16ZM13.414,3.2A10.218,10.218,0,1,0,23.632,13.414,10.231,10.231,0,0,0,13.414,3.2Zm6.64,15.746-.526-.526a.786.786,0,1,0-1.111,1.111l.526.526A8.6,8.6,0,0,1,14.2,22.02v-.746a.786.786,0,1,0-1.572,0v.746a8.6,8.6,0,0,1-4.742-1.966l.526-.526A.786.786,0,0,0,7.3,18.416l-.526.526A8.6,8.6,0,0,1,4.808,14.2h.746a.786.786,0,0,0,0-1.572H4.808A8.6,8.6,0,0,1,6.774,7.886l.526.526A.786.786,0,0,0,8.412,7.3l-.526-.526a8.605,8.605,0,0,1,4.742-1.966v.746a.786.786,0,1,0,1.572,0V4.808a8.6,8.6,0,0,1,4.742,1.966l-.526.526a.786.786,0,1,0,1.111,1.111l.526-.526a8.6,8.6,0,0,1,1.966,4.742h-.746a.786.786,0,1,0,0,1.572h.746A8.6,8.6,0,0,1,20.054,18.942ZM13.414,0A13.414,13.414,0,1,0,26.828,13.414,13.466,13.466,0,0,0,13.414,0Zm0,25.256A11.842,11.842,0,1,1,25.256,13.414,11.892,11.892,0,0,1,13.414,25.256Z" transform="translate(153 9)" fill="#36f"/></g><g transform="translate(539 280)" fill="none" stroke="#01bca1" stroke-width="2"><circle cx="13.415" cy="13.415" r="13.415" stroke="none"/><circle cx="13.415" cy="13.415" r="12.415" fill="none"/></g></g></svg>