<svg width="21" height="20" viewBox="0 0 21 20" fill="none" xmlns="http://www.w3.org/2000/svg">
<path d="M19.223 15.6427L4.86239 2.01526C4.11805 1.30893 2.9114 1.30878 2.16726 2.01492C1.42311 2.72107 1.42327 3.86612 2.16761 4.57245L16.5282 18.1999C17.2726 18.9062 18.4792 18.9063 19.2234 18.2002C19.9675 17.494 19.9674 16.349 19.223 15.6427Z" fill="black"/>
<path d="M4.86194 18.2003L19.2226 4.57288C19.9669 3.86654 19.9671 2.7215 19.2229 2.01535C18.4788 1.3092 17.2721 1.30935 16.5278 2.01568L2.16715 15.6431C1.42281 16.3494 1.42265 17.4945 2.1668 18.2006C2.91094 18.9068 4.1176 18.9066 4.86194 18.2003Z" fill="black"/>
</svg>
