<svg width="24" height="35" viewBox="0 0 24 35" fill="none" xmlns="http://www.w3.org/2000/svg">
<path d="M17.4015 0.625671C17.2931 0.498123 17.1582 0.395664 17.0063 0.325401C16.8543 0.255139 16.6889 0.21875 16.5215 0.21875C16.3541 0.21875 16.1887 0.255139 16.0367 0.325401C15.8848 0.395664 15.7499 0.498123 15.6415 0.625671C15.4054 0.898336 15.2754 1.24696 15.2754 1.60767C15.2754 1.96837 15.4054 2.317 15.6415 2.58967C19.182 6.70528 21.1291 11.9542 21.1291 17.3832C21.1291 22.8121 19.182 28.0611 15.6415 32.1767C15.4054 32.4493 15.2754 32.798 15.2754 33.1587C15.2754 33.5194 15.4054 33.868 15.6415 34.1407C15.7499 34.2682 15.8848 34.3707 16.0367 34.4409C16.1887 34.5112 16.3541 34.5476 16.5215 34.5476C16.6889 34.5476 16.8543 34.5112 17.0063 34.4409C17.1582 34.3707 17.2931 34.2682 17.4015 34.1407C21.4121 29.4789 23.6177 23.5332 23.6177 17.3837C23.6177 11.2341 21.4121 5.28847 17.4015 0.626671V0.625671Z" fill="#2B8AFF"/>
<path d="M13.6339 4.8288C13.5255 4.70125 13.3907 4.59879 13.2387 4.52853C13.0868 4.45826 12.9213 4.42188 12.7539 4.42188C12.5865 4.42188 12.4211 4.45826 12.2692 4.52853C12.1172 4.59879 11.9824 4.70125 11.8739 4.8288C11.6378 5.10146 11.5078 5.45009 11.5078 5.8108C11.5078 6.17151 11.6378 6.52013 11.8739 6.79279C14.4082 9.73871 15.8019 13.4958 15.8019 17.3818C15.8019 21.2678 14.4082 25.0249 11.8739 27.9708C11.6378 28.2435 11.5078 28.5921 11.5078 28.9528C11.5078 29.3135 11.6378 29.6621 11.8739 29.9348C11.9824 30.0623 12.1172 30.1648 12.2692 30.2351C12.4211 30.3053 12.5865 30.3417 12.7539 30.3417C12.9213 30.3417 13.0868 30.3053 13.2387 30.2351C13.3907 30.1648 13.5255 30.0623 13.6339 29.9348C16.6385 26.4428 18.2908 21.9889 18.2908 17.3823C18.2908 12.7756 16.6385 8.3218 13.6339 4.8298V4.8288Z" fill="#2B8AFF"/>
<path d="M9.86246 9.03778C9.75403 8.91023 9.61917 8.80778 9.46722 8.73752C9.31528 8.66726 9.14986 8.63086 8.98245 8.63086C8.81504 8.63086 8.64963 8.66726 8.49768 8.73752C8.34573 8.80778 8.21088 8.91023 8.10245 9.03778C7.86728 9.31091 7.73795 9.65937 7.73795 10.0198C7.73795 10.3802 7.86728 10.7287 8.10245 11.0018C9.62978 12.7771 10.4697 15.0414 10.4697 17.3833C10.4697 19.7252 9.62978 21.9894 8.10245 23.7648C7.8663 24.0375 7.73633 24.3861 7.73633 24.7468C7.73633 25.1075 7.8663 25.4561 8.10245 25.7288C8.21088 25.8563 8.34573 25.9588 8.49768 26.0291C8.64963 26.0993 8.81504 26.1357 8.98245 26.1357C9.14986 26.1357 9.31528 26.0993 9.46722 26.0291C9.61917 25.9588 9.75403 25.8563 9.86246 25.7288C11.8601 23.4074 12.9586 20.4464 12.9586 17.3838C12.9586 14.3212 11.8601 11.3602 9.86246 9.03879V9.03778Z" fill="#2B8AFF"/>
<path d="M3.30648 11.584C0.926484 11.584 0.926484 23.284 3.30648 23.284C5.68648 23.284 7.62249 20.659 7.62249 17.434C7.62249 14.209 5.68648 11.584 3.30648 11.584Z" fill="#82C61B"/>
<path d="M4 6C4 4.89543 3.10457 4 2 4C0.89543 4 0 4.89543 0 6V29C0 30.1046 0.89543 31 2 31C3.10457 31 4 30.1046 4 29V6Z" fill="#82C61B"/>
</svg>
