<svg xmlns="http://www.w3.org/2000/svg" width="16.984" height="18.116" viewBox="0 0 16.984 18.116"><g transform="translate(3.963)"><path d="M137.005,8.258a.565.565,0,0,0-.515-.332h-2.265V.566A.566.566,0,0,0,133.66,0h-2.265a.566.566,0,0,0-.566.566v7.36h-2.265a.566.566,0,0,0-.426.939l3.963,4.529a.565.565,0,0,0,.851,0l3.963-4.529A.564.564,0,0,0,137.005,8.258Z" transform="translate(-127.998 0)" fill="#36f"/></g><g transform="translate(0 12.455)"><path d="M30.72,352v3.4H18.265V352H16v4.529a1.132,1.132,0,0,0,1.132,1.132h14.72a1.131,1.131,0,0,0,1.132-1.132V352Z" transform="translate(-16 -352)" fill="#36f"/></g></svg>