<svg xmlns="http://www.w3.org/2000/svg" width="20.377" height="15.282" viewBox="0 0 20.377 15.282"><path d="M7.164,79.282H3.821A3.821,3.821,0,0,1,0,75.462V67.821A3.821,3.821,0,0,1,3.821,64H7.164a.478.478,0,0,1,.478.478v1.592a.478.478,0,0,1-.478.478H3.821a1.274,1.274,0,0,0-1.274,1.274v7.641a1.274,1.274,0,0,0,1.274,1.274H7.164a.478.478,0,0,1,.478.478V78.8A.478.478,0,0,1,7.164,79.282Z" transform="translate(0 -64)" fill="#36f" opacity="0.4"/><path d="M167.681,81.618l6.045,5.993a.955.955,0,0,1,0,1.357l-6.049,6a.958.958,0,0,1-1.349,0l-.872-.872a.958.958,0,0,1,.032-1.381l3.088-2.83h-7.621a.953.953,0,0,1-.955-.955V87.655a.953.953,0,0,1,.955-.955h7.621l-3.088-2.83a.955.955,0,0,1-.028-1.377l.872-.872a.955.955,0,0,1,1.349,0Z" transform="translate(-153.632 -80.651)" fill="#36f"/></svg>