<svg xmlns="http://www.w3.org/2000/svg" width="20.382" height="20.383" viewBox="0 0 20.382 20.383"><path d="M17.834,0H2.548A2.55,2.55,0,0,0,0,2.548V14.013a2.55,2.55,0,0,0,2.548,2.548H6.369V19.9a.478.478,0,0,0,.76.386l4.972-3.73h5.733a2.55,2.55,0,0,0,2.548-2.548V2.548A2.55,2.55,0,0,0,17.834,0Zm-5.1,5.3a1.067,1.067,0,1,1-1.067,1.067A1.067,1.067,0,0,1,12.739,5.3Zm-5.1,0A1.067,1.067,0,1,1,6.576,6.369,1.067,1.067,0,0,1,7.643,5.3Zm6.537,5.609a5.268,5.268,0,0,1-7.978,0,.637.637,0,0,1,.967-.824,3.99,3.99,0,0,0,6.035,0,.64.64,0,1,1,.975.828Z" fill="#36f" opacity="0.4"/><path d="M159.337,135.334a1.067,1.067,0,1,0-1.067-1.067A1.067,1.067,0,0,0,159.337,135.334Zm-5.1,0a1.067,1.067,0,1,0-1.067-1.067A1.067,1.067,0,0,0,154.241,135.334Zm6.461,2.576a.641.641,0,0,0-.9.072,3.99,3.99,0,0,1-6.035,0,.637.637,0,0,0-.967.824,5.268,5.268,0,0,0,7.978,0,.637.637,0,0,0-.076-.9Z" transform="translate(-146.598 -127.897)" fill="#36f"/></svg>