<svg width="24" height="27" viewBox="0 0 24 27" fill="none" xmlns="http://www.w3.org/2000/svg">
<path d="M21.6243 0.717773H2.56333C2.00194 0.718302 1.46367 0.941481 1.06661 1.33835C0.669555 1.73522 0.446122 2.27338 0.445328 2.83477V5.16577C0.443989 5.60285 0.529489 6.03583 0.696863 6.43959C0.864237 6.84335 1.11015 7.20984 1.42033 7.51777L8.47433 14.5678C8.75694 14.8523 8.9161 15.2367 8.91733 15.6378V25.2238C8.91689 25.3975 8.96645 25.5676 9.06007 25.7139C9.15369 25.8602 9.28743 25.9764 9.44533 26.0488C9.56391 26.1044 9.69334 26.1331 9.82433 26.1328C10.0413 26.1334 10.2512 26.0556 10.4153 25.9138L13.8053 23.0078C14.1704 22.6957 14.4635 22.3082 14.6643 21.872C14.865 21.4357 14.9688 20.961 14.9683 20.4808V15.6628C14.9687 15.4596 15.0098 15.2586 15.0891 15.0715C15.1685 14.8845 15.2845 14.7152 15.4303 14.5738L22.7243 7.53677C23.0456 7.22504 23.3011 6.85201 23.4756 6.43976C23.6501 6.02751 23.7401 5.58444 23.7403 5.13677V2.83477C23.7401 2.27356 23.5171 1.7354 23.1203 1.33847C22.7236 0.941546 22.1855 0.718303 21.6243 0.717773V0.717773Z" fill="#2E96D5"/>
</svg>
