<svg xmlns="http://www.w3.org/2000/svg" width="12.279" height="18" viewBox="0 0 12.279 18"><g transform="translate(-87.516 1)"><path d="M98.534,8.4,95.942,5.583l2.591-2.8a.311.311,0,0,0-.261-.522H89.907V2.017a1.1,1.1,0,0,0,.678-.974A1.043,1.043,0,0,0,89.542,0a1.026,1.026,0,0,0-1.026,1.026c0,.006,0,.012,0,.018a1.113,1.113,0,0,0,.7.974V15.652a.348.348,0,0,0,.7,0V9.043h8.365a.383.383,0,0,0,.313-.243A.365.365,0,0,0,98.534,8.4ZM89.542,1.391a.348.348,0,1,1,.348-.348A.348.348,0,0,1,89.542,1.391Zm.365,6.957V2.957H97.49L95.229,5.374a.365.365,0,0,0,0,.487L97.49,8.348H89.907Z" fill="#36f" stroke="#36f" stroke-width="2"/><rect width="5" height="5" transform="translate(90.516 3)" fill="#36f"/></g></svg>