<svg xmlns="http://www.w3.org/2000/svg" width="22.93" height="23.951" viewBox="0 0 22.93 23.951"><g transform="translate(-1162.154 -233)"><path d="M41.637,22.854,39.58,21.666a9.3,9.3,0,0,0,0-3.39l2.057-1.188a.585.585,0,0,0,.266-.676,12.034,12.034,0,0,0-2.641-4.568.579.579,0,0,0-.715-.111L36.49,12.921a9.118,9.118,0,0,0-2.936-1.695V8.855A.579.579,0,0,0,33.1,8.29a12.141,12.141,0,0,0-5.273,0,.579.579,0,0,0-.454.565v2.376a9.4,9.4,0,0,0-2.936,1.695l-2.055-1.188a.574.574,0,0,0-.715.111,11.959,11.959,0,0,0-2.641,4.568.579.579,0,0,0,.266.676l2.057,1.188a9.3,9.3,0,0,0,0,3.39l-2.057,1.188a.583.583,0,0,0-.266.676A12.024,12.024,0,0,0,21.67,28.1a.579.579,0,0,0,.715.111l2.057-1.188a9.1,9.1,0,0,0,2.936,1.695V31.1a.579.579,0,0,0,.454.565,12.141,12.141,0,0,0,5.273,0,.579.579,0,0,0,.454-.565V28.721a9.4,9.4,0,0,0,2.936-1.695l2.057,1.188a.574.574,0,0,0,.715-.111,11.952,11.952,0,0,0,2.641-4.568.6.6,0,0,0-.27-.681ZM30.463,24.6a4.631,4.631,0,1,1,4.631-4.631A4.631,4.631,0,0,1,30.463,24.6Z" transform="translate(1143.152 225)" fill="#36f" opacity="0.4"/><path d="M196.051,199.2a3.6,3.6,0,1,1,3.6-3.6A3.6,3.6,0,0,1,196.051,199.2Z" transform="translate(977.479 49.369)" fill="#36f"/></g></svg>