<svg width="18" height="19" viewBox="0 0 18 19" fill="none" xmlns="http://www.w3.org/2000/svg">
<path d="M15.9244 0.587891H2.44337C2.04555 0.587891 1.66401 0.745926 1.38271 1.02723C1.10141 1.30853 0.94337 1.69007 0.94337 2.08789V3.73389C0.942444 4.04328 1.00296 4.34977 1.12141 4.63558C1.23985 4.9214 1.41387 5.18085 1.63337 5.39889L6.62237 10.3879C6.82215 10.5893 6.9346 10.8612 6.93537 11.1449V17.9259C6.9352 18.0487 6.97037 18.169 7.03668 18.2724C7.103 18.3757 7.19766 18.4578 7.30937 18.5089C7.39326 18.5481 7.48478 18.5682 7.57737 18.5679C7.73079 18.5681 7.87916 18.5131 7.99537 18.4129L10.3954 16.3579C10.6536 16.1373 10.861 15.8633 11.0031 15.5547C11.1451 15.2462 11.2186 14.9106 11.2184 14.5709V11.1589C11.2183 11.0152 11.247 10.8729 11.3029 10.7405C11.3587 10.6081 11.4405 10.4882 11.5434 10.3879L16.7034 5.40989C16.9302 5.18983 17.1108 4.92657 17.2342 4.63563C17.3577 4.34468 17.4217 4.03195 17.4224 3.71589V2.08789C17.4224 1.69007 17.2643 1.30853 16.983 1.02723C16.7017 0.745926 16.3202 0.587891 15.9224 0.587891L15.9244 0.587891Z" fill="#AEAEAE"/>
</svg>
