<svg width="24" height="24" viewBox="0 0 24 24" fill="none" xmlns="http://www.w3.org/2000/svg">
<path d="M19 9.3006V5.0006C19 4.73538 18.8947 4.48103 18.7071 4.29349C18.5196 4.10596 18.2652 4.0006 18 4.0006H17C16.7348 4.0006 16.4804 4.10596 16.2929 4.29349C16.1054 4.48103 16 4.73538 16 5.0006V6.6006L12.67 3.6006C12.4855 3.43641 12.247 3.3457 12 3.3457C11.753 3.3457 11.5146 3.43641 11.33 3.6006L2.97001 11.1306C2.89572 11.1981 2.84346 11.2864 2.82005 11.3841C2.79665 11.4817 2.80317 11.5841 2.83878 11.678C2.87438 11.7718 2.93742 11.8528 3.01968 11.9104C3.10195 11.9679 3.19963 11.9993 3.30001 12.0006H5.00001V19.0006C5.00001 19.2658 5.10537 19.5202 5.29291 19.7077C5.48044 19.8952 5.7348 20.0006 6.00001 20.0006H9.00001C9.26523 20.0006 9.51958 19.8952 9.70712 19.7077C9.89466 19.5202 10 19.2658 10 19.0006V14.0006H14V19.0006C14 19.2658 14.1054 19.5202 14.2929 19.7077C14.4804 19.8952 14.7348 20.0006 15 20.0006H18C18.2652 20.0006 18.5196 19.8952 18.7071 19.7077C18.8947 19.5202 19 19.2658 19 19.0006V12.0006H20.7C20.8004 11.9993 20.8981 11.9679 20.9803 11.9104C21.0626 11.8528 21.1256 11.7718 21.1613 11.678C21.1969 11.5841 21.2034 11.4817 21.18 11.3841C21.1566 11.2864 21.1043 11.1981 21.03 11.1306L19 9.3006ZM10 10.0006C10 9.47017 10.2107 8.96146 10.5858 8.58639C10.9609 8.21131 11.4696 8.0006 12 8.0006C12.5304 8.0006 13.0392 8.21131 13.4142 8.58639C13.7893 8.96146 14 9.47017 14 10.0006H10Z" fill="#434343"/>
</svg>
