<svg xmlns="http://www.w3.org/2000/svg" width="34.969" height="47.451" viewBox="0 0 34.969 47.451"><g transform="translate(-14854.998 -2955.932)"><g transform="translate(13791 2418.93)" opacity="0.8"><path d="M39.968,22.481A17.446,17.446,0,0,1,33.3,36.217a8.385,8.385,0,0,0-3.2,5.02l-.125-.025H14.992l-.175.025a7.6,7.6,0,0,0-2.847-4.8,17.484,17.484,0,1,1,28-13.961Z" transform="translate(1058.999 532.002)" fill="#ffd400"/><path d="M22.482,5a17.881,17.881,0,0,0-3.744.4A17.47,17.47,0,0,0,11.97,36.443a7.6,7.6,0,0,1,2.847,4.8l.175-.025h7.493V5h0Z" transform="translate(1058.999 532.001)" fill="#f9a025"/><path d="M24.215,19.525a7.386,7.386,0,0,0-.125,1.3v5.545a4.392,4.392,0,0,1-4.371,4.371H13.476c-2.1,0-4.371-1.6-4.371-5.1V21.223a7.688,7.688,0,0,0-.175-1.7L9.1,19.5H24.09Z" transform="translate(1064.886 553.714)" fill="#607d8b"/><path d="M16.6,19.5H9.1l-.175.025a7.688,7.688,0,0,1,.175,1.7v4.421c0,3.5,2.273,5.1,4.371,5.1H16.6Z" transform="translate(1064.886 553.714)" fill="#546d79"/><path d="M22.115,19.988a1.874,1.874,0,0,1-1.873-1.873,6.874,6.874,0,0,0-6.868-6.868,1.873,1.873,0,1,1,0-3.746A10.628,10.628,0,0,1,23.988,18.115,1.874,1.874,0,0,1,22.115,19.988Z" transform="translate(1068.735 535.743)" fill="#ffc107" stroke="#fff" stroke-width="1"/><path d="M12.089,8.246c-.192,0-.39,0-.589.01a1.874,1.874,0,0,0,1.873,1.873A6.874,6.874,0,0,1,20.241,17a1.874,1.874,0,0,0,1.873,1.873C23.149,18.871,23.5,8.246,12.089,8.246Z" transform="translate(1068.735 536.861)" fill="#fff"/></g><g transform="translate(13791 2418.93)" opacity="0.8"><path d="M39.968,22.481A17.446,17.446,0,0,1,33.3,36.217a8.385,8.385,0,0,0-3.2,5.02l-.125-.025H14.992l-.175.025a7.6,7.6,0,0,0-2.847-4.8,17.484,17.484,0,1,1,28-13.961Z" transform="translate(1058.999 532.002)" fill="#ffd400"/><path d="M22.482,5a17.881,17.881,0,0,0-3.744.4A17.47,17.47,0,0,0,11.97,36.443a7.6,7.6,0,0,1,2.847,4.8l.175-.025h7.493V5h0Z" transform="translate(1058.999 532.001)" fill="#f9a025"/><path d="M24.215,19.525a7.386,7.386,0,0,0-.125,1.3v5.545a4.392,4.392,0,0,1-4.371,4.371H13.476c-2.1,0-4.371-1.6-4.371-5.1V21.223a7.688,7.688,0,0,0-.175-1.7L9.1,19.5H24.09Z" transform="translate(1064.886 553.714)" fill="#607d8b"/><path d="M16.6,19.5H9.1l-.175.025a7.688,7.688,0,0,1,.175,1.7v4.421c0,3.5,2.273,5.1,4.371,5.1H16.6Z" transform="translate(1064.886 553.714)" fill="#546d79"/><path d="M22.115,19.988a1.874,1.874,0,0,1-1.873-1.873,6.874,6.874,0,0,0-6.868-6.868,1.873,1.873,0,1,1,0-3.746A10.628,10.628,0,0,1,23.988,18.115,1.874,1.874,0,0,1,22.115,19.988Z" transform="translate(1068.735 535.743)" fill="#ffc107" stroke="#fff" stroke-width="1"/><path d="M12.089,8.246c-.192,0-.39,0-.589.01a1.874,1.874,0,0,0,1.873,1.873A6.874,6.874,0,0,1,20.241,17a1.874,1.874,0,0,0,1.873,1.873C23.149,18.871,23.5,8.246,12.089,8.246Z" transform="translate(1068.735 536.861)" fill="#fff"/></g></g></svg>