<svg width="18" height="17" viewBox="0 0 18 17" fill="none" xmlns="http://www.w3.org/2000/svg">
<path d="M10.7218 6.79081C10.531 6.59466 10.3194 6.42078 10.091 6.27235C9.36937 5.80011 8.5114 5.59405 7.6594 5.68835C6.80739 5.78265 6.01252 6.17164 5.40661 6.79081L1.9918 10.2814C1.64263 10.6377 1.36557 11.0609 1.17647 11.5267C0.987358 11.9924 0.889898 12.4917 0.889649 12.9959C0.8894 13.5002 0.986368 13.9995 1.17502 14.4655C1.36366 14.9314 1.6403 15.3549 1.98912 15.7116C2.33795 16.0683 2.75213 16.3514 3.20803 16.5446C3.66392 16.7378 4.1526 16.8374 4.64616 16.8376C5.13972 16.8379 5.6285 16.7388 6.08459 16.5461C6.54067 16.3533 6.95514 16.0707 7.30431 15.7143L10.1232 12.8345C10.1613 12.7962 10.1873 12.7472 10.198 12.6937C10.2087 12.6402 10.2034 12.5847 10.183 12.5343C10.1625 12.4839 10.1278 12.4408 10.0832 12.4107C10.0387 12.3806 9.9863 12.3648 9.93287 12.3653H9.82566C9.23652 12.3664 8.65286 12.2498 8.10754 12.0221C8.05847 12.0014 8.00451 11.9962 7.9525 12.0069C7.90049 12.0176 7.85277 12.0439 7.81537 12.0823L5.78901 14.1571C5.63958 14.312 5.46162 14.4352 5.26537 14.5196C5.06913 14.6039 4.85849 14.6478 4.64559 14.6486C4.43269 14.6494 4.22174 14.6071 4.02489 14.5243C3.82804 14.4414 3.64919 14.3196 3.49865 14.1658C3.3481 14.012 3.22884 13.8292 3.14773 13.6281C3.06662 13.427 3.02527 13.2115 3.02605 12.994C3.02684 12.7765 3.06975 12.5613 3.15231 12.3608C3.23487 12.1603 3.35546 11.9785 3.50711 11.8258L6.93621 8.33072C7.08559 8.17782 7.26301 8.0565 7.45833 7.97374C7.65365 7.89097 7.86303 7.84837 8.07448 7.84837C8.28593 7.84837 8.49531 7.89097 8.69062 7.97374C8.88594 8.0565 9.06337 8.17782 9.21274 8.33072C9.41694 8.52712 9.68682 8.63648 9.96727 8.63648C10.2477 8.63648 10.5176 8.52712 10.7218 8.33072C10.8213 8.22975 10.9004 8.10966 10.9543 7.97736C11.0082 7.84506 11.0359 7.70317 11.0359 7.55986C11.0359 7.41655 11.0082 7.27465 10.9543 7.14235C10.9004 7.01005 10.8213 6.88996 10.7218 6.78899V6.79081Z" fill="white"/>
<path d="M15.8987 1.5001C15.5497 1.14348 15.1354 0.860595 14.6794 0.667589C14.2234 0.474584 13.7346 0.375244 13.2411 0.375244C12.7475 0.375244 12.2587 0.474584 11.8027 0.667589C11.3467 0.860595 10.9324 1.14348 10.5835 1.5001L7.76549 4.37359C7.72701 4.41217 7.70082 4.46169 7.69031 4.51571C7.67981 4.56973 7.68549 4.62572 7.70662 4.67639C7.72775 4.72706 7.76334 4.77004 7.80875 4.79972C7.85415 4.8294 7.90727 4.8444 7.96115 4.84277H8.06033C8.64858 4.84179 9.23134 4.95838 9.77577 5.18598C9.82529 5.20636 9.87965 5.21117 9.93186 5.19978C9.98407 5.1884 10.0318 5.16134 10.0688 5.12209L12.0898 3.06008C12.393 2.75093 12.804 2.57749 13.2324 2.57792C13.6607 2.57835 14.0714 2.7526 14.374 3.06236C14.6766 3.37211 14.8463 3.79199 14.8459 4.22962C14.8455 4.66724 14.6749 5.08678 14.3717 5.39593L11.8558 7.96363L11.8343 7.98828L10.9542 8.87917C10.8049 9.03207 10.6274 9.15337 10.4321 9.23614C10.2368 9.3189 10.0274 9.36151 9.81598 9.36151C9.60452 9.36151 9.39515 9.3189 9.19983 9.23614C9.00451 9.15337 8.82708 9.03207 8.67771 8.87917C8.47356 8.68303 8.20387 8.57383 7.92363 8.57383C7.64339 8.57383 7.37369 8.68303 7.16954 8.87917C6.96904 9.08451 6.85645 9.36272 6.85645 9.65276C6.85645 9.94281 6.96904 10.221 7.16954 10.4264C7.47977 10.7449 7.84276 11.0048 8.24169 11.194C8.29798 11.2214 8.35428 11.2433 8.41057 11.268C8.46685 11.2926 8.52582 11.3118 8.58211 11.3364C8.63805 11.3593 8.69535 11.3785 8.75366 11.3939L8.91179 11.4377C9.019 11.4651 9.12623 11.487 9.23702 11.5062C9.37056 11.5264 9.50506 11.5392 9.63996 11.5445H9.84099L10.0018 11.5254C10.0608 11.5254 10.1224 11.5089 10.1921 11.5089H10.2815L10.4664 11.4816L10.5558 11.4651L10.7112 11.4323H10.7407C11.4011 11.2634 12.0042 10.9145 12.4856 10.4227L15.9004 6.92852C16.2495 6.572 16.5264 6.14872 16.7153 5.68285C16.9042 5.21699 17.0015 4.71766 17.0015 4.2134C17.0015 3.70913 16.9042 3.20981 16.7153 2.74394C16.5264 2.27808 16.2495 1.8548 15.9004 1.49828L15.8987 1.5001Z" fill="white"/>
</svg>
