<svg width="36" height="35" viewBox="0 0 36 35" fill="none" xmlns="http://www.w3.org/2000/svg">
<path d="M18 34.999C27.9411 34.999 36 27.164 36 17.499C36 7.83404 27.9411 -0.000976562 18 -0.000976562C8.05887 -0.000976562 0 7.83404 0 17.499C0 27.164 8.05887 34.999 18 34.999Z" fill="#FCFCFC"/>
<path d="M18 34.499C27.665 34.499 35.5 26.8879 35.5 17.499C35.5 8.11018 27.665 0.499023 18 0.499023C8.33502 0.499023 0.5 8.11018 0.5 17.499C0.5 26.8879 8.33502 34.499 18 34.499Z" stroke="#2E96D5"/>
<path d="M12.3333 19.8496H9.82227V26.1276H16.1003V23.6166H12.3333V19.8496Z" fill="#2E96D5"/>
<path d="M9.82227 14.8278H12.3333V11.0608H16.1003V8.5498H9.82227V14.8278Z" fill="#2E96D5"/>
<path d="M21.1221 8.5498V11.0608H24.8891V14.8278H27.4001V8.5498H21.1221Z" fill="#2E96D5"/>
<path d="M24.8891 23.6166H21.1221V26.1276H27.4001V19.8496H24.8891V23.6166Z" fill="#2E96D5"/>
</svg>
