<svg xmlns="http://www.w3.org/2000/svg" width="13.013" height="17" viewBox="0 0 13.013 17"><g transform="translate(18406.124 14184.5)"><rect width="10.276" height="9" transform="translate(-18405 -14177.289)" fill="#36f"/><g transform="translate(-18405.623 -14184)"><g transform="translate(-0.001 0)"><g transform="translate(0 0)"><path d="M1577.955,1388.16h-.309v-2.354a3.694,3.694,0,0,0-3.41-3.916h-1.868a3.694,3.694,0,0,0-3.41,3.916v2.354h-.309a1.355,1.355,0,0,0-1.354,1.354v7.022a1.355,1.355,0,0,0,1.354,1.354h9.305a1.355,1.355,0,0,0,1.354-1.354v-7.022A1.355,1.355,0,0,0,1577.955,1388.16Zm-8.147-2.354a2.851,2.851,0,0,1,2.56-3.066h1.868a2.851,2.851,0,0,1,2.56,3.066v2.354h-6.988Zm8.651,10.729a.5.5,0,0,1-.5.5h-9.305a.5.5,0,0,1-.5-.5v-7.022a.5.5,0,0,1,.5-.5h9.305a.5.5,0,0,1,.5.5Z" transform="translate(-1567.296 -1381.89)" fill="#36f" stroke="#36f" stroke-width="1"/><path d="M2037.749,2283.922a1.695,1.695,0,0,0-.779,3.2v1.838h1.557v-1.838a1.695,1.695,0,0,0-.779-3.2Z" transform="translate(-2031.623 -2275.78)" fill="#fff" stroke="#fff" stroke-width="1"/></g></g></g></g></svg>