<svg xmlns="http://www.w3.org/2000/svg" width="17.944" height="15.7" viewBox="0 0 17.944 15.7"><g transform="translate(0 -0.008)"><path d="M89.07,7.484a3.738,3.738,0,1,1,3.738-3.738A3.742,3.742,0,0,1,89.07,7.484Zm0-6.355a2.617,2.617,0,1,0,2.617,2.617A2.62,2.62,0,0,0,89.07,1.129Zm0,0" transform="translate(-82.342)" fill="#36f"/><path d="M12.9,262.737H.561A.561.561,0,0,1,0,262.176v-2.617a3.555,3.555,0,0,1,3.551-3.551H9.906a3.555,3.555,0,0,1,3.551,3.551v2.617A.561.561,0,0,1,12.9,262.737ZM1.121,261.615H12.336v-2.056a2.433,2.433,0,0,0-2.43-2.43H3.551a2.433,2.433,0,0,0-2.43,2.43Zm0,0" transform="translate(0 -247.028)" fill="#36f"/><path d="M305.584,187.8h-6.355a.561.561,0,1,1,0-1.121h6.355a.561.561,0,1,1,0,1.121Zm0,0" transform="translate(-288.201 -180.126)" fill="#36f"/><path d="M395.232,108.409a.561.561,0,0,1-.4-.958l2.594-2.594-2.594-2.594a.561.561,0,1,1,.793-.793l2.99,2.991a.561.561,0,0,1,0,.793l-2.99,2.991A.557.557,0,0,1,395.232,108.409Zm0,0" transform="translate(-380.84 -97.747)" fill="#36f"/></g></svg>