<svg width="24" height="24" viewBox="0 0 24 24" fill="none" xmlns="http://www.w3.org/2000/svg">
<g opacity="0.5">
<path opacity="0.5" d="M17.8019 7.14339C17.7965 6.8471 17.7187 6.55664 17.5754 6.29726C17.4321 6.03788 17.2276 5.81744 16.9797 5.65512C16.7317 5.49279 16.4479 5.39349 16.1529 5.36586C15.8578 5.33823 15.5605 5.3831 15.2868 5.49657C15.2146 5.24946 15.0908 5.02046 14.9236 4.82469C14.7564 4.62892 14.5496 4.47082 14.3169 4.36083C14.0841 4.25083 13.8307 4.19144 13.5733 4.18658C13.3159 4.18171 13.0604 4.23148 12.8236 4.33259C12.6987 3.96024 12.4567 3.63826 12.1338 3.41476C11.8109 3.19126 11.4243 3.07821 11.0318 3.09251C10.6393 3.10681 10.262 3.24769 9.95619 3.4941C9.65037 3.74051 9.43246 4.07924 9.33501 4.4597C9.05695 4.35454 8.75737 4.31905 8.46243 4.35635C8.1675 4.39364 7.88618 4.50257 7.64304 4.67363C7.3999 4.84469 7.20235 5.07268 7.06762 5.33768C6.93289 5.60268 6.86509 5.89663 6.87014 6.19387L6.98427 12.7102L6.08121 11.8373C5.73822 11.4984 5.27465 11.3096 4.79246 11.3125C4.31028 11.3154 3.849 11.5097 3.51008 11.8527C3.17116 12.1957 2.98238 12.6592 2.98526 13.1414C2.98813 13.6236 3.18244 14.0849 3.52543 14.4238L7.94199 19.8862C7.99988 19.9573 8.07313 20.0143 8.15622 20.0529C8.23932 20.0916 8.33009 20.1109 8.42172 20.1093L14.9841 19.998C15.0766 19.9965 15.1676 19.9738 15.25 19.9317C15.3324 19.8896 15.404 19.8292 15.4595 19.7551C17.0726 17.5869 17.9248 14.9467 17.8836 12.2445L17.8019 7.14339ZM14.6658 18.7891L8.70159 18.8903L4.44626 13.6352C4.4296 13.617 4.41183 13.5998 4.39305 13.5838C4.2775 13.4721 4.21104 13.319 4.20832 13.1583C4.20559 12.9976 4.26681 12.8424 4.37851 12.7269C4.49021 12.6113 4.64324 12.5449 4.80394 12.5421C4.96464 12.5394 5.11984 12.6006 5.23539 12.7123L7.19036 14.602C7.2765 14.6856 7.38551 14.7417 7.50356 14.7632C7.62161 14.7847 7.7434 14.7707 7.85348 14.7229C7.96356 14.6752 8.05698 14.5958 8.12189 14.4949C8.18681 14.3939 8.22031 14.276 8.21813 14.156L8.08541 6.16971C8.08359 6.00959 8.14522 5.85525 8.25683 5.74043C8.36845 5.6256 8.52097 5.55962 8.68108 5.55691C8.84119 5.55419 8.99587 5.61495 9.11131 5.72592C9.22676 5.83689 9.29359 5.98905 9.29721 6.14914L9.38121 11.0981C9.38482 11.2582 9.45165 11.4104 9.5671 11.5214C9.68255 11.6323 9.83722 11.6931 9.99733 11.6904C10.1574 11.6877 10.31 11.6217 10.4216 11.5069C10.5332 11.392 10.5948 11.2377 10.593 11.0776L10.4884 4.91253C10.4865 4.75241 10.5482 4.59808 10.6598 4.48325C10.7714 4.36843 10.9239 4.30245 11.084 4.29973C11.2441 4.29701 11.3988 4.35778 11.5143 4.46875C11.6297 4.57972 11.6965 4.73187 11.7002 4.89196L11.8048 11.057C11.8084 11.2171 11.8752 11.3693 11.9907 11.4802C12.1061 11.5912 12.2608 11.652 12.4209 11.6492C12.581 11.6465 12.7336 11.5805 12.8452 11.4657C12.9568 11.3509 13.0184 11.1966 13.0166 11.0364L12.932 6.01036C12.9302 5.93052 12.9442 5.8511 12.9732 5.77668C13.0022 5.70227 13.0456 5.63432 13.101 5.57674C13.1563 5.51916 13.2225 5.47309 13.2957 5.44117C13.3689 5.40926 13.4477 5.39213 13.5276 5.39078C13.6074 5.38942 13.6867 5.40387 13.761 5.43328C13.8353 5.46269 13.903 5.50649 13.9602 5.56215C14.0175 5.61782 14.0632 5.68426 14.0947 5.75765C14.1262 5.83104 14.1429 5.90993 14.1438 5.98979L14.2306 11.0194C14.2333 11.1801 14.2998 11.3331 14.4153 11.4448C14.5309 11.5565 14.6861 11.6177 14.8468 11.615C14.8675 11.6147 14.8883 11.6134 14.9089 11.6111C15.0579 11.5932 15.1948 11.5206 15.2934 11.4075C15.3919 11.2944 15.445 11.1488 15.4424 10.9988L15.3776 7.181C15.3758 7.02088 15.4374 6.86654 15.549 6.75172C15.6606 6.63689 15.8131 6.57092 15.9732 6.5682C16.1334 6.56548 16.288 6.62625 16.4035 6.73722C16.5189 6.84819 16.5858 7.00034 16.5894 7.16043L16.6752 12.2614C16.7113 14.5949 16.0079 16.8799 14.6658 18.7891Z" fill="#434343"/>
</g>
</svg>
