<svg width="26" height="19" viewBox="0 0 26 19" fill="none" xmlns="http://www.w3.org/2000/svg">
<path d="M23.2128 0.576172H3.59883C2.88937 0.576172 2.20898 0.858005 1.70732 1.35966C1.20566 1.86132 0.923829 2.54172 0.923829 3.25117V15.7322C0.923566 16.0836 0.992563 16.4317 1.12688 16.7565C1.26119 17.0812 1.45819 17.3764 1.70661 17.625C1.95503 17.8736 2.25001 18.0708 2.57469 18.2054C2.89936 18.3399 3.24737 18.4092 3.59883 18.4092H23.2128C23.9223 18.4092 24.6027 18.1273 25.1043 17.6257C25.606 17.124 25.8878 16.4436 25.8878 15.7342V3.25117C25.8878 2.54172 25.606 1.86132 25.1043 1.35966C24.6027 0.858005 23.9223 0.576172 23.2128 0.576172ZM24.1038 10.9092L18.4938 5.29917C18.4111 5.21629 18.3128 5.15055 18.2046 5.10569C18.0964 5.06083 17.9804 5.03773 17.8633 5.03773C17.7462 5.03773 17.6302 5.06083 17.5221 5.10569C17.4139 5.15055 17.3156 5.21629 17.2328 5.29917L9.83983 12.6892L6.90383 9.75317C6.82107 9.6703 6.72279 9.60454 6.61461 9.55968C6.50642 9.51482 6.39045 9.49174 6.27333 9.49174C6.15621 9.49174 6.04024 9.51482 5.93205 9.55968C5.82387 9.60454 5.72558 9.6703 5.64283 9.75317L2.70683 12.6892V3.25117C2.70683 3.0146 2.80081 2.78772 2.96809 2.62044C3.13537 2.45316 3.36226 2.35918 3.59883 2.35918H23.2128C23.4494 2.35918 23.6763 2.45316 23.8436 2.62044C24.0108 2.78772 24.1048 3.0146 24.1048 3.25117V10.9092H24.1038Z" fill="#2E96D5"/>
<path d="M8.94746 9.49258C10.4248 9.49258 11.6225 8.29494 11.6225 6.81758C11.6225 5.34022 10.4248 4.14258 8.94746 4.14258C7.4701 4.14258 6.27246 5.34022 6.27246 6.81758C6.27246 8.29494 7.4701 9.49258 8.94746 9.49258Z" fill="#2E96D5"/>
</svg>
