<svg xmlns="http://www.w3.org/2000/svg" width="24.614" height="27.288" viewBox="0 0 24.614 27.288"><g transform="translate(-43 -517.497)"><g transform="translate(47.376 517.997)"><path d="M1584.81,1392.193h-.507v-3.868c0-3.548-2.513-6.435-5.6-6.435h-3.07c-3.089,0-5.6,2.887-5.6,6.435v3.868h-.507a2.227,2.227,0,0,0-2.224,2.224v11.537a2.227,2.227,0,0,0,2.224,2.224h15.29a2.227,2.227,0,0,0,2.224-2.224v-11.537A2.227,2.227,0,0,0,1584.81,1392.193Zm-13.386-3.868c0-2.778,1.887-5.038,4.206-5.038h3.07c2.319,0,4.206,2.26,4.206,5.038v3.868h-11.482Zm14.214,17.629a.829.829,0,0,1-.828.828h-15.29a.829.829,0,0,1-.828-.828v-11.537a.829.829,0,0,1,.828-.828h15.29a.829.829,0,0,1,.828.828Z" transform="translate(-1567.296 -1381.89)" fill="#2e96d5" stroke="#2e96d5" stroke-width="1"/><path d="M2037.643,2283.922a1.589,1.589,0,0,0-.73,3v1.723h1.46v-1.723a1.589,1.589,0,0,0-.73-3Z" transform="translate(-2027.774 -2267.988)" fill="#2e96d5" stroke="#2e96d5" stroke-width="1"/></g><g transform="translate(43 517.91)" fill="#2e96d5" stroke="#2e96d5" stroke-width="1"><circle cx="2" cy="2" r="2" stroke="none"/><circle cx="2" cy="2" r="1.5" fill="none"/></g><g transform="translate(43 523.91)" fill="#2e96d5" stroke="#2e96d5" stroke-width="1"><circle cx="2" cy="2" r="2" stroke="none"/><circle cx="2" cy="2" r="1.5" fill="none"/></g></g></svg>