<svg xmlns="http://www.w3.org/2000/svg" width="17.91" height="17.164" viewBox="0 0 17.91 17.164"><defs><style>.a{fill:#36f;}</style></defs><g transform="translate(0 0)"><path class="a" d="M8.75,17.612v3.461a.559.559,0,0,0,1.01.331l2.025-2.755Z" transform="translate(-2.22 -4.469)"/><path class="a" d="M17.675.1a.56.56,0,0,0-.584-.04L.3,8.832A.56.56,0,0,0,.378,9.858l4.668,1.6,9.941-8.5L7.294,12.221l7.823,2.674a.573.573,0,0,0,.181.03.559.559,0,0,0,.554-.477L17.9.642A.561.561,0,0,0,17.675.1Z" transform="translate(0 0)"/></g></svg>