<svg xmlns="http://www.w3.org/2000/svg" width="24" height="24" viewBox="0 0 24 24"><path d="M25.5,14.25A2.25,2.25,0,1,1,23.25,12,2.25,2.25,0,0,1,25.5,14.25Z" transform="translate(-7.235 -5.118)" fill="#36f"/><path d="M15,14.25A2.25,2.25,0,1,1,12.75,12,2.25,2.25,0,0,1,15,14.25Z" transform="translate(-4.765 -5.118)" fill="#36f"/><path d="M14.988,3A12,12,0,1,0,27,15,11.994,11.994,0,0,0,14.988,3ZM15,24.6A9.6,9.6,0,1,1,24.6,15,9.6,9.6,0,0,1,15,24.6Zm0-4.8a4.8,4.8,0,0,1-4.14-2.4h-2a6.594,6.594,0,0,0,12.288,0h-2A4.8,4.8,0,0,1,15,19.8Z" transform="translate(-3 -3)" fill="#36f"/></svg>