<svg xmlns="http://www.w3.org/2000/svg" width="13.426" height="20.218" viewBox="0 0 13.426 20.218"><path d="M103.527,4.806,99.007.5A1.857,1.857,0,0,0,97.724,0l-.011,0h0A6.33,6.33,0,0,0,95.2.491l.494.693-3.8,3.626A2.979,2.979,0,0,0,91,6.9V18.441a1.806,1.806,0,0,0,1.831,1.777H102.6a1.806,1.806,0,0,0,1.831-1.777V6.9A2.9,2.9,0,0,0,103.527,4.806ZM97.713,8.293a1.806,1.806,0,0,1-1.831-1.777,1.832,1.832,0,0,1,3.662,0A1.806,1.806,0,0,1,97.713,8.293Z" transform="translate(-91 0)" fill="#ff641a"/><g transform="translate(6.713 0)"><path d="M262.713,18.447V6.911a2.9,2.9,0,0,0-.9-2.1L257.294.5a1.857,1.857,0,0,0-1.283-.494l-.011,0V4.744A1.778,1.778,0,1,1,256,8.3V20.224h4.882A1.806,1.806,0,0,0,262.713,18.447Z" transform="translate(-256 -0.006)" fill="#f03800"/></g><path d="M97.713,4.739H94.051a1.826,1.826,0,0,1-1.831-1.777,1.807,1.807,0,0,1,1.831-1.777H95.7l.727-.693A1.851,1.851,0,0,1,97.712,0h-3.66A3.011,3.011,0,0,0,91,2.962a3.037,3.037,0,0,0,3.051,2.962h3.662a.593.593,0,1,0,0-1.185Z" transform="translate(-91 0)" fill="#5b362a"/><path d="M256.61,120.592A.6.6,0,0,0,256,120v1.185A.6.6,0,0,0,256.61,120.592Z" transform="translate(-249.287 -115.261)" fill="#38211a"/><g transform="translate(4.125 10.466)"><path d="M205.087,240.036v.879H203.94v-.833a4.921,4.921,0,0,1-2.09-.552l.621-1.357a4.009,4.009,0,0,0,1.877.5c.545,0,.739-.11.739-.3,0-.695-3.147-.133-3.147-2.194,0-.892.668-1.642,2-1.821v-.86h1.147v.846a4.416,4.416,0,0,1,1.649.455l-.578,1.348a3.608,3.608,0,0,0-1.588-.409c-.564,0-.739.156-.739.345,0,.662,3.147.11,3.147,2.143C206.978,239.084,206.347,239.824,205.087,240.036Z" transform="translate(-201.85 -233.5)" fill="#fff"/><g transform="translate(2.564 0)"><path d="M255.95,233.5v2.249c.047,0,.1,0,.156,0a3.625,3.625,0,0,1,1.588.409l.578-1.348a4.308,4.308,0,0,0-1.649-.455V233.5l-.673,0Z" transform="translate(-255.95 -233.5)" fill="#fff1ab"/><path d="M255.95,297.4v1.545c.393.087.673.184.673.386,0,.184-.18.29-.673.3v2.245h.673V301c1.261-.216,1.891-.957,1.891-1.8C258.514,297.717,256.86,297.6,255.95,297.4Z" transform="translate(-255.95 -294.461)" fill="#fff1ab"/></g></g></svg>