<svg width="66" height="66" viewBox="0 0 66 66" fill="none" xmlns="http://www.w3.org/2000/svg">
<path d="M58 0H8C3.58172 0 0 3.58172 0 8V58C0 62.4183 3.58172 66 8 66H58C62.4183 66 66 62.4183 66 58V8C66 3.58172 62.4183 0 58 0Z" fill="#FCFCFC"/>
<path d="M58 0.5H8C3.85786 0.5 0.5 3.85786 0.5 8V58C0.5 62.1421 3.85786 65.5 8 65.5H58C62.1421 65.5 65.5 62.1421 65.5 58V8C65.5 3.85786 62.1421 0.5 58 0.5Z" stroke="#FCFCFC"/>
<path opacity="0.5" d="M33 57C44.0457 57 53 52.299 53 46.5C53 40.701 44.0457 36 33 36C21.9543 36 13 40.701 13 46.5C13 52.299 21.9543 57 33 57Z" fill="#D8E7FF"/>
<path d="M39.8341 41.3498C39.8177 42.5107 39.5422 43.6534 39.0279 44.6944C38.5135 45.7353 37.7733 46.6483 36.8611 47.3667C35.4503 48.4975 33.6941 49.1096 31.8861 49.1008C30.8647 49.0957 29.8543 48.8893 28.9128 48.4934C27.9712 48.0975 27.1169 47.5199 26.3987 46.7937C25.6805 46.0674 25.1125 45.2067 24.7272 44.2607C24.3419 43.3148 24.1468 42.3021 24.1531 41.2808C24.1151 39.8869 24.475 38.5111 25.1907 37.3144C25.9064 36.1177 26.9482 35.1497 28.1941 34.5237L28.2941 12.3237C28.2989 11.3083 28.7067 10.3363 29.4279 9.62149C30.1491 8.90666 31.1247 8.5075 32.1401 8.51175C32.505 8.51308 32.8684 8.55909 33.2221 8.64875C34.0492 8.86206 34.7838 9.34014 35.3137 10.01C35.8437 10.6799 36.1399 11.5048 36.1571 12.3588L36.0571 34.5588C37.1968 35.2926 38.1378 36.2963 38.7966 37.4809C39.4555 38.6655 39.8119 39.9944 39.8341 41.3498Z" fill="#A6C7F9"/>
<path d="M33.8076 34.3614L33.8386 27.4104C33.8448 27.1585 33.8001 26.908 33.707 26.6739C33.6139 26.4397 33.4744 26.2269 33.2969 26.0481C33.1194 25.8693 32.9076 25.7282 32.6741 25.6334C32.4407 25.5386 32.1905 25.492 31.9386 25.4964C31.459 25.5345 31.0139 25.7602 30.6997 26.1245C30.3855 26.4889 30.2278 26.9624 30.2606 27.4424L30.2296 34.4114C30.2202 35.0653 30.0742 35.71 29.8009 36.3042C29.5276 36.8983 29.1331 37.4287 28.6426 37.8614C28.1557 38.3164 27.7699 38.8688 27.5103 39.4826C27.2507 40.0965 27.123 40.758 27.1356 41.4244C27.1302 42.0683 27.2516 42.707 27.493 43.304C27.7344 43.901 28.091 44.4446 28.5424 44.9038C28.9939 45.363 29.5314 45.7288 30.1243 45.9802C30.7171 46.2317 31.3537 46.3639 31.9976 46.3694C32.6416 46.3748 33.2802 46.2534 33.8773 46.012C34.4743 45.7706 35.0179 45.414 35.477 44.9625C35.9362 44.511 36.302 43.9735 36.5535 43.3807C36.8049 42.7879 36.9371 42.1513 36.9426 41.5074C36.9596 40.8312 36.8335 40.1591 36.5726 39.5351C36.3117 38.911 35.9218 38.3492 35.4286 37.8864C34.9271 37.4447 34.5237 36.9028 34.2445 36.2957C33.9653 35.6885 33.8165 35.0296 33.8076 34.3614Z" fill="#FE5F38"/>
<path d="M36.8091 47.3667C35.665 48.2939 34.2812 48.8771 32.8186 49.0484C31.356 49.2197 29.8749 48.9722 28.5475 48.3346C27.2201 47.697 26.1011 46.6955 25.3207 45.4468C24.5403 44.198 24.1305 42.7533 24.1391 41.2808C24.1035 39.8859 24.4658 38.5097 25.1835 37.3132C25.9012 36.1166 26.9448 35.1491 28.1921 34.5237L28.2921 12.3237C28.2969 11.3083 28.7047 10.3363 29.4259 9.62149C30.1471 8.90666 31.1227 8.5075 32.1381 8.51175C32.4691 8.51301 32.7985 8.55909 33.1171 8.64875C31.6961 8.89275 29.8391 9.79876 29.5651 12.8398C29.1191 17.8568 29.2941 35.6397 29.2941 35.6397C29.2941 35.6397 26.1521 37.5827 25.8691 40.4767C25.6021 43.1968 25.7591 45.7497 28.9021 47.2957C30.1489 47.8337 31.4906 48.1171 32.8484 48.1293C34.2063 48.1415 35.5529 47.8822 36.8091 47.3667Z" fill="#2E96D5"/>
<path d="M35.6502 41.2892C35.6486 41.6426 35.5422 41.9876 35.3445 42.2806C35.1469 42.5736 34.8668 42.8014 34.5396 42.9352C34.2125 43.069 33.853 43.1027 33.5067 43.0322C33.1604 42.9617 32.8427 42.7901 32.5939 42.5391C32.3451 42.288 32.1764 41.9689 32.109 41.6219C32.0416 41.275 32.0786 40.9158 32.2153 40.5899C32.352 40.264 32.5823 39.9859 32.877 39.7909C33.1718 39.5958 33.5177 39.4926 33.8711 39.4942C34.1058 39.4952 34.338 39.5425 34.5544 39.6332C34.7708 39.724 34.9672 39.8565 35.1324 40.0232C35.2976 40.1899 35.4284 40.3875 35.5172 40.6047C35.606 40.8219 35.6512 41.0545 35.6502 41.2892Z" fill="#FFDF3F"/>
<path d="M32.0947 44.5732C31.6912 44.6078 31.2849 44.5533 30.9047 44.4136C30.5246 44.2739 30.1798 44.0523 29.8947 43.7646C29.6096 43.4769 29.3913 43.13 29.2551 42.7485C29.119 42.3671 29.0683 41.9604 29.1067 41.5572C29.2578 40.1098 29.8976 38.7571 30.9207 37.7222C31.0867 37.5312 30.8207 37.2162 30.6207 37.3832C28.9527 38.7262 27.6777 40.6832 28.3037 42.9012C28.4051 43.3174 28.5889 43.7092 28.8443 44.0533C29.0996 44.3974 29.4213 44.6868 29.7903 44.9046C30.1593 45.1223 30.5682 45.2639 30.9928 45.321C31.4175 45.3782 31.8493 45.3496 32.2627 45.2372C32.6467 45.1152 32.4697 44.5442 32.0947 44.5732Z" fill="#FAF5FF"/>
<path d="M31.9055 28.9172C31.8895 28.6732 31.4875 28.6332 31.4635 28.8892C31.3745 29.8318 31.3395 30.7786 31.3585 31.7252C31.3655 32.0422 31.9065 32.0712 31.9235 31.7492C31.9713 30.8056 31.9653 29.8601 31.9055 28.9172Z" fill="#FAF5FF"/>
<path d="M40.9934 17.5304C40.061 17.3748 39.1087 17.3836 38.1794 17.5564C37.6404 17.6154 37.5794 18.2214 38.1794 18.2904C39.1067 18.4736 40.0587 18.4953 40.9934 18.3544C41.0941 18.3422 41.1868 18.2936 41.2541 18.2177C41.3214 18.1418 41.3586 18.0439 41.3586 17.9424C41.3586 17.841 41.3214 17.7431 41.2541 17.6671C41.1868 17.5912 41.0941 17.5426 40.9934 17.5304Z" fill="#433D3A"/>
<path d="M40.984 19.7085C40.4695 19.6006 39.9403 19.5806 39.419 19.6495C38.96 19.6745 38.629 19.6985 38.169 19.7235C37.618 19.7525 37.582 20.3775 38.169 20.4135C38.632 20.4425 38.9201 20.4705 39.3831 20.4995C39.9146 20.5756 40.4551 20.5645 40.983 20.4665C41.434 20.3065 41.469 19.8815 40.984 19.7085Z" fill="#433D3A"/>
<path d="M40.9736 22.1608C40.4596 22.091 39.939 22.085 39.4236 22.1428C38.9616 22.1628 38.6236 22.1608 38.1596 22.1668C37.4976 22.1758 37.5186 22.8668 38.1596 22.8818C38.6106 22.8908 39.0225 22.8938 39.4725 22.9178C39.9708 22.9766 40.4743 22.9766 40.9725 22.9178C41.0641 22.9054 41.1481 22.8603 41.2089 22.7908C41.2697 22.7213 41.3033 22.6321 41.3034 22.5397C41.3036 22.4474 41.2702 22.3581 41.2096 22.2884C41.1489 22.2187 41.0651 22.1734 40.9736 22.1608Z" fill="#433D3A"/>
<path d="M40.9621 24.4211L38.148 24.373C38.0142 24.373 37.8859 24.4262 37.7913 24.5208C37.6967 24.6154 37.6436 24.7437 37.6436 24.8775C37.6436 25.0113 37.6967 25.1397 37.7913 25.2343C37.8859 25.3289 38.0142 25.382 38.148 25.382L40.9621 25.3591C41.0865 25.3591 41.2057 25.3096 41.2937 25.2217C41.3817 25.1337 41.4311 25.0144 41.4311 24.89C41.4311 24.7657 41.3817 24.6464 41.2937 24.5584C41.2057 24.4705 41.0865 24.4211 40.9621 24.4211Z" fill="#433D3A"/>
<path d="M40.9513 26.9738L38.1373 26.9258C38.0035 26.9258 37.8752 26.9789 37.7806 27.0735C37.686 27.1682 37.6328 27.2965 37.6328 27.4303C37.6328 27.5641 37.686 27.6924 37.7806 27.787C37.8752 27.8816 38.0035 27.9348 38.1373 27.9348L40.9513 27.9118C41.0757 27.9118 41.195 27.8624 41.283 27.7744C41.3709 27.6865 41.4203 27.5672 41.4203 27.4428C41.4203 27.3184 41.3709 27.1991 41.283 27.1112C41.195 27.0232 41.0757 26.9738 40.9513 26.9738Z" fill="#433D3A"/>
<path d="M40.9401 29.5265L38.1261 29.4785C37.9921 29.4785 37.8637 29.5317 37.769 29.6264C37.6743 29.7211 37.6211 29.8496 37.6211 29.9835C37.6211 30.1174 37.6743 30.2459 37.769 30.3406C37.8637 30.4353 37.9921 30.4885 38.1261 30.4885L40.9401 30.4655C41.0646 30.4655 41.184 30.4161 41.2721 30.328C41.3601 30.24 41.4096 30.1205 41.4096 29.996C41.4096 29.8715 41.3601 29.7521 41.2721 29.664C41.184 29.576 41.0646 29.5265 40.9401 29.5265Z" fill="#433D3A"/>
<path d="M40.9245 32.0793L38.1104 32.0312C37.9765 32.0313 37.8481 32.0845 37.7534 32.1792C37.6587 32.2739 37.6055 32.4023 37.6055 32.5363C37.6055 32.6702 37.6587 32.7986 37.7534 32.8933C37.8481 32.988 37.9765 33.0412 38.1104 33.0412L40.9245 33.0182C41.049 33.0182 41.1684 32.9688 41.2564 32.8807C41.3445 32.7927 41.394 32.6733 41.394 32.5488C41.394 32.4242 41.3445 32.3048 41.2564 32.2168C41.1684 32.1287 41.049 32.0793 40.9245 32.0793Z" fill="#433D3A"/>
</svg>
