<svg width="104" height="104" viewBox="0 0 104 104" fill="none" xmlns="http://www.w3.org/2000/svg">
<path d="M51.515 0.469971C61.7037 0.469971 71.6636 3.49127 80.1352 9.15181C88.6068 14.8124 95.2096 22.8579 99.1087 32.271C103.008 41.6842 104.028 52.0421 102.04 62.035C100.052 72.028 95.1461 81.2071 87.9416 88.4116C80.7371 95.6161 71.558 100.522 61.5651 102.51C51.5721 104.498 41.2142 103.478 31.8011 99.5786C22.3879 95.6796 14.3424 89.0768 8.68184 80.6052C3.0213 72.1336 0 62.1737 0 51.985C0 38.3223 5.42746 25.2193 15.0884 15.5584C24.7493 5.89743 37.8524 0.469971 51.515 0.469971Z" fill="#F3F3F3"/>
<path d="M31.196 45.7631C31.3167 45.923 31.4333 46.0874 31.546 46.2561C33.6613 49.3754 34.5724 53.1566 34.11 56.8971C33.751 59.4661 32.735 61.897 32.183 64.431C31.527 67.445 31.555 71.3511 34.492 73.1631C36.867 74.6291 39.975 73.6351 42.567 73.5811C47.308 73.4811 50.833 77.759 55.717 77.528C57.4613 77.4005 59.1366 76.794 60.5583 75.7752C61.9799 74.7564 63.0927 73.3649 63.774 71.7541C64.725 69.4771 64.613 66.8951 65.56 64.613C66.939 61.29 70.62 61.0031 73.644 60.1841C78.1 58.9761 83.06 56.0091 84.454 51.3221C86.754 43.6031 79.774 40.5741 73.677 39.0581C65.987 37.1471 58.483 35.202 52.404 29.798C50.504 28.108 48.828 26.1771 46.93 24.4831C44.5797 22.3038 41.5761 20.9607 38.3848 20.662C35.1936 20.3633 31.9929 21.1257 29.279 22.8311C23.629 26.147 19.879 33.5811 24.546 39.3681C26.504 41.7951 29.312 43.267 31.196 45.7631Z" fill="#D8E7FF"/>
<path d="M31.4083 54.8985C31.8042 51.1344 29.0738 47.7621 25.3098 47.3662C21.5458 46.9702 18.1734 49.7006 17.7775 53.4646C17.3815 57.2287 20.1119 60.601 23.8759 60.997C27.64 61.3929 31.0123 58.6625 31.4083 54.8985Z" fill="#D8E7FF"/>
<path d="M72.167 69.4661C72.167 69.4661 72.433 69.5011 72.867 69.6041C73.4626 69.7446 74.0445 69.9377 74.606 70.1811C75.4059 70.524 76.148 70.9885 76.806 71.558C77.1919 71.8971 77.5418 72.2751 77.85 72.6861C78.1854 73.139 78.4648 73.6309 78.682 74.1511C78.8864 74.6481 79.0279 75.1688 79.103 75.701C79.1653 76.15 79.1758 76.6047 79.134 77.0561C79.0656 77.7643 78.8644 78.4533 78.541 79.0871C78.3165 79.528 78.0402 79.9406 77.718 80.3161C77.569 80.4939 77.4076 80.661 77.235 80.8161C77.172 80.2821 77.108 79.7481 77.035 79.2161C77.1957 78.9541 77.3537 78.6874 77.509 78.416C77.665 78.14 77.821 77.8611 77.963 77.5681C78.2655 76.9685 78.52 76.3459 78.724 75.7061C78.4821 76.3237 78.2049 76.9271 77.894 77.5131C77.742 77.7971 77.594 78.078 77.43 78.351C77.2927 78.587 77.1526 78.8204 77.01 79.0511L76.953 78.683C76.879 78.239 76.795 77.7971 76.694 77.3581C76.8327 77.0874 76.966 76.8097 77.094 76.5251C77.222 76.2251 77.344 75.9251 77.449 75.6091C77.6655 74.9571 77.8267 74.2881 77.931 73.6091C77.857 73.9421 77.769 74.2781 77.68 74.6001C77.591 74.9221 77.487 75.246 77.373 75.558C77.259 75.87 77.139 76.1711 77.009 76.4641C76.8977 76.7127 76.7813 76.9554 76.66 77.192C76.5364 76.6706 76.3828 76.1568 76.2 75.653L76.158 75.5461L76.277 75.192C76.314 75.073 76.348 74.9531 76.383 74.8321C76.458 74.5731 76.521 74.3151 76.577 74.0461C76.69 73.5035 76.7695 72.9544 76.815 72.4021C76.726 72.9431 76.621 73.4861 76.498 74.0081C76.429 74.2721 76.37 74.5291 76.292 74.7851C76.23 74.9911 76.171 75.1911 76.098 75.3911C75.8846 74.8632 75.6391 74.3489 75.363 73.851C75.445 73.456 75.512 73.0511 75.557 72.6421C75.581 72.4311 75.602 72.2171 75.616 72.0041C75.63 71.7911 75.643 71.5731 75.646 71.3571L75.563 71.9881C75.536 72.1971 75.506 72.406 75.473 72.614C75.444 72.798 75.416 72.9801 75.382 73.1631C75.348 73.3461 75.319 73.524 75.282 73.705C75.123 73.423 74.955 73.1461 74.782 72.8741C74.649 72.6741 74.515 72.467 74.374 72.274C74.399 72.041 74.42 71.8051 74.428 71.5681C74.428 71.4471 74.437 71.3231 74.439 71.2021C74.441 71.0811 74.439 70.9571 74.433 70.8321C74.414 70.9501 74.401 71.07 74.385 71.188C74.369 71.306 74.359 71.4271 74.344 71.5461L74.28 72.1381C74.152 71.9561 74.02 71.7781 73.888 71.5991C73.575 71.1841 73.248 70.7801 72.917 70.3791C73.235 70.7901 73.548 71.2041 73.848 71.6281C73.982 71.8161 74.117 72.0041 74.248 72.1971C74.048 72.1461 73.848 72.097 73.654 72.063C73.431 72.019 73.204 71.9821 72.979 71.9571C73.2 72.0261 73.424 72.0851 73.646 72.1461L74.316 72.3271L74.34 72.334C74.47 72.526 74.595 72.723 74.719 72.92C74.895 73.201 75.066 73.4861 75.226 73.7771C75.051 73.7121 74.87 73.6531 74.693 73.5961C74.516 73.5391 74.338 73.4881 74.159 73.4411C73.98 73.3941 73.772 73.3411 73.577 73.2981C73.382 73.2551 73.19 73.2161 72.994 73.1841C73.187 73.2391 73.377 73.2911 73.569 73.3501C73.761 73.4091 73.953 73.4621 74.145 73.5231C74.529 73.6451 74.914 73.7731 75.299 73.9231H75.306C75.5755 74.42 75.8142 74.9329 76.021 75.459C75.827 75.359 75.621 75.2591 75.427 75.1721C75.198 75.0721 74.958 74.972 74.727 74.886C74.496 74.8 74.258 74.723 74.02 74.653C73.782 74.583 73.55 74.521 73.31 74.468C73.544 74.543 73.773 74.6181 74.01 74.7021C74.247 74.7861 74.473 74.8701 74.71 74.9651C74.947 75.0601 75.175 75.156 75.402 75.265C75.516 75.319 75.633 75.3741 75.747 75.4321L76.087 75.6131L76.117 75.6911C76.3054 76.1991 76.464 76.7176 76.592 77.244C76.3646 77.0827 76.1353 76.9297 75.904 76.7851C75.642 76.6241 75.382 76.4711 75.115 76.3401C74.848 76.2091 74.579 76.0911 74.315 75.9831C74.051 75.8751 73.777 75.7831 73.501 75.7071C73.769 75.8071 74.029 75.9071 74.295 76.0301C74.4283 76.0881 74.5597 76.1487 74.689 76.2121C74.821 76.2761 74.949 76.344 75.082 76.412C75.341 76.556 75.603 76.7061 75.861 76.8721C76.119 77.0381 76.375 77.2151 76.626 77.4011H76.632C76.732 77.8271 76.818 78.2571 76.893 78.6891L76.962 79.0891C76.746 78.9071 76.5283 78.7297 76.309 78.5571C76.066 78.3671 75.824 78.1801 75.575 78.0101C75.326 77.8401 75.075 77.6761 74.825 77.5261C74.575 77.3761 74.318 77.2421 74.061 77.1261C74.307 77.2641 74.556 77.4101 74.799 77.5731C75.042 77.7361 75.29 77.9031 75.532 78.0831C75.774 78.2631 76.017 78.45 76.257 78.644C76.497 78.838 76.735 79.038 76.972 79.244L76.99 79.2591C77.074 79.7791 77.15 80.3011 77.227 80.8241C77.0193 80.7203 76.8188 80.6027 76.627 80.472C76.2261 80.1999 75.8494 79.8938 75.501 79.5571C75.0506 79.1234 74.6424 78.648 74.282 78.1371C74.0894 77.8661 73.9115 77.5851 73.749 77.295C73.5819 76.9983 73.4336 76.6914 73.305 76.3761C73.1632 76.0328 73.0426 75.6811 72.944 75.3231C72.838 74.9601 72.75 74.5841 72.67 74.2041C72.511 73.4441 72.39 72.6641 72.311 71.9601C72.232 71.2561 72.193 70.6321 72.181 70.1861C72.169 69.7401 72.167 69.4661 72.167 69.4661Z" fill="#31395C"/>
<path d="M76.9525 79.2371C76.7158 79.0324 76.4775 78.8324 76.2375 78.6371C75.9975 78.4431 75.7545 78.2581 75.5125 78.0761C75.2705 77.8941 75.0264 77.7241 74.7794 77.5661C74.5324 77.4081 74.2864 77.2571 74.0414 77.1191C74.2984 77.2371 74.5525 77.3741 74.8055 77.5191C75.0585 77.6641 75.3055 77.8311 75.5555 78.0031C75.8055 78.1751 76.0475 78.3601 76.2895 78.5501C76.5088 78.7227 76.7264 78.9001 76.9424 79.0821L76.8734 78.6821C76.7984 78.2501 76.7125 77.8201 76.6125 77.3941H76.6064C76.3544 77.2071 76.0985 77.0301 75.8415 76.8651C75.5845 76.7001 75.3224 76.5481 75.0624 76.4051C74.9304 76.3351 74.8024 76.2671 74.6704 76.2051C74.5384 76.1431 74.4065 76.0811 74.2765 76.0231C74.0105 75.9051 73.7505 75.8001 73.4825 75.7001C73.7585 75.7781 74.0214 75.8741 74.2964 75.9761C74.5714 76.0781 74.8325 76.2001 75.0965 76.3331C75.3605 76.4661 75.6234 76.6171 75.8854 76.7781C76.1161 76.9227 76.3455 77.0757 76.5735 77.2371C76.4454 76.7106 76.2868 76.1921 76.0984 75.6841L76.0685 75.6061L75.7285 75.4251C75.6145 75.3671 75.4975 75.3121 75.3835 75.2581C75.1565 75.1491 74.9195 75.0581 74.6915 74.9581C74.4635 74.8581 74.2275 74.7761 73.9915 74.6951C73.7555 74.6141 73.5294 74.5361 73.2914 74.4611C73.5314 74.5131 73.7635 74.5781 74.0015 74.6461C74.2395 74.7141 74.4695 74.7961 74.7085 74.8791C74.9475 74.9621 75.1774 75.0601 75.4084 75.1651C75.6084 75.2551 75.8084 75.3481 76.0024 75.4521C75.7957 74.9259 75.5569 74.413 75.2874 73.9161H75.2794C74.8944 73.7691 74.5105 73.6411 74.1255 73.5161C73.9335 73.4551 73.7434 73.3971 73.5494 73.3431C73.3554 73.2891 73.1675 73.2331 72.9745 73.1771C73.1745 73.2081 73.3635 73.2501 73.5575 73.2911C73.7515 73.3321 73.9465 73.3831 74.1395 73.4341C74.3325 73.4851 74.4975 73.5341 74.6735 73.5891C74.8495 73.6441 75.0315 73.7041 75.2065 73.7701C75.0465 73.4791 74.8755 73.1941 74.6995 72.9131C74.5755 72.7131 74.4515 72.5201 74.3205 72.3271L74.2964 72.3201L73.6265 72.1391C73.4045 72.0771 73.1804 72.0181 72.9594 71.9501C73.1844 71.9751 73.4115 72.0121 73.6345 72.0561C73.8345 72.0931 74.0345 72.1381 74.2285 72.1901C74.0995 71.9981 73.9645 71.8101 73.8285 71.6211C73.5285 71.1971 73.2155 70.7831 72.8975 70.3721C73.2285 70.7721 73.5554 71.1721 73.8684 71.5921C74.0004 71.7711 74.1324 71.9491 74.2604 72.1311L74.3245 71.5391C74.3395 71.4201 74.3534 71.3001 74.3654 71.1811C74.3774 71.0621 74.3945 70.9431 74.4135 70.8241C74.4195 70.9491 74.4135 71.0711 74.4195 71.1941C74.4255 71.3171 74.4124 71.4391 74.4084 71.5601C74.4004 71.7971 74.3795 72.0331 74.3545 72.2661C74.4955 72.4661 74.6285 72.6661 74.7625 72.8661C74.9365 73.1391 75.1045 73.4151 75.2625 73.6971C75.3015 73.5161 75.3315 73.3381 75.3625 73.1551C75.3935 72.9721 75.4245 72.7891 75.4535 72.6061C75.4865 72.3971 75.5165 72.1881 75.5435 71.9801L75.6265 71.3491C75.6265 71.5651 75.6115 71.7821 75.5965 71.9961C75.5815 72.2101 75.5604 72.4231 75.5374 72.6341C75.4924 73.0451 75.4264 73.4491 75.3434 73.8431C75.6195 74.341 75.865 74.8553 76.0785 75.3831C76.1515 75.1831 76.2105 74.9831 76.2725 74.7771C76.3505 74.5211 76.4085 74.2641 76.4785 74.0001C76.6015 73.4781 76.7064 72.9351 76.7954 72.3941C76.7499 72.9464 76.6705 73.4955 76.5575 74.0381C76.5015 74.3071 76.4385 74.5651 76.3635 74.8241C76.3285 74.9461 76.2944 75.0651 76.2574 75.1841L76.1385 75.5381L76.1805 75.6451C76.3633 76.1488 76.5169 76.6627 76.6404 77.1841C76.7624 76.9467 76.8788 76.7041 76.9894 76.4561C77.1194 76.1631 77.2395 75.8561 77.3535 75.5501C77.4675 75.2441 77.5645 74.9211 77.6605 74.5921C77.7565 74.2631 77.8374 73.9331 77.9114 73.6011C77.8071 74.2801 77.6459 74.9491 77.4294 75.6011C77.3244 75.9181 77.2025 76.2211 77.0745 76.5171C76.9465 76.8131 76.8174 77.0801 76.6744 77.3501C76.7744 77.7891 76.8594 78.2311 76.9334 78.6751L76.9904 79.0431C77.1338 78.8144 77.2738 78.5811 77.4105 78.3431C77.5695 78.0701 77.7235 77.7891 77.8745 77.5051C78.1854 76.9191 78.4625 76.3157 78.7044 75.6981C78.5005 76.3379 78.246 76.9605 77.9435 77.5601C77.8015 77.8521 77.6434 78.1311 77.4894 78.4081C77.3354 78.6851 77.1764 78.9441 77.0154 79.2081C77.0924 79.7411 77.1565 80.2751 77.2155 80.8081L77.2014 80.8201L77.1855 80.8121C77.1085 80.2901 77.0325 79.7681 76.9485 79.2471L76.9525 79.2371Z" fill="#1A2242"/>
<path d="M82.4509 69.1211C82.4509 69.1211 82.5659 69.4031 82.7129 69.8861C82.9084 70.5308 83.065 71.1866 83.1819 71.8501C83.3387 72.7195 83.4206 73.6007 83.4269 74.4841C83.4392 75.4276 83.3173 76.368 83.0649 77.2771C82.8384 78.0732 82.4805 78.8259 82.0059 79.5041C81.6216 80.0277 81.1839 80.51 80.6999 80.9431C80.2739 81.3431 79.8749 81.6951 79.5749 81.9801C79.2749 82.2651 79.0669 82.4631 79.0099 82.5121C78.9198 81.9276 78.8976 81.3347 78.9439 80.7451C79.1909 80.5021 79.4439 80.2791 79.7099 80.0671C79.9759 79.8551 80.2499 79.6521 80.5239 79.4521C80.7979 79.2521 81.0779 79.0611 81.3599 78.8681C81.6419 78.6751 81.9219 78.4901 82.2029 78.3061C81.9099 78.4691 81.6159 78.6401 81.3289 78.8191C81.0419 78.9981 80.7529 79.1851 80.4719 79.3751C80.1909 79.5651 79.9149 79.7661 79.6439 79.9751C79.4119 80.1581 79.1809 80.3511 78.9589 80.5571C78.9709 80.4211 78.9859 80.2861 79.0029 80.1511C79.0619 79.6611 79.1509 79.1751 79.2539 78.6921C79.5349 78.4921 79.8089 78.2921 80.0909 78.1051C80.3729 77.9181 80.6729 77.7221 80.9669 77.5341C81.5499 77.1621 82.1449 76.8111 82.7319 76.4651C82.1219 76.7651 81.5159 77.0971 80.9219 77.4521C80.6219 77.6271 80.3289 77.8161 80.0359 78.0081C79.7849 78.1711 79.5419 78.3391 79.2939 78.5081C79.4169 77.9341 79.5669 77.3651 79.7219 76.7991L79.7559 76.6781C79.9929 76.5291 80.2239 76.3781 80.4629 76.2411L81.2149 75.7981C81.7149 75.5051 82.2149 75.2241 82.7149 74.9391C82.1929 75.1781 81.6789 75.4391 81.1699 75.7121C80.9119 75.8471 80.6619 75.9931 80.4099 76.1391C80.2052 76.2571 80.0022 76.3781 79.8009 76.5021C79.9696 75.9021 80.1532 75.3051 80.3519 74.7111C80.7459 74.4891 81.1459 74.2741 81.5399 74.0561C81.9339 73.8381 82.3519 73.6151 82.7539 73.3881C82.3329 73.5681 81.9159 73.7641 81.5029 73.9681C81.1349 74.1481 80.7729 74.3391 80.4099 74.5371C80.5239 74.2001 80.6389 73.8641 80.7609 73.5291L81.0319 72.7741C81.2659 72.6531 81.5029 72.5331 81.7319 72.4051L82.0869 72.2101C82.2039 72.1411 82.3219 72.0761 82.4379 72.0041C82.3119 72.0491 82.1889 72.1041 82.0649 72.1521L81.6969 72.3141C81.4969 72.4051 81.2969 72.5031 81.0969 72.6031L81.3539 71.9161C81.5539 71.3791 81.7539 70.8441 81.9619 70.3091C81.7389 70.8361 81.5159 71.3641 81.2989 71.8941L81.0169 72.6061C80.9309 72.3921 80.8459 72.1771 80.7529 71.9651C80.6529 71.7231 80.5459 71.4831 80.4299 71.2471C80.4999 71.5061 80.5809 71.7571 80.6679 72.0091C80.7549 72.2611 80.8449 72.5091 80.9409 72.7511L80.9509 72.7771L80.6769 73.4971C80.5489 73.8411 80.4269 74.1871 80.3069 74.5341L79.7969 73.3521L79.5199 72.7041L79.2369 72.0581C79.3089 72.2861 79.3879 72.5091 79.4639 72.7331L79.7109 73.3981C79.8789 73.8401 80.0569 74.2721 80.2439 74.6981V74.7061C80.0439 75.2981 79.8519 75.8951 79.6789 76.4971C79.5649 76.2718 79.4536 76.0444 79.3449 75.8151L78.9669 75.0061C78.8409 74.7361 78.7169 74.4631 78.5959 74.1891L78.2269 73.3681C78.3269 73.6541 78.4349 73.9381 78.5419 74.2201C78.6489 74.5021 78.7669 74.7791 78.8819 75.0551C78.9969 75.3311 79.1229 75.6041 79.2449 75.8731C79.3669 76.1421 79.4979 76.4091 79.6259 76.6731L79.5999 76.7621C79.4459 77.3421 79.2999 77.9251 79.1769 78.5131C79.0189 78.2411 78.8579 77.9631 78.7089 77.6831C78.5359 77.3681 78.3719 77.0441 78.2089 76.7231C78.0459 76.4021 77.8839 76.0741 77.7249 75.7431C77.5659 75.4121 77.4119 75.0831 77.2539 74.7491C77.3879 75.0991 77.5269 75.4371 77.6729 75.7781C77.8189 76.1191 77.9729 76.4481 78.1279 76.7781C78.2829 77.1081 78.4509 77.4301 78.6169 77.7491C78.7829 78.0681 78.9619 78.3811 79.1379 78.6881V78.6951C79.0379 79.1701 78.9589 79.6491 78.9039 80.1321C78.8879 80.2791 78.8759 80.4271 78.8649 80.5751C78.6649 80.3231 78.4789 80.0571 78.2979 79.7821C78.0979 79.4821 77.9109 79.1631 77.7229 78.8481C77.5349 78.5331 77.3569 78.2141 77.1809 77.8931C77.0049 77.5721 76.8289 77.2481 76.6539 76.9221C76.8039 77.2651 76.9649 77.5991 77.1299 77.9321C77.2949 78.2651 77.4679 78.5871 77.6449 78.9121C77.8219 79.2371 78.0129 79.5531 78.2109 79.8611C78.4089 80.1691 78.6169 80.4611 78.8389 80.7421L78.8559 80.7631C78.8235 81.3468 78.8611 81.9323 78.9679 82.5071C78.7187 82.4036 78.4836 82.2692 78.2679 82.1071C77.7882 81.7412 77.3863 81.2833 77.0859 80.7601C76.6635 80.0236 76.3916 79.2105 76.2859 78.3681C76.1521 77.3629 76.2311 76.3408 76.5179 75.3681C76.8291 74.3292 77.3384 73.3604 78.0179 72.5151C78.5983 71.7908 79.2672 71.1421 80.0089 70.5841C80.5504 70.1734 81.1216 69.8033 81.7179 69.4771C82.1709 69.2421 82.4509 69.1211 82.4509 69.1211Z" fill="#83C8E6"/>
<path d="M78.8462 80.7521C78.6252 80.4741 78.4161 80.1781 78.2181 79.8711C78.0201 79.5641 77.8292 79.2481 77.6522 78.9221C77.4752 78.5961 77.3021 78.2701 77.1371 77.9421C76.9721 77.6141 76.8121 77.2751 76.6611 76.9321C76.8361 77.2581 77.0051 77.5831 77.1881 77.9031C77.3711 78.2231 77.5431 78.5411 77.7301 78.8581C77.9171 79.1751 78.1051 79.4891 78.3051 79.7921C78.4861 80.0671 78.6742 80.3331 78.8722 80.5851C78.8832 80.4371 78.8951 80.2851 78.9111 80.1421C78.9661 79.6591 79.0491 79.1801 79.1451 78.7051V78.6981C78.9701 78.3921 78.7921 78.0771 78.6241 77.7591C78.4561 77.4411 78.2871 77.1181 78.1351 76.7881C77.9831 76.4581 77.8281 76.1241 77.6801 75.7881C77.5321 75.4521 77.3961 75.1091 77.2611 74.7591C77.4201 75.0921 77.5712 75.4241 77.7332 75.7531C77.8952 76.0821 78.0491 76.4101 78.2171 76.7331C78.3851 77.0561 78.5471 77.3771 78.7171 77.6931C78.8671 77.9731 79.0272 78.2521 79.1852 78.5231C79.3062 77.9351 79.4532 77.3521 79.6082 76.7721L79.6342 76.6831C79.5062 76.4211 79.3741 76.1531 79.2531 75.8831C79.1321 75.6131 79.0021 75.3411 78.8901 75.0651C78.7781 74.7891 78.6591 74.5091 78.5501 74.2301C78.4411 73.9511 78.3331 73.6641 78.2351 73.3781L78.6042 74.1991C78.7242 74.4721 78.8482 74.7451 78.9742 75.0161L79.3511 75.8251C79.4591 76.0538 79.5705 76.2811 79.6852 76.5071C79.8582 75.9071 80.0472 75.3071 80.2502 74.7161V74.7081C80.0622 74.2801 79.8851 73.8481 79.7171 73.4081L79.4702 72.7431C79.3942 72.5191 79.3142 72.2961 79.2422 72.0681L79.5251 72.7141L79.8022 73.3621L80.3121 74.5441C80.4321 74.1971 80.5542 73.8511 80.6822 73.5071L80.9561 72.7871L80.9461 72.7611C80.8461 72.5161 80.7572 72.2711 80.6732 72.0191C80.5892 71.7671 80.5052 71.5191 80.4352 71.2571C80.5512 71.4931 80.6541 71.7341 80.7581 71.9751C80.8511 72.1871 80.9362 72.4021 81.0222 72.6161L81.3041 71.9041C81.5211 71.3741 81.7441 70.8461 81.9671 70.3191C81.7621 70.8541 81.5572 71.3881 81.3592 71.9261L81.1021 72.6131C81.3021 72.5131 81.5021 72.4131 81.7021 72.3241L82.0702 72.1621C82.1952 72.1131 82.3171 72.0621 82.4431 72.0141C82.3281 72.0861 82.2091 72.1511 82.0921 72.2201L81.7372 72.4151C81.5062 72.5431 81.2691 72.6621 81.0371 72.7841L80.7661 73.5391C80.6451 73.8731 80.5302 74.2101 80.4152 74.5471C80.7782 74.3471 81.1401 74.1581 81.5081 73.9781C81.9211 73.7781 82.3382 73.5781 82.7592 73.3981C82.3592 73.6251 81.9511 73.8441 81.5451 74.0661C81.1391 74.2881 80.7521 74.4991 80.3571 74.7211C80.1571 75.3138 79.9735 75.9108 79.8062 76.5121C80.0062 76.3881 80.2092 76.2671 80.4152 76.1491C80.6682 76.0031 80.9151 75.8571 81.1761 75.7221C81.6851 75.4471 82.1992 75.1881 82.7212 74.9491C82.2212 75.2341 81.7212 75.5151 81.2212 75.8081L80.4691 76.2511C80.2301 76.3931 79.9981 76.5391 79.7621 76.6881L79.7281 76.8091C79.5731 77.3761 79.4231 77.9441 79.3001 78.5181C79.5471 78.3451 79.7901 78.1761 80.0421 78.0181C80.3351 77.8261 80.6282 77.6371 80.9282 77.4621C81.5222 77.1071 82.1282 76.7771 82.7382 76.4751C82.1512 76.8211 81.5561 77.1751 80.9731 77.5441C80.6791 77.7321 80.3891 77.9191 80.0971 78.1161C79.8051 78.3131 79.5411 78.5011 79.2601 78.7031C79.1601 79.1861 79.0682 79.6721 79.0092 80.1621C78.9922 80.2971 78.9771 80.4321 78.9651 80.5681C79.1881 80.3621 79.4181 80.1681 79.6501 79.9861C79.9221 79.7741 80.1961 79.5721 80.4781 79.3861C80.7601 79.2001 81.0461 79.0101 81.3351 78.8301C81.6241 78.6501 81.9152 78.4801 82.2082 78.3171C81.9272 78.5011 81.6431 78.6881 81.3651 78.8791C81.0871 79.0701 80.8041 79.2651 80.5291 79.4631C80.2541 79.6611 79.9821 79.8631 79.7151 80.0781C79.4481 80.2931 79.1962 80.5131 78.9492 80.7561C78.9029 81.3457 78.925 81.9386 79.0151 82.5231L78.9991 82.5371L78.9801 82.5291C78.8733 81.9543 78.8357 81.3688 78.8681 80.7851L78.8462 80.7521Z" fill="#1A2242"/>
<path d="M27.9998 72.667C27.9998 72.667 28.1898 72.692 28.4998 72.767C28.9262 72.8675 29.3428 73.0058 29.7448 73.18C30.3167 73.4257 30.8473 73.7583 31.3178 74.166C31.5943 74.4088 31.845 74.6796 32.0658 74.974C32.3075 75.2981 32.5089 75.6503 32.6658 76.023C32.8117 76.379 32.9125 76.7519 32.9658 77.133C33.0103 77.4544 33.0177 77.7799 32.9878 78.103C32.9387 78.6104 32.7945 79.104 32.5628 79.558C32.4019 79.8738 32.2038 80.1692 31.9728 80.438C31.8664 80.5644 31.7511 80.683 31.6278 80.793C31.5828 80.411 31.5368 80.028 31.4818 79.647C31.5968 79.459 31.7108 79.269 31.8208 79.076C31.9308 78.883 32.0438 78.676 32.1458 78.469C32.3624 78.0398 32.5447 77.594 32.6908 77.136C32.5177 77.5783 32.3194 78.0104 32.0968 78.43C31.9878 78.63 31.8788 78.83 31.7638 79.03C31.6658 79.1986 31.5658 79.3653 31.4638 79.53L31.4228 79.267C31.3698 78.949 31.3098 78.633 31.2368 78.319C31.3368 78.125 31.4308 77.927 31.5198 77.719C31.6088 77.511 31.6988 77.291 31.7738 77.063C31.9286 76.5965 32.044 76.1178 32.1188 75.632C32.0658 75.87 32.0028 76.111 31.9388 76.342C31.8748 76.573 31.8008 76.805 31.7188 77.028C31.6368 77.251 31.5508 77.467 31.4578 77.677C31.3778 77.855 31.2948 78.029 31.2078 78.199C31.1194 77.8263 31.0095 77.459 30.8788 77.099L30.8488 77.023L30.9338 76.769C30.9608 76.684 30.9848 76.598 31.0098 76.511C31.0628 76.326 31.1098 76.141 31.1488 75.948C31.2296 75.5595 31.2864 75.1665 31.3188 74.771C31.2548 75.159 31.1798 75.547 31.0918 75.921C31.0418 76.11 30.9998 76.294 30.9438 76.478C30.8988 76.626 30.8568 76.769 30.8048 76.912C30.652 76.535 30.4763 76.1676 30.2788 75.812C30.3378 75.53 30.3848 75.241 30.4178 74.946C30.4348 74.795 30.4498 74.646 30.4598 74.49C30.4698 74.334 30.4788 74.181 30.4818 74.027L30.4228 74.478C30.4038 74.627 30.3828 74.778 30.3588 74.926C30.3388 75.058 30.3178 75.188 30.2938 75.319C30.2698 75.45 30.2488 75.578 30.2208 75.707C30.1068 75.507 29.9868 75.307 29.8618 75.107C29.7618 74.961 29.6708 74.816 29.5698 74.674C29.5878 74.507 29.6018 74.338 29.6078 74.169C29.6078 74.082 29.6148 73.994 29.6158 73.907C29.6168 73.82 29.6158 73.732 29.6158 73.642C29.6018 73.727 29.5928 73.813 29.5818 73.897C29.5708 73.981 29.5628 74.068 29.5528 74.153L29.5068 74.577C29.4158 74.447 29.3208 74.319 29.2258 74.191C29.0018 73.891 28.7678 73.605 28.5258 73.318C28.7528 73.612 28.9778 73.909 29.1918 74.213C29.2918 74.348 29.3838 74.483 29.4768 74.62C29.3358 74.583 29.1928 74.551 29.0518 74.52C28.8918 74.488 28.7288 74.462 28.5688 74.444C28.7268 74.493 28.8878 74.536 29.0468 74.58L29.5268 74.709H29.5438C29.6368 74.847 29.7258 74.987 29.8148 75.128C29.9408 75.328 30.0628 75.533 30.1778 75.741C30.0518 75.694 29.9228 75.652 29.7958 75.612C29.6688 75.572 29.5418 75.535 29.4138 75.501C29.2858 75.467 29.1368 75.43 28.9968 75.401C28.8568 75.372 28.7198 75.342 28.5798 75.32C28.7178 75.36 28.8538 75.397 28.9918 75.439C29.1298 75.481 29.2658 75.519 29.4038 75.563C29.6788 75.65 29.9548 75.742 30.2298 75.847H30.2348C30.4277 76.2029 30.5987 76.5702 30.7468 76.947C30.6078 76.873 30.4628 76.806 30.3208 76.742C30.1568 76.667 29.9858 76.598 29.8208 76.542C29.6558 76.486 29.4848 76.426 29.3148 76.375C29.1448 76.324 28.9778 76.28 28.8068 76.243C28.9748 76.297 29.1378 76.351 29.3068 76.411C29.4758 76.471 29.6388 76.531 29.8068 76.599C29.9748 76.667 30.1398 76.736 30.3068 76.815C30.3888 76.853 30.4718 76.893 30.5538 76.934L30.7978 77.064L30.8198 77.12C30.9546 77.4841 31.0681 77.8557 31.1598 78.233C30.9968 78.117 30.8318 78.008 30.6668 77.904C30.4798 77.789 30.2928 77.679 30.1018 77.586C29.9108 77.493 29.7178 77.408 29.5288 77.33C29.3398 77.252 29.1438 77.188 28.9458 77.13C29.1378 77.201 29.3238 77.276 29.5138 77.361C29.6071 77.4023 29.7015 77.4457 29.7968 77.491C29.8918 77.536 29.9828 77.585 30.0778 77.635C30.2628 77.735 30.4508 77.846 30.6348 77.965C30.8188 78.084 31.0028 78.21 31.1828 78.344C31.2548 78.649 31.3158 78.957 31.3698 79.266L31.4188 79.549C31.2641 79.4156 31.1081 79.2886 30.9508 79.168C30.7768 79.032 30.6038 78.898 30.4248 78.777C30.2458 78.656 30.0688 78.538 29.8878 78.431C29.7068 78.324 29.5248 78.231 29.3408 78.143C29.5168 78.243 29.6948 78.343 29.8688 78.463C30.0428 78.583 30.2198 78.699 30.3938 78.829C30.5678 78.959 30.7408 79.091 30.9128 79.229C31.0848 79.367 31.2548 79.511 31.4248 79.658L31.4378 79.669C31.4978 80.042 31.5528 80.415 31.6078 80.789C31.4603 80.7147 31.3179 80.6305 31.1818 80.537C30.8948 80.3422 30.6252 80.123 30.3758 79.882C30.0532 79.5715 29.7609 79.2309 29.5028 78.865C29.3648 78.672 29.2373 78.4717 29.1208 78.265C29.0011 78.0525 28.8949 77.8328 28.8028 77.607C28.7013 77.3612 28.6152 77.1094 28.5448 76.853C28.4688 76.593 28.4058 76.324 28.3448 76.053C28.2308 75.509 28.1448 74.953 28.0878 74.447C28.0308 73.941 28.0028 73.496 27.9948 73.177C27.9868 72.858 27.9998 72.667 27.9998 72.667Z" fill="#31395C"/>
<path d="M31.4266 79.6641C31.2573 79.5174 31.0866 79.3744 30.9146 79.2351C30.7426 79.0961 30.5686 78.9631 30.3956 78.8351C30.2226 78.7071 30.0476 78.5831 29.8706 78.4701C29.6936 78.3571 29.5176 78.2491 29.3416 78.1501C29.5256 78.2341 29.7076 78.3331 29.8886 78.4381C30.0696 78.5431 30.2486 78.6611 30.4256 78.7841C30.6026 78.9071 30.7776 79.0391 30.9516 79.1751C31.1089 79.2984 31.2649 79.4254 31.4196 79.5561L31.3706 79.2731C31.3166 78.9641 31.2556 78.6561 31.1836 78.3511C31.0036 78.2171 30.8196 78.0911 30.6356 77.9721C30.4516 77.8531 30.2636 77.7451 30.0786 77.6421C29.9836 77.5921 29.8926 77.5421 29.7976 77.4981C29.7026 77.4541 29.6086 77.4091 29.5146 77.3681C29.3246 77.2831 29.1376 77.2081 28.9466 77.1371C29.1466 77.1931 29.3326 77.2621 29.5296 77.3371C29.7266 77.4121 29.9136 77.4971 30.1026 77.5931C30.2916 77.6891 30.4796 77.7931 30.6676 77.9111C30.8326 78.0111 30.9976 78.1241 31.1606 78.2401C31.0689 77.8628 30.9554 77.4912 30.8206 77.1271L30.7886 77.0651L30.5446 76.9351C30.4636 76.8931 30.3796 76.8541 30.2976 76.8161C30.1356 76.7381 29.9656 76.6701 29.7976 76.6001C29.6296 76.5301 29.4656 76.4701 29.2976 76.4121C29.1296 76.3541 28.9666 76.2981 28.7976 76.2441C28.9696 76.2811 29.1356 76.3281 29.3056 76.3761C29.4756 76.4241 29.6406 76.4831 29.8116 76.5431C29.9826 76.6031 30.1476 76.6731 30.3116 76.7431C30.4526 76.8071 30.5986 76.8741 30.7376 76.9481C30.5895 76.5713 30.4185 76.204 30.2256 75.8481H30.2206C29.9456 75.7481 29.6696 75.6481 29.3946 75.5641C29.2566 75.5201 29.1216 75.4781 28.9826 75.4401C28.8436 75.4021 28.7086 75.3611 28.5706 75.3211C28.7106 75.3441 28.8496 75.3731 28.9876 75.4021C29.1256 75.4311 29.2656 75.4681 29.4046 75.5021C29.5436 75.5361 29.6606 75.5721 29.7866 75.6131C29.9126 75.6541 30.0426 75.6961 30.1686 75.7421C30.0546 75.5341 29.9316 75.3301 29.8056 75.1291C29.7166 74.9881 29.6276 74.8481 29.5346 74.7101H29.5176L29.0376 74.5811C28.8786 74.5371 28.7186 74.4951 28.5596 74.4451C28.7206 74.4631 28.8826 74.4891 29.0426 74.5211C29.1836 74.5481 29.3266 74.5801 29.4676 74.6211C29.3756 74.4831 29.2786 74.3491 29.1826 74.2141C28.9686 73.9141 28.7436 73.6141 28.5166 73.3191C28.7536 73.6061 28.9876 73.8951 29.2166 74.1921C29.3106 74.3201 29.4056 74.4481 29.4976 74.5781L29.5436 74.1541C29.5546 74.0691 29.5646 73.9831 29.5726 73.8981C29.5806 73.8131 29.5936 73.7281 29.6066 73.6431C29.6066 73.7321 29.6066 73.8201 29.6066 73.9081C29.6066 73.9961 29.6016 74.0831 29.5986 74.1701C29.5926 74.3401 29.5776 74.5091 29.5606 74.6751C29.6606 74.8171 29.7606 74.9631 29.8526 75.1081C29.9766 75.3081 30.0976 75.5011 30.2116 75.7081C30.2396 75.5791 30.2606 75.4511 30.2846 75.3201C30.3086 75.1891 30.3286 75.0581 30.3496 74.9271C30.3736 74.7781 30.3946 74.6271 30.4136 74.4791L30.4726 74.0281C30.4726 74.1831 30.4616 74.3381 30.4506 74.4911C30.4396 74.6441 30.4246 74.7971 30.4086 74.9471C30.3766 75.2411 30.3286 75.5301 30.2696 75.8131C30.4671 76.1687 30.6428 76.5361 30.7956 76.9131C30.8476 76.7701 30.8896 76.6271 30.9346 76.4791C30.9906 76.2961 31.0346 76.1111 31.0826 75.9221C31.1706 75.5481 31.2456 75.1591 31.3096 74.7721C31.2772 75.1675 31.2204 75.5606 31.1396 75.9491C31.0996 76.1421 31.0546 76.3261 31.0006 76.5121C30.9756 76.5991 30.9516 76.6851 30.9246 76.7701L30.8396 77.0241L30.8696 77.1001C31.0004 77.4601 31.1102 77.8274 31.1986 78.2001C31.2856 78.0301 31.3686 77.8571 31.4486 77.6781C31.5416 77.4681 31.6276 77.2511 31.7096 77.0291C31.7916 76.8071 31.8606 76.5781 31.9296 76.3431C31.9986 76.1081 32.0566 75.8711 32.1096 75.6331C32.0348 76.1189 31.9194 76.5976 31.7646 77.0641C31.6896 77.2911 31.6016 77.5081 31.5106 77.7201C31.4196 77.9321 31.3266 78.1201 31.2276 78.3201C31.2996 78.6341 31.3606 78.9511 31.4136 79.2681L31.4546 79.5311C31.5566 79.3671 31.6566 79.2004 31.7546 79.0311C31.8686 78.8311 31.9786 78.6311 32.0876 78.4311C32.3102 78.0115 32.5085 77.5794 32.6816 77.1371C32.5354 77.5951 32.3532 78.0409 32.1366 78.4701C32.0366 78.6791 31.9226 78.8791 31.8116 79.0771C31.7006 79.2751 31.5876 79.4611 31.4726 79.6481C31.5276 80.0291 31.5726 80.4121 31.6186 80.7941L31.6086 80.8021L31.5966 80.7961C31.5416 80.4221 31.4876 80.0481 31.4266 79.6761V79.6641Z" fill="#1A2242"/>
<path d="M35.3625 72.4199C35.3625 72.4199 35.4445 72.6199 35.5505 72.9679C35.6905 73.4294 35.8027 73.899 35.8865 74.3739C35.999 74.9964 36.0579 75.6274 36.0625 76.2599C36.0714 76.9355 35.9842 77.6089 35.8035 78.2599C35.6414 78.8298 35.3852 79.3685 35.0455 79.8539C34.7703 80.2287 34.457 80.5739 34.1105 80.8839C33.8055 81.1679 33.5205 81.4229 33.3045 81.6259C33.0885 81.8289 32.9405 81.9719 32.9045 82.0069C32.8401 81.5885 32.8244 81.164 32.8575 80.7419C33.0345 80.5679 33.2175 80.4079 33.4055 80.2569C33.5935 80.1059 33.7925 79.9569 33.9885 79.8159C34.1845 79.6749 34.3885 79.5359 34.5885 79.3979C34.7885 79.2599 34.9885 79.1269 35.1885 78.9979C34.9785 79.1149 34.7675 79.2369 34.5635 79.3649C34.3595 79.4929 34.1505 79.6269 33.9505 79.7649C33.7505 79.9029 33.5505 80.0449 33.3575 80.1959C33.1915 80.3269 33.0265 80.4649 32.8665 80.6129C32.8745 80.5129 32.8865 80.4189 32.8975 80.3219C32.9395 79.9709 33.0035 79.6219 33.0775 79.2769C33.2775 79.1329 33.4775 78.9919 33.6775 78.8569C33.8775 78.7219 34.0945 78.5829 34.3045 78.4479C34.7215 78.1809 35.1475 77.9299 35.5685 77.6819C35.1315 77.8979 34.6975 78.1339 34.2685 78.3889C34.0535 78.5139 33.8435 78.6499 33.6345 78.7889C33.4545 78.9059 33.2805 79.0259 33.1035 79.1499C33.1915 78.7389 33.3035 78.3319 33.4095 77.9259L33.4335 77.8389C33.6035 77.7329 33.7685 77.6279 33.9405 77.5259L34.4785 77.2089C34.8375 76.9999 35.1965 76.7979 35.5555 76.5939C35.1815 76.7649 34.8135 76.9509 34.4495 77.1479C34.2645 77.2479 34.0855 77.3479 33.9045 77.4539C33.7578 77.5386 33.6125 77.6253 33.4685 77.7139C33.5892 77.2833 33.7205 76.8559 33.8625 76.4319C34.1445 76.2729 34.4315 76.1189 34.7125 75.9629C34.9935 75.8069 35.2935 75.6469 35.5815 75.4849C35.2815 75.6139 34.9815 75.7539 34.6815 75.8999C34.4175 76.0289 34.1585 76.1659 33.8985 76.3069C33.9805 76.0659 34.0625 75.8249 34.1495 75.5859L34.3435 75.0449C34.5115 74.9579 34.6805 74.8719 34.8435 74.7809L35.0975 74.6419C35.1815 74.5929 35.2655 74.5419 35.3485 74.4949C35.2585 74.5269 35.1705 74.5659 35.0815 74.6009L34.8175 74.7169C34.6725 74.7819 34.5285 74.8519 34.3845 74.9239L34.5745 74.4259C34.7165 74.0409 34.8635 73.6579 35.0105 73.2759C34.8505 73.6539 34.6905 74.0309 34.5355 74.4109L34.3355 74.9209C34.2745 74.7679 34.2125 74.6139 34.1465 74.4619C34.0725 74.2889 33.9985 74.1169 33.9155 73.9479C33.9655 74.1329 34.0235 74.3139 34.0855 74.4929C34.1475 74.6719 34.2125 74.8489 34.2855 75.0239L34.2925 75.0429L34.0925 75.5589C34.0015 75.8049 33.9135 76.0529 33.8275 76.3019L33.4625 75.4549L33.2625 74.9909L33.0625 74.5289C33.1145 74.6919 33.1705 74.8519 33.2255 75.0119L33.4015 75.4879C33.5215 75.8039 33.6495 76.1139 33.7835 76.4199V76.4259C33.6388 76.8499 33.5055 77.2773 33.3835 77.7079C33.3015 77.5459 33.2215 77.3839 33.1445 77.2199L32.8745 76.6409C32.7845 76.4469 32.6955 76.2519 32.6095 76.0559L32.3455 75.4689C32.4155 75.6739 32.4945 75.8769 32.5705 76.0789C32.6465 76.2809 32.7315 76.4789 32.8145 76.6789C32.8975 76.8789 32.9865 77.0719 33.0745 77.2649C33.1625 77.4579 33.2555 77.6489 33.3475 77.8369L33.3295 77.9009C33.2195 78.3159 33.1135 78.7339 33.0295 79.1549C32.9165 78.9599 32.8015 78.7609 32.6945 78.5609C32.5705 78.3349 32.4535 78.1039 32.3345 77.8739C32.2155 77.6439 32.1015 77.4089 31.9875 77.1739C31.8735 76.9389 31.7635 76.7009 31.6495 76.4619C31.7495 76.7119 31.8495 76.9539 31.9495 77.1989C32.0495 77.4439 32.1625 77.6789 32.2755 77.9159C32.3885 78.1529 32.5065 78.3829 32.6255 78.6159C32.7445 78.8489 32.8725 79.0689 32.9985 79.2879V79.2929C32.9295 79.6329 32.8695 79.9759 32.8305 80.3219C32.8195 80.4279 32.8105 80.5329 32.8035 80.6389C32.6625 80.4589 32.5275 80.2679 32.3975 80.0719C32.2545 79.8549 32.1205 79.6289 31.9855 79.4029C31.8505 79.1769 31.7235 78.9489 31.5975 78.7189C31.4715 78.4889 31.3455 78.2569 31.2205 78.0189C31.3285 78.2649 31.4425 78.5039 31.5605 78.7419C31.6785 78.9799 31.8025 79.2109 31.9295 79.4419C32.0565 79.6729 32.1935 79.9009 32.3345 80.1209C32.4755 80.3409 32.6255 80.5529 32.7835 80.7519L32.7955 80.7669C32.7725 81.185 32.7997 81.6043 32.8765 82.0159C32.6984 81.9413 32.5304 81.8445 32.3765 81.7279C32.0328 81.4662 31.7448 81.1385 31.5295 80.7639C31.2273 80.2364 31.0329 79.6542 30.9575 79.0509C30.8616 78.3309 30.9181 77.5987 31.1235 76.9019C31.3462 76.158 31.7109 75.4642 32.1975 74.8589C32.6129 74.3405 33.0916 73.8762 33.6225 73.4769C34.01 73.1827 34.4188 72.9177 34.8455 72.6839C35.1635 72.5059 35.3625 72.4199 35.3625 72.4199Z" fill="#83C8E6"/>
<path d="M32.7827 80.748C32.6247 80.548 32.4747 80.337 32.3337 80.117C32.1927 79.897 32.0547 79.671 31.9287 79.438C31.8027 79.205 31.6787 78.971 31.5597 78.738C31.4407 78.505 31.3267 78.261 31.2197 78.015C31.3447 78.248 31.4657 78.481 31.5967 78.715C31.7277 78.949 31.8507 79.172 31.9847 79.399C32.1187 79.626 32.2537 79.851 32.3967 80.068C32.5267 80.268 32.6607 80.4549 32.8027 80.6349C32.8097 80.5289 32.8187 80.424 32.8297 80.318C32.8687 79.972 32.9297 79.629 32.9977 79.289V79.284C32.8717 79.065 32.7447 78.84 32.6247 78.612C32.5047 78.384 32.3837 78.153 32.2747 77.912C32.1657 77.671 32.0547 77.437 31.9487 77.195C31.8427 76.953 31.7487 76.709 31.6487 76.458C31.7627 76.697 31.8707 76.935 31.9867 77.17C32.1027 77.405 32.2127 77.64 32.3337 77.87C32.4547 78.1 32.5697 78.331 32.6937 78.557C32.8007 78.757 32.9157 78.957 33.0287 79.151C33.1157 78.73 33.2207 78.313 33.3287 77.897L33.3467 77.833C33.2547 77.645 33.1607 77.453 33.0737 77.261C32.9867 77.069 32.8937 76.873 32.8137 76.675C32.7337 76.477 32.6487 76.275 32.5697 76.075C32.4907 75.875 32.4147 75.67 32.3447 75.465L32.6087 76.052C32.6947 76.252 32.7837 76.443 32.8737 76.637L33.1437 77.216C33.2207 77.38 33.3007 77.5429 33.3827 77.7039C33.5067 77.2733 33.6401 76.846 33.7827 76.422V76.416C33.6487 76.109 33.5207 75.7999 33.4007 75.4839L33.2247 75.008C33.1697 74.848 33.1137 74.688 33.0617 74.525L33.2617 74.987L33.4617 75.451L33.8267 76.298C33.9127 76.05 33.9997 75.798 34.0917 75.555L34.2917 75.039L34.2847 75.02C34.2157 74.844 34.1497 74.669 34.0847 74.489C34.0197 74.309 33.9647 74.129 33.9147 73.944C33.9977 74.113 34.0717 74.285 34.1457 74.458C34.2117 74.61 34.2737 74.764 34.3347 74.917L34.5347 74.407C34.6897 74.027 34.8497 73.65 35.0097 73.272C34.8627 73.655 34.7167 74.038 34.5737 74.422L34.3897 74.914C34.5337 74.843 34.6777 74.772 34.8227 74.707L35.0867 74.591C35.1757 74.556 35.2637 74.517 35.3537 74.485C35.2707 74.537 35.1867 74.585 35.1027 74.632L34.8487 74.771C34.6837 74.862 34.5137 74.948 34.3487 75.035L34.1547 75.576C34.0677 75.815 33.9857 76.056 33.9037 76.297C34.1637 76.156 34.4227 76.018 34.6867 75.89C34.9867 75.744 35.2807 75.603 35.5867 75.475C35.2987 75.637 35.0077 75.794 34.7177 75.953C34.4277 76.112 34.1497 76.263 33.8677 76.422C33.7257 76.846 33.5944 77.2733 33.4737 77.7039C33.6177 77.6153 33.7631 77.5286 33.9097 77.444C34.0907 77.344 34.2697 77.235 34.4547 77.138C34.8197 76.938 35.1877 76.755 35.5607 76.584C35.2017 76.784 34.8417 76.99 34.4837 77.199L33.9457 77.516C33.7747 77.616 33.6087 77.7219 33.4387 77.8289L33.4147 77.916C33.3037 78.322 33.1957 78.729 33.1087 79.14C33.2857 79.016 33.4597 78.895 33.6397 78.779C33.8497 78.642 34.0587 78.507 34.2737 78.379C34.6987 78.125 35.1327 77.888 35.5737 77.672C35.1537 77.92 34.7267 78.172 34.3097 78.438C34.0997 78.573 33.8917 78.706 33.6827 78.847C33.4737 78.988 33.2827 79.123 33.0827 79.267C33.0087 79.613 32.9457 79.961 32.9027 80.312C32.8907 80.412 32.8797 80.506 32.8717 80.603C33.0317 80.455 33.1967 80.317 33.3627 80.186C33.5567 80.035 33.7537 79.886 33.9557 79.755C34.1577 79.624 34.3617 79.485 34.5687 79.3549C34.7757 79.2249 34.9837 79.104 35.1937 78.988C34.9937 79.12 34.7937 79.253 34.5937 79.388C34.3937 79.523 34.1937 79.664 33.9937 79.806C33.7937 79.948 33.6017 80.0919 33.4107 80.2469C33.2197 80.4019 33.0397 80.558 32.8627 80.732C32.8296 81.154 32.8453 81.5785 32.9097 81.9969L32.8987 82.007L32.8847 82.002C32.8079 81.5903 32.7807 81.171 32.8037 80.753L32.7827 80.748Z" fill="#1A2242"/>
<path d="M53.6252 33.6069H49.6132C49.7662 34.2129 49.2902 34.7459 49.1002 35.3069C48.9385 35.7501 48.9103 36.2309 49.0192 36.6899C49.0914 36.9509 49.2192 37.1932 49.3936 37.4003C49.5681 37.6074 49.7852 37.7744 50.0302 37.8899C50.7831 38.1578 51.5947 38.2159 52.3782 38.0579C52.7871 38.0412 53.1814 37.9018 53.51 37.6578C53.8385 37.4138 54.086 37.0765 54.2202 36.6899C54.329 36.2309 54.3008 35.7501 54.1392 35.3069C53.9502 34.7459 53.4722 34.2129 53.6252 33.6069Z" fill="#1A2242"/>
<path d="M54.3799 35.801C54.0239 35.243 52.8589 35.038 52.3169 34.971H52.2739C52.1259 34.954 52.0339 34.948 52.0339 34.948L51.7409 34.956L51.4479 34.948C51.4479 34.948 51.3559 34.954 51.2079 34.971H51.1649C50.6229 35.038 49.4579 35.243 49.1019 35.801C48.8339 36.222 49.4119 38.514 49.6019 40.401C49.6846 41.2647 49.6436 42.1359 49.4799 42.988H54.0049C53.8588 42.0261 53.8282 41.0502 53.9139 40.081C54.0869 38.264 54.6329 36.199 54.3799 35.801Z" fill="#83C8E6"/>
<path d="M52.6691 39.463L51.3201 39.47L51.2891 37.131L52.6381 37.124L52.6691 39.463Z" fill="#FFC64D"/>
<path d="M52.6539 38.337C52.6467 38.329 52.6379 38.3224 52.6282 38.3178C52.6184 38.3131 52.6079 38.3105 52.5971 38.3099C52.5863 38.3093 52.5756 38.3109 52.5654 38.3145C52.5552 38.3182 52.5459 38.3237 52.5379 38.331C52.5379 38.331 52.2379 38.574 52.2379 38.566C52.2379 38.558 52.6379 38.166 52.6379 38.166C52.6541 38.1514 52.6638 38.131 52.6649 38.1092C52.666 38.0875 52.6585 38.0662 52.6439 38.05C52.6293 38.0338 52.6089 38.0241 52.5871 38.023C52.5654 38.0218 52.5441 38.0294 52.5279 38.044C52.5279 38.044 52.1129 38.397 52.1079 38.391C52.1029 38.385 52.5169 37.976 52.5169 37.976C52.5249 37.9688 52.5314 37.96 52.536 37.9503C52.5407 37.9406 52.5433 37.93 52.5439 37.9192C52.5445 37.9085 52.5429 37.8977 52.5393 37.8875C52.5357 37.8774 52.5301 37.868 52.5229 37.86C52.5156 37.852 52.5069 37.8455 52.4972 37.8408C52.4874 37.8362 52.4769 37.8335 52.4661 37.833C52.4553 37.8324 52.4446 37.834 52.4344 37.8376C52.4242 37.8412 52.4149 37.8468 52.4069 37.854C52.4069 37.854 51.9609 38.235 51.9549 38.23C51.9489 38.225 52.3079 37.876 52.3079 37.876C52.3241 37.8614 52.3338 37.841 52.3349 37.8192C52.336 37.7975 52.3285 37.7762 52.3139 37.76C52.2993 37.7438 52.2789 37.7341 52.2571 37.733C52.2354 37.7318 52.2141 37.7394 52.1979 37.754L51.8089 38.104C51.8019 38.099 51.4089 38.461 51.3089 38.41V38.292C51.2643 38.2998 51.223 38.3204 51.19 38.3513C51.157 38.3822 51.1336 38.4221 51.1229 38.466C51.1052 38.5376 51.1052 38.6124 51.1229 38.684C51.1339 38.743 51.1229 38.803 51.1319 38.863C51.1391 38.9182 51.1532 38.9723 51.1739 39.024C51.1609 39.032 49.8849 39.663 48.6879 40.324C49.145 39.1107 49.7012 37.937 50.3509 36.815C50.4189 36.6476 50.4359 36.4639 50.3996 36.2869C50.3634 36.1099 50.2756 35.9476 50.1472 35.8204C50.0189 35.6933 49.8558 35.607 49.6785 35.5724C49.5012 35.5378 49.3176 35.5564 49.1509 35.626L49.0779 35.657C48.9471 35.7127 48.8312 35.7981 48.7392 35.9064C48.6472 36.0147 48.5817 36.143 48.5479 36.281C48.5479 36.281 47.0619 40.1 47.2979 41.395C47.3142 41.4786 47.337 41.5608 47.3659 41.641C48.4399 42.207 51.4519 39.434 51.4859 39.399C51.815 39.2397 52.1077 39.0144 52.3459 38.737L52.6599 38.454C52.6673 38.446 52.673 38.4365 52.6767 38.4263C52.6804 38.416 52.682 38.4051 52.6815 38.3942C52.6809 38.3833 52.6782 38.3727 52.6734 38.3628C52.6687 38.353 52.662 38.3442 52.6539 38.337Z" fill="#FFB691"/>
<path d="M49.4213 38.991C50.0113 37.742 50.6474 36.643 50.6474 36.643C50.7664 36.1174 50.7779 35.5731 50.6814 35.043C50.1795 35.074 49.6821 35.1551 49.1964 35.285C49.0312 35.341 48.882 35.436 48.7615 35.5621C48.641 35.6881 48.5528 35.8415 48.5043 36.009C48.5043 36.009 48.1184 37.002 47.7354 38.216C48.234 38.5943 48.8095 38.8588 49.4213 38.991Z" fill="#83C8E6"/>
<path d="M51.6404 36.6221C51.1734 36.6431 50.6924 35.7221 50.6924 35.1321C50.6924 34.0201 52.5074 33.9581 52.5074 35.0951C52.5124 35.6381 52.0804 36.6031 51.6404 36.6221Z" fill="#FFAE85"/>
<path d="M53.2163 33.65C53.2213 34.1143 53.0857 34.5693 52.8273 34.955C52.5257 35.3244 52.0984 35.5694 51.6273 35.643C51.1474 35.5633 50.7135 35.3099 50.4083 34.931C50.1603 34.5498 50.0305 34.1038 50.0353 33.649C50.0457 33.2336 50.2181 32.8387 50.5156 32.5485C50.8131 32.2583 51.2122 32.0959 51.6278 32.0959C52.0434 32.0959 52.4425 32.2583 52.74 32.5485C53.0375 32.8387 53.2099 33.2336 53.2203 33.649L53.2163 33.65Z" fill="#FFBF9E"/>
<path d="M53.7136 33.268C53.7136 33.247 53.7136 33.226 53.7136 33.204C53.6875 32.8842 53.6006 32.5723 53.4576 32.285C53.3349 32.0124 53.1495 31.7725 52.9166 31.585C52.6479 31.4129 52.3437 31.3037 52.0268 31.2656C51.7099 31.2275 51.3885 31.2615 51.0866 31.365C50.7318 31.4583 50.4109 31.6508 50.1616 31.92C50.0415 32.0589 49.9406 32.2133 49.8616 32.379C49.7862 32.5664 49.6963 32.7476 49.5926 32.921C49.5189 33.015 49.4686 33.1252 49.4457 33.2424C49.4228 33.3597 49.428 33.4807 49.4608 33.5955C49.4937 33.7104 49.5534 33.8158 49.6348 33.9031C49.7163 33.9905 49.8174 34.0573 49.9296 34.098C49.9846 34.3921 50.1355 34.6597 50.3586 34.859C50.2177 34.6536 50.1475 34.4079 50.1586 34.159C50.2679 34.1533 50.376 34.1342 50.4806 34.102C50.5904 34.0653 50.6979 34.0222 50.8026 33.973C51.0896 34.2605 51.4545 34.4575 51.8523 34.5398C52.25 34.6221 52.6632 34.586 53.0406 34.436C53.2435 34.3153 53.4119 34.1445 53.5297 33.9399C53.6476 33.7354 53.7109 33.5041 53.7136 33.268Z" fill="#1A2242"/>
<path d="M47.3835 60.3992L50.4026 59.9802C47.0469 60.4556 43.9297 61.9868 41.5025 64.3522C41.0347 64.8076 40.434 65.1021 39.7876 65.1932L36.7686 65.6122C37.415 65.5211 38.0157 65.2266 38.4836 64.7712C40.9107 62.4058 44.0279 60.8745 47.3835 60.3992Z" fill="#FFC64D"/>
<path d="M45.8479 48.158L48.8669 47.739C43.3641 48.5193 38.2545 51.037 34.2829 54.925C33.8145 55.3826 33.2123 55.6786 32.5639 55.77L29.5449 56.189C30.1933 56.0976 30.7955 55.8016 31.2639 55.344C35.2354 51.456 40.3451 48.9382 45.8479 48.158Z" fill="#FFC64D"/>
<path d="M48.8965 66.0161L51.9155 65.5971C52.3563 65.536 52.802 65.5169 53.2465 65.5401L50.2275 65.9591C49.783 65.9359 49.3373 65.955 48.8965 66.0161Z" fill="#FFC64D"/>
<path d="M46.4336 53.6461L49.4526 53.2271C50.8381 53.0351 52.2387 52.9752 53.6356 53.0481L50.6166 53.4671C49.2197 53.3942 47.8191 53.4541 46.4336 53.6461Z" fill="#FFC64D"/>
<path d="M44.8955 41.4061L47.9145 40.9871C49.935 40.7073 51.9775 40.6199 54.0145 40.7261L50.9955 41.1451C48.9585 41.039 46.916 41.1263 44.8955 41.4061Z" fill="#FFC64D"/>
<path d="M51.065 81.5369C55.1083 80.9733 57.9016 77.0414 57.3041 72.7548C56.7066 68.4681 52.9444 65.4501 48.9011 66.0137C44.8578 66.5773 42.0645 70.5092 42.662 74.7958C43.2595 79.0824 47.0217 82.1005 51.065 81.5369Z" fill="#FFDF3F"/>
<path d="M54.0905 81.1291L51.0715 81.5481C52.826 81.2605 54.4222 80.3614 55.5775 79.01C56.7327 77.6585 57.3725 75.9419 57.3835 74.1641C57.4912 72.1345 56.8044 70.1427 55.4685 68.6108C54.1327 67.079 52.2529 66.1276 50.2275 65.9581L53.2465 65.5391C55.272 65.7083 57.152 66.6597 58.4878 68.1916C59.8237 69.7235 60.5105 71.7154 60.4025 73.7451C60.3915 75.5229 59.7517 77.2396 58.5965 78.591C57.4412 79.9424 55.845 80.8415 54.0905 81.1291Z" fill="#FFC64D"/>
<path d="M67.9892 66.8221L64.9702 67.2411C65.6171 67.1496 66.2181 66.8548 66.6862 66.3991C67.316 65.7673 67.684 64.9209 67.7164 64.0294C67.7488 63.1379 67.4434 62.267 66.8612 61.5911C64.8497 59.2018 62.3711 57.2486 59.5776 55.8516C56.7841 54.4546 53.7346 53.6432 50.6162 53.4671L53.6352 53.0481C56.7536 53.2241 59.8031 54.0356 62.5966 55.4326C65.3901 56.8296 67.8687 58.7827 69.8802 61.1721C70.4624 61.848 70.7678 62.7189 70.7354 63.6104C70.7029 64.5019 70.335 65.3483 69.7052 65.9801C69.2371 66.4358 68.6361 66.7306 67.9892 66.8221Z" fill="#FFC64D"/>
<path d="M50.6159 53.4671C53.7343 53.6432 56.7838 54.4546 59.5773 55.8516C62.3708 57.2487 64.8493 59.2018 66.8609 61.5911C67.4431 62.267 67.7485 63.1379 67.7161 64.0294C67.6836 64.9209 67.3157 65.7673 66.6859 66.3991C66.3839 66.6939 66.0242 66.9231 65.6295 67.0723C65.2347 67.2215 64.8134 67.2875 64.3919 67.2661C63.9591 67.2407 63.5359 67.1276 63.1481 66.9337C62.7603 66.7398 62.4159 66.4692 62.1359 66.1381C60.6833 64.412 58.8933 63.0011 56.8756 61.992C54.8579 60.9829 52.6553 60.3969 50.4029 60.2701C48.2129 60.1558 46.023 60.4967 43.9714 61.2713C41.9198 62.0458 40.051 63.2371 38.4829 64.7701C38.1811 65.0647 37.8215 65.2938 37.4269 65.4428C37.0323 65.5918 36.6112 65.6576 36.1899 65.6361C35.7571 65.6112 35.3338 65.4984 34.946 65.3047C34.5581 65.1109 34.2138 64.8402 33.9339 64.5091C33.3516 63.8328 33.0461 62.9616 33.0785 62.0698C33.111 61.1779 33.479 60.3312 34.1089 59.6991C36.2804 57.5761 38.8683 55.9262 41.7095 54.8536C44.5506 53.781 47.5832 53.3089 50.6159 53.4671Z" fill="#FFDF3F"/>
<path d="M75.7849 58.1741L72.7659 58.5931C73.4137 58.5018 74.0154 58.2057 74.4829 57.7481C75.1116 57.1151 75.4781 56.268 75.5091 55.3763C75.5401 54.4847 75.2332 53.6142 74.6499 52.9391C71.7167 49.4696 68.1072 46.6344 64.0416 44.6066C59.9761 42.5788 55.5399 41.401 51.0039 41.1451L54.0229 40.7261C58.5583 40.9828 62.9939 42.1612 67.0587 44.1893C71.1235 46.2174 74.7324 49.0527 77.6649 52.5221C78.2484 53.1971 78.5554 54.0676 78.5245 54.9593C78.4935 55.851 78.1268 56.6982 77.4979 57.3311C77.0312 57.7872 76.4311 58.0825 75.7849 58.1741Z" fill="#FFDF3F"/>
<path d="M51.0004 41.1461C55.5363 41.4021 59.9725 42.5799 64.0381 44.6077C68.1036 46.6355 71.7132 49.4707 74.6464 52.9401C75.2297 53.6152 75.5365 54.4856 75.5056 55.3773C75.4746 56.269 75.1081 57.116 74.4794 57.7491C74.1772 58.0455 73.8167 58.2759 73.4208 58.4257C73.0248 58.5755 72.6021 58.6413 72.1794 58.6191C71.7475 58.5943 71.3251 58.482 70.938 58.2889C70.5509 58.0959 70.207 57.8261 69.9274 57.4961C67.5529 54.6874 64.6309 52.3922 61.3397 50.7506C58.0486 49.109 54.4574 48.1554 50.7854 47.9481C47.1957 47.7611 43.6065 48.3224 40.2453 49.5963C36.8841 50.8702 33.8244 52.8289 31.2604 55.3481C30.958 55.6443 30.5975 55.8745 30.2016 56.0243C29.8057 56.174 29.3831 56.24 28.9604 56.2181C28.5285 56.1931 28.1062 56.0807 27.7191 55.8877C27.332 55.6947 26.9881 55.425 26.7084 55.0951C26.1249 54.4201 25.8178 53.5495 25.8488 52.6578C25.8798 51.7661 26.2464 50.919 26.8754 50.2861C30.0434 47.1735 33.8239 44.7536 37.9771 43.1801C42.1303 41.6066 46.5652 40.914 51.0004 41.1461Z" fill="#FFDF3F"/>
<path d="M72.9827 76.2199L73.4537 72.1799H73.2297L72.2617 76.2199H72.9827Z" fill="#E6EBFF"/>
<path d="M72.9824 76.2198H68.9424V75.9958L72.9824 75.4958V76.2198Z" fill="#E6EBFF"/>
<path d="M72.9824 76.2198H68.9424V75.9958L72.9824 75.9229V76.2198Z" fill="#FFC64D"/>
<path d="M72.9796 76.2199L73.4506 72.1799H73.2266L72.6826 76.2199H72.9796Z" fill="#FFC64D"/>
<path d="M77.1449 80.741C74.5235 81.3173 71.8109 81.3432 69.1789 80.817C67.0509 81.098 64.0449 81.268 64.0449 81.268C63.7777 81.4817 63.4685 81.637 63.1375 81.7237C62.8064 81.8105 62.4609 81.8267 62.1232 81.7715C61.7854 81.7163 61.4631 81.5908 61.1769 81.4031C60.8907 81.2154 60.6471 80.9697 60.4619 80.682L60.8619 77.982C60.8619 77.982 64.4779 77.213 70.0999 79.175L77.2219 80.075L77.1449 80.741Z" fill="#1A2242"/>
<path d="M77.1514 80.734L78.1404 80.723L78.0794 80.207L77.2234 80.072L77.1514 80.734Z" fill="#FFBF9E"/>
<path d="M78.14 80.7229C78.459 80.8759 78.651 80.9389 78.904 80.6909L79.773 79.5659C79.7991 79.5329 79.8146 79.4927 79.8172 79.4506C79.8199 79.4086 79.8097 79.3668 79.788 79.3307C79.7662 79.2946 79.734 79.266 79.6956 79.2487C79.6572 79.2314 79.6144 79.2263 79.573 79.2339C79.5 79.2539 78.084 80.2059 78.084 80.2059L78.14 80.7229Z" fill="#1A2242"/>
<path d="M60.4148 71.9269C59.6999 72.9088 59.2299 74.0472 59.044 75.2474C58.858 76.4476 58.9615 77.6748 59.3458 78.8269L62.8248 78.602C62.5303 77.6711 62.3694 76.7031 62.3468 75.727C64.4578 74.574 62.8988 74.2509 62.8228 72.0269C62.6886 71.8366 62.5125 71.6796 62.308 71.5681C62.1035 71.4566 61.8762 71.3935 61.6434 71.3839C61.4107 71.3742 61.1789 71.4182 60.9659 71.5123C60.7528 71.6065 60.5643 71.7483 60.4148 71.9269Z" fill="#83C8E6"/>
<path d="M64.7075 75.9919C63.6965 75.4569 61.9385 72.3479 61.9385 72.3479C61.8032 72.1694 61.6032 72.0513 61.3815 72.0189C61.2694 72.0026 61.1551 72.0088 61.0454 72.037C60.9356 72.0653 60.8326 72.1152 60.7423 72.1837C60.652 72.2522 60.5763 72.338 60.5195 72.436C60.4627 72.5341 60.426 72.6425 60.4115 72.7549L60.4025 72.8279C60.3855 72.9596 60.3995 73.0934 60.4432 73.2187C60.487 73.344 60.5593 73.4574 60.6545 73.5499C60.6545 73.5499 63.0275 76.5499 64.1825 76.9769C65.3015 77.3869 68.9375 76.6479 68.9375 76.6479L68.9155 76.2099C67.5094 76.2425 66.1028 76.1697 64.7075 75.9919Z" fill="#FFBF9E"/>
<path d="M62.6896 73.5819C62.2526 72.9019 61.9386 72.3479 61.9386 72.3479C61.8361 72.2126 61.6957 72.111 61.5352 72.0558C61.3747 72.0007 61.2014 71.9946 61.0375 72.0384C60.8735 72.0822 60.7263 72.1738 60.6146 72.3016C60.503 72.4294 60.4319 72.5876 60.4106 72.756L60.4016 72.8289C60.3846 72.9606 60.3985 73.0944 60.4422 73.2197C60.486 73.3451 60.5583 73.4585 60.6536 73.5509C60.6536 73.5509 60.9536 73.9289 61.3876 74.4339C61.8924 74.2766 62.3433 73.9816 62.6896 73.5819Z" fill="#83C8E6"/>
<path d="M70.887 76.4139C70.367 76.2769 70.027 76.7589 68.937 76.6549L68.915 76.2139H70.887C70.9027 76.2254 70.9155 76.2404 70.9243 76.2578C70.9331 76.2752 70.9377 76.2944 70.9377 76.3139C70.9377 76.3334 70.9331 76.3526 70.9243 76.3699C70.9155 76.3873 70.9027 76.4024 70.887 76.4139Z" fill="#FFBF9E"/>
<path d="M61.3496 71.1731C61.5994 71.0424 61.8121 70.8506 61.9679 70.6156C62.1236 70.3806 62.2175 70.1101 62.2406 69.8291L63.3946 70.3691C63.1787 70.5834 63.0145 70.8441 62.9145 71.1314C62.8145 71.4187 62.7814 71.7251 62.8176 72.0271L61.3496 71.1731Z" fill="#FFAE85"/>
<path d="M63.0988 70.782L63.1088 70.789C63.202 70.859 63.3081 70.9098 63.421 70.9384C63.534 70.9671 63.6515 70.9731 63.7668 70.956C64.2368 70.868 64.5598 70.396 64.9018 69.73C65.0453 69.5334 65.1429 69.307 65.1873 69.0677C65.2318 68.8283 65.2219 68.582 65.1586 68.347C65.0953 68.1119 64.9801 67.894 64.8214 67.7094C64.6627 67.5247 64.4646 67.378 64.2418 67.28C63.2088 66.886 61.5228 67.033 62.1198 69.352C62.2666 69.9295 62.6135 70.4362 63.0988 70.782Z" fill="#FFBF9E"/>
<path d="M65.9486 67.961C65.6568 67.7776 65.3107 67.7003 64.9686 67.742C64.969 67.7295 64.9669 67.7171 64.9624 67.7054C64.958 67.6937 64.9512 67.6831 64.9426 67.674C64.7089 67.3812 64.3969 67.1607 64.0428 67.0382C63.6888 66.9157 63.3073 66.8962 62.9426 66.982C62.5782 67.0449 62.2421 67.219 61.9806 67.4804C61.719 67.7418 61.5447 68.0777 61.4816 68.442C61.3556 69.255 60.9416 69.548 60.2246 69.856C59.881 69.9921 59.5684 70.1962 59.3056 70.456C59.0457 70.7304 58.8513 71.0601 58.7372 71.4203C58.623 71.7806 58.5921 72.1621 58.6466 72.536C58.2816 73.036 57.8186 73.422 57.9466 74.116C57.9879 74.3437 58.0982 74.5531 58.2626 74.716C58.3647 74.8184 58.4842 74.9017 58.6156 74.962C58.7797 75.038 58.9602 75.0715 59.1406 75.0597C59.3211 75.0478 59.4956 74.9908 59.6483 74.894C59.8011 74.7972 59.9271 74.6637 60.0148 74.5056C60.1025 74.3474 60.1492 74.1699 60.1506 73.989C60.1406 73.6736 60.2221 73.362 60.3854 73.0919C60.5486 72.8218 60.7866 72.6048 61.0706 72.467C61.2616 72.38 61.4706 72.332 61.6656 72.267C62.0541 72.1255 62.3859 71.8612 62.6106 71.514C62.7237 71.3321 62.7952 71.1274 62.8201 70.9146C62.845 70.7018 62.8226 70.4862 62.7546 70.283C62.5983 69.9127 62.5955 69.4955 62.7466 69.123C62.8354 68.9869 62.9515 68.8706 63.0874 68.7814C63.2234 68.6923 63.3763 68.6323 63.5366 68.605C64.1456 69.153 65.4586 69.561 66.0846 68.818C66.1353 68.7541 66.1721 68.6804 66.1928 68.6015C66.2136 68.5226 66.2177 68.4402 66.2049 68.3596C66.1921 68.2791 66.1627 68.202 66.1186 68.1334C66.0745 68.0648 66.0166 68.0061 65.9486 67.961Z" fill="#1A2242"/>
<path d="M62.9021 69.0801C62.8769 69.033 62.8412 68.9922 62.7978 68.961C62.7544 68.9298 62.7044 68.909 62.6517 68.9001C62.599 68.8912 62.5449 68.8946 62.4937 68.9098C62.4425 68.9251 62.3954 68.9518 62.3561 68.9881C62.1631 69.2161 62.4101 69.4881 62.7291 69.4881C62.7573 69.3414 62.8162 69.2023 62.9021 69.0801Z" fill="#FFBF9E"/>
<path d="M59.3418 78.822C59.3418 78.822 59.7718 82.022 61.6608 82.039C62.5091 82.0853 63.35 81.8593 64.0608 81.394C65.5554 80.743 66.9602 79.9028 68.2408 78.894C68.2408 78.894 69.0408 80.259 72.2408 82.354L72.8408 81.812C72.8408 81.812 69.8148 77.579 68.8878 76.962C68.8402 76.9303 68.7879 76.9064 68.7328 76.891C67.1328 76.442 62.8158 78.591 62.8158 78.591L59.3418 78.822Z" fill="#31395C"/>
<path d="M72.248 82.3618L73.015 82.9729L73.3701 82.5799L72.846 81.8188L72.248 82.3618Z" fill="#FFBF9E"/>
<path d="M73.0146 82.973C73.0733 83.1352 73.1804 83.2755 73.3216 83.3746C73.4628 83.4737 73.6311 83.5269 73.8036 83.5269C73.8242 83.527 73.8446 83.5229 73.8635 83.5148C73.8824 83.5067 73.8995 83.4949 73.9136 83.4799L75.1556 82.167C75.1797 82.1414 75.1977 82.1107 75.2082 82.0772C75.2186 82.0437 75.2213 82.0082 75.216 81.9735C75.2107 81.9388 75.1975 81.9058 75.1776 81.8769C75.1576 81.8481 75.1313 81.8241 75.1006 81.8069C75.0681 81.7888 75.0317 81.7787 74.9944 81.7777C74.9571 81.7766 74.9202 81.7846 74.8867 81.801L73.3336 82.5619L73.0146 82.973Z" fill="#1A2242"/>
<path d="M71.9487 68.7219H67.9717V71.4959H69.3607L69.6487 71.9959L69.9607 72.5359L70.2727 71.9959L70.5607 71.4959H71.9497L71.9487 68.7219Z" fill="#83C8E6"/>
<path d="M71.6169 69.3669H68.3799V69.5709H71.6169V69.3669Z" fill="white"/>
<path d="M71.6169 69.7739H68.3799V69.9779H71.6169V69.7739Z" fill="white"/>
<path d="M71.6169 70.1819H68.3799V70.3859H71.6169V70.1819Z" fill="white"/>
<path d="M70.5129 70.5889H68.3799V70.7929H70.5129V70.5889Z" fill="white"/>
<path d="M43.6711 63.3801H38.9541V66.6711H40.6021L40.9431 67.2621L41.3131 67.9021L41.6831 67.2621L42.0241 66.6711H43.6711V63.3801Z" fill="#83C8E6"/>
<path d="M43.2795 64.145H39.4395V64.387H43.2795V64.145Z" fill="white"/>
<path d="M43.2795 64.6279H39.4395V64.8699H43.2795V64.6279Z" fill="white"/>
<path d="M43.2795 65.1111H39.4395V65.3531H43.2795V65.1111Z" fill="white"/>
<path d="M41.9695 65.594H39.4395V65.836H41.9695V65.594Z" fill="white"/>
<path d="M44.1922 73.0151C43.8562 72.5151 42.7562 72.3261 42.2452 72.2661H42.2052C42.0652 72.2501 41.9792 72.2451 41.9792 72.2451L41.7032 72.2531L41.4272 72.2451C41.4272 72.2451 41.3402 72.2501 41.2012 72.2661H41.1612C40.6492 72.3261 39.5492 72.5111 39.2142 73.0151C38.9612 73.3951 39.5072 75.4651 39.6842 77.1661C39.7623 77.9462 39.7235 78.7335 39.5692 79.5021H43.8412C43.7033 78.6341 43.6744 77.7523 43.7552 76.8771C43.9152 75.2391 44.4312 73.3741 44.1922 73.0151Z" fill="#83C8E6"/>
<path d="M46.7604 82.259H45.3704C45.295 82.2666 45.2188 82.2582 45.1469 82.2344C45.075 82.2105 45.0089 82.1717 44.953 82.1206C44.8971 82.0694 44.8527 82.007 44.8226 81.9375C44.7925 81.8679 44.7774 81.7928 44.7784 81.717C44.7798 81.6398 44.7972 81.5636 44.8294 81.4934C44.8617 81.4232 44.9081 81.3604 44.9657 81.3089C45.0234 81.2575 45.091 81.2185 45.1644 81.1944C45.2378 81.1704 45.3154 81.1617 45.3924 81.169L46.6764 81.18C47.0154 81.18 47.3684 81.38 47.3684 81.717C47.3674 81.7936 47.3504 81.8692 47.3187 81.9389C47.2869 82.0086 47.2409 82.0709 47.1837 82.1219C47.1265 82.1729 47.0594 82.2114 46.9865 82.235C46.9136 82.2586 46.8366 82.2668 46.7604 82.259Z" fill="#1A2242"/>
<path d="M45.3598 82.263C45.2845 82.2671 45.2091 82.2561 45.1381 82.2308C45.0671 82.2055 45.0018 82.1664 44.946 82.1157C44.8902 82.065 44.845 82.0038 44.813 81.9355C44.7811 81.8673 44.763 81.7933 44.7598 81.718C44.7611 81.6432 44.7776 81.5695 44.8081 81.5012C44.8386 81.433 44.8826 81.3715 44.9374 81.3207C44.9922 81.2698 45.0567 81.2305 45.127 81.2051C45.1974 81.1797 45.2721 81.1688 45.3468 81.173L46.6748 81.217C46.9978 81.217 47.3318 81.405 47.3318 81.717C47.3313 81.7892 47.3155 81.8604 47.2857 81.9261C47.2558 81.9918 47.2124 82.0505 47.1584 82.0983C47.1043 82.1462 47.0408 82.1821 46.972 82.2037C46.9031 82.2254 46.8305 82.2323 46.7588 82.224L45.3598 82.263Z" fill="#1A2242"/>
<path d="M46.7109 81.218V82.224H46.7609C46.8326 82.2323 46.9053 82.2254 46.9741 82.2037C47.043 82.1821 47.1065 82.1462 47.1606 82.0984C47.2146 82.0505 47.258 81.9919 47.2879 81.9261C47.3177 81.8604 47.3334 81.7892 47.3339 81.717C47.3339 81.409 47.0229 81.23 46.7109 81.218Z" fill="#EBFFFF"/>
<path d="M45.8854 81.433C45.9241 81.433 45.9554 81.4016 45.9554 81.363C45.9554 81.3243 45.9241 81.293 45.8854 81.293C45.8468 81.293 45.8154 81.3243 45.8154 81.363C45.8154 81.4016 45.8468 81.433 45.8854 81.433Z" fill="#1A2242"/>
<path d="M46.1074 81.363C46.1074 81.3491 46.1115 81.3356 46.1192 81.3241C46.1269 81.3126 46.1378 81.3036 46.1506 81.2983C46.1634 81.293 46.1775 81.2916 46.1911 81.2943C46.2047 81.297 46.2171 81.3037 46.2269 81.3135C46.2367 81.3232 46.2434 81.3357 46.2461 81.3493C46.2488 81.3629 46.2474 81.377 46.2421 81.3897C46.2368 81.4025 46.2278 81.4135 46.2163 81.4211C46.2048 81.4288 46.1913 81.433 46.1774 81.433C46.1589 81.433 46.1411 81.4256 46.1279 81.4125C46.1148 81.3993 46.1074 81.3815 46.1074 81.363Z" fill="#1A2242"/>
<path d="M46.3984 81.363C46.3984 81.3491 46.4025 81.3356 46.4102 81.3241C46.4179 81.3126 46.4289 81.3036 46.4417 81.2983C46.4544 81.293 46.4685 81.2916 46.4821 81.2943C46.4957 81.297 46.5081 81.3037 46.5179 81.3135C46.5277 81.3232 46.5344 81.3357 46.5371 81.3493C46.5398 81.3629 46.5384 81.377 46.5331 81.3897C46.5278 81.4025 46.5188 81.4135 46.5073 81.4211C46.4958 81.4288 46.4823 81.433 46.4684 81.433C46.4499 81.433 46.4321 81.4256 46.4189 81.4125C46.4058 81.3993 46.3984 81.3815 46.3984 81.363Z" fill="#1A2242"/>
<path d="M45.8854 82.1161C45.9241 82.1161 45.9554 82.0847 45.9554 82.0461C45.9554 82.0074 45.9241 81.9761 45.8854 81.9761C45.8468 81.9761 45.8154 82.0074 45.8154 82.0461C45.8154 82.0847 45.8468 82.1161 45.8854 82.1161Z" fill="#1A2242"/>
<path d="M46.1074 82.0461C46.1074 82.0322 46.1115 82.0187 46.1192 82.0072C46.1269 81.9957 46.1378 81.9867 46.1506 81.9814C46.1634 81.9761 46.1775 81.9747 46.1911 81.9774C46.2047 81.9801 46.2171 81.9868 46.2269 81.9966C46.2367 82.0064 46.2434 82.0188 46.2461 82.0324C46.2488 82.046 46.2474 82.0601 46.2421 82.0729C46.2368 82.0857 46.2278 82.0966 46.2163 82.1043C46.2048 82.112 46.1913 82.1161 46.1774 82.1161C46.1589 82.1161 46.1411 82.1087 46.1279 82.0956C46.1148 82.0825 46.1074 82.0646 46.1074 82.0461Z" fill="#1A2242"/>
<path d="M46.3984 82.0461C46.3984 82.0322 46.4025 82.0187 46.4102 82.0072C46.4179 81.9957 46.4289 81.9867 46.4417 81.9814C46.4544 81.9761 46.4685 81.9747 46.4821 81.9774C46.4957 81.9801 46.5081 81.9868 46.5179 81.9966C46.5277 82.0064 46.5344 82.0188 46.5371 82.0324C46.5398 82.046 46.5384 82.0601 46.5331 82.0729C46.5278 82.0857 46.5188 82.0966 46.5073 82.1043C46.4958 82.112 46.4823 82.1161 46.4684 82.1161C46.4499 82.1161 46.4321 82.1087 46.4189 82.0956C46.4058 82.0825 46.3984 82.0646 46.3984 82.0461Z" fill="#1A2242"/>
<path d="M46.2177 82.0609H46.1437L45.8438 81.3379H45.9177L46.2177 82.0609Z" fill="#CCE3E3"/>
<path d="M46.5127 82.0609H46.4387L46.1387 81.3379H46.2127L46.5127 82.0609Z" fill="#CCE3E3"/>
<path d="M45.9226 81.3369H45.8486V82.0599H45.9226V81.3369Z" fill="#EBFFFF"/>
<path d="M46.2176 81.3369H46.1436V82.0599H46.2176V81.3369Z" fill="#EBFFFF"/>
<path d="M46.5125 81.3369H46.4385V82.0599H46.5125V81.3369Z" fill="#EBFFFF"/>
<path d="M43.5278 82.049V80.676C43.5278 80.676 38.7278 77.694 35.3828 78.299C35.2793 78.3182 35.1808 78.3587 35.0937 78.418C35.0066 78.4772 34.9328 78.5538 34.8768 78.6431C34.7906 78.7773 34.7491 78.9354 34.758 79.0947C34.767 79.2539 34.8261 79.4063 34.9268 79.53C35.5808 80.32 37.5928 81.807 43.5278 82.049Z" fill="#1A2242"/>
<path d="M44.0586 80.9861L45.3186 81.3971C45.3868 81.4193 45.4463 81.4624 45.4885 81.5204C45.5307 81.5785 45.5535 81.6483 45.5536 81.7201C45.5536 81.8103 45.5178 81.8967 45.454 81.9605C45.3902 82.0243 45.3038 82.0601 45.2136 82.0601H44.0806L44.0586 80.9861Z" fill="#FFBF9E"/>
<path d="M44.0839 80.5662H43.5049V82.2932H44.0839V80.5662Z" fill="#31395C"/>
<path d="M36.1978 83.1152L37.5718 82.9062C37.6472 82.9019 37.7208 82.8817 37.7879 82.8471C37.855 82.8125 37.914 82.7641 37.9611 82.7052C38.0083 82.6462 38.0425 82.578 38.0616 82.5049C38.0807 82.4319 38.0841 82.3556 38.0718 82.2812C38.0589 82.2049 38.0302 82.1321 37.9878 82.0675C37.9454 82.0028 37.89 81.9476 37.8252 81.9053C37.7604 81.8631 37.6876 81.8346 37.6113 81.8219C37.535 81.8091 37.4568 81.8123 37.3818 81.8312L36.1138 82.0312C35.7788 82.0822 35.4598 82.3312 35.5138 82.6662C35.5259 82.7423 35.5537 82.815 35.5955 82.8797C35.6373 82.9444 35.6921 82.9996 35.7565 83.0419C35.8209 83.0842 35.8935 83.1126 35.9694 83.1252C36.0454 83.1378 36.1232 83.1344 36.1978 83.1152Z" fill="#1A2242"/>
<path d="M37.5828 82.9082C37.6577 82.9006 37.7302 82.8782 37.7964 82.8424C37.8625 82.8067 37.921 82.7581 37.9683 82.6997C38.0156 82.6412 38.0509 82.5739 38.0721 82.5018C38.0933 82.4296 38.1 82.354 38.0918 82.2792C38.0793 82.2055 38.052 82.135 38.0116 82.0721C37.9712 82.0092 37.9185 81.955 37.8567 81.9129C37.7949 81.8708 37.7253 81.8416 37.6519 81.827C37.5785 81.8125 37.503 81.8129 37.4298 81.8282L36.1228 82.0702C35.8028 82.1182 35.5018 82.3542 35.5488 82.6642C35.5602 82.7355 35.5864 82.8036 35.6259 82.8641C35.6653 82.9246 35.717 82.9761 35.7777 83.0152C35.8384 83.0544 35.9066 83.0803 35.9779 83.0913C36.0493 83.1023 36.1222 83.0982 36.1918 83.0792L37.5828 82.9082Z" fill="#1A2242"/>
<path d="M36.0909 82.0781L36.2419 83.0731L36.1929 83.0801C36.1233 83.0992 36.0504 83.1033 35.979 83.0923C35.9077 83.0812 35.8394 83.0553 35.7788 83.0161C35.7181 82.977 35.6664 82.9255 35.6269 82.865C35.5875 82.8045 35.5613 82.7364 35.5499 82.6651C35.5039 82.3651 35.7839 82.1371 36.0909 82.0781Z" fill="#EBFFFF"/>
<path d="M36.9966 82.0851C36.9945 82.0715 36.9884 82.0588 36.979 82.0486C36.9697 82.0384 36.9575 82.0312 36.9441 82.0279C36.9307 82.0246 36.9166 82.0253 36.9036 82.03C36.8906 82.0347 36.8793 82.0432 36.8711 82.0543C36.8629 82.0655 36.8582 82.0787 36.8575 82.0925C36.8568 82.1063 36.8603 82.1201 36.8674 82.1319C36.8745 82.1438 36.885 82.1532 36.8975 82.1591C36.91 82.165 36.9239 82.1672 36.9376 82.1651C36.9467 82.1638 36.9555 82.1607 36.9634 82.1559C36.9714 82.1511 36.9783 82.1449 36.9838 82.1374C36.9892 82.13 36.9932 82.1215 36.9954 82.1126C36.9976 82.1036 36.998 82.0943 36.9966 82.0851Z" fill="#1A2242"/>
<path d="M36.7085 82.13C36.7064 82.1164 36.7003 82.1037 36.6909 82.0935C36.6816 82.0833 36.6694 82.0761 36.656 82.0728C36.6426 82.0695 36.6285 82.0703 36.6155 82.075C36.6025 82.0797 36.5912 82.0881 36.583 82.0993C36.5748 82.1104 36.5701 82.1237 36.5694 82.1375C36.5688 82.1513 36.5722 82.165 36.5793 82.1768C36.5864 82.1887 36.5969 82.1981 36.6094 82.2041C36.6219 82.21 36.6358 82.2121 36.6495 82.2101C36.6587 82.2087 36.6674 82.2056 36.6754 82.2008C36.6833 82.1961 36.6902 82.1898 36.6957 82.1824C36.7012 82.1749 36.7051 82.1665 36.7073 82.1575C36.7095 82.1485 36.7099 82.1392 36.7085 82.13Z" fill="#1A2242"/>
<path d="M36.4195 82.174C36.4173 82.1604 36.4112 82.1476 36.4019 82.1375C36.3925 82.1273 36.3804 82.1201 36.367 82.1168C36.3535 82.1135 36.3394 82.1142 36.3264 82.1189C36.3135 82.1236 36.3021 82.1321 36.2939 82.1432C36.2857 82.1543 36.281 82.1676 36.2804 82.1814C36.2797 82.1952 36.2831 82.2089 36.2903 82.2208C36.2974 82.2326 36.3078 82.2421 36.3203 82.248C36.3328 82.2539 36.3468 82.256 36.3604 82.254C36.3696 82.2527 36.3784 82.2495 36.3863 82.2448C36.3942 82.24 36.4011 82.2338 36.4066 82.2263C36.4121 82.2189 36.4161 82.2104 36.4183 82.2014C36.4205 82.1925 36.4209 82.1831 36.4195 82.174Z" fill="#1A2242"/>
<path d="M37.0981 82.7611C37.096 82.7475 37.0899 82.7348 37.0806 82.7246C37.0712 82.7144 37.0591 82.7072 37.0457 82.7039C37.0323 82.7006 37.0182 82.7014 37.0052 82.7061C36.9922 82.7108 36.9808 82.7192 36.9726 82.7303C36.9644 82.7415 36.9597 82.7548 36.9591 82.7686C36.9584 82.7824 36.9619 82.7961 36.969 82.8079C36.9761 82.8198 36.9865 82.8292 36.999 82.8351C37.0115 82.8411 37.0255 82.8432 37.0392 82.8412C37.0483 82.8398 37.0571 82.8367 37.065 82.8319C37.0729 82.8272 37.0798 82.8209 37.0853 82.8134C37.0908 82.806 37.0948 82.7976 37.097 82.7886C37.0992 82.7796 37.0996 82.7703 37.0981 82.7611Z" fill="#1A2242"/>
<path d="M36.8091 82.8051C36.807 82.7915 36.8008 82.7787 36.7915 82.7685C36.7822 82.7583 36.77 82.7512 36.7566 82.7479C36.7432 82.7446 36.7291 82.7453 36.7161 82.75C36.7031 82.7547 36.6918 82.7632 36.6836 82.7743C36.6754 82.7854 36.6707 82.7987 36.67 82.8125C36.6693 82.8263 36.6728 82.84 36.6799 82.8519C36.687 82.8637 36.6975 82.8732 36.71 82.8791C36.7225 82.885 36.7364 82.8871 36.7501 82.8851C36.7592 82.8838 36.768 82.8806 36.7759 82.8759C36.7839 82.8711 36.7908 82.8648 36.7963 82.8574C36.8017 82.85 36.8057 82.8415 36.8079 82.8325C36.8101 82.8235 36.8105 82.8142 36.8091 82.8051Z" fill="#1A2242"/>
<path d="M36.521 82.849C36.5189 82.8354 36.5128 82.8227 36.5034 82.8125C36.4941 82.8023 36.4819 82.7951 36.4685 82.7918C36.4551 82.7885 36.441 82.7893 36.428 82.794C36.415 82.7987 36.4037 82.8071 36.3955 82.8182C36.3873 82.8294 36.3826 82.8427 36.3819 82.8565C36.3813 82.8703 36.3847 82.884 36.3918 82.8958C36.3989 82.9077 36.4094 82.9172 36.4219 82.9231C36.4344 82.929 36.4483 82.9311 36.462 82.929C36.4712 82.9277 36.4799 82.9246 36.4879 82.9198C36.4958 82.915 36.5027 82.9088 36.5082 82.9013C36.5137 82.8939 36.5176 82.8854 36.5198 82.8765C36.522 82.8675 36.5224 82.8582 36.521 82.849Z" fill="#1A2242"/>
<path d="M36.7031 82.8371L36.7761 82.8261L36.9591 82.0671L36.8861 82.0781L36.7031 82.8371Z" fill="#CCE3E3"/>
<path d="M36.4111 82.8811L36.4841 82.8701L36.6671 82.1111L36.5941 82.1221L36.4111 82.8811Z" fill="#CCE3E3"/>
<path d="M36.9952 82.7923L37.0684 82.7812L36.9599 82.0664L36.8868 82.0775L36.9952 82.7923Z" fill="#EBFFFF"/>
<path d="M36.7032 82.8363L36.7764 82.8252L36.668 82.1104L36.5948 82.1215L36.7032 82.8363Z" fill="#EBFFFF"/>
<path d="M36.4112 82.8812L36.4844 82.8701L36.376 82.1553L36.3028 82.1664L36.4112 82.8812Z" fill="#EBFFFF"/>
<path d="M39.3613 82.4232L39.1553 81.0622C39.1553 81.0622 43.4553 77.3932 46.8553 77.4902C46.9605 77.4936 47.0639 77.5189 47.1589 77.5643C47.2539 77.6098 47.3385 77.6744 47.4073 77.7541C47.5127 77.874 47.5776 78.0241 47.5926 78.183C47.6077 78.342 47.5722 78.5016 47.4913 78.6392C46.9583 79.5222 45.1923 81.2932 39.3613 82.4232Z" fill="#1A2242"/>
<path d="M38.6775 81.4512L37.4936 82.0512C37.4295 82.0835 37.3773 82.1352 37.3444 82.199C37.3116 82.2627 37.2997 82.3352 37.3106 82.4062C37.3241 82.4953 37.3725 82.5753 37.4451 82.6288C37.5176 82.6822 37.6084 82.7046 37.6975 82.6912L38.8175 82.5212L38.6775 81.4512Z" fill="#FFBF9E"/>
<path d="M38.8484 82.747L39.4209 82.6602L39.1619 80.9527L38.5895 81.0395L38.8484 82.747Z" fill="#31395C"/>
<path d="M42.5774 76.5068L41.3044 76.5139L41.2754 74.3048L42.5484 74.2979L42.5774 76.5068Z" fill="#FFC64D"/>
<path d="M42.5628 75.445C42.549 75.4297 42.5297 75.4204 42.5091 75.4193C42.4884 75.4182 42.4682 75.4253 42.4528 75.439C42.4528 75.439 42.1718 75.668 42.1678 75.661C42.1638 75.654 42.5478 75.287 42.5478 75.287C42.558 75.2814 42.5669 75.2736 42.5737 75.2642C42.5805 75.2547 42.5851 75.2438 42.5872 75.2324C42.5892 75.2209 42.5887 75.2091 42.5856 75.1978C42.5825 75.1866 42.5769 75.1762 42.5692 75.1674C42.5616 75.1586 42.5521 75.1516 42.5414 75.147C42.5307 75.1424 42.5191 75.1402 42.5074 75.1407C42.4958 75.1411 42.4844 75.1441 42.4741 75.1496C42.4637 75.155 42.4548 75.1627 42.4478 75.172C42.4478 75.172 42.0558 75.505 42.0478 75.499C42.0398 75.493 42.4338 75.107 42.4338 75.107C42.4444 75.0928 42.4499 75.0753 42.4492 75.0575C42.4485 75.0397 42.4418 75.0227 42.4301 75.0093C42.4184 74.9959 42.4025 74.9868 42.385 74.9837C42.3675 74.9806 42.3494 74.9835 42.3338 74.992C42.3338 74.992 41.9128 75.352 41.9078 75.347C41.9028 75.342 42.2408 75.012 42.2408 75.012C42.2514 74.9978 42.2569 74.9803 42.2562 74.9625C42.2555 74.9447 42.2488 74.9277 42.2371 74.9143C42.2254 74.9009 42.2095 74.8918 42.192 74.8887C42.1745 74.8856 42.1564 74.8885 42.1408 74.897L41.7738 75.228C41.7678 75.223 41.3938 75.565 41.2988 75.517V75.405C41.2569 75.4125 41.2181 75.432 41.187 75.4611C41.1559 75.4902 41.134 75.5277 41.1238 75.569C41.1071 75.6367 41.1071 75.7074 41.1238 75.775C41.1338 75.831 41.1238 75.888 41.1318 75.944C41.1388 75.9962 41.1523 76.0472 41.1718 76.096C41.1598 76.103 39.9548 76.696 38.8248 77.319C39.2564 76.1735 39.7815 75.0654 40.3948 74.006C40.46 73.8476 40.4765 73.6734 40.4424 73.5055C40.4082 73.3377 40.3248 73.1838 40.2029 73.0634C40.0809 72.9431 39.926 72.8618 39.7577 72.8298C39.5894 72.7979 39.4154 72.8168 39.2578 72.884L39.1888 72.913C39.0654 72.9656 38.956 73.0462 38.8692 73.1485C38.7824 73.2507 38.7207 73.3718 38.6888 73.502C38.6888 73.502 37.2888 77.108 37.5088 78.33C37.5241 78.4089 37.5455 78.4865 37.5728 78.562C38.5868 79.096 41.4298 76.478 41.4628 76.445C41.7736 76.2947 42.05 76.082 42.2748 75.82L42.5748 75.553C42.5875 75.5371 42.5934 75.5168 42.5911 75.4966C42.5889 75.4763 42.5787 75.4578 42.5628 75.445Z" fill="#FFBF9E"/>
<path d="M39.5109 76.062C40.0679 74.882 40.6689 73.845 40.6689 73.845C40.7811 73.3489 40.792 72.8353 40.7009 72.335C40.2278 72.3646 39.7588 72.4413 39.3009 72.564C39.1449 72.6167 39.004 72.7064 38.8901 72.8253C38.7763 72.9442 38.6928 73.0889 38.6469 73.247C38.6469 73.247 38.2819 74.185 37.9219 75.331C38.3919 75.6875 38.9343 75.937 39.5109 76.062Z" fill="#83C8E6"/>
<path d="M44.5846 73.502C44.5528 73.3718 44.491 73.2507 44.4042 73.1485C44.3174 73.0462 44.208 72.9656 44.0846 72.913L44.0156 72.884C43.8581 72.8168 43.6841 72.7979 43.5158 72.8298C43.3475 72.8618 43.1925 72.9431 43.0705 73.0634C42.9486 73.1838 42.8652 73.3377 42.8311 73.5055C42.7969 73.6734 42.8134 73.8476 42.8786 74.006C42.8786 74.006 44.6876 77.129 44.6356 78.284C43.6589 78.9852 42.6352 79.6184 41.5716 80.179C41.5223 80.1235 41.4629 80.0777 41.3966 80.044C41.2335 79.9443 41.0964 79.8072 40.9966 79.644C40.9746 79.617 40.9376 79.673 40.9286 79.705C40.9036 79.797 41.0056 79.961 41.0036 80.044C41.0036 80.159 40.4836 80.333 40.4846 80.344L39.9846 80.522C39.965 80.5305 39.9494 80.546 39.9409 80.5656C39.9323 80.5851 39.9316 80.6071 39.9387 80.6272C39.9458 80.6473 39.9603 80.664 39.9792 80.6738C39.9981 80.6836 40.0201 80.6858 40.0406 80.68C40.0406 80.68 40.5266 80.527 40.5286 80.536C40.5306 80.545 39.9736 80.758 39.9736 80.758C39.954 80.7665 39.9384 80.782 39.9299 80.8016C39.9213 80.8211 39.9206 80.8431 39.9277 80.8632C39.9348 80.8833 39.9493 80.9 39.9682 80.9098C39.9871 80.9196 40.0091 80.9218 40.0296 80.916C40.0296 80.916 40.5946 80.74 40.5996 80.751C40.6046 80.762 40.0856 80.959 40.0856 80.959C40.0745 80.9622 40.0642 80.9675 40.0553 80.9748C40.0464 80.982 40.0391 80.991 40.0338 81.0013C40.0285 81.0115 40.0253 81.0226 40.0246 81.0341C40.0238 81.0456 40.0253 81.0571 40.0292 81.068C40.033 81.0788 40.039 81.0887 40.0469 81.0971C40.0547 81.1056 40.0642 81.1123 40.0747 81.1169C40.0853 81.1215 40.0967 81.1239 40.1082 81.1239C40.1197 81.1239 40.131 81.1216 40.1416 81.117C40.1416 81.117 40.6866 80.942 40.6906 80.949C40.6946 80.956 40.3336 81.105 40.3336 81.105C40.322 81.1076 40.311 81.1126 40.3015 81.1198C40.2919 81.1269 40.284 81.136 40.2782 81.1464C40.2725 81.1568 40.269 81.1684 40.268 81.1802C40.267 81.1921 40.2686 81.2041 40.2726 81.2153C40.2766 81.2265 40.283 81.2367 40.2912 81.2453C40.2995 81.2539 40.3095 81.2606 40.3206 81.265C40.3316 81.2695 40.3435 81.2715 40.3554 81.271C40.3673 81.2704 40.379 81.2674 40.3896 81.262L40.7946 81.119C41.137 81.0439 41.4616 80.9033 41.7506 80.705C41.8276 80.681 45.5506 79.442 45.7716 78.33C46.0036 77.111 44.5846 73.502 44.5846 73.502Z" fill="#FFBF9E"/>
<path d="M43.7487 76.062C43.1917 74.882 42.5917 73.845 42.5917 73.845C42.4792 73.349 42.4679 72.8354 42.5587 72.335C43.0318 72.3646 43.5008 72.4413 43.9587 72.564C44.1146 72.6167 44.2555 72.7064 44.3694 72.8253C44.4833 72.9442 44.5667 73.0889 44.6127 73.247C44.6127 73.247 44.9777 74.185 45.3387 75.331C44.8683 75.6876 44.3256 75.9371 43.7487 76.062Z" fill="#83C8E6"/>
<path d="M41.6051 73.8262C41.1641 73.8462 40.7051 72.9762 40.7051 72.4202C40.7051 71.3702 42.4191 71.3122 42.4191 72.3852C42.4241 72.8962 42.0201 73.8072 41.6051 73.8262Z" fill="#FFAE85"/>
<path d="M43.093 71.0201C43.0979 71.4584 42.97 71.8879 42.726 72.2521C42.4406 72.6016 42.036 72.8332 41.59 72.9021C41.137 72.8268 40.7273 72.5877 40.439 72.2301C40.2049 71.8703 40.0825 71.4493 40.087 71.0201C40.087 70.6213 40.2454 70.2389 40.5274 69.957C40.8094 69.675 41.1918 69.5166 41.5905 69.5166C41.9893 69.5166 42.3717 69.675 42.6537 69.957C42.9356 70.2389 43.094 70.6213 43.094 71.0201H43.093Z" fill="#FFBF9E"/>
<path d="M43.3972 70.5281C43.4042 70.4671 43.4122 70.4061 43.4142 70.3451C43.4204 70.1362 43.3864 69.9281 43.3142 69.7321C43.2168 69.4639 43.0391 69.2324 42.8052 69.0691C42.5483 68.9143 42.2616 68.8159 41.9639 68.7802C41.6662 68.7445 41.3643 68.7724 41.0782 68.8621C40.7429 68.95 40.4397 69.1317 40.2042 69.3861C40.089 69.517 39.9921 69.663 39.9162 69.82C39.8572 70.0023 39.7716 70.1748 39.6622 70.3321C39.5782 70.4221 39.4112 70.4561 39.3622 70.5661C39.1952 70.9101 39.6622 71.3111 39.9862 71.4441C40.038 71.7219 40.1804 71.9747 40.3912 72.1631C40.2573 71.9683 40.1909 71.7351 40.2022 71.4991C40.304 71.4931 40.4047 71.475 40.5022 71.445C40.6044 71.4101 40.7046 71.3694 40.8022 71.3231C40.9053 71.422 41.0309 71.4944 41.1682 71.5341C41.1882 71.5401 41.2072 71.5471 41.2282 71.5521C41.2938 71.5686 41.3607 71.58 41.4282 71.5861C41.6436 71.5957 41.8585 71.5585 42.0582 71.4771C42.2012 71.4261 42.2362 71.3991 42.3732 71.3391C42.5682 71.2645 42.7744 71.2232 42.9832 71.2171L43.0602 71.2041C43.0354 71.4744 42.9742 71.7401 42.8782 71.9941C42.9242 72.0131 43.1292 71.4821 43.1442 71.4441C43.1812 71.3441 43.2172 71.2501 43.2492 71.1501C43.3202 71.129 43.3848 71.0905 43.4372 71.0381C43.4896 70.9857 43.5281 70.9211 43.5492 70.85C43.5596 70.7873 43.5506 70.7229 43.5234 70.6654C43.4963 70.6078 43.4522 70.5599 43.3972 70.5281Z" fill="#1A2242"/>
<path d="M55.4958 38.291C55.0732 38.5926 54.5986 38.8136 54.0958 38.943C54.4982 39.6878 54.7554 40.5022 54.8538 41.343C53.818 42.0854 52.7325 42.7556 51.6048 43.349C51.5526 43.2902 51.4899 43.2417 51.4198 43.206C51.2457 43.1017 51.099 42.9574 50.9918 42.785C50.9688 42.756 50.9288 42.816 50.9198 42.85C50.8928 42.95 51.0018 43.121 50.9988 43.209C50.9988 43.331 50.4478 43.515 50.4488 43.524L49.9168 43.713C49.8968 43.7224 49.881 43.7389 49.8725 43.7592C49.864 43.7796 49.8634 43.8024 49.8707 43.8232C49.8781 43.844 49.8929 43.8614 49.9123 43.8719C49.9317 43.8824 49.9543 43.8853 49.9758 43.88C49.9758 43.88 50.4898 43.718 50.4928 43.728C50.4958 43.738 49.9048 43.963 49.9048 43.963C49.8927 43.966 49.8814 43.9714 49.8715 43.979C49.8617 43.9866 49.8535 43.9962 49.8476 44.0071C49.8417 44.0181 49.8382 44.0301 49.8372 44.0425C49.8362 44.0549 49.8379 44.0674 49.842 44.0791C49.8461 44.0908 49.8527 44.1016 49.8612 44.1106C49.8698 44.1196 49.8801 44.1268 49.8916 44.1316C49.9031 44.1364 49.9154 44.1387 49.9279 44.1384C49.9403 44.1382 49.9525 44.1353 49.9638 44.13C49.9638 44.13 50.5638 43.944 50.5638 43.955C50.5638 43.966 50.0198 44.175 50.0198 44.175C49.9998 44.1844 49.984 44.2009 49.9755 44.2212C49.967 44.2416 49.9664 44.2644 49.9737 44.2852C49.9811 44.306 49.9959 44.3234 50.0153 44.3338C50.0347 44.3443 50.0573 44.3473 50.0788 44.342C50.0788 44.342 50.6558 44.156 50.6608 44.164C50.6658 44.172 50.2828 44.329 50.2828 44.329C50.2606 44.3368 50.2425 44.3531 50.2324 44.3743C50.2222 44.3955 50.2209 44.4199 50.2288 44.442C50.2366 44.4642 50.2529 44.4823 50.2741 44.4924C50.2953 44.5025 50.3196 44.5038 50.3418 44.496L50.7708 44.344C51.1332 44.2641 51.4768 44.1151 51.7828 43.905C51.8638 43.88 55.8108 42.567 56.0408 41.39C56.0559 40.3319 55.871 39.2805 55.4958 38.291Z" fill="#FFBF9E"/>
<path d="M55.5967 38.2121C55.2147 36.9981 54.8277 36.0051 54.8277 36.0051C54.7791 35.8376 54.6909 35.6843 54.5704 35.5583C54.4499 35.4322 54.3008 35.3371 54.1357 35.2811C53.65 35.1512 53.1525 35.0701 52.6507 35.0391C52.5541 35.5692 52.5657 36.1135 52.6847 36.6391C52.6847 36.6391 53.3207 37.7391 53.9107 38.9871C53.9717 38.9721 54.0317 38.9561 54.0927 38.9391C54.5955 38.8097 55.0701 38.5886 55.4927 38.2871C55.5257 38.2661 55.5637 38.2431 55.5967 38.2121Z" fill="#83C8E6"/>
<path d="M57.6192 43.092C57.6192 43.092 57.3332 43.13 56.8612 43.241C56.2198 43.3922 55.593 43.6 54.9882 43.862C54.128 44.2317 53.3299 44.7319 52.6222 45.345C52.2064 45.7103 51.8295 46.1174 51.4972 46.56C51.1347 47.0478 50.8325 47.5777 50.5972 48.138C50.3769 48.6733 50.2244 49.2339 50.1432 49.807C50.0761 50.2905 50.0651 50.7801 50.1102 51.266C50.184 52.029 50.4008 52.7713 50.7492 53.454C50.9912 53.9291 51.2889 54.3736 51.6362 54.778C51.7968 54.9681 51.9705 55.1465 52.1562 55.312C52.2242 54.737 52.2932 54.162 52.3762 53.588C52.2029 53.306 52.0329 53.0197 51.8662 52.729C51.6982 52.429 51.5302 52.129 51.3772 51.816C51.0513 51.1701 50.7771 50.4993 50.5572 49.81C50.8179 50.4752 51.1164 51.125 51.4512 51.756C51.6142 52.062 51.7792 52.364 51.9512 52.656C52.0986 52.91 52.2492 53.16 52.4032 53.406L52.4642 53.006C52.5442 52.528 52.6342 52.052 52.7432 51.579C52.5939 51.2877 52.4519 50.9877 52.3172 50.679C52.1792 50.36 52.0482 50.034 51.9352 49.693C51.7022 48.9915 51.5286 48.2716 51.4162 47.541C51.4952 47.899 51.5912 48.261 51.6862 48.609C51.7812 48.957 51.8942 49.309 52.0172 49.641C52.1402 49.973 52.2692 50.302 52.4092 50.617C52.5292 50.8837 52.6546 51.145 52.7852 51.401C52.9198 50.8392 53.0868 50.2856 53.2852 49.743L53.3302 49.628L53.1972 49.256C53.1572 49.128 53.1202 48.999 53.0832 48.868C53.0032 48.589 52.9352 48.312 52.8742 48.022C52.7526 47.4375 52.6671 46.8461 52.6182 46.251C52.7182 46.834 52.8272 47.418 52.9602 47.981C53.0352 48.265 53.0982 48.542 53.1822 48.818C53.2492 49.041 53.3122 49.256 53.3912 49.471C53.6213 48.9025 53.8858 48.3485 54.1832 47.812C54.0942 47.387 54.0232 46.953 53.9742 46.512C53.9492 46.285 53.9252 46.054 53.9102 45.825C53.8952 45.596 53.8812 45.361 53.8772 45.125L53.9662 45.804C53.9952 46.029 54.0272 46.254 54.0662 46.479C54.0972 46.679 54.1282 46.873 54.1662 47.07C54.2042 47.267 54.2342 47.459 54.2762 47.654C54.4472 47.354 54.6282 47.054 54.8162 46.754C54.9602 46.535 55.1042 46.316 55.2552 46.102C55.2282 45.851 55.2062 45.602 55.1972 45.342C55.1972 45.211 55.1872 45.078 55.1852 44.948C55.1832 44.818 55.1852 44.684 55.1912 44.548C55.2122 44.676 55.2252 44.805 55.2432 44.932C55.2612 45.059 55.2712 45.189 55.2872 45.317L55.3562 45.955C55.4932 45.755 55.6362 45.567 55.7782 45.375C56.1162 44.928 56.4682 44.493 56.8242 44.061C56.4822 44.504 56.1442 44.95 55.8242 45.407C55.6802 45.607 55.5342 45.812 55.3962 46.019C55.6082 45.964 55.8232 45.919 56.0362 45.875C56.2772 45.827 56.5212 45.787 56.7632 45.761C56.5242 45.835 56.2842 45.899 56.0452 45.961L55.3232 46.156L55.2972 46.163C55.1572 46.37 55.0222 46.582 54.8892 46.794C54.6992 47.094 54.5152 47.404 54.3432 47.717C54.5322 47.646 54.7262 47.583 54.9172 47.522C55.1082 47.461 55.2992 47.406 55.4922 47.355C55.7002 47.2997 55.9092 47.2484 56.1192 47.201C56.3282 47.157 56.5362 47.112 56.7472 47.078C56.5392 47.138 56.3342 47.194 56.1282 47.256C55.9222 47.318 55.7152 47.377 55.5082 47.442C55.0942 47.573 54.6802 47.711 54.2662 47.869H54.2582C53.9681 48.4041 53.7109 48.9565 53.4882 49.523C53.6972 49.412 53.9162 49.311 54.1282 49.214C54.3752 49.102 54.6282 48.998 54.8812 48.906C55.1342 48.814 55.3812 48.731 55.6422 48.655C55.9032 48.579 56.1482 48.512 56.4062 48.455C56.1542 48.536 55.9062 48.617 55.6562 48.707C55.4062 48.797 55.1562 48.888 54.9072 48.99C54.6582 49.092 54.4072 49.196 54.1622 49.314C54.0392 49.372 53.9132 49.431 53.7912 49.494L53.4242 49.689L53.3922 49.773C53.1893 50.3203 53.0183 50.8789 52.8802 51.446C53.1256 51.272 53.3726 51.1074 53.6212 50.952C53.9032 50.779 54.1832 50.614 54.4712 50.473C54.7592 50.332 55.0492 50.204 55.3332 50.089C55.6172 49.974 55.9122 49.876 56.2102 49.789C55.9212 49.896 55.6422 50.009 55.3552 50.136C55.2152 50.1987 55.0736 50.2654 54.9302 50.336C54.7872 50.404 54.6502 50.478 54.5072 50.553C54.2282 50.708 53.9462 50.87 53.6692 51.053C53.3922 51.236 53.1162 51.422 52.8452 51.623H52.8392C52.7302 52.082 52.6392 52.545 52.5572 53.01L52.4832 53.436C52.7162 53.236 52.9502 53.048 53.1832 52.863C53.4452 52.663 53.7052 52.457 53.9742 52.274C54.2432 52.091 54.5102 51.914 54.7812 51.753C55.0522 51.592 55.3272 51.447 55.6032 51.32C55.3392 51.468 55.0702 51.626 54.8082 51.801C54.5462 51.976 54.2802 52.157 54.0182 52.351C53.7562 52.545 53.4962 52.746 53.2372 52.951C52.9782 53.156 52.7222 53.376 52.4672 53.596L52.4482 53.613C52.3572 54.174 52.2762 54.736 52.1932 55.298C52.4151 55.1861 52.6292 55.0595 52.8342 54.919C53.2661 54.6261 53.6719 54.2966 54.0472 53.934C54.5325 53.4669 54.9721 52.9546 55.3602 52.404C55.5676 52.1122 55.7593 51.8094 55.9342 51.497C56.1142 51.1777 56.2738 50.8474 56.4122 50.508C56.5651 50.1384 56.695 49.7597 56.8012 49.374C56.9152 48.983 57.0102 48.574 57.1012 48.169C57.2732 47.35 57.4012 46.51 57.4882 45.753C57.5752 44.996 57.6162 44.323 57.6282 43.842C57.6402 43.361 57.6192 43.092 57.6192 43.092Z" fill="#31395C"/>
<path d="M52.4648 53.62C52.7194 53.4 52.9761 53.185 53.2348 52.975C53.4938 52.766 53.7548 52.567 54.0158 52.375C54.2768 52.183 54.5388 51.995 54.8058 51.825C55.0728 51.655 55.3368 51.492 55.6008 51.344C55.3238 51.471 55.0508 51.619 54.7788 51.777C54.5068 51.935 54.2378 52.113 53.9718 52.298C53.7058 52.483 53.4428 52.682 53.1808 52.887C52.9448 53.073 52.7098 53.264 52.4808 53.46L52.5548 53.034C52.6358 52.569 52.7278 52.106 52.8368 51.647H52.8428C53.1138 51.447 53.3898 51.255 53.6668 51.077C53.9438 50.899 54.2268 50.736 54.5058 50.577C54.6478 50.502 54.7858 50.428 54.9288 50.36C55.0718 50.292 55.2138 50.227 55.3538 50.16C55.6408 50.033 55.9198 49.92 56.2088 49.813C55.9088 49.897 55.6278 50.001 55.3318 50.113C55.0358 50.225 54.7538 50.354 54.4698 50.497C54.1858 50.64 53.9018 50.803 53.6198 50.976C53.3711 51.1313 53.1241 51.296 52.8788 51.47C53.0168 50.9028 53.1878 50.3442 53.3908 49.797L53.4228 49.713L53.7898 49.518C53.9118 49.455 54.0388 49.397 54.1608 49.338C54.4048 49.22 54.6608 49.119 54.9058 49.014C55.1508 48.909 55.4058 48.814 55.6548 48.731C55.9038 48.648 56.1548 48.56 56.4048 48.479C56.1468 48.535 55.8968 48.605 55.6408 48.679C55.3848 48.753 55.1408 48.84 54.8798 48.93C54.6188 49.02 54.3738 49.13 54.1268 49.238C53.9148 49.338 53.6958 49.438 53.4868 49.547C53.7094 48.9804 53.9666 48.428 54.2568 47.893H54.2648C54.6788 47.735 55.0928 47.593 55.5068 47.466C55.7138 47.4 55.9178 47.338 56.1268 47.28C56.3358 47.222 56.5378 47.161 56.7458 47.102C56.5348 47.136 56.3268 47.181 56.1178 47.225C55.9088 47.269 55.6988 47.325 55.4908 47.379C55.2978 47.429 55.1058 47.484 54.9158 47.546C54.7258 47.608 54.5308 47.67 54.3418 47.741C54.5138 47.428 54.6978 47.121 54.8878 46.818C55.0208 46.606 55.1548 46.395 55.2958 46.187L55.3218 46.18L56.0438 45.985C56.2828 45.919 56.5238 45.855 56.7618 45.785C56.5198 45.811 56.2748 45.851 56.0348 45.899C55.8218 45.939 55.6068 45.988 55.3948 46.043C55.5328 45.836 55.6788 45.634 55.8228 45.431C56.1448 44.974 56.4828 44.531 56.8228 44.085C56.4668 44.516 56.1148 44.952 55.7768 45.399C55.6348 45.591 55.4918 45.783 55.3548 45.979L55.2858 45.341C55.2698 45.213 55.2548 45.084 55.2418 44.956C55.2288 44.828 55.2108 44.7 55.1898 44.572C55.1838 44.706 55.1898 44.838 55.1838 44.972C55.1778 45.106 55.1908 45.236 55.1958 45.366C55.2048 45.622 55.2268 45.875 55.2538 46.126C55.1018 46.34 54.9538 46.559 54.8148 46.778C54.6278 47.072 54.4468 47.37 54.2748 47.678C54.2328 47.483 54.2008 47.291 54.1648 47.094C54.1288 46.897 54.0978 46.7 54.0648 46.503C54.0298 46.278 53.9978 46.053 53.9648 45.828L53.8758 45.149C53.8758 45.382 53.8918 45.615 53.9088 45.849C53.9258 46.083 53.9468 46.309 53.9728 46.536C54.0218 46.979 54.0928 47.413 54.1818 47.836C53.8843 48.3724 53.6198 48.9264 53.3898 49.495C53.3108 49.28 53.2478 49.064 53.1808 48.842C53.0968 48.566 53.0338 48.289 52.9588 48.005C52.8268 47.443 52.7128 46.858 52.6168 46.275C52.6656 46.87 52.7511 47.4615 52.8728 48.046C52.9328 48.336 53.0008 48.613 53.0818 48.892C53.1188 49.023 53.1558 49.152 53.1958 49.28L53.3238 49.662L53.2788 49.777C53.0803 50.3195 52.9134 50.8731 52.7788 51.435C52.6454 51.1796 52.5201 50.918 52.4028 50.65C52.2628 50.335 52.1338 50.007 52.0108 49.674C51.8878 49.341 51.7838 48.996 51.6798 48.642C51.5758 48.288 51.4888 47.932 51.4098 47.574C51.5222 48.3046 51.6958 49.0244 51.9288 49.726C52.0418 50.068 52.1728 50.394 52.3108 50.712C52.4488 51.03 52.5868 51.318 52.7368 51.612C52.6278 52.085 52.5368 52.561 52.4578 53.039L52.3968 53.439C52.2428 53.1923 52.0921 52.9423 51.9448 52.689C51.7728 52.395 51.6078 52.089 51.4448 51.789C51.1099 51.1579 50.8114 50.5082 50.5508 49.843C50.7706 50.5323 51.0448 51.203 51.3708 51.849C51.5238 52.164 51.6918 52.464 51.8598 52.762C52.0278 53.06 52.1968 53.339 52.3698 53.621C52.2868 54.195 52.2178 54.77 52.1498 55.345L52.1648 55.358L52.1828 55.35C52.2658 54.788 52.3468 54.225 52.4378 53.665L52.4648 53.62Z" fill="#1A2242"/>
<path d="M46.5441 42.7209C46.5441 42.7209 46.4211 43.0209 46.2621 43.5449C46.0516 44.2392 45.883 44.9455 45.7571 45.6599C45.5884 46.596 45.5 47.5448 45.4931 48.4959C45.4799 49.512 45.6112 50.5248 45.8831 51.5039C46.1267 52.3619 46.512 53.1731 47.0231 53.9039C47.4367 54.468 47.9079 54.9875 48.4291 55.4539C48.8881 55.8809 49.3171 56.2639 49.6411 56.5709C49.9651 56.8779 50.1891 57.0909 50.2501 57.1439C50.3469 56.5155 50.3707 55.8779 50.3211 55.2439C50.0551 54.9829 49.7791 54.7439 49.4961 54.5139C49.2131 54.2839 48.9151 54.0669 48.6191 53.8509C48.3231 53.6349 48.0191 53.4299 47.7191 53.2219C47.4191 53.0139 47.1191 52.8149 46.8111 52.6169C47.1271 52.7919 47.4441 52.9769 47.7521 53.1699C48.0601 53.3629 48.3731 53.5639 48.6751 53.7699C48.9771 53.9759 49.2751 54.1909 49.5671 54.4189C49.8171 54.6189 50.0671 54.8189 50.3051 55.0459C50.2921 54.8999 50.2761 54.7539 50.2581 54.6089C50.1941 54.0819 50.0981 53.5579 49.9881 53.0369C49.6881 52.8199 49.3881 52.6089 49.0881 52.4049C48.7881 52.2009 48.4611 51.9919 48.1441 51.7889C47.5161 51.3889 46.8751 51.0099 46.2441 50.6379C46.9011 50.9629 47.5541 51.3179 48.1931 51.7009C48.5171 51.8899 48.8321 52.0929 49.1471 52.3009C49.4181 52.4759 49.6791 52.6579 49.9471 52.8439C49.8151 52.2249 49.6531 51.6129 49.4861 51.0029L49.4491 50.8729C49.1941 50.7129 48.9491 50.5549 48.6871 50.4029L47.8771 49.9259C47.3381 49.6109 46.7961 49.3079 46.2571 49.0009C46.8191 49.2589 47.3731 49.5379 47.9211 49.8339C48.1991 49.9789 48.4681 50.1339 48.7401 50.2939C48.9608 50.4213 49.1794 50.5513 49.3961 50.6839C49.2148 50.0366 49.0171 49.3936 48.8031 48.7549C48.3781 48.5149 47.9481 48.2849 47.5241 48.0489C47.1001 47.8129 46.6501 47.5739 46.2171 47.3299C46.6711 47.5229 47.1171 47.7349 47.5641 47.9549C47.9641 48.1479 48.3501 48.3549 48.7411 48.5679C48.6181 48.2049 48.4941 47.8429 48.3631 47.4829L48.0711 46.6699C47.8191 46.5389 47.5641 46.4099 47.3151 46.2699L46.9331 46.0599C46.8071 45.9859 46.6801 45.9159 46.5551 45.8389C46.6901 45.8879 46.8231 45.9449 46.9551 45.9989L47.3551 46.1739C47.5741 46.2739 47.7901 46.3739 48.0061 46.4849L47.7291 45.7449C47.5151 45.1669 47.2951 44.5909 47.0741 44.0149C47.3151 44.5829 47.5551 45.1509 47.7881 45.7219L48.0881 46.4889C48.1801 46.2579 48.2731 46.0269 48.3721 45.7979C48.4841 45.5379 48.5951 45.2789 48.7201 45.0239C48.6451 45.3029 48.5571 45.5739 48.4641 45.8439C48.3711 46.1139 48.2731 46.3789 48.1691 46.6439L48.1581 46.6719L48.4581 47.4479C48.5951 47.8189 48.7271 48.1909 48.8581 48.5649L49.4081 47.2919L49.7081 46.5919L50.0081 45.8919C49.9301 46.1379 49.8451 46.3779 49.7631 46.6189L49.4971 47.3349C49.3161 47.8109 49.1251 48.2759 48.9231 48.7349V48.7439C49.1411 49.3819 49.3451 50.0249 49.5311 50.6729C49.6538 50.4303 49.7738 50.1856 49.8911 49.9389L50.2981 49.0679C50.4341 48.7769 50.5681 48.4829 50.6981 48.1879L51.0981 47.3039C50.9921 47.6129 50.8741 47.9179 50.7591 48.2219C50.6441 48.5259 50.5171 48.8219 50.3921 49.1219C50.2671 49.4219 50.1331 49.7129 50.0011 50.0029C49.8691 50.2929 49.7281 50.5799 49.5901 50.8629L49.6181 50.9629C49.7841 51.5879 49.9431 52.2149 50.0731 52.8489C50.2431 52.5559 50.4161 52.2569 50.5731 51.9549C50.7591 51.6149 50.9361 51.2669 51.1141 50.9209C51.2921 50.5749 51.4641 50.2209 51.6351 49.8649C51.8061 49.5089 51.9721 49.1539 52.1431 48.7949C51.9981 49.1719 51.8481 49.5359 51.6921 49.9029C51.5361 50.2699 51.3721 50.6249 51.2021 50.9809C51.0321 51.3369 50.8541 51.6809 50.6751 52.0259C50.4961 52.3709 50.3031 52.7069 50.1141 53.0369V53.0449C50.2141 53.5569 50.3071 54.0729 50.3661 54.5929C50.3831 54.7519 50.3961 54.9109 50.4081 55.0699C50.6201 54.7989 50.8231 54.5129 51.0181 54.2159C51.2331 53.8899 51.4351 53.5489 51.6381 53.2099C51.8411 52.8709 52.0331 52.5269 52.2221 52.1809C52.4111 51.8349 52.6011 51.4859 52.7891 51.1349C52.6271 51.5049 52.4541 51.8639 52.2771 52.2229C52.1001 52.5819 51.9131 52.9289 51.7221 53.2779C51.5311 53.6269 51.3221 53.9689 51.1131 54.2999C50.9041 54.6309 50.6761 54.9489 50.4371 55.2489L50.4191 55.2709C50.4538 55.8995 50.4132 56.53 50.2981 57.1489C50.5655 57.0365 50.8178 56.891 51.0491 56.7159C51.5657 56.3218 51.9985 55.8285 52.3221 55.2649C52.7768 54.4717 53.0694 53.5961 53.1831 52.6889C53.3273 51.606 53.2421 50.5048 52.9331 49.4569C52.5983 48.3379 52.0498 47.2944 51.3181 46.3839C50.6931 45.6041 49.9728 44.9057 49.1741 44.3049C48.5911 43.8627 47.9761 43.4642 47.3341 43.1129C46.8451 42.8509 46.5441 42.7209 46.5441 42.7209Z" fill="#83C8E6"/>
<path d="M50.4261 55.247C50.6651 54.947 50.8891 54.629 51.1021 54.298C51.3151 53.967 51.5211 53.627 51.7111 53.276C51.9011 52.925 52.0871 52.576 52.2661 52.221C52.4451 51.866 52.6161 51.503 52.7781 51.133C52.5891 51.484 52.4071 51.833 52.2111 52.179C52.0151 52.525 51.8291 52.866 51.6271 53.208C51.4251 53.55 51.227 53.888 51.007 54.214C50.812 54.514 50.607 54.796 50.397 55.067C50.386 54.908 50.3731 54.749 50.3551 54.59C50.2961 54.07 50.2071 53.554 50.1031 53.042V53.034C50.2921 52.704 50.483 52.365 50.664 52.023C50.845 51.681 51.0271 51.333 51.1911 50.978C51.3551 50.623 51.5221 50.264 51.6811 49.9C51.8401 49.536 51.987 49.169 52.132 48.792C51.961 49.151 51.7981 49.509 51.6241 49.862C51.4501 50.215 51.2831 50.569 51.1031 50.918C50.9231 51.267 50.7481 51.612 50.5621 51.952C50.4011 52.252 50.2281 52.552 50.0621 52.846C49.9321 52.212 49.7731 51.585 49.6071 50.96L49.5791 50.86C49.7171 50.577 49.8591 50.289 49.9901 50C50.1211 49.711 50.2601 49.416 50.3811 49.119C50.5021 48.822 50.63 48.519 50.748 48.219C50.866 47.919 50.9811 47.61 51.0871 47.301L50.6871 48.185C50.5581 48.479 50.424 48.773 50.287 49.065L49.8801 49.936C49.7641 50.1826 49.6441 50.4273 49.5201 50.67C49.334 50.022 49.13 49.379 48.912 48.741V48.732C49.112 48.271 49.3061 47.805 49.4861 47.332L49.7521 46.616C49.8341 46.375 49.9201 46.135 49.9971 45.889L49.6971 46.589L49.397 47.289L48.847 48.562C48.718 48.188 48.5861 47.816 48.4471 47.445L48.147 46.669L48.1581 46.641C48.2581 46.377 48.358 46.113 48.453 45.841C48.548 45.569 48.6341 45.3 48.7091 45.021C48.5841 45.275 48.4731 45.534 48.3611 45.795C48.2611 46.024 48.1691 46.255 48.0771 46.486L47.7771 45.719C47.5441 45.148 47.304 44.58 47.063 44.012C47.284 44.588 47.505 45.164 47.718 45.742L47.9951 46.482C47.7791 46.374 47.5631 46.269 47.3441 46.171L46.944 45.996C46.81 45.943 46.6781 45.885 46.5441 45.836C46.6681 45.914 46.7961 45.983 46.9221 46.057L47.304 46.267C47.553 46.405 47.8041 46.534 48.0601 46.667L48.3521 47.48C48.4821 47.84 48.6071 48.203 48.7301 48.565C48.3391 48.352 47.9491 48.145 47.5531 47.952C47.1081 47.732 46.6601 47.521 46.2061 47.327C46.6391 47.571 47.076 47.807 47.513 48.046C47.95 48.285 48.3671 48.512 48.7921 48.752C49.0054 49.39 49.2031 50.033 49.3851 50.681C49.1684 50.5476 48.9497 50.4173 48.729 50.29C48.457 50.133 48.187 49.975 47.91 49.83C47.361 49.53 46.81 49.255 46.246 48.997C46.786 49.304 47.3271 49.607 47.8661 49.922L48.6761 50.399C48.9341 50.551 49.183 50.709 49.438 50.869L49.4751 50.999C49.6421 51.609 49.8041 52.221 49.9361 52.84C49.6701 52.654 49.408 52.472 49.136 52.297C48.82 52.09 48.5051 51.887 48.1821 51.697C47.5431 51.315 46.89 50.959 46.233 50.634C46.865 51.007 47.5061 51.384 48.1331 51.785C48.4491 51.985 48.7621 52.185 49.0771 52.401C49.3921 52.617 49.6771 52.816 49.9771 53.033C50.0881 53.554 50.1841 54.077 50.2471 54.605C50.2651 54.75 50.2811 54.896 50.2941 55.042C50.0541 54.82 49.8061 54.612 49.5561 54.415C49.2631 54.187 48.968 53.969 48.664 53.766C48.36 53.563 48.0531 53.361 47.7411 53.166C47.4291 52.971 47.117 52.789 46.8 52.613C47.1 52.813 47.4081 53.013 47.7081 53.218C48.0081 53.423 48.308 53.633 48.608 53.847C48.908 54.061 49.197 54.277 49.485 54.51C49.773 54.743 50.0441 54.978 50.3101 55.24C50.3597 55.8739 50.3358 56.5115 50.2391 57.14L50.2561 57.155L50.276 57.147C50.3911 56.528 50.4318 55.8976 50.397 55.269L50.4261 55.247Z" fill="#1A2242"/>
</svg>
