<svg width="457" height="285" viewBox="0 0 457 285" fill="none" xmlns="http://www.w3.org/2000/svg">
<path fill-rule="evenodd" clip-rule="evenodd" d="M99.0771 123.001C99.0849 93.3892 109.845 64.7875 129.357 42.5131C148.869 20.2387 175.805 5.80698 205.158 1.90088C234.511 -2.00522 264.284 4.88003 288.942 21.2767C313.6 37.6733 331.465 62.4657 339.216 91.0451H360.135C385.743 91.0451 410.302 101.218 428.41 119.325C446.517 137.433 456.69 161.992 456.69 187.6C456.69 213.208 446.517 237.767 428.41 255.875C410.302 273.982 385.743 284.155 360.135 284.155H81.5092C60.1387 284.155 39.6434 275.666 24.5322 260.554C9.42101 245.443 0.931641 224.948 0.931641 203.578C0.931641 182.207 9.42101 161.712 24.5322 146.601C39.6434 131.489 60.1387 123 81.5092 123H99.0771V123.001Z" fill="#E3E4E7"/>
</svg>
