<svg width="24" height="24" viewBox="0 0 24 24" fill="none" xmlns="http://www.w3.org/2000/svg">
<g style="mix-blend-mode:luminosity">
<g style="mix-blend-mode:luminosity">
<g style="mix-blend-mode:luminosity">
<g style="mix-blend-mode:luminosity">
<g style="mix-blend-mode:luminosity">
<path d="M12.3959 1L7.00586 11.614L12.3959 22.228L12.5909 22.164C14.9771 21.3758 17.054 19.8553 18.5262 17.8186C19.9983 15.782 20.7908 13.333 20.7909 10.82V4.11L12.3959 1Z" fill="#2B8AFF"/>
</g>
<g style="mix-blend-mode:luminosity">
<path d="M4 4.11V10.82C4.00004 13.333 4.79252 15.782 6.2647 17.8186C7.73688 19.8553 9.81379 21.3758 12.2 22.164L12.395 22.228V1L4 4.11Z" fill="#2B8AFF"/>
</g>
</g>
</g>
</g>
<g style="mix-blend-mode:luminosity">
<g style="mix-blend-mode:luminosity">
<g style="mix-blend-mode:luminosity">
<path d="M18.1768 11.088C18.1872 11.8883 18.0343 12.6824 17.7276 13.4217C17.4209 14.161 16.9667 14.8301 16.3928 15.388C15.8348 15.9617 15.1657 16.4157 14.4264 16.7222C13.6871 17.0288 12.8931 17.1815 12.0928 17.171C11.2925 17.1814 10.4986 17.0286 9.75929 16.7221C9.02 16.4155 8.35091 15.9616 7.7928 15.388C7.21887 14.8301 6.76467 14.1611 6.45794 13.4217C6.15121 12.6824 5.99839 11.8884 6.0088 11.088C5.99839 10.2877 6.15121 9.49358 6.45794 8.75427C6.76467 8.01496 7.21887 7.34592 7.7928 6.78801C8.34956 6.21421 9.01731 5.75977 9.75537 5.45238C10.4934 5.14498 11.2863 4.99107 12.0858 5.00001C12.8861 4.98964 13.68 5.14239 14.4193 5.44893C15.1586 5.75548 15.8277 6.2094 16.3858 6.78301C16.9597 7.34092 17.4139 8.00996 17.7207 8.74927C18.0274 9.48858 18.1802 10.2827 18.1698 11.083L18.1768 11.088Z" fill="white"/>
</g>
<g style="mix-blend-mode:luminosity">
<path d="M15.61 8.48479C15.481 8.35571 15.3278 8.25332 15.1592 8.18346C14.9907 8.11359 14.81 8.07764 14.6275 8.07764C14.445 8.07764 14.2643 8.11359 14.0957 8.18346C13.9271 8.25332 13.774 8.35571 13.645 8.48479L11.279 10.8508L10.252 9.82379C10.123 9.69477 9.96991 9.5924 9.80139 9.52255C9.63287 9.4527 9.45225 9.41673 9.26983 9.41669C9.08741 9.41664 8.90677 9.45253 8.73821 9.52229C8.56966 9.59206 8.4165 9.69433 8.28748 9.82329C8.15845 9.95225 8.0561 10.1054 7.98624 10.2739C7.91639 10.4424 7.88042 10.623 7.88037 10.8054C7.88032 10.9879 7.9162 11.1685 7.98597 11.3371C8.05574 11.5056 8.15802 11.6588 8.28698 11.7878L10.296 13.7968C10.425 13.9259 10.5781 14.0283 10.7467 14.0981C10.9153 14.168 11.096 14.2039 11.2785 14.2039C11.461 14.2039 11.6417 14.168 11.8102 14.0981C11.9788 14.0283 12.132 13.9259 12.261 13.7968L15.61 10.4488C15.8699 10.1881 16.0158 9.83494 16.0158 9.4668C16.0158 9.09866 15.8699 8.74552 15.61 8.48479Z" fill="#82C61B"/>
</g>
<g style="mix-blend-mode:luminosity">
<path d="M15.6098 8.48479C15.4808 8.35571 15.3277 8.25332 15.1591 8.18346C14.9905 8.11359 14.8098 8.07764 14.6273 8.07764C14.4448 8.07764 14.2641 8.11359 14.0956 8.18346C13.927 8.25332 13.7738 8.35571 13.6448 8.48479L11.9448 10.1848V14.0368C12.0597 13.9736 12.1651 13.8945 12.2578 13.8018L15.6068 10.4538C15.867 10.193 16.0132 9.83968 16.0132 9.4713C16.0132 9.10291 15.867 8.74957 15.6068 8.4888L15.6098 8.48479Z" fill="#82C61B"/>
</g>
</g>
</g>
</g>
</svg>
