<svg width="37" height="47" viewBox="0 0 37 47" fill="none" xmlns="http://www.w3.org/2000/svg">
<path d="M18.4068 0L6.58984 23.27L18.4068 46.54L18.8338 46.399C24.0658 44.6715 28.6197 41.3382 31.8477 36.8731C35.0758 32.408 36.8136 27.0387 36.8138 21.529V6.817L18.4068 0Z" fill="#2682FF"/>
<path d="M0 6.817V21.53C0.000283434 27.0397 1.73806 32.409 4.96612 36.8741C8.19417 41.3392 12.7481 44.6725 17.98 46.4L18.407 46.541V0L0 6.817Z" fill="#6AA9FF"/>
<path d="M18.3898 35.4491H18.3838V8.75512H18.3898C20.1461 8.73107 21.8889 9.0654 23.5116 9.73767C25.1344 10.41 26.603 11.4061 27.8278 12.6651C29.0869 13.8894 30.083 15.3577 30.7553 16.9801C31.4276 18.6026 31.7619 20.3451 31.7378 22.1011C31.7621 23.8575 31.4278 25.6003 30.7556 27.2231C30.0833 28.8459 29.087 30.3145 27.8278 31.5391C26.6032 32.7984 25.1346 33.7946 23.5118 34.4669C21.889 35.1392 20.1461 35.4734 18.3898 35.4491Z" fill="#F3F3F3"/>
</svg>
