<svg width="81" height="37" viewBox="0 0 81 37" fill="none" xmlns="http://www.w3.org/2000/svg">
<path d="M62.775 37C52.9875 37 45.4039 28.7658 38.07 20.8007C31.401 13.5622 25.1033 6.72727 18.225 6.72727C11.8969 6.72727 6.75 12.0082 6.75 18.5C6.75 24.9918 11.8969 30.2727 18.225 30.2727C22.2109 30.2727 26.3452 28.0023 31.6406 22.9131C32.9839 21.6248 35.1202 21.6618 36.4129 22.9972C37.7055 24.3325 37.6684 26.4617 36.3285 27.7534C31.8499 32.0588 25.7445 37 18.225 37C8.17425 37 0 28.6985 0 18.5C0 8.29809 8.17425 0 18.225 0C26.9561 0 33.9289 6.49855 40.527 13.542C47.1184 6.50527 54.0742 0 62.775 0C72.8258 0 81 8.29809 81 18.5C81 28.6985 72.8224 37 62.775 37ZM45.117 18.5C50.9996 24.8169 56.6696 30.2727 62.7716 30.2727C69.0998 30.2727 74.2466 24.9918 74.2466 18.5C74.2466 12.0082 69.1031 6.72727 62.775 6.72727C56.6696 6.72727 50.9996 12.1865 45.117 18.5Z" fill="url(#paint0_linear)"/>
<defs>
<linearGradient id="paint0_linear" x1="40.5" y1="0" x2="40.5" y2="37" gradientUnits="userSpaceOnUse">
<stop stop-color="#24DBBA"/>
<stop offset="1" stop-color="#C4B5FF" stop-opacity="0.89"/>
</linearGradient>
</defs>
</svg>
