<svg width="23" height="15" viewBox="0 0 23 15" fill="none" xmlns="http://www.w3.org/2000/svg">
<path d="M18.1925 5.13574C17.6132 3.66843 16.564 2.43437 15.2091 1.62641C13.8542 0.818438 12.2697 0.482101 10.7034 0.669924C9.13704 0.857746 7.67701 1.55915 6.55151 2.66455C5.42601 3.76996 4.69843 5.21704 4.48242 6.77973C4.35442 6.76773 4.22441 6.76074 4.09241 6.76074C3.01324 6.76074 1.9783 7.18943 1.21521 7.95252C0.452124 8.7156 0.0234375 9.75061 0.0234375 10.8298C0.0234375 11.9089 0.452124 12.9439 1.21521 13.707C1.9783 14.4701 3.01324 14.8987 4.09241 14.8987H17.8214C19.0839 14.8958 20.2963 14.4045 21.2048 13.5278C22.1133 12.6511 22.6475 11.457 22.6954 10.1954C22.7434 8.93384 22.3014 7.70257 21.462 6.75946C20.6227 5.81636 19.4511 5.23452 18.1925 5.13574Z" fill="#2E96D5"/>
<path fill-rule="evenodd" clip-rule="evenodd" d="M11.3689 11.0239C11.5815 11.0239 11.7893 11.087 11.9661 11.2051C12.1429 11.3232 12.2807 11.4911 12.3621 11.6876C12.4434 11.884 12.4647 12.1001 12.4232 12.3087C12.3817 12.5172 12.2794 12.7087 12.129 12.8591C11.9787 13.0094 11.7872 13.1118 11.5786 13.1533C11.3701 13.1947 11.154 13.1735 10.9575 13.0921C10.7611 13.0107 10.5931 12.8729 10.475 12.6962C10.3569 12.5194 10.2938 12.3116 10.2938 12.0989C10.2941 11.8139 10.4075 11.5407 10.609 11.3391C10.8106 11.1376 11.0839 11.0242 11.3689 11.0239ZM14.5819 10.5239C14.5817 10.6079 14.5603 10.6906 14.5198 10.7642C14.4792 10.8377 14.4208 10.8999 14.3499 10.9449C14.2951 10.9792 14.2341 11.0022 14.1704 11.0127C14.1067 11.0232 14.0416 11.0211 13.9788 11.0063C13.9159 10.9915 13.8567 10.9644 13.8043 10.9266C13.752 10.8888 13.7076 10.841 13.6738 10.7859C13.4032 10.4313 13.0544 10.1438 12.6546 9.94592C12.2547 9.74805 11.8146 9.64508 11.3684 9.64508C10.9223 9.64508 10.482 9.74805 10.0822 9.94592C9.68229 10.1438 9.33352 10.4313 9.06288 10.7859C9.02921 10.841 8.98499 10.8887 8.93275 10.9265C8.88051 10.9643 8.82132 10.9914 8.75855 11.0062C8.69579 11.0209 8.63065 11.0231 8.56703 11.0126C8.50341 11.0021 8.4425 10.9791 8.38783 10.9449C8.27774 10.8746 8.19958 10.7639 8.17005 10.6367C8.14052 10.5094 8.16201 10.3756 8.22987 10.2639C8.58831 9.76646 9.05984 9.36134 9.6056 9.08191C10.1514 8.80248 10.7558 8.65674 11.3689 8.65674C11.982 8.65674 12.5863 8.80248 13.1321 9.08191C13.6779 9.36134 14.1494 9.76646 14.5078 10.2639C14.5572 10.3434 14.583 10.4354 14.5819 10.5289V10.5239ZM16.6089 8.90894C16.6092 8.99653 16.5872 9.08276 16.5451 9.15955C16.5029 9.23633 16.442 9.30114 16.3679 9.3479C16.3107 9.3836 16.2469 9.40766 16.1804 9.41864C16.1139 9.42962 16.046 9.4273 15.9804 9.41187C15.9147 9.39644 15.8528 9.3682 15.7981 9.32874C15.7435 9.28927 15.6972 9.23939 15.6619 9.18195C15.1613 8.51651 14.5129 7.97653 13.7678 7.60468C13.0228 7.23282 12.2016 7.03925 11.3689 7.03925C10.5362 7.03925 9.7149 7.23282 8.96986 7.60468C8.22482 7.97653 7.57637 8.51651 7.07581 9.18195C7.04053 9.23939 6.99424 9.28927 6.93958 9.32874C6.88493 9.3682 6.82308 9.39644 6.75746 9.41187C6.69183 9.4273 6.62377 9.42962 6.55726 9.41864C6.49075 9.40766 6.42707 9.3836 6.36988 9.3479C6.25469 9.27464 6.1729 9.15902 6.14222 9.026C6.11154 8.89298 6.13435 8.75322 6.20582 8.6369C6.79818 7.82253 7.57479 7.15987 8.47218 6.70294C9.36957 6.24601 10.3624 6.00781 11.3694 6.00781C12.3764 6.00781 13.3691 6.24601 14.2665 6.70294C15.1639 7.15987 15.9405 7.82253 16.5328 8.6369C16.5837 8.72027 16.6101 8.8163 16.6089 8.91394V8.90894Z" fill="white"/>
</svg>
