<svg width="80" height="80" viewBox="0 0 80 80" fill="none" xmlns="http://www.w3.org/2000/svg">
<path d="M40.31 0.832031C48.118 0.832031 55.7507 3.14738 62.2428 7.48527C68.735 11.8232 73.7949 17.9888 76.7829 25.2025C79.7709 32.4161 80.5527 40.3538 79.0295 48.0118C77.5062 55.6698 73.7463 62.7041 68.2252 68.2252C62.7041 73.7463 55.6698 77.5062 48.0118 79.0295C40.3538 80.5527 32.4161 79.7709 25.2025 76.7829C17.9888 73.7949 11.8232 68.735 7.48527 62.2428C3.14738 55.7507 0.832031 48.118 0.832031 40.31C0.832031 29.8398 4.99131 19.7984 12.3949 12.3949C19.7984 4.99131 29.8398 0.832031 40.31 0.832031V0.832031Z" fill="#F3F3F3"/>
</svg>
