<svg width="20" height="17" viewBox="0 0 20 17" fill="none" xmlns="http://www.w3.org/2000/svg">
<path d="M16.9999 6.30011V2.00011C16.9999 1.7349 16.8945 1.48054 16.707 1.29301C16.5195 1.10547 16.2651 1.00011 15.9999 1.00011H14.9999C14.7347 1.00011 14.4803 1.10547 14.2928 1.29301C14.1052 1.48054 13.9999 1.7349 13.9999 2.00011V3.60011L10.6699 0.600112C10.4853 0.435921 10.2469 0.345215 9.99989 0.345215C9.75287 0.345215 9.51445 0.435921 9.32989 0.600112L0.969892 8.13011C0.895594 8.19763 0.84334 8.28595 0.819933 8.38357C0.796526 8.4812 0.803049 8.58361 0.838654 8.67748C0.874259 8.77135 0.937296 8.85232 1.01956 8.90986C1.10182 8.96741 1.19951 8.99885 1.29989 9.00011H2.99989V16.0001C2.99989 16.2653 3.10525 16.5197 3.29279 16.7072C3.48032 16.8948 3.73468 17.0001 3.99989 17.0001H6.99989C7.26511 17.0001 7.51946 16.8948 7.707 16.7072C7.89454 16.5197 7.99989 16.2653 7.99989 16.0001V11.0001H11.9999V16.0001C11.9999 16.2653 12.1052 16.5197 12.2928 16.7072C12.4803 16.8948 12.7347 17.0001 12.9999 17.0001H15.9999C16.2651 17.0001 16.5195 16.8948 16.707 16.7072C16.8945 16.5197 16.9999 16.2653 16.9999 16.0001V9.00011H18.6999C18.8003 8.99885 18.898 8.96741 18.9802 8.90986C19.0625 8.85232 19.1255 8.77135 19.1611 8.67748C19.1967 8.58361 19.2033 8.4812 19.1799 8.38357C19.1564 8.28595 19.1042 8.19763 19.0299 8.13011L16.9999 6.30011ZM7.99989 7.00011C7.99989 6.46968 8.21061 5.96097 8.58568 5.5859C8.96075 5.21083 9.46946 5.00011 9.99989 5.00011C10.5303 5.00011 11.039 5.21083 11.4141 5.5859C11.7892 5.96097 11.9999 6.46968 11.9999 7.00011H7.99989Z" fill="#434343"/>
</svg>
