<svg width="25" height="25" viewBox="0 0 25 25" fill="none" xmlns="http://www.w3.org/2000/svg">
<path d="M19.9119 12.8972C19.6846 12.8972 19.4666 12.9875 19.3059 13.1482C19.1452 13.3089 19.0549 13.5269 19.0549 13.7542V22.3202C19.0549 22.5475 18.9646 22.7654 18.8039 22.9262C18.6432 23.0869 18.4252 23.1772 18.1979 23.1772H2.78191C2.55462 23.1772 2.33664 23.0869 2.17592 22.9262C2.0152 22.7654 1.92491 22.5475 1.92491 22.3202V5.18818C1.92491 4.96088 2.0152 4.7429 2.17592 4.58218C2.33664 4.42147 2.55462 4.33117 2.78191 4.33117H13.0609C13.1759 4.3351 13.2904 4.31586 13.3978 4.27458C13.5051 4.23331 13.603 4.17085 13.6857 4.09093C13.7684 4.01101 13.8342 3.91526 13.8791 3.80938C13.924 3.70351 13.9472 3.58968 13.9472 3.47467C13.9472 3.35967 13.924 3.24584 13.8791 3.13997C13.8342 3.03409 13.7684 2.93834 13.6857 2.85842C13.603 2.7785 13.5051 2.71604 13.3978 2.67477C13.2904 2.63349 13.1759 2.61425 13.0609 2.61818H2.78191C2.10031 2.61818 1.44662 2.88894 0.96465 3.37091C0.482681 3.85288 0.211914 4.50657 0.211914 5.18818L0.211914 22.3202C0.211914 23.0018 0.482681 23.6555 0.96465 24.1374C1.44662 24.6194 2.10031 24.8902 2.78191 24.8902H18.2009C18.8825 24.8902 19.5362 24.6194 20.0182 24.1374C20.5001 23.6555 20.7709 23.0018 20.7709 22.3202V13.7542C20.7709 13.6415 20.7487 13.5299 20.7055 13.4258C20.6623 13.3216 20.599 13.2271 20.5192 13.1475C20.4394 13.0679 20.3447 13.0048 20.2405 12.9618C20.1363 12.9189 20.0246 12.8969 19.9119 12.8972Z" fill="#2E96D5"/>
<path d="M17.0517 3.44612L20.9027 7.29712L11.1547 17.0441L7.30673 13.1931L17.0517 3.44612ZM23.8247 2.51312L22.1077 0.80012C21.9498 0.641835 21.7622 0.516255 21.5557 0.43057C21.3492 0.344886 21.1278 0.300781 20.9042 0.300781C20.6806 0.300781 20.4593 0.344886 20.2527 0.43057C20.0462 0.516255 19.8586 0.641835 19.7007 0.80012L18.0547 2.44512L21.9057 6.29612L23.8247 4.37712C23.9477 4.25507 24.0454 4.10988 24.112 3.94992C24.1786 3.78996 24.2129 3.6184 24.2129 3.44512C24.2129 3.27184 24.1786 3.10028 24.112 2.94032C24.0454 2.78036 23.9477 2.63517 23.8247 2.51312ZM5.29073 18.6061C5.27458 18.6787 5.27717 18.7542 5.29825 18.8255C5.31933 18.8968 5.35821 18.9615 5.41122 19.0136C5.46424 19.0657 5.52965 19.1035 5.60129 19.1234C5.67294 19.1432 5.74845 19.1445 5.82073 19.1271L10.1117 18.0871L6.26373 14.2361L5.29073 18.6061Z" fill="#2E96D5"/>
</svg>
