<svg width="256" height="157" viewBox="0 0 256 157" fill="none" xmlns="http://www.w3.org/2000/svg">
<g opacity="0.91">
<g opacity="0.91">
<path opacity="0.59" d="M3.55243 77.4652C4.95243 30.0542 59.3604 19.5252 81.3654 32.1772C101.635 43.8312 102.497 62.9942 114.865 67.9622C161.01 86.4952 197.247 45.6672 228.87 69.2372C244.475 80.8682 248.761 105.25 237.431 118.375C229.815 127.197 215.506 131.76 197.331 133.966C162.638 134.831 114.247 133.779 71.6244 134C38.3994 123.403 3.08543 93.2902 3.55243 77.4652Z" fill="#D8DADF"/>
<path opacity="0.3" d="M9.11645 144.092C4.38745 144.451 0.166445 146.721 0.116445 148.161C0.0724455 149.461 6.23147 150.522 8.38647 150.895C33.0385 155.153 38.3935 148.014 71.0115 151.095C88.1195 152.71 85.5385 155.395 100.711 156.066C121.47 156.989 153.111 151.388 179.061 151.639C190.133 151.746 190.308 152.654 205.376 153.379C211.295 153.664 252.758 155.616 253.496 152.633C253.629 152.094 260.081 144.469 247.472 141.724C247.471 141.725 142.71 133.957 9.11645 144.092Z" fill="url(#paint0_linear)"/>
</g>
<g opacity="0.91">
<g opacity="0.91">
<path opacity="0.91" d="M230.955 54.73C230.874 54.53 230.794 54.3277 230.714 54.123C206.92 63.4403 186.761 80.1767 173.227 101.851L173.701 102.151C187.193 80.6018 207.27 63.9733 230.955 54.73Z" fill="#85A2D2"/>
<path opacity="0.91" d="M240.832 51.0143C240.271 48.9273 232.843 49.8473 230.206 54.6753C235.331 56.2563 241.364 53.0233 240.832 51.0143Z" fill="#85A2D2"/>
<path opacity="0.91" d="M225.118 56.8394C226.8 61.9254 233.431 64.2774 234.626 62.5864C235.906 60.8304 230.981 55.6094 225.118 56.8394Z" fill="#85A2D2"/>
<path opacity="0.91" d="M216.151 61.3654C218.621 67.1584 226.627 69.3114 227.878 67.2464C229.242 65.0824 223.014 59.2844 216.151 61.3654Z" fill="#85A2D2"/>
<path opacity="0.91" d="M177.868 95.4481C182.868 100.024 192.128 98.0261 192.6 95.3241C193.163 92.4271 184.192 89.5321 177.868 95.4481Z" fill="#85A2D2"/>
<path opacity="0.91" d="M206.145 67.6301C209.702 74.1041 219.339 75.7531 220.594 73.2441C222.001 70.5771 214.099 64.2901 206.145 67.6301Z" fill="#85A2D2"/>
<path opacity="0.91" d="M185.938 85.4584C191.081 91.2514 201.614 90.4434 202.421 87.5414C203.367 84.4114 193.667 79.7444 185.938 85.4584Z" fill="#85A2D2"/>
<path opacity="0.91" d="M195.893 75.6511C200.63 82.3961 211.626 83.0651 212.766 80.1621C214.086 77.0361 204.542 70.7891 195.893 75.6511Z" fill="#85A2D2"/>
<path opacity="0.91" d="M228.076 45.8653C225.604 45.4933 222.15 52.2753 225.117 56.8383C229.778 53.3653 230.46 46.2963 228.076 45.8653Z" fill="#85A2D2"/>
<path opacity="0.91" d="M218.785 48.0863C215.772 47.8923 212.201 56.3153 216.151 61.3653C221.359 56.7943 221.673 48.3633 218.785 48.0863Z" fill="#85A2D2"/>
<path opacity="0.91" d="M175.175 80.2615C171.881 81.6745 171.613 92.4205 177.867 95.4475C181.4 87.9075 178.362 79.0285 175.175 80.2615Z" fill="#85A2D2"/>
<path opacity="0.91" d="M208.032 51.5854C204.369 51.7234 200.895 62.2025 206.144 67.6315C211.829 61.5985 211.529 51.5834 208.032 51.5854Z" fill="#85A2D2"/>
<path opacity="0.91" d="M184.614 68.0341C180.714 69.1551 179.214 81.2131 185.939 85.4581C190.674 77.5671 188.349 67.1161 184.614 68.0341Z" fill="#85A2D2"/>
<path opacity="0.91" d="M196.423 57.2962C192.229 57.9342 189.346 70.2962 195.893 75.6512C201.648 68.1132 200.417 56.8562 196.423 57.2962Z" fill="#85A2D2"/>
</g>
<g opacity="0.91">
<path opacity="0.91" d="M185.499 94.1212C191.927 92.8862 190.829 97.7502 195.724 92.2792C202.824 84.3422 207.886 84.9662 210.475 88.6572C213.064 92.3482 211.887 97.2632 201.896 101.081C195.01 103.713 199.996 104.393 196.583 109.926C193.617 114.734 183.218 115.987 181.014 120.914C175.575 133.072 161.202 129.289 158.014 124.739C154.826 120.189 156.264 105.53 169.667 104.73C175.093 104.406 179.914 95.1942 185.499 94.1212Z" fill="#6689BC"/>
<path opacity="0.91" d="M165.022 119.339L183.807 106.42L186.026 94.0322C186.381 93.9792 186.71 93.9462 187.018 93.9322L184.918 105.66L203.136 93.1302L204.379 86.1892C204.708 86.1192 205.043 86.0738 205.379 86.0532L204.248 92.3672L210.191 88.2802C210.291 88.4042 210.391 88.5312 210.478 88.6622C210.565 88.7932 210.657 88.9272 210.739 89.0622L204.796 93.1492L211.166 94.3052C211.029 94.6094 210.869 94.9029 210.688 95.1832L203.688 93.9132L185.47 106.442L197.3 108.589C197.176 108.869 197.03 109.163 196.856 109.473L184.356 107.205L165.571 120.125L180.055 122.753C179.873 123.053 179.685 123.341 179.492 123.616L164.461 120.888L158.848 124.749L158.306 125.121L157.758 124.339L158.3 123.966L163.913 120.106L166.582 105.206C166.91 105.122 167.248 105.048 167.595 104.984L165.022 119.339Z" fill="#37639A"/>
</g>
<g opacity="0.91">
<g opacity="0.91">
<path opacity="0.91" d="M223.764 15.1539L223.142 14.4839C204.249 31.9066 191.17 54.7163 185.676 79.8219L186.445 79.9889C191.943 55.062 204.971 32.428 223.764 15.1539Z" fill="#6689BC"/>
</g>
<g opacity="0.91">
<path opacity="0.91" d="M222.962 14.8339C222.945 14.9959 222.929 15.1579 222.913 15.3199L223.403 15.3049C228.288 15.1419 233.611 7.02385 233.975 6.66885C234.236 6.29419 234.498 5.92021 234.763 5.54688C234.324 5.68554 233.885 5.82686 233.447 5.97086C233.036 5.95886 223.426 9.67886 222.962 14.8339Z" fill="#6689BC"/>
</g>
<path opacity="0.91" d="M188.543 70.3999C188.493 70.5659 188.443 70.7309 188.393 70.8999L188.777 71.0148C198.171 73.3728 209.149 64.8988 209.777 64.8978C210.055 64.7132 210.334 64.5308 210.614 64.3508L209.693 64.1228C209.087 63.8378 191.778 59.9299 188.543 70.3999Z" fill="#6689BC"/>
<path opacity="0.91" d="M194.163 55.4247C194.093 55.5817 194.022 55.7387 193.952 55.8957L194.33 56.0657C202.505 59.3767 213.141 53.1317 213.686 53.1507C213.989 52.9967 214.292 52.8451 214.596 52.6957L213.683 52.3527C213.155 52.0467 198.119 46.7347 194.163 55.4247Z" fill="#6689BC"/>
<path opacity="0.91" d="M201.262 41.9348L200.995 42.3758L201.361 42.5978C208.2 46.4578 218.08 42.1238 218.548 42.1538C218.871 42.0304 219.196 41.9094 219.521 41.7907L218.627 41.3408C218.179 41.0298 205.538 34.9408 201.262 41.9348Z" fill="#6689BC"/>
<path opacity="0.91" d="M209.525 29.9547L209.209 30.3627L209.556 30.6317C215.028 34.6587 223.813 31.8977 224.207 31.9317C224.548 31.839 224.89 31.7487 225.232 31.6607L224.369 31.1107C224.002 30.8147 213.77 24.5327 209.525 29.9547Z" fill="#6689BC"/>
<path opacity="0.91" d="M217.712 20.468L217.355 20.844L217.682 21.153C221.851 24.936 229.245 23.322 229.566 23.353C229.922 23.2863 230.277 23.222 230.633 23.16L229.802 22.529C229.51 22.264 221.584 16.427 217.712 20.468Z" fill="#6689BC"/>
<path opacity="0.91" d="M177.228 49.8909L176.458 49.3159C176.476 49.7359 176.496 50.1549 176.517 50.5729C176.286 51.4409 178.217 68.2609 188.003 70.7779L188.387 70.8929C188.436 70.7269 188.486 70.5602 188.537 70.3929C191.664 60.7239 177.885 50.5109 177.228 49.8909Z" fill="#6689BC"/>
<path opacity="0.91" d="M186.032 36.2491L185.308 35.5791C185.284 35.9951 185.262 36.4101 185.241 36.8241C184.994 37.5471 185.102 52.2641 193.567 55.7241L193.945 55.8941L194.156 55.4231C197.955 47.3351 186.555 36.8421 186.032 36.2491Z" fill="#6689BC"/>
<path opacity="0.91" d="M195.866 24.5968C195.642 24.3455 195.419 24.0938 195.196 23.8418C195.133 24.2498 195.072 24.6575 195.013 25.0648C194.769 25.6528 193.586 38.1648 200.629 42.1508L200.994 42.3728C201.082 42.2254 201.171 42.0785 201.26 41.9318C205.366 35.3718 196.266 25.1428 195.866 24.5968Z" fill="#6689BC"/>
<path opacity="0.91" d="M206.358 14.8647L205.749 14.0337C205.65 14.4337 205.553 14.8314 205.459 15.2267C205.233 15.6917 203.245 25.9597 208.85 30.0877L209.197 30.3577L209.513 29.9497C213.613 24.8227 206.665 15.3467 206.358 14.8647Z" fill="#6689BC"/>
<path opacity="0.91" d="M216.156 7.98672C215.972 7.69006 215.788 7.39304 215.604 7.0957C215.476 7.48237 215.35 7.8687 215.227 8.2547C215.036 8.6097 212.771 16.6747 217.022 20.5287L217.349 20.8377L217.706 20.4617C221.459 16.6067 216.372 8.38772 216.156 7.98672Z" fill="#6689BC"/>
</g>
<g opacity="0.91">
<g opacity="0.91">
<g opacity="0.91">
<path opacity="0.91" d="M38.539 71.6538L37.9561 72.3447L88.8831 115.311L89.466 114.62L38.539 71.6538Z" fill="#85A2D2"/>
</g>
<g opacity="0.91">
<g opacity="0.91">
<path opacity="0.91" d="M28.5723 63.835L29.7043 64.235C30.0553 64.359 38.3043 67.335 38.6983 71.959L38.7363 72.4099L38.2853 72.4479C33.6633 72.8399 29.3393 65.207 29.1583 64.882L28.5723 63.835Z" fill="#85A2D2"/>
</g>
</g>
<path opacity="0.91" d="M82.6544 109.471L83.0005 109.762L82.7085 110.108C75.4685 118.689 61.4694 117.108 60.8774 117.033L59.8564 116.91L60.6375 116.241C61.2455 115.72 75.6264 103.542 82.6544 109.471Z" fill="#85A2D2"/>
<path opacity="0.91" d="M71.9706 100.457L72.3166 100.749L72.0246 101.095C65.6706 108.626 53.3916 107.237 52.8716 107.174L51.8506 107.051L52.6316 106.382C53.1626 105.924 65.7866 95.2391 71.9706 100.457Z" fill="#85A2D2"/>
<path opacity="0.91" d="M61.7486 91.831L62.0946 92.123L61.8026 92.4679C56.3336 98.9489 45.7756 97.755 45.3286 97.701L44.3076 97.5779L45.0886 96.9089C45.5486 96.5159 56.4056 87.323 61.7486 91.831Z" fill="#85A2D2"/>
<path opacity="0.91" d="M51.9866 83.5951L52.3326 83.8871L52.0406 84.2331C47.4576 89.6651 38.6196 88.6652 38.2456 88.6202L37.2246 88.4961L38.0066 87.8271C38.3916 87.4981 47.4856 79.7981 51.9866 83.5951Z" fill="#85A2D2"/>
<path opacity="0.91" d="M43.6074 76.5258L43.9524 76.8169L43.6604 77.1629C39.9604 81.5459 32.8454 80.7409 32.5444 80.7049L31.5234 80.5808L32.3044 79.9118C32.6154 79.6458 39.9484 73.4388 43.6074 76.5258Z" fill="#85A2D2"/>
<path opacity="0.91" d="M85.6258 86.6208L86.1538 85.7378L86.4478 86.7238C86.6188 87.2958 90.5358 100.829 83.2968 109.41L83.0048 109.756L82.6588 109.464C75.6318 103.535 85.2148 87.3088 85.6258 86.6208Z" fill="#85A2D2"/>
<path opacity="0.91" d="M74.5605 80.3908L75.0885 79.5078L75.3825 80.4938C75.5315 80.9938 78.9685 92.8658 72.6135 100.394L72.3215 100.74L71.9755 100.448C65.7915 95.2328 74.1995 80.9938 74.5605 80.3908Z" fill="#85A2D2"/>
<path opacity="0.91" d="M63.9545 74.548L64.4825 73.665L64.7766 74.651C64.9046 75.082 67.8595 85.289 62.3905 91.771L62.0985 92.117L61.7525 91.825C56.4105 87.317 63.6445 75.067 63.9545 74.548Z" fill="#85A2D2"/>
<path opacity="0.91" d="M53.8095 69.0998L54.3375 68.2168L54.6305 69.2028C54.7385 69.5638 57.2105 78.1028 52.6305 83.5388L52.3385 83.8848L51.9935 83.5928C47.4915 79.7918 53.5535 69.5308 53.8095 69.0998Z" fill="#85A2D2"/>
<path opacity="0.91" d="M45.0478 64.8088L45.5758 63.9258L45.8698 64.9118C45.9568 65.2018 47.9478 72.0818 44.2498 76.4648L43.9578 76.8108L43.6118 76.5188C39.9538 73.4318 44.8378 65.1588 45.0478 64.8088Z" fill="#85A2D2"/>
</g>
<g opacity="0.91">
<path opacity="0.91" d="M33.2227 6.81616L33.6047 6.45215C47.8553 21.5347 56.9111 40.778 59.4497 61.3722L59.0027 61.4272C56.4514 40.9405 47.4186 21.8057 33.2227 6.81616Z" fill="#85A2D2"/>
<path opacity="0.91" d="M27.2654 0.682059C28.3824 -0.661941 33.4994 2.57104 33.7904 7.03304C29.5084 6.43504 26.1944 1.97906 27.2654 0.682059Z" fill="#85A2D2"/>
<path opacity="0.91" d="M36.7744 10.3771C33.8224 13.5441 28.1794 12.9951 27.8744 11.3391C27.5384 9.60611 32.9054 7.45411 36.7744 10.3771Z" fill="#85A2D2"/>
<path opacity="0.91" d="M41.7934 16.7943C38.0254 20.2113 31.4464 19.0423 31.2314 17.0943C30.9674 15.0283 37.4824 12.9013 41.7934 16.7943Z" fill="#85A2D2"/>
<path opacity="0.91" d="M58.2329 55.0612C53.0329 56.7122 46.9379 52.0542 47.5079 49.9022C48.0739 47.5752 55.6099 48.5292 58.2329 55.0612Z" fill="#85A2D2"/>
<path opacity="0.91" d="M46.9849 24.8502C42.1919 28.3942 34.5909 26.2942 34.5239 24.0152C34.3989 21.5672 42.3029 19.6542 46.9849 24.8502Z" fill="#85A2D2"/>
<path opacity="0.91" d="M55.7123 44.9282C49.9913 47.4282 42.5673 43.2072 42.9613 40.7932C43.3293 38.1632 51.9993 38.0622 55.7123 44.9282Z" fill="#85A2D2"/>
<path opacity="0.91" d="M51.7605 34.2839C46.0135 37.6219 37.7505 34.3319 37.9005 31.8029C37.9955 29.0449 47.0865 27.7259 51.7605 34.2839Z" fill="#85A2D2"/>
<path opacity="0.91" d="M38.3297 1.27797C40.2627 1.85397 40.4887 8.03698 36.7747 10.378C34.5447 6.21598 36.4437 0.771969 38.3297 1.27797Z" fill="#85A2D2"/>
<path opacity="0.91" d="M44.3684 6.10922C46.6364 7.00322 46.3924 14.4342 41.7944 16.7942C39.5374 11.6332 42.1634 5.32022 44.3684 6.10922Z" fill="#85A2D2"/>
<path opacity="0.91" d="M65.3387 44.8032C67.2677 46.9762 63.8227 54.9832 58.2267 55.0602C58.1997 48.2932 63.4287 42.7992 65.3387 44.8032Z" fill="#85A2D2"/>
<path opacity="0.91" d="M51.0451 12.3841C53.6751 13.7451 52.6641 22.6571 46.9891 24.8501C44.8741 18.4521 48.4861 11.1811 51.0451 12.3841Z" fill="#85A2D2"/>
<path opacity="0.91" d="M62.583 32.5532C65.051 34.7192 62.063 44.1142 55.713 44.9282C54.924 37.4882 60.162 30.5922 62.583 32.5532Z" fill="#85A2D2"/>
<path opacity="0.91" d="M57.59 20.5829C60.439 22.4949 58.357 32.5919 51.759 34.2829C50.106 26.7519 54.818 18.8859 57.59 20.5829Z" fill="#85A2D2"/>
</g>
<g opacity="0.91">
<path opacity="0.91" d="M19.8867 35.9193L20.1557 35.4043C40.349 46.0824 56.6003 62.9359 66.5367 83.5043L66.0907 83.7193C56.1792 63.2676 39.9902 46.5193 19.8867 35.9193Z" fill="#6689BC"/>
<path opacity="0.91" d="M11.5041 31.63C12.1921 29.83 18.6711 31.3921 20.5541 35.9411C15.8801 36.8331 10.8491 33.362 11.5041 31.63Z" fill="#6689BC"/>
<path opacity="0.91" d="M24.8496 38.3704C22.8936 42.7174 16.8166 44.1414 15.9166 42.5214C14.9486 40.8364 19.7826 36.6924 24.8496 38.3704Z" fill="#6689BC"/>
<path opacity="0.91" d="M32.3533 43.2831C29.6353 48.1831 22.3623 49.2891 21.4483 47.3321C20.4423 45.2701 26.4863 40.7511 32.3533 43.2831Z" fill="#6689BC"/>
<path opacity="0.91" d="M63.0293 77.3575C58.1913 80.9205 50.1903 78.2215 50.0233 75.7755C49.7933 73.1445 57.9873 71.4755 63.0293 77.3575Z" fill="#6689BC"/>
<path opacity="0.91" d="M40.6163 49.8433C36.8743 55.2343 28.2073 55.7353 27.3303 53.3833C26.3333 50.8753 33.8963 46.0833 40.6163 49.8433Z" fill="#6689BC"/>
<path opacity="0.91" d="M56.8234 67.6855C51.7434 72.3135 42.5114 70.5434 42.0664 67.8854C41.5234 65.0164 50.5234 61.8425 56.8234 67.6855Z" fill="#6689BC"/>
<path opacity="0.91" d="M48.9322 57.9894C44.1222 63.5034 34.3442 62.9984 33.6052 60.3084C32.7292 57.3994 41.7392 52.8064 48.9322 57.9894Z" fill="#6689BC"/>
<path opacity="0.91" d="M23.2508 28.3353C25.4698 28.2523 27.8938 34.6173 24.8508 38.3703C21.0528 34.8223 21.1018 28.4753 23.2508 28.3353Z" fill="#6689BC"/>
<path opacity="0.91" d="M31.2549 31.2331C33.9349 31.3621 36.3109 39.1951 32.3549 43.2831C28.1749 38.7051 28.6769 31.1901 31.2549 31.2331Z" fill="#6689BC"/>
<path opacity="0.91" d="M66.8117 64.1474C69.5917 65.7304 68.8347 75.2954 63.0287 77.3574C60.6047 70.3084 64.1107 62.7354 66.8117 64.1474Z" fill="#6689BC"/>
<path opacity="0.91" d="M40.4344 35.4134C43.6584 35.9014 45.7584 45.5494 40.6184 49.8434C36.1514 43.9214 37.3434 35.0624 40.4344 35.4134Z" fill="#6689BC"/>
<path opacity="0.91" d="M59.5994 52.3525C62.9394 53.7365 63.1494 64.5885 56.8174 67.6855C53.3674 60.2085 56.3884 51.1645 59.5994 52.3525Z" fill="#6689BC"/>
<path opacity="0.91" d="M50.1635 41.6454C53.8105 42.6304 55.2135 53.8924 48.9345 57.9904C44.5445 50.7214 46.6745 40.8534 50.1635 41.6454Z" fill="#6689BC"/>
</g>
</g>
</g>
</g>
<path d="M97.2995 28.4036L91.8477 133.983L180.955 138.584L186.407 33.0049L97.2995 28.4036Z" fill="#2E96D5"/>
<path d="M103.54 35.5664L99.4648 114.489L173.689 118.322L177.764 39.3992L103.54 35.5664Z" fill="#D8E7FF"/>
<path fill-rule="evenodd" clip-rule="evenodd" d="M96.1459 102.416C96.1459 102.416 114.371 71.5551 119.379 72.3521C125.505 73.3271 133.49 99.3291 133.49 99.3291C133.49 99.3291 141.812 83.8881 147.356 84.5521C154.395 85.3931 177.815 122.652 177.815 122.652L94.1299 117.093L96.1459 102.416Z" fill="#FFDF3F"/>
<path d="M152.032 71.1042C157.689 71.1042 162.274 66.5182 162.274 60.8612C162.274 55.2041 157.689 50.6182 152.032 50.6182C146.376 50.6182 141.79 55.2041 141.79 60.8612C141.79 66.5182 146.376 71.1042 152.032 71.1042Z" fill="#FFDF3F"/>
<path d="M76.2258 23.8375L41.9502 106.175L111.442 135.104L145.718 52.7658L76.2258 23.8375Z" fill="#2E96D5"/>
<path d="M79.151 31.2991L53.5293 92.8481L111.414 116.944L137.036 55.3954L79.151 31.2991Z" fill="#D8E7FF"/>
<path fill-rule="evenodd" clip-rule="evenodd" d="M54.3167 82.3155C54.3167 82.3155 77.5487 62.9645 81.3017 65.0155C85.8917 67.5265 84.8617 90.4515 84.8617 90.4515C84.8617 90.4515 95.8527 80.5435 100.071 82.6435C105.424 85.3085 113.465 121.552 113.465 121.552L48.5527 93.3985L54.3167 82.3155Z" fill="#FFDF3F"/>
<path d="M110.507 73.7893C115.28 73.7893 119.148 69.9206 119.148 65.1483C119.148 60.376 115.28 56.5073 110.507 56.5073C105.735 56.5073 101.866 60.376 101.866 65.1483C101.866 69.9206 105.735 73.7893 110.507 73.7893Z" fill="#FFDF3F"/>
<defs>
<linearGradient id="paint0_linear" x1="255.264" y1="147.524" x2="36.0921" y2="147.524" gradientUnits="userSpaceOnUse">
<stop stop-color="#D3D6DB"/>
<stop offset="0.999" stop-color="#7A869B"/>
</linearGradient>
</defs>
</svg>
