<svg width="16" height="22" viewBox="0 0 16 22" fill="none" xmlns="http://www.w3.org/2000/svg">
<path d="M11.2259 0.46508C11.1471 0.386287 11.0535 0.323786 10.9506 0.281143C10.8476 0.238501 10.7373 0.216553 10.6259 0.216553C10.5144 0.216553 10.4041 0.238501 10.3011 0.281143C10.1982 0.323786 10.1047 0.386287 10.0259 0.46508C9.94709 0.543873 9.88456 0.637416 9.84192 0.740364C9.79928 0.843312 9.77734 0.953648 9.77734 1.06508C9.77734 1.17651 9.79928 1.28685 9.84192 1.3898C9.88456 1.49275 9.94709 1.58629 10.0259 1.66508C12.4163 4.05788 13.7591 7.30181 13.7591 10.6841C13.7591 14.0664 12.4163 17.3103 10.0259 19.7031C9.94709 19.7819 9.88456 19.8754 9.84192 19.9784C9.79928 20.0813 9.77734 20.1916 9.77734 20.3031C9.77734 20.4145 9.79928 20.5249 9.84192 20.6278C9.88456 20.7307 9.94709 20.8243 10.0259 20.9031C10.1047 20.9819 10.1982 21.0444 10.3011 21.087C10.4041 21.1297 10.5144 21.1516 10.6259 21.1516C10.7373 21.1516 10.8476 21.1297 10.9506 21.087C11.0535 21.0444 11.1471 20.9819 11.2259 20.9031C13.9338 18.1926 15.4549 14.518 15.4549 10.6866C15.4549 6.8552 13.9338 3.18053 11.2259 0.470078V0.46508Z" fill="#2B8AFF"/>
<path d="M8.66824 3.02905C8.58945 2.95025 8.49592 2.88775 8.39297 2.84511C8.29003 2.80247 8.1797 2.78052 8.06827 2.78052C7.95684 2.78052 7.84648 2.80247 7.74353 2.84511C7.64058 2.88775 7.54705 2.95025 7.46826 3.02905C7.38947 3.10784 7.32697 3.20138 7.28433 3.30433C7.24169 3.40728 7.21973 3.51762 7.21973 3.62905C7.21973 3.74048 7.24169 3.85082 7.28433 3.95377C7.32697 4.05671 7.38947 4.15026 7.46826 4.22905C9.17956 5.94179 10.1408 8.26389 10.1408 10.6851C10.1408 13.1062 9.17956 15.4283 7.46826 17.1411C7.38947 17.2198 7.32697 17.3134 7.28433 17.4163C7.24169 17.5193 7.21973 17.6296 7.21973 17.741C7.21973 17.8525 7.24169 17.9628 7.28433 18.0658C7.32697 18.1687 7.38947 18.2623 7.46826 18.341C7.54705 18.4198 7.64058 18.4823 7.74353 18.525C7.84648 18.5676 7.95684 18.5896 8.06827 18.5896C8.1797 18.5896 8.29003 18.5676 8.39297 18.525C8.49592 18.4823 8.58945 18.4198 8.66824 18.341C10.697 16.3108 11.8366 13.5582 11.8366 10.688C11.8366 7.81794 10.697 5.06527 8.66824 3.03505V3.02905Z" fill="#2B8AFF"/>
<path d="M6.10284 5.59399C5.94371 5.43486 5.72788 5.34546 5.50284 5.34546C5.27779 5.34546 5.06196 5.43486 4.90283 5.59399C4.7437 5.75312 4.6543 5.96896 4.6543 6.194C4.6543 6.41904 4.7437 6.63486 4.90283 6.79399C5.41398 7.30477 5.81945 7.91126 6.0961 8.57881C6.37275 9.24636 6.51517 9.96189 6.51517 10.6845C6.51517 11.4071 6.37275 12.1226 6.0961 12.7902C5.81945 13.4577 5.41398 14.0642 4.90283 14.575C4.7437 14.7341 4.6543 14.9499 4.6543 15.175C4.6543 15.4 4.7437 15.6159 4.90283 15.775C5.06196 15.9341 5.27779 16.0235 5.50284 16.0235C5.72788 16.0235 5.94371 15.9341 6.10284 15.775C7.45086 14.425 8.20801 12.5953 8.20801 10.6875C8.20801 8.77974 7.45086 6.94995 6.10284 5.59999V5.59399Z" fill="#2B8AFF"/>
<path d="M1.64198 7.14697C0.0229844 7.14697 0.0229844 14.281 1.64198 14.281C3.26098 14.281 4.57799 12.681 4.57799 10.714C4.57799 8.74697 3.26098 7.14697 1.64198 7.14697Z" fill="#82C61B"/>
</svg>
