<svg width="239" height="47" viewBox="0 0 239 47" fill="none" xmlns="http://www.w3.org/2000/svg">
<path d="M13.398 37.552C10.8527 37.552 8.384 37.2147 5.992 36.54C3.63067 35.8347 1.72933 34.93 0.288 33.826L2.818 28.214C4.198 29.226 5.83867 30.0387 7.74 30.652C9.64133 31.2653 11.5427 31.572 13.444 31.572C15.56 31.572 17.124 31.2653 18.136 30.652C19.148 30.008 19.654 29.1647 19.654 28.122C19.654 27.3553 19.3473 26.7267 18.734 26.236C18.1513 25.7147 17.3847 25.3007 16.434 24.994C15.514 24.6873 14.2567 24.35 12.662 23.982C10.2087 23.3993 8.2 22.8167 6.636 22.234C5.072 21.6513 3.72267 20.716 2.588 19.428C1.484 18.14 0.932 16.4227 0.932 14.276C0.932 12.4053 1.438 10.7187 2.45 9.216C3.462 7.68266 4.98 6.47133 7.004 5.582C9.05867 4.69267 11.558 4.248 14.502 4.248C16.5567 4.248 18.5653 4.49333 20.528 4.984C22.4907 5.47467 24.208 6.18 25.68 7.1L23.38 12.758C20.4053 11.0713 17.4307 10.228 14.456 10.228C12.3707 10.228 10.822 10.5653 9.81 11.24C8.82867 11.9147 8.338 12.804 8.338 13.908C8.338 15.012 8.90533 15.84 10.04 16.392C11.2053 16.9133 12.9687 17.4347 15.33 17.956C17.7833 18.5387 19.792 19.1213 21.356 19.704C22.92 20.2867 24.254 21.2067 25.358 22.464C26.4927 23.7213 27.06 25.4233 27.06 27.57C27.06 29.41 26.5387 31.0967 25.496 32.63C24.484 34.1327 22.9507 35.3287 20.896 36.218C18.8413 37.1073 16.342 37.552 13.398 37.552ZM31.646 12.252H38.822V37H31.646V12.252ZM35.234 8.802C33.9153 8.802 32.842 8.41867 32.014 7.652C31.186 6.88533 30.772 5.93466 30.772 4.8C30.772 3.66533 31.186 2.71466 32.014 1.948C32.842 1.18133 33.9153 0.797997 35.234 0.797997C36.5527 0.797997 37.626 1.166 38.454 1.902C39.282 2.638 39.696 3.558 39.696 4.662C39.696 5.858 39.282 6.85467 38.454 7.652C37.626 8.41867 36.5527 8.802 35.234 8.802ZM60.5239 11.884C63.5906 11.884 66.0593 12.804 67.9299 14.644C69.8313 16.484 70.7819 19.2133 70.7819 22.832V37H63.6059V23.936C63.6059 21.9733 63.1766 20.5167 62.3179 19.566C61.4593 18.5847 60.2173 18.094 58.5919 18.094C56.7826 18.094 55.3413 18.6613 54.2679 19.796C53.1946 20.9 52.6579 22.556 52.6579 24.764V37H45.4819V12.252H52.3359V15.15C53.2866 14.1073 54.4673 13.31 55.8779 12.758C57.2886 12.1753 58.8373 11.884 60.5239 11.884ZM85.1526 12.804H91.5006V18.324H85.3366V37H78.1606V18.324H74.3426V12.804H78.1606V11.7C78.1606 8.87867 78.9886 6.64 80.6446 4.984C82.3313 3.328 84.6926 2.5 87.7286 2.5C88.8019 2.5 89.8139 2.62266 90.7646 2.868C91.7459 3.08267 92.5586 3.40467 93.2026 3.834L91.3166 9.032C90.4886 8.44933 89.5226 8.158 88.4186 8.158C86.2413 8.158 85.1526 9.354 85.1526 11.746V12.804ZM98.7686 12.252H105.945V37H98.7686V12.252ZM102.357 8.802C101.038 8.802 99.9646 8.41867 99.1366 7.652C98.3086 6.88533 97.8946 5.93466 97.8946 4.8C97.8946 3.66533 98.3086 2.71466 99.1366 1.948C99.9646 1.18133 101.038 0.797997 102.357 0.797997C103.675 0.797997 104.749 1.166 105.577 1.902C106.405 2.638 106.819 3.558 106.819 4.662C106.819 5.858 106.405 6.85467 105.577 7.652C104.749 8.41867 103.675 8.802 102.357 8.802ZM127.637 11.884C130.704 11.884 133.173 12.804 135.043 14.644C136.945 16.484 137.895 19.2133 137.895 22.832V37H130.719V23.936C130.719 21.9733 130.29 20.5167 129.431 19.566C128.573 18.5847 127.331 18.094 125.705 18.094C123.896 18.094 122.455 18.6613 121.381 19.796C120.308 20.9 119.771 22.556 119.771 24.764V37H112.595V12.252H119.449V15.15C120.4 14.1073 121.581 13.31 122.991 12.758C124.402 12.1753 125.951 11.884 127.637 11.884ZM144.4 12.252H151.576V37H144.4V12.252ZM147.988 8.802C146.669 8.802 145.596 8.41867 144.768 7.652C143.94 6.88533 143.526 5.93466 143.526 4.8C143.526 3.66533 143.94 2.71466 144.768 1.948C145.596 1.18133 146.669 0.797997 147.988 0.797997C149.307 0.797997 150.38 1.166 151.208 1.902C152.036 2.638 152.45 3.558 152.45 4.662C152.45 5.858 152.036 6.85467 151.208 7.652C150.38 8.41867 149.307 8.802 147.988 8.802ZM174.198 35.804C173.492 36.3253 172.618 36.724 171.576 37C170.564 37.2453 169.49 37.368 168.356 37.368C165.412 37.368 163.127 36.6167 161.502 35.114C159.907 33.6113 159.11 31.4033 159.11 28.49V18.324H155.292V12.804H159.11V6.778H166.286V12.804H172.45V18.324H166.286V28.398C166.286 29.4407 166.546 30.2533 167.068 30.836C167.62 31.388 168.386 31.664 169.368 31.664C170.502 31.664 171.468 31.3573 172.266 30.744L174.198 35.804ZM202.341 12.252L191.163 38.518C190.028 41.37 188.618 43.3787 186.931 44.544C185.275 45.7093 183.266 46.292 180.905 46.292C179.617 46.292 178.344 46.0927 177.087 45.694C175.83 45.2953 174.802 44.7433 174.005 44.038L176.627 38.932C177.179 39.4227 177.808 39.806 178.513 40.082C179.249 40.358 179.97 40.496 180.675 40.496C181.656 40.496 182.454 40.2507 183.067 39.76C183.68 39.3 184.232 38.518 184.723 37.414L184.815 37.184L174.097 12.252H181.503L188.449 29.042L195.441 12.252H202.341ZM205.775 4.8H220.403C223.899 4.8 226.981 5.47466 229.649 6.824C232.348 8.14267 234.433 10.0133 235.905 12.436C237.408 14.8587 238.159 17.68 238.159 20.9C238.159 24.12 237.408 26.9413 235.905 29.364C234.433 31.7867 232.348 33.6727 229.649 35.022C226.981 36.3407 223.899 37 220.403 37H205.775V4.8ZM220.035 30.882C223.255 30.882 225.816 29.9927 227.717 28.214C229.649 26.4047 230.615 23.9667 230.615 20.9C230.615 17.8333 229.649 15.4107 227.717 13.632C225.816 11.8227 223.255 10.918 220.035 10.918H213.227V30.882H220.035Z" fill="url(#paint0_linear)"/>
<defs>
<linearGradient id="paint0_linear" x1="129" y1="-8" x2="129" y2="57.5" gradientUnits="userSpaceOnUse">
<stop stop-color="white"/>
<stop offset="1" stop-color="white" stop-opacity="0.21"/>
</linearGradient>
</defs>
</svg>
